<svg xmlns="http://www.w3.org/2000/svg" version="1.1" viewBox="0 0 3000 3000" width="3000" height="3000">
<defs/><!--ITEM: Illustration component 1--><g transform="translate(1303.125 260.625) rotate(0.0 615.0 1232.8125)  scale(6.15 6.1640625)"><svg width="200.0" height="400.0" viewBox="0.0 0.0 200.0 400.0"><linearGradient id="a-i1" gradientTransform="matrix(.1702 0 0 -.1702 -396.2191 -184.383)" gradientUnits="userSpaceOnUse" x1="2826.748" x2="3018.2227" y1="-3296.2417" y2="-3296.2417"><stop offset="0" stop-color="#a1c3fc" fill="#000000"/><stop offset="1" stop-color="#8ab8fd" fill="#000000"/></linearGradient><path d="m170.483 400h-141.423c-14.49 0-26.237-11.621-26.237-25.953v-348.093c0-14.334 11.746-25.953 26.237-25.953h141.422c14.49 0 26.237 11.62 26.237 25.953v348.094c.001 14.332-11.747 25.952-26.236 25.952z" fill="#c1d7fd"/><ellipse cx="71.914" cy="25.119" fill="#a1c3fc" rx="4.591" ry="4.541"/><path d="m170.483 0h-27.148c-1.392.857-2.761 1.736-4.101 2.624-35.569 23.556-66.161 56.908-78.064 97.58-4.799 16.394-6.46 33.511-10.109 50.193-8.351 38.196-26.96 73.455-48.236 106.401v117.248c0 14.334 11.746 25.953 26.237 25.953h141.422c14.49 0 26.237-11.621 26.237-25.953v-348.092c-.001-14.334-11.749-25.954-26.238-25.954z" fill="#a1c3fc"/><ellipse cx="101.188" cy="376.637" fill="url(#a-i1)" rx="16.295" ry="16.118"/><path d="m84.382 23.78 32.659-4.031.701 5.556-32.66 4.03z" fill="#a1c3fc"/><path d="m10.503 45.282h178.538v309.834h-178.538z" fill="#fff"/><ellipse cx="99.268" cy="374.738" fill="#c1d7fd" rx="12.454" ry="12.32"/><path d="m113.05 24.848h-26.837c-.531 0-.96-.425-.96-.949s.429-.949.96-.949h26.837c.531 0 .96.425.96.949s-.43.949-.96.949z" fill="#428dfc"/><ellipse cx="72.028" cy="24.567" fill="#428dfc" rx="3.15" ry="3.116"/><g fill="rgb(66,141,252)"><path d="m0 46.176h3.225v13.757h-3.225z"/><path d="m0 76.483h3.225v24.725h-3.225z"/><path d="m196.775 76.483h3.225v24.725h-3.225z"/><path d="m0 108.783h3.225v24.725h-3.225z"/></g><path d="m68.426 18.107 4.448 4.753-4.805 4.401-4.448-4.753z" fill="#fff"/><path d="m65.274 18.622 3.145 3.36-3.397 3.111-3.145-3.36z" fill="#a1c3fc"/></svg></g><!--ITEM: Illustration component 2--><g transform="translate(1689.375 840.0) rotate(0.0 229.6875 229.6875)  scale(4.59375 4.59375)"><svg width="100.0" height="100.0" viewBox="0.0 0.0 100.0 100.0"><circle fill="rgb(202,221,255)" cx="50" cy="50" r="50"/>
</svg></g><!--ITEM: Illustration component 3--><g transform="translate(1858.125 935.625) rotate(0.0 60.9375 60.9375)  scale(1.21875 1.21875)"><svg width="100.0" height="100.0" viewBox="0.0 0.0 100.0 100.0"><circle fill="#23286B" cx="50" cy="50" r="50"/>
</svg></g><!--ITEM: Illustration component 4--><g transform="translate(1818.75 1035.0) rotate(-138.32868623300382 104.0625 97.5)  scale(0.7576198814017743 0.7484570270519237)"><svg width="274.709" height="260.536" viewBox="0.0 0.0 274.709 260.536"><linearGradient id="a-i4" gradientUnits="userSpaceOnUse" x1="164.6197" x2="-51.8496" y1="131.6013" y2="44.7288"><stop offset="0" stop-color="#23286b" fill="#000000"/><stop offset="1" stop-color="#151a4f" fill="#000000"/></linearGradient><path d="m0 214.899c64.264 62.248 166.823 60.613 229.071-3.651 55.852-57.661 61.052-147.53 12.222-211.248" fill="url(#a-i4)"/><path d="m225.429 38.891c-.016.314.222.583.536.604.301.033.571-.184.604-.485.001-.01.002-.021.003-.031.016-.314-.222-.583-.536-.604-.31-.025-.582.206-.607.516zm.958-13.719c-.019.315.221.585.536.604s.585-.221.604-.536c.025-.31-.205-.582-.515-.607h-.001c-.316-.01-.588.224-.624.539zm.976-13.742c-.024.309.207.579.516.603.007.001.013.001.02.001.301.033.571-.184.604-.485.001-.01.002-.02.003-.031.01-.317-.224-.588-.539-.624-.314-.016-.583.222-.604.536zm24.129 17.811c.106.296.429.452.727.352.292-.095.452-.409.357-.701-.001-.002-.001-.004-.002-.006-.077-.291-.376-.465-.668-.388-.014.004-.028.008-.042.013-.294.111-.455.427-.372.73zm-4.357-13.066c.111.294.427.455.73.372.296-.106.452-.429.352-.727-.1-.296-.421-.455-.717-.355-.003.001-.007.002-.01.003-.292.095-.452.408-.357.7.001.003.002.005.002.007zm-4.354-13.045c.088.288.393.451.681.363.009-.003.017-.005.026-.008.299-.089.469-.403.381-.702-.003-.009-.006-.018-.009-.027-.103-.298-.428-.457-.726-.354s-.457.428-.354.726c-0-.001.001 0 .001.002zm-4.652 24.158c.074.275.35.444.629.386.265-.058.432-.32.373-.585-.002-.007-.003-.014-.005-.021-.058-.273-.326-.448-.599-.391-.003.001-.006.001-.009.002-.27.07-.439.336-.389.609zm-2.744-11.953c.067.268.337.432.606.368.265-.058.432-.32.374-.585-.002-.007-.003-.014-.005-.021-.058-.273-.326-.448-.6-.391-.003.001-.006.001-.009.002-.271.077-.433.354-.366.627zm9.88 3.216c.201.259.57.316.84.13.258-.201.304-.574.103-.832-.195-.25-.552-.302-.81-.119-.257.195-.315.556-.133.821zm-8.349-11.465c.194.257.555.315.82.133.264-.188.325-.555.137-.819s-.555-.325-.819-.137c-.001.001-.003.002-.005.003-.26.192-.319.556-.133.82zm-21.916 17.791c.091.308.402.497.718.435.309-.086.493-.404.415-.715-.068-.311-.375-.508-.686-.44-.004.001-.008.002-.011.003-.318.078-.513.398-.435.717-.001 0-.001 0-.001 0zm15.231-12.919c.186.267.553.335.823.153.264-.179.334-.538.156-.803-.164-.269-.515-.354-.784-.19-.007.004-.014.009-.021.014-.274.173-.357.535-.184.81.003.005.007.011.01.016z" fill="#fff" opacity=".86"/></svg></g><!--ITEM: Illustration component 5--><g transform="translate(1740.0 1560.0) rotate(0.0 215.625 269.0625)  scale(4.647591335273197 4.655664662369685)"><svg width="92.79" height="115.585" viewBox="0.0 0.0 92.79 115.585"><g fill="#e94a47"><path d="m31.566 54.426h38.623v7.314h-38.623z"/><path d="m92.79 57.508-24.352-14.06v28.12z"/><path d="m5.77 0h69.894v7.314h-69.894z"/><path d="m5.405 108.271h69.894v7.314h-69.894z"/><path d="m-54.136 54.136h115.585v7.314h-115.585z" transform="matrix(0 1 -1 0 61.449 54.136)"/><path d="m55.596 95.882h32.092v7.314h-32.092z" transform="matrix(0 1 -1 0 171.181 27.897)"/><path d="m55.961 12.389h32.092v7.314h-32.092z" transform="matrix(0 1 -1 0 88.053 -55.961)"/></g></svg></g><!--ITEM: Illustration component 6--><g transform="translate(474.375 684.375) rotate(0.0 420.9375 1020.9375)  scale(3.394657258064516 3.403125)"><svg width="248.0" height="600.0" viewBox="0.0 0.0 248.0 600.0"><linearGradient id="R_shoe_1_-i6" gradientUnits="userSpaceOnUse" x1="6376.3135" y1="9280.0176" x2="4682.6567" y2="8218.9297" gradientTransform="matrix(0.0741 0 0 0.0741 -230.5491 -49.4972)">
	<stop offset="0.1291" style="stop-color:#428DFC"/>
	<stop offset="0.9987" style="stop-color:#1D72D8"/>
</linearGradient>
<path id="R_shoe-i6" fill="url(#R_shoe_1_-i6)" d="M195.148,550.192h-38.444c0,0-20.036,18.868-41.526,28.07  c-21.49,9.2-27.937,21.622-27.937,21.622l125.728-0.004l-17.809-49.626"/>
<path id="L_shoe-i6" fill="#428DFC" d="M116.954,550.192l-40.475-0.004c0,0-17.41,18.99-38.902,28.191  C16.087,587.578,9.641,600,9.641,600l125.728-0.004L116.954,550.192"/>
<linearGradient id="R_hand_1_-i6" gradientUnits="userSpaceOnUse" x1="-4149.6216" y1="1658.4377" x2="-4031.4214" y2="2281.6724" gradientTransform="matrix(-0.0741 0 0 0.0741 -237.6964 -49.4972)">
	<stop offset="0" style="stop-color:#FFBEB6"/>
	<stop offset="1" style="stop-color:#F2A19C"/>
</linearGradient>
<path id="R_hand-i6" fill="url(#R_hand_1_-i6)" d="M70.604,141.81c0,0-11.769-6.099-13.07-12.682  c-1.102-5.571-11.659-11.262-11.659-11.262l8.797,17.534l4.636,9.821C59.308,145.219,73.581,163.788,70.604,141.81z"/>
<path id="phone-i6" fill="#23286B" d="M32.585,140.425l22.349-5.086c1.324-0.301,2.153-1.617,1.851-2.939  c-0.078-0.342-0.228-0.664-0.441-0.942L26.895,92.836c-0.594-0.779-1.595-1.131-2.547-0.896L1.867,97.51  c-1.318,0.327-2.121,1.658-1.794,2.975c0.082,0.332,0.233,0.642,0.442,0.913l29.579,38.138  C30.681,140.29,31.652,140.636,32.585,140.425z"/>
<linearGradient id="L_hand_1_-i6" gradientUnits="userSpaceOnUse" x1="-3710.6526" y1="2461.6775" x2="-4061.5891" y2="2808.113" gradientTransform="matrix(-0.0741 -7.542857e-004 -7.542857e-004 0.0741 -236.7857 -49.4683)">
	<stop offset="0" style="stop-color:#FFBEB6"/>
	<stop offset="1" style="stop-color:#F2A19C"/>
</linearGradient>
<path id="L_hand-i6" fill="url(#L_hand_1_-i6)" d="M64.498,144.076c0,0-7.087-4.01-9.826-8.676c0,0-4.198,0.973-6.817,1.397  c0,0-0.342-6.654-13.491-7.778c-11.856-1.014-10.293-3.588-17.629-5.984s-10.327-0.234-10.741,2.213c0,0,7.72,2.787,9.498,5.643  c1.778,2.856,3.902,9.842,10.336,12.102c6.433,2.259,29.072,5.03,33.699,19.911l0,0L64.498,144.076"/>
<linearGradient id="R_sleeve_1_-i6" gradientUnits="userSpaceOnUse" x1="-5136.7646" y1="1800.3082" x2="-4802.5239" y2="3105.9412" gradientTransform="matrix(-0.0741 0 0 0.0741 -237.6964 -49.4972)">
	<stop offset="0" style="stop-color:#23286B"/>
	<stop offset="0.361" style="stop-color:#1E2361"/>
	<stop offset="1" style="stop-color:#151A4F"/>
</linearGradient>
<path id="R_sleeve-i6" fill="url(#R_sleeve_1_-i6)" d="M60.472,182.348c0,0,4.529,9.368,20.373,10.016  c15.843,0.648,19.406,3.228,31.049,10.665c11.644,7.437,33.632,10.335,55.635-23.911c20.193-31.458,27.031-66.172,23.48-84.646  c-1.658-11.076-2.135-15.084-3.8-18.565c-0.227-0.474-7.112,4.137-8.922,5.348c-2.789,1.864-11.199,8.464-13.272,8.587  c-3.743,12.363-10.106,64.167-39.098,64.232c-30.474,0.069-54.133-16.956-54.133-16.956L60.472,182.348z"/>
<linearGradient id="R_trousers_1_-i6" gradientUnits="userSpaceOnUse" x1="1324.656" y1="3980.6438" x2="6463.1831" y2="6363.728" gradientTransform="matrix(0.0741 0 0 0.0741 -230.5491 -49.4972)">
	<stop offset="0" style="stop-color:#A1C3FC"/>
	<stop offset="0.6955" style="stop-color:#81AEF2"/>
	<stop offset="1" style="stop-color:#78A9EF"/>
</linearGradient>
<path id="R_trousers-i6" fill="url(#R_trousers_1_-i6)" d="M151.387,239.04c0,0-43.443,90.734-53.301,130.354  c-8.374,33.652,42.782,180.797,42.782,180.797h54.281c0,0,9.579-22.441-0.639-43.601c-10.218-21.159-4.47-26.289-5.109-42.96  c-0.639-16.672-1.916-42.317-14.688-70.53c-12.773-28.212,26.821-58.989,37.039-78.225c10.218-19.236,25.544-58.347,17.879-79.506  c0,0-38.216,2.033-40.771,2.675C186.307,238.687,151.387,239.038,151.387,239.04"/>
<path id="L_trousers-i6" fill="#A1C3FC" d="M242.365,216.923c-0.761,0.411-3.206,1.626-6.234,3.114  c-10.677,5.252-22.675,7.217-34.472,5.647l-45.114-6.018c-1.412,20.224-22.04,79.811-22.04,79.811  c-9.03,22.797-19.575,65.683-29.372,98.604c-10.079,33.868-32.689,136.538-36.457,152.111h48.275  c20.729-17.328,26.019-38.958,37.506-73.568c14.064-42.367,16.853-26.707,26.248-68.185c9.392-41.464,8.135-33.001,37.746-87.574  C247.302,267.688,243.376,219.013,242.365,216.923z"/>
<path id="texture-i6" opacity="0.86" fill="#FFFFFF" enable-background="new    " d="M209.229,254.869  c-0.163-0.065-0.346,0.015-0.41,0.179l0,0c-0.071,0.152-0.004,0.333,0.148,0.403c0.004,0.001,0.006,0.002,0.01,0.004  c0.163,0.065,0.346-0.015,0.41-0.179c0,0,0,0,0-0.001C209.45,255.121,209.382,254.942,209.229,254.869z M202.211,251.993  c-0.163-0.064-0.346,0.016-0.41,0.179c-0.065,0.161,0.016,0.346,0.179,0.41c0.163,0.064,0.346-0.016,0.41-0.179  C202.448,252.241,202.369,252.062,202.211,251.993z M195.213,249.119c-0.163-0.064-0.346,0.016-0.41,0.179s0.016,0.346,0.179,0.41  c0.152,0.061,0.323-0.013,0.385-0.164c0.002-0.005,0.004-0.011,0.006-0.016c0.075-0.142,0.02-0.316-0.12-0.391  C195.238,249.129,195.225,249.124,195.213,249.119L195.213,249.119z M188.194,246.243c-0.168-0.053-0.346,0.039-0.399,0.207  c-0.048,0.152,0.023,0.315,0.168,0.382c0.163,0.064,0.346-0.016,0.41-0.179C188.436,246.492,188.357,246.307,188.194,246.243z   M181.195,243.37c-0.163-0.064-0.346,0.016-0.41,0.179c-0.064,0.162,0.016,0.346,0.179,0.41c0.163,0.064,0.346-0.016,0.41-0.179  C181.439,243.618,181.358,243.434,181.195,243.37L181.195,243.37L181.195,243.37z M186.91,277.633  c-0.067-0.157-0.248-0.23-0.405-0.163c-0.157,0.067-0.23,0.248-0.164,0.405c0.067,0.157,0.248,0.23,0.405,0.163l0,0  C186.904,277.971,186.977,277.791,186.91,277.633L186.91,277.633L186.91,277.633z M183.996,270.654  c-0.055-0.152-0.222-0.232-0.374-0.177c-0.011,0.004-0.022,0.009-0.033,0.013c-0.16,0.061-0.243,0.24-0.184,0.403  c0.077,0.157,0.263,0.229,0.427,0.165C183.99,270.994,184.063,270.812,183.996,270.654L183.996,270.654L183.996,270.654z   M181.084,263.677c-0.074-0.16-0.256-0.241-0.425-0.187c-0.157,0.077-0.229,0.263-0.166,0.426c0.067,0.157,0.248,0.23,0.405,0.163  l0,0C181.059,264.018,181.141,263.84,181.084,263.677L181.084,263.677z M178.151,256.677c-0.067-0.157-0.248-0.23-0.405-0.163l0,0  c-0.159,0.076-0.232,0.263-0.166,0.426c0.067,0.157,0.248,0.23,0.405,0.163l0,0C178.144,257.027,178.217,256.84,178.151,256.677  L178.151,256.677z M154.849,277.547c-0.157-0.058-0.332,0.024-0.389,0.181c-0.075,0.142-0.02,0.316,0.12,0.391  c0.011,0.006,0.024,0.011,0.037,0.016c0.163,0.064,0.346-0.016,0.41-0.179C155.093,277.796,155.012,277.611,154.849,277.547  L154.849,277.547z M197.635,265.366c-0.12-0.118-0.312-0.115-0.43,0.005s-0.115,0.311,0.005,0.429  c0.12,0.118,0.312,0.115,0.43-0.005l0,0c0.118-0.108,0.125-0.291,0.017-0.408C197.651,265.381,197.643,265.372,197.635,265.366  L197.635,265.366z M192.266,260.02c-0.12-0.115-0.312-0.114-0.43,0.005c-0.047,0.049-0.078,0.113-0.088,0.18  c-0.016,0.1,0.017,0.2,0.092,0.27c0.013,0.018,0.037,0.029,0.06,0.029l0.022,0.002c0.11,0.074,0.257,0.059,0.349-0.038  c0.124-0.118,0.129-0.314,0.01-0.439C192.274,260.027,192.27,260.023,192.266,260.02L192.266,260.02z M186.894,254.694  c-0.12-0.116-0.312-0.115-0.43,0.005c-0.118,0.12-0.115,0.311,0.005,0.429c0.114,0.121,0.304,0.129,0.426,0.016  c0.124-0.118,0.129-0.314,0.01-0.439C186.901,254.702,186.898,254.698,186.894,254.694L186.894,254.694z M181.524,249.347  c-0.12-0.115-0.312-0.114-0.43,0.005c-0.124,0.118-0.129,0.314-0.01,0.439c0.004,0.004,0.007,0.007,0.011,0.011  c0.108,0.118,0.291,0.125,0.408,0.017c0.007-0.007,0.015-0.013,0.022-0.022c0.124-0.12,0.126-0.317,0.006-0.442  C181.529,249.352,181.527,249.35,181.524,249.347L181.524,249.347z M170.775,276.644c-0.177,0-0.321,0.145-0.321,0.322  c0,0.176,0.142,0.32,0.318,0.321c0.177,0,0.321-0.145,0.321-0.322C171.093,276.789,170.951,276.645,170.775,276.644z   M170.751,269.081c-0.176,0.004-0.318,0.145-0.323,0.32c-0.001,0.164,0.131,0.3,0.297,0.303c0.009,0,0.017,0,0.027-0.001  c0.171,0.006,0.315-0.128,0.32-0.298l0,0C171.062,269.23,170.923,269.093,170.751,269.081L170.751,269.081z M227.955,279.088  c-0.24-0.218-0.611-0.201-0.829,0.039c-0.005,0.005-0.01,0.01-0.013,0.016c-0.212,0.24-0.187,0.608,0.055,0.818  c0.001,0.001,0.002,0.002,0.004,0.004c0.24,0.218,0.611,0.201,0.829-0.039c0.005-0.005,0.01-0.01,0.013-0.016  c0.212-0.24,0.187-0.607-0.053-0.818C227.959,279.09,227.956,279.089,227.955,279.088L227.955,279.088z M217.106,269.664  c-0.241-0.212-0.609-0.187-0.819,0.054c-0.001,0.001-0.002,0.002-0.004,0.004c-0.218,0.248-0.194,0.626,0.055,0.842  c0.248,0.218,0.626,0.194,0.843-0.054C217.386,270.254,217.352,269.881,217.106,269.664L217.106,269.664z M206.275,260.264  c-0.248-0.218-0.626-0.192-0.844,0.054c-0.218,0.248-0.192,0.626,0.055,0.844c0.247,0.218,0.626,0.192,0.843-0.054l0,0  c0.218-0.239,0.202-0.61-0.038-0.828C206.286,260.275,206.28,260.269,206.275,260.264L206.275,260.264z M195.442,250.865  c-0.24-0.218-0.611-0.201-0.829,0.039c-0.005,0.005-0.008,0.01-0.013,0.016c-0.136,0.143-0.187,0.347-0.139,0.538l0.022,0.002  c0.023,0.116,0.083,0.223,0.172,0.303c0.057,0.05,0.127,0.083,0.202,0.092c0.299,0.118,0.639-0.029,0.757-0.329  C195.704,251.291,195.635,251.026,195.442,250.865L195.442,250.865z M184.284,315.304c-0.327,0.023-0.576,0.303-0.558,0.63  c0.016,0.315,0.286,0.556,0.601,0.539c0.01,0,0.022-0.001,0.032-0.002c0.327-0.023,0.576-0.303,0.558-0.63  C184.892,315.518,184.608,315.277,184.284,315.304C184.285,315.304,184.285,315.304,184.284,315.304L184.284,315.304z   M183.268,300.985c-0.323,0.027-0.564,0.309-0.538,0.632c0,0,0,0,0,0.001c0.02,0.328,0.301,0.577,0.63,0.558  c0.328-0.02,0.578-0.301,0.558-0.63l0,0C183.88,301.218,183.597,300.976,183.268,300.985L183.268,300.985z M182.27,286.67  c-0.328,0.038-0.573,0.321-0.562,0.651c0.016,0.315,0.286,0.556,0.601,0.539c0.01,0,0.022-0.001,0.032-0.002  c0.323-0.013,0.573-0.287,0.561-0.608c0-0.007-0.001-0.013-0.001-0.022C182.878,286.903,182.598,286.654,182.27,286.67  L182.27,286.67z M181.249,272.373c-0.323,0.027-0.564,0.309-0.538,0.632c0,0,0,0,0,0.001c0.023,0.328,0.306,0.575,0.634,0.554  c0.328-0.023,0.576-0.306,0.554-0.633c-0.023-0.328-0.306-0.576-0.634-0.554C181.261,272.373,181.255,272.373,181.249,272.373z   M180.253,258.059c-0.328,0.032-0.569,0.324-0.537,0.652c0.032,0.32,0.31,0.556,0.628,0.538c0.316-0.016,0.556-0.286,0.54-0.601  c0-0.01-0.001-0.022-0.002-0.032C180.86,258.291,180.58,258.043,180.253,258.059L180.253,258.059z M234.199,254.445  c-0.311-0.105-0.648,0.059-0.758,0.367c-0.108,0.31,0.057,0.649,0.367,0.757c0.311,0.108,0.65-0.057,0.758-0.367  C234.674,254.893,234.511,254.554,234.199,254.445L234.199,254.445z M220.573,249.906c-0.295-0.106-0.621,0.047-0.727,0.342  c-0.004,0.008-0.006,0.017-0.009,0.027c-0.113,0.301,0.042,0.637,0.344,0.75c0.301,0.113,0.638-0.042,0.751-0.343  c0.005-0.012,0.009-0.027,0.012-0.039c0.106-0.295-0.047-0.622-0.344-0.726C220.59,249.911,220.581,249.908,220.573,249.906z   M212.484,301.02c-0.141-0.303-0.5-0.434-0.802-0.293c-0.303,0.141-0.434,0.499-0.293,0.801s0.5,0.434,0.802,0.293  c0.004-0.001,0.007-0.004,0.011-0.005C212.496,301.67,212.62,301.318,212.484,301.02L212.484,301.02z M206.072,288.184  c-0.141-0.303-0.5-0.434-0.802-0.293c-0.303,0.141-0.434,0.499-0.293,0.801c0.141,0.303,0.5,0.434,0.802,0.293  c0.004-0.001,0.007-0.004,0.011-0.005C206.084,288.835,206.21,288.482,206.072,288.184L206.072,288.184z M199.661,275.349  c-0.16-0.291-0.521-0.405-0.822-0.263c-0.295,0.156-0.408,0.521-0.252,0.815c0.15,0.284,0.497,0.402,0.789,0.266  C199.67,276.009,199.796,275.653,199.661,275.349L199.661,275.349z M193.226,262.53c-0.136-0.295-0.485-0.424-0.781-0.289  c-0.295,0.136-0.425,0.485-0.289,0.78c0.004,0.009,0.009,0.017,0.012,0.025c0.142,0.291,0.493,0.41,0.784,0.268  c0.005-0.002,0.01-0.005,0.016-0.007c0.282-0.129,0.404-0.463,0.276-0.745C193.237,262.552,193.232,262.541,193.226,262.53  L193.226,262.53z M186.815,249.693c-0.151-0.289-0.507-0.4-0.795-0.25c-0.278,0.146-0.393,0.482-0.262,0.767  c0.147,0.293,0.498,0.416,0.797,0.282c0.292-0.145,0.41-0.497,0.266-0.789C186.819,249.701,186.816,249.698,186.815,249.693  L186.815,249.693z M157.345,305.026c-0.297-0.105-0.621,0.05-0.726,0.347c-0.005,0.013-0.01,0.029-0.013,0.044  c-0.103,0.303,0.06,0.632,0.363,0.735c0.002,0.001,0.004,0.001,0.006,0.003c0.311,0.105,0.648-0.059,0.758-0.367  C157.821,305.472,157.653,305.141,157.345,305.026z M161.908,291.437c-0.306-0.11-0.644,0.049-0.755,0.355  c-0.001,0.004-0.002,0.006-0.004,0.01c-0.105,0.31,0.059,0.647,0.366,0.757c0.316,0.087,0.645-0.081,0.761-0.387  c0.103-0.303-0.06-0.632-0.363-0.735C161.914,291.439,161.911,291.439,161.908,291.437z M166.453,277.825  c-0.311-0.105-0.648,0.059-0.758,0.367c-0.109,0.306,0.052,0.642,0.359,0.751c0.009,0.004,0.019,0.006,0.029,0.008  c0.295,0.106,0.622-0.047,0.727-0.342c0.004-0.008,0.006-0.017,0.008-0.027C166.924,278.271,166.761,277.935,166.453,277.825  L166.453,277.825z M170.997,264.211c-0.312-0.092-0.64,0.081-0.741,0.39c-0.106,0.295,0.047,0.622,0.342,0.726  c0.008,0.004,0.017,0.006,0.027,0.008c0.311,0.105,0.648-0.059,0.758-0.367C171.481,264.654,171.31,264.319,170.997,264.211  L170.997,264.211z M242.792,247.666c-0.065,0.059-0.113,0.134-0.137,0.217c-0.025,0.141,0.009,0.286,0.095,0.399  C242.758,248.068,242.767,247.855,242.792,247.666L242.792,247.666z M224.795,294.478c-0.153-0.247-0.479-0.323-0.726-0.17  c-0.247,0.153-0.323,0.479-0.17,0.725c0.001,0.003,0.003,0.004,0.004,0.006c0.157,0.245,0.482,0.316,0.729,0.159  C224.874,295.044,224.947,294.722,224.795,294.478z M218.002,283.623c-0.154-0.246-0.48-0.321-0.727-0.164  c-0.246,0.154-0.321,0.48-0.165,0.726c0.156,0.247,0.48,0.321,0.727,0.164l0,0c0.245-0.147,0.323-0.463,0.177-0.708  C218.01,283.635,218.007,283.629,218.002,283.623z M211.212,272.747c-0.04-0.091-0.115-0.163-0.208-0.2l-0.02-0.002  c-0.163-0.071-0.349-0.058-0.498,0.038c-0.252,0.158-0.329,0.49-0.171,0.744c0.001,0.001,0.002,0.004,0.002,0.005  c0.157,0.242,0.48,0.316,0.727,0.164c0.115-0.067,0.194-0.181,0.215-0.312C211.318,273.038,211.301,272.876,211.212,272.747  L211.212,272.747z M204.419,261.893c-0.157-0.245-0.48-0.317-0.727-0.164c-0.252,0.154-0.329,0.485-0.175,0.736  c0.154,0.251,0.482,0.329,0.734,0.176c0.252-0.158,0.329-0.491,0.171-0.744C204.422,261.895,204.421,261.894,204.419,261.893z   M197.647,251.04c-0.166-0.245-0.495-0.317-0.748-0.167c-0.248,0.162-0.318,0.492-0.156,0.741c0.154,0.238,0.469,0.312,0.715,0.172  C197.708,251.626,197.792,251.3,197.647,251.04L197.647,251.04z M171.267,303.117c-0.284-0.066-0.567,0.111-0.633,0.395  c-0.001,0.004-0.001,0.006-0.002,0.01c-0.074,0.272,0.088,0.554,0.362,0.626c0.007,0.002,0.015,0.004,0.023,0.005  c0.291,0.061,0.578-0.115,0.655-0.402C171.723,303.466,171.546,303.191,171.267,303.117z M174.153,290.645  c-0.284-0.066-0.568,0.111-0.633,0.395c-0.001,0.004-0.001,0.006-0.003,0.01c-0.074,0.272,0.088,0.554,0.363,0.626  c0.007,0.002,0.015,0.004,0.022,0.005c0.281,0.067,0.562-0.105,0.632-0.384C174.604,291.012,174.436,290.724,174.153,290.645  L174.153,290.645z M177.038,278.174c-0.284-0.066-0.568,0.111-0.633,0.395c-0.001,0.002-0.001,0.006-0.002,0.008  c-0.078,0.263,0.072,0.54,0.335,0.62c0.016,0.005,0.032,0.009,0.048,0.011c0.284,0.066,0.567-0.111,0.633-0.395  c0.001-0.004,0.001-0.006,0.002-0.01C177.483,278.525,177.314,278.249,177.038,278.174L177.038,278.174z M179.902,265.698  c-0.286-0.052-0.562,0.124-0.635,0.405c-0.063,0.288,0.121,0.571,0.41,0.633c0.278,0.06,0.552-0.109,0.627-0.382  C180.366,266.064,180.19,265.776,179.902,265.698L179.902,265.698z M182.808,253.23c-0.291-0.061-0.578,0.115-0.655,0.402  c-0.065,0.287,0.116,0.571,0.403,0.636c0.287,0.065,0.572-0.116,0.637-0.403c0-0.001,0-0.002,0.001-0.004  C183.245,253.584,183.08,253.311,182.808,253.23L182.808,253.23z M229.877,263.828c-0.236-0.171-0.565-0.119-0.736,0.116  c-0.004,0.005-0.007,0.01-0.011,0.015c-0.17,0.219-0.131,0.533,0.087,0.703c0.009,0.006,0.017,0.012,0.027,0.018  c0.227,0.176,0.554,0.136,0.73-0.092c0.005-0.006,0.01-0.012,0.013-0.018C230.156,264.333,230.108,264.006,229.877,263.828z   M219.438,256.387c-0.246-0.158-0.571-0.1-0.747,0.132c-0.169,0.242-0.109,0.576,0.132,0.746c0.248,0.16,0.582,0.089,0.744-0.158  C219.72,256.871,219.665,256.557,219.438,256.387z M208.997,248.97c-0.236-0.175-0.568-0.125-0.744,0.109  c0,0.001-0.001,0.001-0.001,0.002c-0.158,0.246-0.1,0.57,0.132,0.746c0.243,0.169,0.577,0.109,0.747-0.134  c0.165-0.228,0.114-0.546-0.113-0.71C209.011,248.978,209.004,248.973,208.997,248.97z M198.527,297.462  c-0.286,0.064-0.473,0.337-0.43,0.626c0.049,0.286,0.321,0.475,0.606,0.426c0.288-0.045,0.486-0.312,0.447-0.602  C199.1,297.618,198.822,297.418,198.527,297.462z M196.416,284.837c-0.286,0.064-0.473,0.337-0.43,0.626  c0.049,0.286,0.321,0.475,0.606,0.426c0.278-0.039,0.471-0.297,0.432-0.573c-0.001-0.01-0.004-0.02-0.005-0.032  C196.974,284.996,196.706,284.797,196.416,284.837z M194.305,272.23c-0.278,0.039-0.471,0.297-0.432,0.573  c0.001,0.01,0.004,0.022,0.005,0.032c0.05,0.286,0.322,0.475,0.608,0.424c0.284-0.049,0.474-0.32,0.426-0.603  c-0.039-0.277-0.297-0.471-0.574-0.433C194.326,272.226,194.315,272.228,194.305,272.23L194.305,272.23z M192.196,259.603  c-0.288,0.045-0.486,0.312-0.447,0.602c0.02,0.113,0.074,0.217,0.151,0.299l0.022,0.002c0.121,0.114,0.292,0.16,0.454,0.126  c0.286-0.048,0.476-0.32,0.429-0.604c-0.048-0.285-0.32-0.476-0.605-0.428C192.197,259.603,192.196,259.603,192.196,259.603z   M190.086,246.975c-0.094,0.01-0.182,0.05-0.252,0.115c-0.025,0.111-0.093,0.211-0.187,0.273c-0.012,0.07-0.016,0.142-0.007,0.213  c0.046,0.288,0.313,0.486,0.603,0.447c0.294-0.05,0.495-0.328,0.452-0.623C190.64,247.117,190.371,246.928,190.086,246.975  L190.086,246.975z M151.062,286.939c-0.239-0.168-0.565-0.119-0.745,0.111c-0.171,0.235-0.119,0.565,0.116,0.736  c0.005,0.004,0.01,0.007,0.015,0.01c0.218,0.17,0.534,0.13,0.703-0.087c0.006-0.009,0.012-0.017,0.019-0.027  c0.176-0.227,0.136-0.554-0.093-0.729C151.075,286.949,151.068,286.944,151.062,286.939L151.062,286.939z M158.488,276.508  c-0.248-0.16-0.582-0.089-0.744,0.159c-0.153,0.235-0.098,0.55,0.129,0.719c0.243,0.164,0.574,0.106,0.747-0.132  c0.172-0.23,0.124-0.557-0.106-0.728C158.505,276.52,158.496,276.515,158.488,276.508L158.488,276.508z M180.829,245.247  c-0.246-0.158-0.571-0.1-0.747,0.134c-0.169,0.243-0.109,0.576,0.134,0.746c0.248,0.16,0.582,0.089,0.743-0.159  C181.108,245.729,181.053,245.415,180.829,245.247z M223.813,263.032c-0.118-0.129-0.318-0.137-0.447-0.018  c-0.13,0.118-0.137,0.317-0.019,0.447c0.118,0.129,0.318,0.137,0.447,0.018l0,0C223.917,263.359,223.927,263.163,223.813,263.032  L223.813,263.032z M218.66,257.522c-0.118-0.129-0.318-0.137-0.447-0.018c-0.13,0.118-0.137,0.317-0.019,0.447  c0.118,0.129,0.318,0.137,0.447,0.018l0,0C218.764,257.849,218.773,257.653,218.66,257.522L218.66,257.522z M213.487,251.989  c-0.114-0.121-0.304-0.129-0.426-0.016c-0.129,0.098-0.152,0.282-0.055,0.409c0.01,0.013,0.023,0.027,0.035,0.038  c0.114,0.121,0.304,0.129,0.426,0.016c0.129-0.1,0.151-0.286,0.05-0.413C213.509,252.011,213.499,251.999,213.487,251.989  L213.487,251.989z M193.79,274.086c-0.171-0.006-0.315,0.128-0.32,0.299s0.129,0.314,0.299,0.32s0.315-0.128,0.32-0.299  C194.094,274.235,193.961,274.092,193.79,274.086L193.79,274.086L193.79,274.086z M194.043,266.541  c-0.164-0.012-0.306,0.11-0.32,0.275c0,0.007-0.001,0.015-0.001,0.024c-0.006,0.171,0.129,0.314,0.298,0.32l0,0  c0.175,0.008,0.324-0.121,0.34-0.295c0.002-0.175-0.137-0.32-0.312-0.323C194.048,266.541,194.045,266.541,194.043,266.541  L194.043,266.541z M194.315,258.996c-0.164-0.012-0.306,0.11-0.32,0.275c0,0.007-0.001,0.016-0.001,0.024  c-0.006,0.171,0.129,0.314,0.299,0.32c0.171,0.005,0.315-0.128,0.32-0.299C194.619,259.144,194.486,259.003,194.315,258.996  L194.315,258.996z M194.567,251.45c-0.029-0.007-0.06-0.004-0.087,0.008l-0.022-0.002c-0.121,0.047-0.206,0.16-0.212,0.293  c-0.006,0.171,0.129,0.314,0.298,0.32l0,0c0.137-0.004,0.257-0.087,0.309-0.215l0.011-0.083c0.012-0.163-0.11-0.306-0.276-0.32  C194.584,251.45,194.575,251.45,194.567,251.45L194.567,251.45z M181.623,245.55c-0.114-0.121-0.304-0.129-0.426-0.016  c-0.124,0.12-0.132,0.316-0.019,0.447c0.121,0.121,0.316,0.13,0.447,0.018c0.124-0.12,0.126-0.317,0.006-0.442  C181.628,245.555,181.625,245.552,181.623,245.55L181.623,245.55z M208.947,267.744c-0.049-0.157-0.218-0.245-0.375-0.195  c-0.009,0.002-0.019,0.006-0.028,0.01c-0.159,0.054-0.245,0.227-0.19,0.386c0.001,0.005,0.004,0.011,0.006,0.016  c0.07,0.153,0.242,0.232,0.403,0.184C208.924,268.086,209.006,267.906,208.947,267.744L208.947,267.744z M206.286,260.652  c-0.06-0.154-0.233-0.23-0.387-0.171c-0.006,0.002-0.012,0.005-0.019,0.007c-0.158,0.065-0.24,0.24-0.184,0.403  c0.07,0.153,0.242,0.232,0.403,0.184c0.166-0.059,0.252-0.238,0.195-0.404C206.291,260.664,206.288,260.658,206.286,260.652  L206.286,260.652z M203.641,253.584c-0.07-0.153-0.242-0.232-0.403-0.184c-0.16,0.061-0.243,0.24-0.184,0.403  c0.049,0.157,0.218,0.245,0.375,0.195c0.01-0.002,0.019-0.006,0.028-0.01c0.159-0.054,0.245-0.227,0.19-0.386  C203.646,253.593,203.644,253.588,203.641,253.584L203.641,253.584z M200.997,246.515c-0.07-0.153-0.242-0.232-0.403-0.184  c-0.16,0.063-0.243,0.24-0.184,0.403c0.049,0.157,0.218,0.245,0.375,0.195c0.01-0.002,0.019-0.006,0.028-0.01  C200.975,246.856,201.056,246.676,200.997,246.515L200.997,246.515z M179.857,266.806c-0.141-0.075-0.317-0.02-0.392,0.12  c-0.006,0.012-0.011,0.024-0.016,0.038c-0.069,0.156,0.001,0.338,0.158,0.408s0.338-0.001,0.408-0.158  C180.083,267.057,180.012,266.875,179.857,266.806z M182.995,259.937c-0.141-0.075-0.317-0.022-0.392,0.12  c-0.006,0.012-0.011,0.024-0.016,0.038c-0.075,0.148-0.013,0.329,0.135,0.403c0.001,0,0.001,0.001,0.002,0.001  c0.16,0.074,0.352,0.005,0.429-0.154c0.071-0.152,0.004-0.333-0.148-0.403C183.002,259.94,182.998,259.939,182.995,259.937  L182.995,259.937z M186.133,253.067c-0.154-0.076-0.342-0.016-0.426,0.135c-0.076,0.16-0.006,0.353,0.154,0.428  c0.16,0.076,0.354,0.006,0.429-0.154C186.354,253.319,186.284,253.141,186.133,253.067L186.133,253.067z M189.401,246.346  l0.003-0.022c-0.033-0.065-0.084-0.118-0.151-0.15c-0.156-0.063-0.334,0.006-0.408,0.158c-0.029,0.05-0.037,0.111-0.023,0.168  c0.011,0.111,0.078,0.21,0.179,0.26c0.152,0.071,0.332,0.004,0.403-0.148c0.001-0.004,0.002-0.006,0.005-0.01  C189.459,246.525,189.456,246.422,189.401,246.346L189.401,246.346z M229.299,270.473c-0.098-0.16-0.309-0.213-0.469-0.115  c-0.004,0.001-0.006,0.004-0.009,0.006c-0.166,0.096-0.223,0.309-0.126,0.476c0.005,0.007,0.009,0.015,0.013,0.023  c0.098,0.16,0.309,0.213,0.469,0.115c0.002-0.001,0.006-0.004,0.009-0.006C229.354,270.863,229.403,270.641,229.299,270.473  L229.299,270.473z M224.647,263.211c-0.098-0.16-0.309-0.213-0.469-0.115c-0.004,0.001-0.006,0.004-0.009,0.006  c-0.169,0.106-0.219,0.331-0.111,0.499s0.33,0.219,0.5,0.111c0.163-0.103,0.21-0.316,0.106-0.479  C224.657,263.226,224.652,263.219,224.647,263.211L224.647,263.211z M220.013,255.953c-0.106-0.169-0.329-0.221-0.498-0.114  c-0.169,0.106-0.221,0.329-0.114,0.497c0,0.001,0.001,0.001,0.001,0.002c-0.002,0.022,0.017,0.024,0.037,0.048  c0.121,0.124,0.312,0.151,0.463,0.065C220.067,256.344,220.117,256.123,220.013,255.953L220.013,255.953z M215.358,248.693  l-0.072-0.096c-0.022-0.002-0.039-0.027-0.081-0.033c-0.109-0.06-0.242-0.053-0.345,0.016c-0.169,0.106-0.218,0.33-0.111,0.499  c0.106,0.168,0.33,0.218,0.5,0.111C215.416,249.084,215.467,248.861,215.358,248.693L215.358,248.693z M193.324,276.677  c-0.192-0.025-0.374,0.096-0.425,0.284c-0.042,0.189,0.075,0.376,0.263,0.421c0.175,0.052,0.36-0.047,0.413-0.223  c0.004-0.012,0.007-0.027,0.009-0.04c0.05-0.194-0.065-0.391-0.258-0.442C193.325,276.678,193.325,276.678,193.324,276.677  L193.324,276.677z M195.176,268.26c-0.192-0.025-0.374,0.096-0.425,0.284c-0.042,0.189,0.075,0.376,0.262,0.421  c0.194,0.05,0.392-0.065,0.442-0.257c0-0.001,0-0.001,0.001-0.002C195.492,268.507,195.369,268.315,195.176,268.26L195.176,268.26z   M197.028,259.842c-0.192-0.025-0.374,0.096-0.425,0.284c-0.042,0.189,0.075,0.376,0.262,0.421c0.179,0.05,0.364-0.052,0.414-0.23  c0.005-0.017,0.008-0.035,0.01-0.053C197.334,260.075,197.217,259.888,197.028,259.842L197.028,259.842z M198.881,251.426  c-0.195-0.033-0.382,0.091-0.425,0.284c-0.043,0.189,0.075,0.376,0.262,0.421c0.177,0.05,0.364-0.052,0.414-0.23  c0.005-0.017,0.009-0.036,0.01-0.053C199.186,251.659,199.069,251.471,198.881,251.426z M238.937,254.607  c-0.157-0.118-0.38-0.086-0.497,0.071c-0.002,0.002-0.005,0.006-0.006,0.01c-0.106,0.163-0.072,0.381,0.08,0.504  c0.16,0.113,0.384,0.075,0.497-0.086c0.004-0.005,0.006-0.01,0.01-0.015C239.13,254.933,239.093,254.718,238.937,254.607  L238.937,254.607z M231.86,249.668c-0.163-0.113-0.386-0.077-0.505,0.08c-0.113,0.16-0.075,0.384,0.086,0.496  c0.005,0.004,0.01,0.006,0.015,0.01c0.157,0.109,0.373,0.072,0.482-0.083C232.054,250.009,232.019,249.787,231.86,249.668  L231.86,249.668z M211.413,272.84c-0.028-0.191-0.207-0.323-0.398-0.294c-0.004,0-0.007,0.001-0.012,0.002l-0.02-0.002  c-0.184,0.045-0.301,0.226-0.272,0.411c0.028,0.191,0.207,0.323,0.398,0.294c0.004,0,0.007-0.001,0.012-0.002  c0.049-0.013,0.096-0.037,0.139-0.067C211.378,273.113,211.441,272.975,211.413,272.84L211.413,272.84z M209.48,264.048  c-0.194,0.047-0.321,0.233-0.295,0.43c0.052,0.19,0.24,0.309,0.434,0.273c0.187-0.037,0.31-0.219,0.273-0.408  c0-0.001-0.001-0.004-0.001-0.005C209.857,264.148,209.675,264.017,209.48,264.048z M207.975,255.574  c-0.194,0.032-0.324,0.216-0.293,0.409c0.033,0.194,0.216,0.324,0.409,0.293c0.194-0.032,0.324-0.216,0.293-0.409l0,0  c-0.029-0.191-0.207-0.323-0.398-0.294C207.982,255.573,207.978,255.573,207.975,255.574L207.975,255.574z M206.447,247.097  c-0.187,0.038-0.31,0.221-0.273,0.408c0,0.001,0,0.002,0.001,0.005c0.027,0.181,0.195,0.305,0.376,0.278  c0.012-0.001,0.024-0.004,0.035-0.007c0.194-0.033,0.324-0.216,0.293-0.409c-0.043-0.195-0.236-0.317-0.431-0.275  C206.449,247.096,206.449,247.096,206.447,247.097L206.447,247.097z M178.947,265.78c-0.153-0.108-0.365-0.07-0.473,0.083  c-0.005,0.006-0.009,0.013-0.012,0.02c-0.109,0.157-0.072,0.371,0.083,0.482c0.157,0.118,0.38,0.086,0.497-0.071  c0.003-0.004,0.005-0.006,0.007-0.01C179.159,266.119,179.114,265.894,178.947,265.78L178.947,265.78z M183.892,258.713  c-0.169-0.11-0.394-0.065-0.507,0.101c-0.108,0.153-0.07,0.365,0.083,0.473c0.006,0.005,0.013,0.008,0.02,0.012  c0.145,0.113,0.353,0.086,0.465-0.059c0.006-0.007,0.012-0.016,0.017-0.025C184.088,259.055,184.054,258.83,183.892,258.713  C183.894,258.713,183.894,258.713,183.892,258.713L183.892,258.713z M188.839,251.643c-0.16-0.113-0.385-0.075-0.497,0.086  c-0.004,0.005-0.006,0.01-0.01,0.015c-0.109,0.163-0.065,0.385,0.099,0.494c0.16,0.106,0.377,0.067,0.488-0.091  C189.026,251.983,188.991,251.766,188.839,251.643L188.839,251.643z M241.914,249.836c-0.276-0.194-0.655-0.132-0.856,0.14  c-0.196,0.278-0.131,0.664,0.147,0.86c0.268,0.19,0.64,0.136,0.843-0.124C242.243,250.43,242.183,250.047,241.914,249.836  L241.914,249.836z M224.189,308.292c-0.335,0.052-0.569,0.363-0.527,0.698c0.057,0.332,0.369,0.557,0.702,0.504  c0.333-0.056,0.564-0.363,0.526-0.698C224.835,308.464,224.521,308.239,224.189,308.292L224.189,308.292z M221.882,293.689  c-0.333,0.054-0.558,0.369-0.505,0.702c0.055,0.333,0.369,0.558,0.702,0.504c0.333-0.054,0.558-0.369,0.505-0.702  C222.527,293.861,222.214,293.635,221.882,293.689L221.882,293.689z M219.595,279.089c-0.333,0.042-0.569,0.346-0.528,0.679  c0.041,0.333,0.346,0.568,0.68,0.527c0.009-0.001,0.016-0.002,0.025-0.004c0.335-0.052,0.569-0.363,0.527-0.698  C220.242,279.261,219.928,279.037,219.595,279.089L219.595,279.089z M217.287,264.485c-0.329,0.05-0.556,0.359-0.507,0.689  c0,0.004,0.001,0.009,0.002,0.012c0.055,0.333,0.369,0.558,0.702,0.504c0.333-0.054,0.558-0.369,0.505-0.702l0,0  c-0.05-0.329-0.359-0.556-0.69-0.507C217.296,264.484,217.292,264.485,217.287,264.485L217.287,264.485z M215.001,249.886  c-0.332,0.052-0.557,0.364-0.506,0.696c0.052,0.326,0.355,0.551,0.682,0.507c0.335-0.052,0.569-0.363,0.527-0.698  C215.648,250.056,215.334,249.832,215.001,249.886L215.001,249.886z M164.09,293.793c-0.279-0.196-0.664-0.13-0.861,0.147  c-0.19,0.268-0.136,0.639,0.124,0.842c0.282,0.194,0.667,0.135,0.876-0.136C164.418,294.373,164.357,293.997,164.09,293.793z   M172.798,281.849c-0.274-0.199-0.657-0.14-0.856,0.135c-0.2,0.273-0.14,0.656,0.135,0.855c0.001,0.001,0.004,0.002,0.005,0.004  c0.274,0.199,0.657,0.14,0.856-0.135c0.2-0.273,0.14-0.656-0.135-0.855C172.802,281.851,172.799,281.85,172.798,281.849z   M181.506,269.904c-0.261-0.204-0.639-0.157-0.843,0.105c-0.004,0.004-0.006,0.008-0.01,0.012c-0.194,0.281-0.135,0.666,0.136,0.875  c0.276,0.192,0.655,0.132,0.856-0.14c0.2-0.266,0.145-0.643-0.121-0.842C181.518,269.912,181.512,269.907,181.506,269.904z   M190.216,257.959c-0.261-0.204-0.639-0.157-0.843,0.105c-0.004,0.004-0.006,0.009-0.01,0.012c-0.191,0.283-0.132,0.664,0.136,0.875  c0.276,0.194,0.655,0.132,0.856-0.14c0.202-0.253,0.158-0.622-0.095-0.823C190.244,257.979,190.23,257.968,190.216,257.959z   M198.947,245.996c-0.276-0.192-0.655-0.132-0.856,0.14c-0.197,0.278-0.132,0.664,0.147,0.861c0.27,0.191,0.641,0.137,0.844-0.124  C199.277,246.589,199.217,246.205,198.947,245.996L198.947,245.996z M236.16,266.302c-0.179-0.292-0.561-0.381-0.851-0.202  c-0.292,0.179-0.382,0.56-0.203,0.85c0.179,0.292,0.558,0.381,0.851,0.202C236.242,266.969,236.332,266.593,236.16,266.302  L236.16,266.302z M228.451,253.693c-0.174-0.291-0.55-0.384-0.84-0.211c-0.004,0.002-0.007,0.004-0.01,0.006  c-0.287,0.182-0.375,0.558-0.203,0.85c0.186,0.287,0.569,0.368,0.856,0.181C228.53,254.342,228.617,253.979,228.451,253.693  L228.451,253.693z M195.341,300.492c-0.323-0.077-0.648,0.121-0.725,0.445c-0.001,0.004-0.001,0.007-0.002,0.011  c-0.082,0.324,0.11,0.654,0.432,0.745c0.329,0.065,0.653-0.132,0.75-0.453c0.081-0.332-0.12-0.667-0.453-0.748  C195.342,300.492,195.342,300.492,195.341,300.492L195.341,300.492z M198.811,286.131c-0.315-0.083-0.635,0.104-0.719,0.418  c-0.004,0.012-0.006,0.025-0.009,0.039c-0.08,0.321,0.114,0.643,0.435,0.724c0,0,0,0,0.001,0c0.332,0.081,0.667-0.12,0.748-0.452  v-0.001c0.083-0.314-0.104-0.634-0.417-0.718C198.835,286.136,198.823,286.133,198.811,286.131L198.811,286.131z M202.282,271.747  c-0.334-0.07-0.661,0.143-0.731,0.478c-0.069,0.326,0.135,0.647,0.458,0.726c0.323,0.077,0.648-0.121,0.725-0.445  c0.001-0.004,0.001-0.007,0.003-0.011C202.818,272.165,202.615,271.83,202.282,271.747  C202.283,271.747,202.282,271.747,202.282,271.747L202.282,271.747z M205.75,257.387c-0.327-0.072-0.651,0.13-0.727,0.456  c-0.075,0.328,0.132,0.653,0.459,0.726c0.318,0.072,0.638-0.12,0.722-0.436C206.287,257.804,206.083,257.469,205.75,257.387  C205.752,257.387,205.752,257.387,205.75,257.387z M187.568,244.722c-0.179-0.292-0.558-0.382-0.851-0.204  c-0.292,0.178-0.383,0.558-0.205,0.85c0.175,0.284,0.545,0.373,0.831,0.2c0.295-0.17,0.398-0.546,0.228-0.842  C187.57,244.725,187.569,244.724,187.568,244.722z M240.883,256.655c-0.174-0.272-0.536-0.351-0.807-0.177  c-0.009,0.006-0.019,0.012-0.028,0.018c-0.281,0.19-0.36,0.566-0.182,0.853c0.202,0.265,0.572,0.334,0.857,0.16  c0.281-0.186,0.356-0.565,0.169-0.845C240.889,256.661,240.885,256.657,240.883,256.655z M204.284,305.262  c-0.333-0.07-0.66,0.145-0.73,0.478c-0.07,0.333,0.145,0.66,0.478,0.729c0.333,0.07,0.659-0.143,0.729-0.476  C204.833,305.659,204.618,305.332,204.284,305.262L204.284,305.262z M207.144,290.816c-0.337-0.052-0.658,0.165-0.734,0.497  c-0.052,0.326,0.158,0.636,0.48,0.709c0.333,0.07,0.66-0.145,0.73-0.478C207.683,291.215,207.472,290.894,207.144,290.816  L207.144,290.816z M209.978,276.388c-0.328-0.064-0.646,0.152-0.71,0.48c-0.064,0.328,0.152,0.646,0.48,0.709  c0.333,0.07,0.66-0.145,0.73-0.478C210.53,276.767,210.309,276.454,209.978,276.388L209.978,276.388z M212.837,261.943  c-0.323-0.066-0.64,0.142-0.708,0.466c-0.001,0.005-0.003,0.01-0.003,0.013c-0.06,0.328,0.153,0.643,0.48,0.709  c0.316,0.072,0.63-0.126,0.702-0.442c0.002-0.012,0.005-0.025,0.007-0.038c0.066-0.324-0.142-0.639-0.466-0.707  C212.848,261.944,212.843,261.943,212.837,261.943z M177.515,254.768c-0.174-0.272-0.536-0.351-0.807-0.177  c-0.009,0.006-0.019,0.012-0.028,0.018c-0.278,0.181-0.359,0.552-0.18,0.832c0.19,0.28,0.567,0.36,0.854,0.182  c0.281-0.186,0.356-0.565,0.169-0.845C177.52,254.775,177.517,254.771,177.515,254.768z M189.756,246.566  c-0.08-0.121-0.211-0.202-0.355-0.221l0.003-0.022c-0.166-0.039-0.339-0.01-0.482,0.083c-0.042,0.018-0.077,0.052-0.099,0.093  c-0.239,0.233-0.242,0.614-0.01,0.853c0.208,0.213,0.54,0.241,0.782,0.069c0.024-0.017,0.048-0.037,0.05-0.058  c0.095-0.064,0.164-0.162,0.187-0.273C189.894,246.913,189.864,246.719,189.756,246.566z M231.808,282.855  c-0.332,0.07-0.549,0.391-0.486,0.725c0.073,0.328,0.399,0.535,0.729,0.464c0.327-0.06,0.544-0.373,0.484-0.699  c0-0.001,0-0.004-0.001-0.005C232.46,283.011,232.14,282.797,231.808,282.855z M228.922,268.407  c-0.329,0.074-0.544,0.392-0.486,0.725c0.063,0.329,0.382,0.546,0.711,0.482c0.329-0.064,0.546-0.381,0.482-0.71  c-0.001-0.005-0.002-0.01-0.002-0.015c-0.06-0.327-0.373-0.543-0.699-0.484C228.925,268.405,228.923,268.405,228.922,268.407  L228.922,268.407z M226.01,253.978c-0.332,0.07-0.549,0.391-0.486,0.725c0.077,0.332,0.409,0.538,0.742,0.461  c0.317-0.074,0.522-0.38,0.47-0.701C226.668,254.131,226.346,253.915,226.01,253.978L226.01,253.978z M179.728,286.92  c-0.273-0.184-0.643-0.111-0.826,0.16c-0.005,0.007-0.01,0.015-0.013,0.023c-0.185,0.276-0.113,0.649,0.163,0.836  c0.282,0.19,0.664,0.119,0.858-0.159c0.189-0.281,0.115-0.66-0.165-0.85C179.739,286.926,179.733,286.922,179.728,286.92  L179.728,286.92z M187.901,274.664c-0.273-0.184-0.643-0.111-0.826,0.16c-0.005,0.007-0.01,0.015-0.013,0.023  c-0.185,0.276-0.113,0.649,0.163,0.836c0.282,0.19,0.664,0.119,0.858-0.159c0.189-0.28,0.115-0.66-0.165-0.85  C187.912,274.67,187.906,274.667,187.901,274.664z M196.072,262.409c-0.283-0.179-0.658-0.096-0.84,0.184  c-0.185,0.276-0.113,0.649,0.163,0.836c0.282,0.19,0.664,0.119,0.858-0.159c0.189-0.28,0.115-0.66-0.165-0.85  C196.084,262.417,196.079,262.413,196.072,262.409z M204.244,250.154c-0.286-0.167-0.651-0.087-0.84,0.184  c-0.185,0.276-0.113,0.649,0.163,0.836c0.283,0.186,0.662,0.115,0.858-0.159c0.189-0.286,0.11-0.668-0.175-0.856  C204.249,250.157,204.246,250.156,204.244,250.154z M182.087,242.658c-0.098-0.238-0.369-0.352-0.608-0.256  c-0.239,0.097-0.353,0.369-0.256,0.607c0.098,0.238,0.369,0.352,0.608,0.256l0,0C182.066,243.165,182.18,242.896,182.087,242.658z   M238.823,249.859c-0.089-0.23-0.35-0.344-0.582-0.255c-0.001,0.001-0.004,0.001-0.005,0.002c-0.242,0.087-0.368,0.354-0.281,0.597  c0.087,0.241,0.355,0.368,0.598,0.28c0.242-0.087,0.368-0.354,0.281-0.597C238.83,249.877,238.826,249.868,238.823,249.859z   M204.207,279.981c-0.217-0.11-0.482-0.023-0.592,0.194c-0.007,0.013-0.013,0.028-0.019,0.043c-0.101,0.233,0.005,0.504,0.24,0.605  c0.233,0.101,0.505-0.005,0.606-0.239C204.542,280.353,204.437,280.085,204.207,279.981z M208.58,269.771  c-0.228-0.105-0.5-0.006-0.605,0.222c-0.003,0.005-0.005,0.01-0.006,0.015c-0.104,0.234,0.002,0.508,0.237,0.61  c0.234,0.104,0.508-0.002,0.611-0.236C208.921,270.147,208.815,269.874,208.58,269.771L208.58,269.771z M212.954,259.559  c-0.234-0.104-0.508,0.002-0.611,0.236c-0.104,0.234,0.002,0.508,0.237,0.61c0.234,0.104,0.508-0.002,0.611-0.236  C213.289,259.937,213.184,259.667,212.954,259.559L212.954,259.559z M217.327,249.35c-0.241-0.093-0.513,0.02-0.615,0.258  c-0.093,0.234,0.023,0.499,0.256,0.592c0.001,0,0.003,0.001,0.004,0.001c0.224,0.099,0.485-0.001,0.584-0.226  c0.002-0.005,0.004-0.009,0.006-0.013c0.105-0.228,0.006-0.499-0.222-0.604C217.337,249.353,217.332,249.352,217.327,249.35  L217.327,249.35z M227.562,278.991c-0.252-0.006-0.463,0.192-0.469,0.445c0,0.001,0,0.002,0,0.004  c0.006,0.248,0.202,0.452,0.45,0.468c0.252,0.002,0.46-0.197,0.469-0.45c0.013-0.245-0.172-0.453-0.416-0.469  C227.584,278.991,227.573,278.991,227.562,278.991L227.562,278.991z M227.685,267.893c-0.245-0.004-0.445,0.191-0.449,0.436  c0,0.005,0,0.011,0,0.016c-0.006,0.252,0.192,0.462,0.445,0.468c0.001,0,0.002,0,0.004,0c0.256-0.009,0.462-0.215,0.473-0.47  c-0.004-0.253-0.213-0.455-0.467-0.451C227.689,267.893,227.687,267.893,227.685,267.893z M227.832,256.777  c-0.256,0.009-0.463,0.215-0.473,0.47c-0.005,0.241,0.186,0.444,0.429,0.449c0.007,0,0.015,0,0.024,0  c0.245,0.013,0.454-0.172,0.469-0.415c0-0.011,0.001-0.022,0.001-0.033c0.006-0.252-0.192-0.462-0.445-0.468  C227.834,256.777,227.833,256.777,227.832,256.777L227.832,256.777z M188.653,262.732c-0.164-0.182-0.444-0.199-0.627-0.037  c-0.004,0.004-0.008,0.007-0.012,0.011c-0.185,0.167-0.2,0.452-0.032,0.637c0.007,0.009,0.016,0.017,0.025,0.025  c0.176,0.179,0.464,0.18,0.643,0.004C188.828,263.197,188.829,262.911,188.653,262.732z M196.611,254.967  c-0.186-0.172-0.474-0.175-0.664-0.006c-0.179,0.187-0.17,0.485,0.017,0.664c0.179,0.17,0.458,0.172,0.64,0.006  C196.777,255.444,196.78,255.156,196.611,254.967z M204.565,247.223c-0.17-0.185-0.457-0.197-0.641-0.028  c-0.007,0.007-0.015,0.013-0.023,0.022c-0.172,0.179-0.174,0.461-0.004,0.642c0.182,0.179,0.474,0.175,0.653-0.006  C204.722,247.679,204.728,247.402,204.565,247.223L204.565,247.223z M230.607,254.698c-0.137-0.032-0.274,0.056-0.305,0.192  c-0.032,0.137,0.057,0.273,0.192,0.305c0.007,0.001,0.013,0.002,0.022,0.004c0.14,0.017,0.266-0.078,0.288-0.218  C230.822,254.851,230.735,254.728,230.607,254.698L230.607,254.698z M231.65,248.718c-0.134-0.024-0.261,0.065-0.286,0.197  c-0.001,0.006-0.002,0.012-0.002,0.018c-0.032,0.121,0.04,0.246,0.163,0.277c0.011,0.002,0.023,0.005,0.034,0.006  c0.131,0.025,0.257-0.06,0.283-0.19c0-0.002,0.001-0.005,0.001-0.006C231.862,248.886,231.78,248.757,231.65,248.718L231.65,248.718  z M223.567,264.197c-0.179-0.118-0.42-0.07-0.538,0.109c-0.006,0.009-0.011,0.018-0.017,0.029c-0.123,0.168-0.086,0.405,0.082,0.529  c0.011,0.007,0.023,0.015,0.034,0.023c0.19,0.126,0.446,0.076,0.573-0.114l0,0c0.124-0.185,0.075-0.436-0.11-0.561  C223.583,264.206,223.574,264.201,223.567,264.197L223.567,264.197z M228.925,255.685c-0.196-0.12-0.453-0.06-0.576,0.135  c-0.124,0.185-0.075,0.436,0.11,0.561c0.007,0.005,0.016,0.01,0.024,0.015c0.179,0.118,0.42,0.07,0.538-0.109  c0.006-0.009,0.011-0.018,0.017-0.029c0.129-0.181,0.086-0.431-0.095-0.56C228.937,255.694,228.931,255.69,228.925,255.685  L228.925,255.685z"/>
<linearGradient id="sweater_1_-i6" gradientUnits="userSpaceOnUse" x1="6193.4229" y1="2119.4363" x2="5413.5684" y2="4205.5449" gradientTransform="matrix(0.0741 0 0 0.0741 -230.5491 -49.4972)">
	<stop offset="0" style="stop-color:#23286B"/>
	<stop offset="0.361" style="stop-color:#1E2361"/>
	<stop offset="1" style="stop-color:#151A4F"/>
</linearGradient>
<path id="sweater-i6" fill="url(#sweater_1_-i6)" d="M187.354,73.447c-0.009-0.001-0.016-0.005-0.023-0.011  c-8.404,4.022-15.975,9.589-22.317,16.41l-18.273,132.367c47.139,34.491,90.337,25.33,98.811,23.056  c0.991-0.273,1.504-0.444,1.504-0.444C256.729,122.777,188.881,74.516,187.354,73.447z"/>
<path id="L_sleeve-i6" fill="#23286B" d="M165.019,89.849c0,0-6.209,33.516-23.202,57.651c-10.289,14.615-23.261,17.926-46.995,8.57  c-21.481-8.469-29.816-13.658-29.816-13.658l-16.294,61.066c0,0,24.358,37.309,56.835,27.576  c26.691-7.999,42.159,11.819,56.023,10.544c30.853-2.839,37.614-10.303,47.092-54.341c9.479-44.038-5.683-93.677-21.328-113.817l0,0  "/>
<linearGradient id="neck_1_-i6" gradientUnits="userSpaceOnUse" x1="5586.1631" y1="1699.3954" x2="5340.0386" y2="1631.4983" gradientTransform="matrix(0.0741 0 0 0.0741 -230.5491 -49.4972)">
	<stop offset="0" style="stop-color:#FFBEB6"/>
	<stop offset="1" style="stop-color:#F29B94"/>
</linearGradient>
<path id="neck-i6" fill="url(#neck_1_-i6)" d="M159.538,69.317c0,0,6.395,15.057,5.481,20.533c6.608-6.516,14.124-12.042,22.314-16.41  c0,0-10.667-14.389-10.667-17.355L159.538,69.317z"/>
<path id="face-i6" fill="#FFBEB6" d="M148.994,70.781c-9.008-2.564-14.262-10.629-16.089-10.169c-1.836,0.449-5.977,0.478-6.662-1.417  c-0.665-1.89,2.468-8.962,0.931-16.158c-0.153-0.668-0.27-1.307-0.375-1.955c-0.005-0.032-0.012-0.043,0.002-0.072l-0.053-0.349  c-0.06-0.434-0.147-1.182-0.206-2.163c5.215,1.89,9.861,2.052,11.919,0.672c5.833-3.901,7.026,0.084,13.695,4.334  c6.689,4.251,11.788,0.835,19.667-2.042c7.888-2.864,9.115,5.238,6.324,8.403c-2.783,3.176-5.019,4.725-2.755,7.782  c0.365,0.665,0.864,1.246,1.467,1.705l-0.747,0.775c-0.236,0.246-0.482,0.479-0.744,0.701l-3.606,3.081  C165.264,69.403,157.437,73.198,148.994,70.781z"/>
<path id="cap_bottom-i6" fill="#E94A47" d="M230.221,46.133l-105.147-13.06l0,0l0.482-3.882l0,0L228.24,41.946  c1.361,0.168,2.326,1.407,2.157,2.766l0,0L230.221,46.133L230.221,46.133z"/>
<linearGradient id="cap_top_1_-i6" gradientUnits="userSpaceOnUse" x1="5272.7954" y1="1020.4263" x2="5616.8774" y2="1899.2291" gradientTransform="matrix(0.0741 0 0 0.0741 -230.5491 -49.4972)">
	<stop offset="0" style="stop-color:#E94A47"/>
	<stop offset="0.8467" style="stop-color:#A74A47"/>
</linearGradient>
<path id="cap_top-i6" fill="url(#cap_top_1_-i6)" d="M193.79,37.646l-68.24-8.476l0,0l0.937-7.527c1.684-13.53,14.03-23.135,27.574-21.452  l0,0l18.168,2.256c14.109,1.753,24.123,14.598,22.37,28.692l0,0L193.79,37.646L193.79,37.646z"/>
<path id="hair-i6" fill="#23286B" d="M176.86,59.35c0,0,5.217,1.833,11.659-4.918c6.441-6.75,5.758-12.911,5.758-12.911  s-64.791-8.133-66.996-8.29c-2.205-0.157-1.405-0.348-9.012-7.185s-12.332,3.166-7.295,10.615c5.037,7.45,19.281,5.83,25.204,3.486  c5.923-2.343,8.303-3.034,12.915,1.925c4.613,4.959,13.735,5.347,20.734,0.351c7.001-4.996,12.684,2.493,7.068,8.163  C171.279,56.255,176.86,59.35,176.86,59.35z"/>
<path id="eye-i6" fill="#1C2868" d="M133.039,47.265c-1.672,2.513-5.067,3.195-7.581,1.525c-0.91-0.605-1.619-1.469-2.033-2.479  c-0.321-0.767,0.819-1.411,1.145-0.633c0.79,2.158,3.181,3.267,5.34,2.478c0.814-0.298,1.515-0.841,2.006-1.557  C132.397,45.916,133.526,46.578,133.039,47.265z"/>
</svg></g></svg>