<?xml version="1.0" encoding="UTF-8"?><svg version="1.1" xmlns="http://www.w3.org/2000/svg" xmlns:xlink="http://www.w3.org/1999/xlink" viewBox="0 0 1600 1200" width="1600" height="1200" x="0px" y="0px">
              
              <!-- ITEM 0 -->
<g>
    <defs>
        
        <clipPath id="clip-path-id-viewbox-item-0">
            <rect x="0.0" y="0.0" width="800.0" height="600.0"/>
        </clipPath>
    </defs>
    <g transform="translate(183.0 50.0) rotate(0.0 626.0 469.5) scale(1.565 1.565)">
        <g clip-path="url(#clip-path-id-viewbox-item-0)" transform="translate(-0.0 -0.0)">

<path style="fill:#E6E6E6;" d="M672.876,476.948l12.227-3.821c0.983-0.655,2.074-1.092,3.057-1.965l-18.996,6.114  C670.474,477.166,671.675,477.166,672.876,476.948z M664.251,476.948l27.62-8.952c0.546-0.437,0.873-0.983,1.419-1.419  l-30.895,9.825C663.05,476.729,663.705,476.838,664.251,476.948z M659.448,475.747l36.135-11.572  c0.437-0.327,0.546-0.764,0.983-1.201l-38.101,12.118C658.793,475.528,659.12,475.528,659.448,475.747z M656.609,473.891  l41.485-13.319c0.218-0.327,0.437-0.764,0.655-1.092l-42.795,13.756C656.063,473.563,656.391,473.782,656.609,473.891z   M654.535,471.816l45.197-14.411c0.218-0.328,0.218-0.655,0.437-1.092l-46.179,14.847  C654.317,471.38,654.426,471.707,654.535,471.816z M653.225,469.633l48.035-15.284c0-0.327,0.218-0.655,0.218-1.092l-48.69,15.611  C652.898,469.087,653.007,469.415,653.225,469.633z M652.024,467.231l49.891-16.048c0-0.328,0.109-0.655,0.218-1.092l-50.437,16.048  C651.806,466.685,651.915,466.904,652.024,467.231z M651.151,464.83l51.419-16.485c0-0.327,0.109-0.655,0.109-0.983l-51.856,16.703  C650.932,464.175,651.042,464.502,651.151,464.83z M650.714,461.882c0.109,0.109-0.109,0.218,0,0.327l52.293-16.703  c0-0.327,0.109-0.655,0.109-0.983l-52.075,16.594C650.932,461.336,650.823,461.554,650.714,461.882z M653.443,458.17  c-0.109,0.109-0.218,0.328-0.437,0.328l50.109-16.048c0-0.328-0.109-0.546,0-0.873l-48.799,15.721  C653.88,457.624,653.662,457.952,653.443,458.17z M655.845,455.004l46.834-14.956c0-0.328-0.109-0.546-0.218-0.873l-46.179,14.847  C656.282,454.349,656.063,454.568,655.845,455.004z M657.374,451.729l45.088-14.411c-0.109-0.327-0.109-0.546-0.218-0.873  l-44.433,14.301C657.483,451.183,657.483,451.511,657.374,451.729z M658.138,448.781l43.668-13.865  c-0.109-0.328-0.218-0.437-0.218-0.873l-43.122,13.865C658.247,448.236,658.138,448.454,658.138,448.781z M658.356,445.943  l42.467-13.537c-0.109-0.327-0.218-0.437-0.327-0.764l-42.249,13.428C658.356,445.397,658.356,445.725,658.356,445.943z   M658.138,443.214l41.267-13.21c-0.109-0.327-0.218-0.437-0.328-0.764l-41.048,13.1  C658.138,442.668,658.138,443.105,658.138,443.214z M657.592,440.703l40.284-12.991c-0.109-0.327-0.437-0.546-0.546-0.655  l-40.175,12.882C657.374,440.266,657.483,440.484,657.592,440.703z M695.365,424.982l-39.192,12.445  c0.109,0.327,0.218,0.437,0.328,0.764l39.52-12.664C696.02,425.419,695.693,425.201,695.365,424.982z M693.072,423.017  l-38.21,12.227c0.109,0.328,0.437,0.546,0.546,0.655l38.537-12.336C693.618,423.563,693.291,423.236,693.072,423.017z   M690.016,421.27l-36.463,11.572c0.109,0.328,0.218,0.437,0.328,0.764l37.227-12.009C690.671,421.598,690.452,421.38,690.016,421.27  z M686.195,419.851c-0.109,0.109-0.218-0.109-0.327,0l-32.205,10.262c-0.109,0.218-0.109,0.655-0.109,0.983l34.061-10.917  C687.068,420.179,686.631,419.96,686.195,419.851z M678.007,419.524l-20.852,6.659c-0.655,0.546-1.419,0.983-2.074,1.528  l26.419-8.406C680.409,419.415,679.099,419.415,678.007,419.524z"/>
<g>
	
		<linearGradient id="SVGID_1_-i0" gradientUnits="userSpaceOnUse" x1="5958.4717" y1="-2529.595" x2="7354.1338" y2="-2529.595" gradientTransform="matrix(0.1 0 0 -0.1 0 18)">
		<stop offset="0" style="stop-color:#B9D3FD"/>
		<stop offset="1" style="stop-color:#89B3F4"/>
	</linearGradient>
	<path style="fill:url(#SVGID_1_-i0);" d="M734.666,291.794c1.528,4.585-0.218,9.498-2.511,13.756   c-6.223,11.681-16.266,21.288-28.275,26.856c-6.659,3.166-13.865,5.022-20.742,7.86c-19.978,8.297-36.245,24.891-43.996,45.088   c2.293-13.974-5.022-27.839-13.974-38.865c-8.843-11.026-19.542-20.961-25.873-33.625c-5.459-10.917-5.568-27.074,5.459-32.315   c8.079-3.821,18.232,0.437,26.529-3.057c2.948-1.31,5.568-3.93,5.458-7.096c-0.437-8.079-16.376-7.533-16.812-15.611   c-0.437-9.28,24.018-6.55,20.852-15.393c-1.31-3.712-6.55-4.804-8.297-8.297c-1.856-3.493-1.747-8.406,1.419-10.917   c4.039-3.275,10.153-0.655,15.284-1.856c5.786-1.31,9.498-7.205,10.699-13.1c1.201-5.895,0.546-11.9,1.419-17.795   c2.074-14.52,13.974-27.074,28.275-30.131c14.301-3.057,30.24,3.712,37.991,16.157c3.166,5.131,4.913,12.009,1.528,16.921   c-2.948,4.148-9.279,6.878-8.734,11.9c0.655,6.878,13.428,7.533,13.646,14.411c0.218,8.079-16.376,8.079-15.939,16.157   c0.218,3.603,4.039,5.677,6.332,8.515c4.367,5.24,2.62,14.301-3.384,17.576c-2.402,1.31-5.24,1.856-7.096,3.712   c-4.804,4.694-0.109,12.991,5.568,16.485C725.169,282.624,732.592,285.353,734.666,291.794z"/>
	
		<linearGradient id="SVGID_2_-i0" gradientUnits="userSpaceOnUse" x1="6414.0796" y1="-2855.1492" x2="7869.9307" y2="-2855.1492" gradientTransform="matrix(0.1 0 0 -0.1 0 18)">
		<stop offset="0" style="stop-color:#DEEAFE"/>
		<stop offset="1" style="stop-color:#E9F1FE"/>
	</linearGradient>
	<path style="fill:url(#SVGID_2_-i0);" d="M692.745,292.34c3.384-1.856,6.987-3.603,9.716-6.441c5.568-6.114,5.24-15.284,5.677-23.581   c0.437-8.297,3.384-18.013,11.354-20.197c6.659-1.856,15.066,2.183,19.978-2.62c1.856-1.747,2.62-4.367,3.93-6.55   c5.677-9.498,20.633-8.734,28.93-1.419c8.188,7.314,11.354,18.668,14.083,29.367c0.983,3.93,1.092,9.389-2.729,10.48   c-3.712,0.983-7.424-3.603-10.917-2.183c-2.838,1.092-3.057,5.131-1.965,8.079c0.983,2.838,2.729,5.786,2.074,8.843   c-1.31,5.677-9.279,6.004-14.956,4.476c-5.677-1.528-12.991-3.057-16.266,1.856c3.603,11.463,6.659,25.437-1.419,34.498   c-9.279,10.371-26.419,9.28-40.284,10.59c-25.764,2.402-43.996,22.052-58.516,43.559   C640.561,345.069,661.195,309.48,692.745,292.34z"/>
</g>
<g>
	<path style="fill:#FFFFFF;" d="M660.43,364.72c-0.109,0-0.109,0-0.218,0c-0.328-0.109-0.437-0.437-0.328-0.655   c13.101-40.066,33.952-67.904,72.053-95.961c7.096-5.24,28.494-14.083,37.773-14.847c0.218,0,0.546,0.218,0.546,0.546   s-0.218,0.546-0.546,0.546c-8.843,0.764-30.349,9.607-37.118,14.629c-37.991,27.948-58.734,55.568-71.725,95.415   C660.867,364.502,660.649,364.72,660.43,364.72z"/>
</g>
<path style="fill:#FFFFFF;" d="M680.627,247.252l-4.367-12.009c-1.528-0.109-3.166,0.109-4.694,0.655l4.694,12.882  c0.218,0.764-0.109,1.528-0.873,1.747c-0.764,0.218-1.528-0.109-1.747-0.873l-4.694-12.664c-1.419,0.873-2.62,2.074-3.603,3.384  l3.93,10.699c0.218,0.764-0.109,1.528-0.873,1.747c-0.764,0.218-1.528-0.109-1.747-0.873l-3.057-8.406  c-1.747,4.367-1.856,9.935,0.109,15.393c0,0.109,0.109,0.218,0.109,0.328c-0.983,0.546-2.074,1.201-2.948,1.965  c-2.729,1.965-6.223,5.349-7.424,10.153l1.31,0.328c1.092-4.367,4.367-7.533,6.878-9.28c0.873-0.655,1.747-1.201,2.729-1.747  c2.074,4.585,5.458,8.297,9.17,10.262l-2.948-7.969c-0.218-0.764,0.109-1.528,0.873-1.747s1.528,0.109,1.747,0.873l3.821,10.262  c1.638,0.437,3.275,0.546,4.913,0.218l-4.367-12.009c-0.218-0.764,0.109-1.528,0.873-1.747c0.764-0.218,1.528,0.109,1.747,0.873  l4.476,12.118c1.419-0.655,2.729-1.638,3.821-2.729l-4.039-10.917c-0.218-0.764,0.109-1.528,0.873-1.747  c0.764-0.218,1.528,0.109,1.747,0.873l3.493,9.389c1.092-1.638,2.074-3.384,2.948-5.24l-2.183-5.895  c-0.218-0.764,0.109-1.528,0.873-1.747c0.764-0.218,1.528,0.109,1.747,0.873l1.201,3.166c2.183-5.24,3.603-10.371,5.459-12.009  c-3.057-0.655-7.314-3.493-12.009-6.114l1.528,4.039c0.218,0.764-0.109,1.528-0.873,1.747c-0.764,0.218-1.528-0.109-1.747-0.873  l-2.511-6.878c-1.856-0.873-3.712-1.528-5.568-1.965l3.821,10.59c0.218,0.764-0.109,1.528-0.873,1.747  C681.719,248.344,680.954,248.016,680.627,247.252z"/>
<rect x="342.853" y="380.986" style="fill:#D6D7D8;" width="121.835" height="135.481"/>
<rect x="267.415" y="512.101" style="fill:#428DFC;" width="272.709" height="10.48"/>
<linearGradient id="SVGID_3_-i0" gradientUnits="userSpaceOnUse" x1="1361.9219" y1="-2771.7815" x2="6713.4741" y2="-2771.7815" gradientTransform="matrix(0.1 0 0 -0.1 0 18)">
	<stop offset="0" style="stop-color:#EEEEEE"/>
	<stop offset="1" style="stop-color:#D6D7D8"/>
</linearGradient>
<rect x="136.192" y="121.924" style="fill:url(#SVGID_3_-i0);" width="535.155" height="346.508"/>
<rect x="145.581" y="130.549" style="fill:#FFFFFF;" width="516.378" height="285.372"/>
<g>
	
		<rect x="379.613" y="437.736" transform="matrix(-0.7071 -0.7071 0.7071 -0.7071 343.4806 1027.6814)" style="fill:#A1C3FC;" width="9.934" height="9.934"/>
	
		<rect x="398.775" y="437.721" transform="matrix(-0.7071 -0.7071 0.7071 -0.7071 376.2033 1041.2053)" style="fill:#FFFFFF;" width="9.934" height="9.934"/>
	
		<rect x="417.938" y="437.751" transform="matrix(-0.7071 -0.7071 0.7071 -0.7071 408.8945 1054.8064)" style="fill:#1D72D8;" width="9.934" height="9.934"/>
</g>
<path style="fill:#D3E3FE;" d="M660.539,81.422c0,0.218,0,0.437,0,0.655c0,9.061,7.314,16.376,16.376,16.376  s16.376-7.314,16.376-16.376c0-0.218,0-0.437,0-0.655H660.539z"/>
<path style="fill:#A1C3FC;" d="M719.164,41.574c0,0.328,0,0.764,0,1.092c0,14.956,12.118,27.074,27.074,27.074  s27.074-12.118,27.074-27.074c0-0.328,0-0.764,0-1.092C773.313,41.574,719.164,41.574,719.164,41.574z"/>
<path style="fill:#F4F4F4;" d="M32.698,13.19c0,0.655,0,1.201,0,1.856c0,25.218,20.524,45.743,45.743,45.743  s45.743-20.524,45.743-45.743c0-0.655,0-1.201,0-1.856C124.183,13.19,32.698,13.19,32.698,13.19z"/>
<path style="fill:#E7EFFE;" d="M80.624,13.19c0,0.437,0,0.873,0,1.31c0,18.341,14.847,33.188,33.188,33.188S147,32.841,147,14.5  c0-0.437,0-0.873,0-1.31C147,13.19,80.624,13.19,80.624,13.19z"/>
<g>
	
		<linearGradient id="SVGID_4_-i0" gradientUnits="userSpaceOnUse" x1="4547.144" y1="-2848.5498" x2="5952.8911" y2="-2848.5498" gradientTransform="matrix(-0.0964 0.0265 -0.0265 -0.0964 553.6074 -2.2324)">
		<stop offset="0" style="stop-color:#B9D3FD"/>
		<stop offset="1" style="stop-color:#89B3F4"/>
	</linearGradient>
	<path style="fill:url(#SVGID_4_-i0);" d="M61.41,450.31c-0.218,4.803,2.729,9.17,6.114,12.664c9.17,9.716,21.507,16.376,34.607,18.559   c7.314,1.201,14.847,1.201,22.271,2.074c21.616,2.729,41.812,14.52,54.804,31.987c-6.004-12.991-2.511-28.384,3.166-41.485   c5.677-13.1,13.428-25.546,16.157-39.52c2.402-12.009-1.856-27.839-13.974-29.913c-8.952-1.528-17.686,5.349-26.638,4.039   c-3.166-0.437-6.55-2.293-7.205-5.459c-1.747-7.969,13.974-11.681,12.118-19.651c-2.074-9.17-25.109,0-24.345-9.28   c0.328-3.93,5.022-6.332,5.895-10.262s-0.546-8.624-4.258-10.153c-4.804-2.074-10.044,2.074-15.284,2.293   c-6.004,0.328-11.135-4.476-13.865-9.825s-3.712-11.463-6.114-16.921c-5.895-13.537-20.742-22.598-35.481-21.725   c-14.738,0.873-28.384,11.681-32.642,25.873c-1.747,5.786-1.638,12.991,3.057,16.921c3.93,3.275,10.808,4.148,11.681,9.17   c1.201,6.878-11.026,10.917-9.389,17.686c1.856,7.969,18.122,3.493,19.76,11.463c0.764,3.603-2.402,6.659-3.821,9.935   c-2.838,6.223,1.31,14.52,7.969,16.157c2.62,0.655,5.568,0.327,7.969,1.638c5.895,3.275,3.603,12.555-0.983,17.467   C68.179,439.065,61.847,443.541,61.41,450.31z"/>
	
		<linearGradient id="SVGID_5_-i0" gradientUnits="userSpaceOnUse" x1="5005.2349" y1="-3177.0505" x2="6471.7524" y2="-3177.0505" gradientTransform="matrix(-0.0964 0.0265 -0.0265 -0.0964 553.6074 -2.2324)">
		<stop offset="0" style="stop-color:#DEEAFE"/>
		<stop offset="1" style="stop-color:#E9F1FE"/>
	</linearGradient>
	<path style="fill:url(#SVGID_5_-i0);" d="M102.458,439.72c-3.821-0.873-7.751-1.638-11.135-3.712   c-7.096-4.476-9.17-13.537-11.79-21.397c-2.62-7.86-8.079-16.594-16.376-16.594c-6.987,0-14.083,6.223-20.087,2.838   c-2.293-1.31-3.712-3.603-5.568-5.349c-7.969-7.642-22.38-2.948-28.384,6.332s-6.004,21.179-5.895,32.315   c0.109,4.039,1.419,9.389,5.459,9.389c3.821,0,6.223-5.459,10.044-5.022c3.057,0.327,4.367,4.258,4.148,7.314   c-0.218,3.057-1.092,6.332,0.328,9.061c2.729,5.24,10.699,3.384,15.721,0.327c5.022-3.057,11.79-6.441,16.266-2.511   c-0.437,12.118,0.328,26.528,10.59,33.079c11.79,7.533,28.166,1.965,41.922-0.437c25.655-4.585,48.69,9.716,68.45,26.747   C167.088,476.948,137.611,447.908,102.458,439.72z"/>
	<path style="fill:none;stroke:#428DFC;stroke-width:2;stroke-linecap:round;stroke-miterlimit:10;" d="M178.878,517.232   c-8.734-22.817-15.721-46.288-21.07-70.088"/>
	
		<ellipse transform="matrix(-0.2235 -0.9747 0.9747 -0.2235 -240.659 697.7426)" style="fill:#23286B;" cx="157.599" cy="444.732" rx="4.694" ry="12.445"/>
	<path style="fill:none;stroke:#428DFC;stroke-width:2;stroke-linecap:round;stroke-miterlimit:10;" d="M157.153,444.305   c-2.948-13.537-5.349-27.074-7.205-40.83"/>
	
		<ellipse transform="matrix(-0.3174 -0.9483 0.9483 -0.3174 -182.6591 669.1458)" style="fill:#23286B;" cx="149.504" cy="400.314" rx="5.568" ry="14.957"/>
	<path style="fill:none;stroke:#428DFC;stroke-width:2;stroke-linecap:round;stroke-miterlimit:10;" d="M149.402,399.873   c-1.419-11.354-2.511-22.708-3.275-34.061"/>
	
		<ellipse transform="matrix(-0.0106 -0.9999 0.9999 -0.0106 -213.3985 512.5897)" style="fill:#23286B;" cx="146.883" cy="361.865" rx="5.567" ry="14.956"/>
	<path style="fill:none;stroke:#428DFC;stroke-width:2;stroke-linecap:round;stroke-miterlimit:10;" d="M145.908,361.008   c-0.437-8.624-0.655-17.358-0.764-26.092"/>
	
		<ellipse transform="matrix(-0.0106 -0.9999 0.9999 -0.0106 -183.616 479.1787)" style="fill:#23286B;" cx="145.246" cy="330.426" rx="7.532" ry="20.087"/>
	<path style="fill:none;stroke:#428DFC;stroke-width:2;stroke-linecap:round;stroke-miterlimit:10;" d="M145.144,329.021   c0.109-5.786,0.218-11.572,0.437-17.358"/>
</g>
<path style="fill:#FFFFFF;" d="M132.808,484.917l4.367-12.009c1.528-0.109,3.166,0.109,4.694,0.655l-4.694,12.882  c-0.218,0.764,0.109,1.528,0.873,1.747s1.528-0.109,1.747-0.873l4.694-12.664c1.419,0.873,2.62,2.074,3.603,3.384l-3.93,10.699  c-0.218,0.764,0.109,1.528,0.873,1.747s1.528-0.109,1.747-0.873l3.057-8.406c1.747,4.367,1.856,9.935-0.109,15.393  c0,0.109-0.109,0.218-0.109,0.328c0.983,0.546,2.074,1.201,2.948,1.965c2.729,1.965,6.223,5.349,7.424,10.153l-1.31,0.328  c-1.092-4.367-4.367-7.533-6.878-9.28c-0.873-0.655-1.747-1.201-2.729-1.747c-2.074,4.585-5.459,8.297-9.17,10.262l2.948-7.969  c0.218-0.764-0.109-1.528-0.873-1.747c-0.764-0.218-1.528,0.109-1.747,0.873l-3.821,10.262c-1.638,0.437-3.275,0.546-4.913,0.218  l4.367-12.009c0.218-0.764-0.109-1.528-0.873-1.747s-1.528,0.109-1.747,0.873l-4.476,12.118c-1.419-0.655-2.729-1.638-3.821-2.729  l4.039-10.917c0.218-0.764-0.109-1.528-0.873-1.747c-0.764-0.218-1.528,0.109-1.747,0.873l-3.493,9.389  c-1.092-1.638-2.074-3.384-2.948-5.24l2.183-5.895c0.218-0.764-0.109-1.528-0.873-1.747s-1.528,0.109-1.747,0.873l-1.201,3.166  c-2.183-5.24-3.603-10.371-5.459-12.009c3.057-0.655,7.314-3.493,12.009-6.114l-1.528,4.039c-0.218,0.764,0.109,1.528,0.873,1.747  s1.528-0.109,1.747-0.873l2.511-6.878c1.856-0.873,3.712-1.528,5.568-1.965l-3.821,10.59c-0.218,0.764,0.109,1.528,0.873,1.747  C131.716,486.009,132.48,485.681,132.808,484.917z"/>
<path style="fill:#B3C9EE;" d="M109.555,136.007l-8.188-0.983c-0.764,0.109-1.528,0.109-2.293,0.328l12.773,1.419  C110.974,136.553,110.319,136.225,109.555,136.007z M114.576,138.3l-18.559-2.074c-0.437,0.109-0.764,0.328-1.201,0.437  l20.742,2.402C115.231,138.736,114.904,138.518,114.576,138.3z M117.087,140.265l-24.236-2.729  c-0.328,0.109-0.546,0.328-0.873,0.437l25.546,2.948C117.415,140.592,117.196,140.483,117.087,140.265z M118.288,142.121  l-27.839-3.166c-0.218,0.109-0.437,0.328-0.655,0.437l28.712,3.275C118.507,142.448,118.397,142.23,118.288,142.121z   M118.943,143.867l-30.349-3.493c-0.218,0.109-0.328,0.328-0.546,0.546l31.005,3.493  C118.943,144.195,118.943,143.977,118.943,143.867z M119.162,145.505l-32.205-3.712c-0.109,0.218-0.328,0.328-0.437,0.546  l32.642,3.712C119.162,145.942,119.162,145.723,119.162,145.505z M119.162,147.252l-33.515-3.821  c-0.109,0.218-0.218,0.328-0.437,0.546l33.843,3.93C119.162,147.579,119.162,147.47,119.162,147.252z M119.052,148.889l-34.498-3.93  c-0.109,0.218-0.218,0.328-0.328,0.546l34.825,3.93C119.052,149.326,119.052,149.108,119.052,148.889z M118.507,150.745  c0-0.109,0.109-0.109,0.109-0.218l-35.044-4.039c-0.109,0.218-0.218,0.328-0.328,0.546l34.935,4.039  C118.288,150.964,118.397,150.854,118.507,150.745z M115.996,152.164c0.109,0,0.218-0.109,0.328-0.109l-33.625-3.821  c-0.109,0.218-0.109,0.328-0.218,0.546l32.751,3.712C115.559,152.383,115.777,152.274,115.996,152.164z M113.703,153.365  l-31.441-3.603c-0.109,0.218-0.109,0.328-0.109,0.546l31.005,3.493C113.266,153.693,113.485,153.584,113.703,153.365z   M111.956,154.894l-30.24-3.493c0,0.218-0.109,0.328-0.109,0.546l29.804,3.384C111.738,155.221,111.847,155.003,111.956,154.894z   M110.755,156.422l-29.258-3.384c0,0.218,0,0.328-0.109,0.546l28.93,3.275C110.537,156.75,110.646,156.64,110.755,156.422z   M109.882,158.06l-28.494-3.275c0,0.218,0,0.328,0,0.546l28.275,3.275C109.664,158.387,109.773,158.169,109.882,158.06z   M109.227,159.697l-27.729-3.166c0,0.218,0,0.328,0,0.546l27.511,3.166C109.118,160.025,109.227,159.806,109.227,159.697z   M108.899,161.335l-27.074-3.057c0,0.218,0.109,0.437,0.109,0.546l26.965,3.057C108.899,161.662,108.899,161.444,108.899,161.335z   M82.589,160.571l26.31,3.057c0-0.218,0-0.328,0-0.546l-26.529-3.057C82.371,160.134,82.48,160.352,82.589,160.571z M83.463,162.317  l25.655,2.948c0-0.218-0.109-0.437-0.109-0.546l-25.873-2.948C83.244,161.881,83.354,162.099,83.463,162.317z M84.773,164.173  l24.454,2.838c0-0.218,0-0.328,0-0.546l-25-2.838C84.445,163.737,84.554,163.955,84.773,164.173z M86.629,166.029  c0.109,0,0.109,0.109,0.218,0.109l21.616,2.511c0.109-0.109,0.218-0.328,0.328-0.546l-22.817-2.62  C86.192,165.592,86.41,165.811,86.629,166.029z M91.323,168.322l13.974,1.638c0.546-0.109,1.092-0.218,1.638-0.328l-17.686-2.074  C89.904,167.776,90.668,168.103,91.323,168.322z"/>
<path style="fill:#B3C9EE;" d="M687.068,497.253l12.773,0.546c1.201-0.218,2.402-0.328,3.493-0.764l-19.978-0.655  C684.775,496.598,685.867,497.035,687.068,497.253z M678.989,494.306l29.039,0.983c0.655-0.218,1.092-0.546,1.856-0.873  l-32.424-1.201C678.007,493.76,678.443,494.087,678.989,494.306z M674.95,491.576l37.882,1.31c0.546-0.218,0.764-0.546,1.31-0.764  l-39.956-1.528C674.404,491.14,674.732,491.249,674.95,491.576z M672.767,488.847l43.559,1.528c0.327-0.218,0.655-0.546,0.983-0.764  l-44.869-1.638C672.439,488.41,672.657,488.738,672.767,488.847z M671.566,486.227l47.489,1.747  c0.328-0.218,0.437-0.546,0.764-0.873l-48.472-1.747C671.566,485.681,671.566,486.009,671.566,486.227z M671.02,483.716  l50.328,1.856c0.109-0.328,0.437-0.546,0.655-0.873l-51.092-1.856C671.02,483.061,671.02,483.389,671.02,483.716z M670.802,480.987  l52.402,1.965c0.109-0.328,0.327-0.546,0.655-0.873l-52.948-2.074C670.802,480.55,670.802,480.659,670.802,480.987z   M670.802,478.476l53.93,1.965c0.109-0.328,0.328-0.546,0.437-0.873l-54.476-1.965C670.802,477.821,670.802,478.148,670.802,478.476  z M671.457,475.528c0,0.218-0.109,0.218-0.109,0.328l54.804,2.074c0.109-0.327,0.328-0.546,0.437-0.873l-54.585-2.074  C671.784,475.201,671.566,475.31,671.457,475.528z M675.168,473.017c-0.218,0-0.328,0.218-0.546,0.218l52.62,1.856  c0.109-0.327,0.109-0.546,0.328-0.873l-51.201-1.856C675.823,472.581,675.496,472.799,675.168,473.017z M678.553,470.834  l49.127,1.856c0.109-0.328,0.109-0.546,0.109-0.873l-48.472-1.747C679.208,470.288,678.88,470.506,678.553,470.834z   M681.064,468.323l47.271,1.747c0-0.328,0.109-0.546,0.109-0.873l-46.616-1.638C681.391,467.777,681.282,468.105,681.064,468.323z   M682.81,465.812l45.743,1.747c0-0.327,0-0.546,0.109-0.873l-45.197-1.638C683.029,465.266,682.919,465.485,682.81,465.812z   M683.902,463.192l44.542,1.638c0-0.327,0-0.546-0.109-0.873l-44.214-1.747C684.23,462.646,684.12,462.974,683.902,463.192z   M684.775,460.572l43.341,1.638c0-0.327,0-0.546-0.109-0.873l-43.013-1.638C684.885,460.026,684.775,460.354,684.775,460.572z   M685.103,457.952l42.358,1.528c0-0.327-0.218-0.655-0.218-0.873l-42.14-1.528C684.994,457.406,685.103,457.733,685.103,457.952z   M725.933,455.987l-41.157-1.638c0,0.328,0,0.546,0.109,0.873l41.485,1.528C726.37,456.642,726.151,456.314,725.933,455.987z   M724.404,453.367l-40.066-1.528c0,0.327,0.218,0.655,0.218,0.873l40.502,1.528C724.732,454.022,724.623,453.694,724.404,453.367z   M722.112,450.637l-38.21-1.528c0,0.328,0,0.546,0.109,0.873l39.083,1.419C722.658,451.292,722.439,450.965,722.112,450.637z   M719.055,448.017c-0.218,0-0.218-0.109-0.328-0.109l-33.843-1.31c-0.109,0.218-0.327,0.546-0.437,0.873l35.699,1.31  C719.71,448.672,719.383,448.345,719.055,448.017z M711.522,445.07l-21.834-0.873c-0.873,0.218-1.638,0.437-2.511,0.655l27.62,1.092  C713.706,445.725,712.505,445.288,711.522,445.07z"/>

        </g>
    </g>
</g>

<!-- ITEM 1 -->
<g>
    <defs>
        
        <clipPath id="clip-path-id-viewbox-item-1">
            <rect x="0.0" y="0.0" width="158.0" height="200.0"/>
        </clipPath>
    </defs>
    <g transform="translate(522.0 387.0) rotate(350.5049480177443 -37.0 47.0) scale(-0.46835443037974683 0.47)">
        <g clip-path="url(#clip-path-id-viewbox-item-1)" transform="translate(-0.0 -0.0)">

<path fill="#EEEEEE" d="M76.903,47.676L35.792,6.686c-6.69,2.703-12.807,6.397-18.082,11.374l44.448,44.317  c2.493,2.486,2.493,6.515,0,9.001c-2.493,2.486-6.534,2.486-9.028,0L9.51,27.887c-4.135,6.338-6.916,13.462-8.38,21.049  L37.933,85.63c2.493,2.486,2.493,6.515,0,9.001c-2.493,2.486-6.534,2.486-9.028,0L0,65.811c1.083,21.472,11.303,44.574,30.035,63.25  c0.437,0.436,0.881,0.863,1.323,1.291c-3.115,4.408-6.032,8.967-8.657,13.723C15.335,157.415,7.392,177.947,11.374,200l6.283-1.128  c-3.651-20.218,3.769-39.29,10.636-51.729c2.368-4.29,5.001-8.431,7.817-12.457c17.579,15.145,38.375,23.631,57.725,24.684  L66.37,131.986c-2.493-2.486-2.493-6.515,0-9.001c2.493-2.486,6.534-2.486,9.028,0l35.394,35.29  c7.598-1.47,14.69-4.295,20.929-8.536l-41.126-41.005c-2.493-2.486-2.493-6.515,0-9.001s6.534-2.486,9.028,0l41.69,41.567  c4.72-5.365,8.185-11.726,10.696-18.739l-37.64-37.531c-2.493-2.486-2.493-6.515,0-9.001s6.534-2.486,9.028,0l32.352,32.257  c1.577-8.671,2.186-17.886,2.253-27.158l-20.311-20.252c-2.493-2.486-2.493-6.515,0-9.001s6.534-2.486,9.028,0l10.817,10.785  c-1.337-25.929-4.786-49.683-0.66-60.066c-13.701,3.15-37.013-0.543-61.623-2.034l14,13.959c2.493,2.486,2.493,6.515,0,9.001  c-2.493,2.486-6.534,2.486-9.028,0L76.632,0c-9.233,0.069-18.356,0.76-26.937,2.546L85.93,38.675c2.493,2.486,2.493,6.515,0,9.001  C83.437,50.161,79.395,50.161,76.903,47.676z"/>

        </g>
    </g>
</g>

<!-- ITEM 2 -->
<g>
    <defs>
        
        <clipPath id="clip-path-id-viewbox-item-2">
            <rect x="0.0" y="0.0" width="200.0" height="165.0"/>
        </clipPath>
    </defs>
    <g transform="translate(521.0 444.0) rotate(346.1964264382946 -47.0 39.0) scale(-0.47 0.4727272727272727)">
        <g clip-path="url(#clip-path-id-viewbox-item-2)" transform="translate(-0.0 -0.0)">

<path fill="#EEEEEE" d="M170.98,87.304c0,2.433-1.969,4.406-4.397,4.406s-4.397-1.973-4.397-4.406V64.279  c-4.53-4.472-9.312-8.586-14.363-11.9v35.366c0,2.433-1.968,4.406-4.397,4.406s-4.397-1.973-4.397-4.406V47.621  c-4.579-1.942-9.362-3.119-14.363-3.257v43.381c0,2.433-1.969,4.406-4.397,4.406s-4.397-1.973-4.397-4.406V45.172  c-5.11,1.084-9.945,3.213-14.363,6.213v35.92c0,2.433-1.969,4.406-4.397,4.406s-4.397-1.973-4.397-4.406V59.093  c-9.961,11.037-16.269,27.332-16.269,45.614c0,18.279,6.308,34.838,16.269,45.969V123.87c0-2.433,1.969-4.406,4.397-4.406  s4.397,1.973,4.397,4.406v34.544c4.419,2.989,9.253,5.067,14.363,6.036v-40.139c0-2.433,1.969-4.406,4.397-4.406  s4.397,1.973,4.397,4.406V165c4.919-0.323,9.715-1.744,14.363-3.953v-36.736c0-2.433,1.969-4.406,4.397-4.406  s4.397,1.973,4.397,4.406v31.576c5.003-3.475,9.802-7.687,14.363-12.193V123.87c0-2.433,1.969-4.406,4.397-4.406  s4.397,1.973,4.397,4.406v10.557c12.015-13.343,21.938-26.653,29.02-29.721c-8.212-5.144-17.762-18.329-29.02-31.066V87.304z"/>
<g>
	<path fill="#EEEEEE" d="M88.874,107.692l-8.945,0.495c-12.575,0.695-25.578,1.414-37.787,4.962   c-9.421,2.737-22.351,8.45-30.449,20.128l-3.611-2.514c8.833-12.737,22.732-18.91,32.835-21.844   c12.69-3.687,25.948-4.42,38.769-5.129l8.945-0.495L88.874,107.692z"/>
</g>
<g>
	<path fill="#D6D7D8" d="M37.573,56.078l-4.913,7.506c-6.907,10.551-14.05,21.462-18.45,33.411   c-3.395,9.221-6.483,23.038-1.913,36.5l-4.163,1.419c-4.985-14.683-1.69-29.554,1.951-39.443   c4.573-12.42,11.856-23.545,18.898-34.303l4.913-7.506L37.573,56.078z"/>
</g>
<path fill="#D6D7D8" d="M79.876,14.333c1.448,1.954,1.041,4.713-0.909,6.163c-1.95,1.451-4.704,1.043-6.151-0.911l-13.7-18.487  c-6.298-0.885-12.585-1.332-18.612-0.975l21.042,28.394c1.448,1.954,1.041,4.713-0.909,6.163c-1.95,1.451-4.704,1.043-6.151-0.911  L30.612,1.557c-4.831,1.176-9.372,3.088-13.47,5.965l25.811,34.83c1.448,1.954,1.041,4.713-0.909,6.163  c-1.95,1.451-4.704,1.043-6.151-0.911l-25.33-34.18c-3.459,3.923-6.073,8.52-7.836,13.567l21.372,28.838  c1.448,1.954,1.041,4.713-0.909,6.163c-1.95,1.451-4.704,1.043-6.151-0.911L0.253,38.43c-1.43,14.812,3.201,31.662,14.078,46.34  c10.876,14.676,25.793,24.202,40.413,27.19L38.795,90.438c-1.448-1.954-1.041-4.713,0.909-6.163c1.95-1.451,4.704-1.043,6.151,0.911  l20.554,27.735c5.326-0.239,10.444-1.459,15.123-3.733L57.649,76.96c-1.448-1.954-1.041-4.713,0.909-6.163  c1.95-1.451,4.704-1.043,6.151,0.911l24.21,32.668c3.758-3.197,6.762-7.204,9.18-11.753L76.241,63.128  c-1.448-1.954-1.041-4.713,0.909-6.163c1.95-1.451,4.704-1.043,6.151,0.911l18.787,25.351c1.95-5.778,3.296-12.026,4.278-18.369  L94.571,48.943c-1.448-1.954-1.041-4.713,0.909-6.163c1.95-1.451,4.704-1.043,6.151,0.911l6.281,8.476  c1.707-17.889,1.756-34.502,5.616-41.196c-9.654,0.776-25.166-4.106-41.784-7.609L79.876,14.333z"/>

        </g>
    </g>
</g>

<!-- ITEM 3 -->
<g>
    <defs>
        
        <clipPath id="clip-path-id-viewbox-item-3">
            <rect x="0.0" y="0.0" width="225.0" height="32.0"/>
        </clipPath>
    </defs>
    <g transform="translate(514.0 450.0) rotate(0.0 299.0 42.5) scale(2.6577777777777776 2.65625)">
        <g clip-path="url(#clip-path-id-viewbox-item-3)" transform="translate(-0.0 -0.0)">

<g>
	<path fill="#A1C3FC" d="M223.5,32H1.5C0.672,32,0,31.328,0,30.5v-29C0,0.672,0.672,0,1.5,0h222c0.828,0,1.5,0.672,1.5,1.5v29   C225,31.328,224.328,32,223.5,32z M3,29h219V3H3V29z"/>
</g>
<rect x="7" y="8" fill="#D6D7D8" width="211" height="16"/>
<path fill="#A1C3FC" d="M124,24H7V8h117C132.362,8,132.362,24,124,24z"/>

        </g>
    </g>
</g>

<!-- ITEM 4 -->
<g>
    <defs>
        
        <clipPath id="clip-path-id-viewbox-item-4">
            <rect x="0.0" y="0.0" width="246.0" height="400.0"/>
        </clipPath>
    </defs>
    <g transform="translate(925.0 577.0) rotate(0.0 156.5 254.0) scale(1.2723577235772359 1.27)">
        <g clip-path="url(#clip-path-id-viewbox-item-4)" transform="translate(-0.0 -0.0)">

<g id="woman-i4">
	<path id="R_shoe-i4" fill="#428DFC" d="M152.108,364.28l29.395,0.001c0,0,12.677,13.535,28.135,20.157   C225.097,391.06,229.734,400,229.734,400l-90.434-0.003L152.108,364.28"/>
	
		<linearGradient id="L_shoe_1_-i4" gradientUnits="userSpaceOnUse" x1="6317.9932" y1="5965.6313" x2="5276.9561" y2="6748.3096" gradientTransform="matrix(0.0741 0 0 0.0741 -230.5491 -141.1613)">
		<stop offset="0.1291" style="stop-color:#428DFC"/>
		<stop offset="0.9987" style="stop-color:#1D72D8"/>
	</linearGradient>
	<path id="L_shoe-i4" fill="url(#L_shoe_1_-i4)" d="M162.684,316.413l28.765-6.045c0,0,15.192,10.638,31.683,13.939   S246,335.401,246,335.401l-88.5,18.6L162.684,316.413"/>
	
		<linearGradient id="L_trousers_1_-i4" gradientUnits="userSpaceOnUse" x1="6116.8398" y1="4295.8628" x2="4424.7715" y2="5169.9668" gradientTransform="matrix(0.0741 0 0 0.0741 -230.5491 -141.1613)">
		<stop offset="0" style="stop-color:#23286B"/>
		<stop offset="1" style="stop-color:#151A4F"/>
	</linearGradient>
	<path id="L_trousers-i4" fill="url(#L_trousers_1_-i4)" d="M68.731,158.283c0,0,66.854,11.795,84.267,18.885   c17.414,7.089,18.618,25.964,26.166,65.135c8.774,45.536,12.803,68.314,12.803,68.314l-32.816,6.659   c0,0-11.472-5.763-15.355-25.646s-1.837-21.743-6.55-32.403c-4.714-10.66-8.485-16.449-8.486-30.147   c-0.001-13.697-7.901-20.465-19.684-19.722c-11.783,0.744-64.178,0.165-86.463-35.775l-4.991-8.048   C17.622,165.535,54.601,150.935,68.731,158.283"/>
	
		<linearGradient id="L_hand_1_-i4" gradientUnits="userSpaceOnUse" x1="4895.2109" y1="2539.8235" x2="4982.9346" y2="3002.3611" gradientTransform="matrix(0.0741 0 0 0.0741 -230.5491 -141.1613)">
		<stop offset="0" style="stop-color:#FFBEB6"/>
		<stop offset="1" style="stop-color:#F2A19C"/>
	</linearGradient>
	<path id="L_hand-i4" fill="url(#L_hand_1_-i4)" d="M133.262,96.874c0,0,6.605-2.79,6.605-7.909c0-5.119,8.669-8.665,8.669-8.665   l-6.708,13.38l-3.536,7.494C138.291,101.173,130.993,113.645,133.262,96.874z"/>
	<path id="R_trousers-i4" fill="#23286B" d="M129.239,337.016c3.828,8.678,14.735,21.869,22.87,27.262l29.395,0.001   c-1.221-4.999-26.229-107.917-36.084-126.027c-8.041-14.761-19.391-30.365-30.682-43.957l-28.217-33.023l-27.988,5.599   c-0.986-0.399-2.799-0.696-3.887-1.059c-2.019-0.68-3.924,7.025-6.527,5.224c-4.433,2.22-28.039,0.178-31.274,1.453   c2.071,24.011,22.748,41.663,47.185,53.668c45.58,22.394,37.256,33.532,41.093,48.523c3.808,14.999,6.471,23.948,15.156,34.696   C128.985,320.127,121.958,320.459,129.239,337.016z"/>
	<path id="phone-i4" fill="#23286B" d="M158.671,97.514l-17.044-3.881c-1.009-0.23-1.641-1.234-1.411-2.244   c0.059-0.261,0.173-0.506,0.336-0.719l22.458-29.472c0.453-0.594,1.217-0.863,1.942-0.683l17.144,4.252   c1.005,0.25,1.618,1.265,1.368,2.27c-0.064,0.253-0.178,0.491-0.337,0.697l-22.558,29.102   C160.122,97.411,159.381,97.676,158.671,97.514z"/>
	
		<linearGradient id="R_hand_1_-i4" gradientUnits="userSpaceOnUse" x1="5179.2612" y1="3244.6477" x2="4890.5005" y2="3529.7051" gradientTransform="matrix(0.0741 -7.542857e-004 7.542857e-004 0.0741 -231.3851 -141.1325)">
		<stop offset="0" style="stop-color:#FFBEB6"/>
		<stop offset="1" style="stop-color:#F2A19C"/>
	</linearGradient>
	<path id="R_hand-i4" fill="url(#R_hand_1_-i4)" d="M134.868,100.916c0,0,4.871-3.676,6.96-7.237c0,0,3.203,0.743,5.199,1.066   c0,0,0.261-5.078,10.289-5.936c9.042-0.774,7.851-2.738,13.444-4.566c5.594-1.829,7.876-0.179,8.19,1.688   c0,0-5.887,2.127-7.243,4.306c-1.356,2.179-2.976,7.511-7.882,9.234c-4.906,1.723-21.83,3.077-25.357,14.432l0,0L134.868,100.916"/>
	<path id="texture-3-i4" opacity="0.66" fill="#FFFFFF" enable-background="new    " d="M55.349,187.976   c0.102,0.044,0.221-0.004,0.266-0.106c0.044-0.102-0.004-0.221-0.106-0.265c-0.102-0.044-0.221,0.004-0.265,0.106l0,0   C55.199,187.812,55.246,187.932,55.349,187.976L55.349,187.976z M57.25,183.42c0.108,0.041,0.228-0.005,0.279-0.109   c0.038-0.105-0.015-0.224-0.12-0.263c-0.094-0.047-0.209-0.008-0.256,0.086c-0.003,0.007-0.006,0.014-0.009,0.021   C57.1,183.258,57.147,183.376,57.25,183.42L57.25,183.42L57.25,183.42z M59.165,178.862c0.102,0.044,0.221-0.004,0.264-0.106l0,0   c0.041-0.108-0.005-0.228-0.109-0.279c-0.11-0.036-0.23,0.017-0.277,0.122C59.006,178.706,59.06,178.823,59.165,178.862   L59.165,178.862z M61.066,174.307c0.102,0.044,0.221-0.004,0.265-0.106l0,0c0.043-0.108-0.004-0.229-0.109-0.279   c-0.102-0.044-0.221,0.004-0.264,0.106l0,0C60.914,174.136,60.963,174.258,61.066,174.307L61.066,174.307z M76.045,187.923   c0.042,0.106,0.161,0.159,0.267,0.117l0,0c0.098-0.036,0.149-0.143,0.114-0.242c-0.003-0.008-0.006-0.017-0.011-0.024   c-0.038-0.102-0.151-0.156-0.254-0.119C76.055,187.697,76.003,187.816,76.045,187.923L76.045,187.923L76.045,187.923z    M48.241,179.983c0.077,0.078,0.203,0.08,0.28,0.003c0.078-0.077,0.08-0.203,0.003-0.28s-0.203-0.08-0.28-0.003l0,0   c-0.079,0.069-0.087,0.187-0.017,0.265C48.232,179.974,48.236,179.978,48.241,179.983L48.241,179.983z M51.746,176.506   c0.06,0.062,0.156,0.073,0.228,0.024l0.014-0.002c0.016,0,0.029-0.007,0.039-0.019c0.048-0.045,0.071-0.111,0.06-0.176   c-0.007-0.044-0.027-0.086-0.057-0.118c-0.077-0.077-0.202-0.079-0.28-0.003c-0.082,0.077-0.086,0.205-0.009,0.286   C51.741,176.501,51.743,176.504,51.746,176.506L51.746,176.506z M55.252,173.028c0.08,0.074,0.205,0.068,0.278-0.011   c0.078-0.077,0.08-0.203,0.003-0.28c-0.077-0.078-0.203-0.08-0.28-0.003l0,0c-0.082,0.077-0.086,0.205-0.009,0.286   C55.247,173.024,55.249,173.026,55.252,173.028L55.252,173.028z M65.562,187.275c0.007,0.113,0.098,0.203,0.211,0.209   c0.116-0.001,0.21-0.095,0.209-0.211s-0.095-0.21-0.211-0.209C65.658,187.073,65.568,187.164,65.562,187.275L65.562,187.275z    M65.577,182.338c0.004,0.112,0.097,0.198,0.209,0.194l0,0c0.108,0.008,0.202-0.073,0.21-0.18c0-0.005,0.001-0.011,0.001-0.017   c-0.003-0.115-0.096-0.207-0.211-0.209C65.674,182.135,65.584,182.226,65.577,182.338L65.577,182.338z M28.423,189.197   c0.137,0.161,0.378,0.181,0.54,0.045c0.003-0.003,0.007-0.006,0.011-0.009c0.159-0.137,0.175-0.376,0.04-0.534   c-0.001-0.001-0.001-0.002-0.002-0.002c-0.137-0.161-0.378-0.181-0.54-0.045c-0.003,0.003-0.007,0.006-0.011,0.009   c-0.159,0.137-0.176,0.376-0.04,0.534C28.421,189.196,28.422,189.197,28.423,189.197L28.423,189.197z M35.49,183.06   c0.142,0.162,0.389,0.179,0.55,0.037c0.162-0.142,0.179-0.389,0.037-0.55l-0.001-0.001c-0.137-0.159-0.376-0.175-0.534-0.04   c-0.001,0.001-0.002,0.001-0.002,0.002C35.378,182.65,35.357,182.893,35.49,183.06L35.49,183.06z M42.572,176.921   c0.142,0.162,0.389,0.178,0.55,0.036c0.162-0.142,0.178-0.389,0.036-0.55c-0.142-0.162-0.389-0.178-0.55-0.036   c-0.161,0.137-0.182,0.378-0.045,0.54C42.566,176.915,42.569,176.918,42.572,176.921L42.572,176.921z M56.542,212.656   c-0.011,0.214,0.151,0.396,0.364,0.411c0.205,0.022,0.389-0.125,0.412-0.329c0.001-0.007,0.001-0.014,0.002-0.021   c0.011-0.214-0.151-0.396-0.364-0.411C56.745,212.289,56.559,212.444,56.542,212.656L56.542,212.656L56.542,212.656z    M57.195,203.324c-0.009,0.215,0.156,0.396,0.371,0.405c0.21,0.009,0.39-0.149,0.405-0.359c0.017-0.211-0.14-0.396-0.351-0.412l0,0   C57.404,202.95,57.219,203.11,57.195,203.324L57.195,203.324z M57.859,193.976c-0.017,0.211,0.141,0.394,0.351,0.411   c0.004,0,0.009,0.001,0.014,0.001c0.205,0.022,0.389-0.125,0.412-0.329c0.001-0.007,0.001-0.014,0.002-0.021   c0.007-0.216-0.153-0.4-0.367-0.424C58.056,193.601,57.873,193.763,57.859,193.976L57.859,193.976z M58.511,184.644   c-0.011,0.214,0.153,0.397,0.367,0.409c0.213,0.011,0.395-0.15,0.409-0.363c0.017-0.211-0.139-0.396-0.351-0.412c0,0,0,0-0.001,0   c-0.214-0.02-0.403,0.137-0.423,0.351C58.511,184.634,58.511,184.639,58.511,184.644L58.511,184.644z M59.174,175.296   c-0.018,0.211,0.138,0.395,0.349,0.412c0.211,0.018,0.395-0.138,0.412-0.349c0-0.005,0.001-0.011,0.001-0.016   c0.019-0.209-0.134-0.393-0.343-0.412c-0.003,0-0.005,0-0.008-0.001C59.373,174.921,59.189,175.083,59.174,175.296L59.174,175.296z    M38.74,203.5c0.193,0.089,0.421,0.004,0.51-0.188c0.089-0.192,0.004-0.421-0.189-0.51c-0.189-0.087-0.412-0.007-0.505,0.178   C38.466,203.175,38.548,203.405,38.74,203.5L38.74,203.5z M42.923,195.119c0.193,0.089,0.421,0.004,0.51-0.188   c0.089-0.192,0.004-0.421-0.189-0.51c-0.189-0.087-0.412-0.007-0.505,0.179C42.651,194.794,42.731,195.024,42.923,195.119   L42.923,195.119z M47.109,186.752c0.197,0.092,0.431,0.006,0.524-0.19c0.089-0.19,0.012-0.417-0.173-0.515   c-0.193-0.101-0.43-0.027-0.532,0.164c-0.101,0.192-0.027,0.43,0.164,0.532C47.096,186.747,47.102,186.749,47.109,186.752z    M51.289,178.359c0.186,0.099,0.418,0.027,0.517-0.16c0.002-0.003,0.003-0.007,0.005-0.011c0.098-0.188,0.025-0.42-0.163-0.518   c-0.189-0.098-0.42-0.025-0.518,0.163c-0.003,0.005-0.005,0.011-0.008,0.017c-0.097,0.178-0.031,0.4,0.146,0.497   C51.274,178.35,51.282,178.355,51.289,178.359L51.289,178.359z M74.281,206.091c0.072,0.202,0.292,0.307,0.495,0.239   c0.199-0.064,0.307-0.278,0.242-0.477c0-0.001-0.001-0.003-0.001-0.004c-0.052-0.198-0.256-0.315-0.454-0.263   c-0.009,0.002-0.019,0.005-0.028,0.008C74.333,205.67,74.223,205.885,74.281,206.091L74.281,206.091z M71.315,197.204   c0.075,0.201,0.29,0.309,0.496,0.253c0.202-0.072,0.307-0.292,0.239-0.495c-0.069-0.202-0.286-0.309-0.488-0.241   c-0.002,0.001-0.004,0.001-0.006,0.002c-0.199,0.064-0.307,0.278-0.242,0.476C71.314,197.201,71.314,197.203,71.315,197.204   L71.315,197.204z M68.352,188.329c0.06,0.195,0.267,0.306,0.464,0.247c0.006-0.002,0.011-0.004,0.018-0.005   c0.204-0.06,0.319-0.274,0.259-0.479c-0.002-0.006-0.004-0.012-0.006-0.019c-0.07-0.204-0.29-0.31-0.494-0.241   s-0.31,0.29-0.241,0.494C68.352,188.328,68.352,188.329,68.352,188.329L68.352,188.329z M65.373,179.444   c0.072,0.202,0.292,0.307,0.495,0.239c0.196-0.06,0.306-0.267,0.247-0.463c-0.002-0.006-0.004-0.011-0.005-0.017   c-0.066-0.203-0.279-0.314-0.483-0.255C65.422,179.018,65.309,179.237,65.373,179.444L65.373,179.444z M30.631,199.184   c0.161,0.1,0.373,0.051,0.475-0.108c0.102-0.16,0.054-0.373-0.105-0.475c-0.16-0.102-0.373-0.054-0.475,0.105   c-0.001,0.001-0.001,0.002-0.002,0.003C30.424,198.869,30.471,199.08,30.631,199.184L30.631,199.184z M35.063,192.096   c0.161,0.099,0.372,0.051,0.475-0.108c0.106-0.158,0.065-0.372-0.093-0.479c-0.158-0.106-0.372-0.064-0.479,0.093   c-0.004,0.006-0.007,0.011-0.011,0.018c-0.102,0.155-0.06,0.364,0.095,0.466C35.055,192.09,35.059,192.094,35.063,192.096   L35.063,192.096z M39.355,184.805c0.014,0.086,0.066,0.161,0.14,0.205c0.161,0.099,0.372,0.051,0.475-0.108   c0.105-0.163,0.056-0.381-0.106-0.487c-0.001-0.001-0.002-0.001-0.003-0.002c-0.098-0.062-0.219-0.072-0.326-0.025l-0.014,0.002   c-0.06,0.024-0.11,0.071-0.136,0.131C39.327,184.604,39.315,184.711,39.355,184.805L39.355,184.805z M43.928,177.922   c0.165,0.1,0.38,0.046,0.48-0.118c0.099-0.164,0.047-0.377-0.115-0.479c-0.161-0.1-0.373-0.051-0.475,0.108   c-0.105,0.164-0.056,0.381,0.106,0.487C43.926,177.921,43.927,177.922,43.928,177.922L43.928,177.922z M65.186,204.764   c0.05,0.187,0.238,0.302,0.427,0.262c0.18-0.04,0.294-0.218,0.254-0.398c-0.001-0.005-0.002-0.009-0.003-0.015   c-0.039-0.186-0.222-0.305-0.408-0.265c-0.002,0-0.004,0.001-0.006,0.001C65.267,204.397,65.151,204.578,65.186,204.764   L65.186,204.764z M63.318,196.632c0.045,0.182,0.23,0.294,0.412,0.251c0.18-0.04,0.294-0.218,0.254-0.398   c-0.001-0.005-0.002-0.009-0.003-0.015c-0.039-0.186-0.222-0.305-0.408-0.265c-0.002,0-0.004,0.001-0.006,0.001   C63.383,196.259,63.272,196.447,63.318,196.632L63.318,196.632z M61.434,188.475c0.039,0.186,0.222,0.305,0.408,0.266   c0.002,0,0.004-0.001,0.006-0.001c0.176-0.033,0.292-0.205,0.258-0.38c-0.002-0.011-0.004-0.021-0.007-0.031   c-0.039-0.186-0.222-0.305-0.408-0.265c-0.002,0-0.004,0.001-0.006,0.001C61.504,188.113,61.394,188.294,61.434,188.475   L61.434,188.475z M59.553,180.347c0.049,0.185,0.24,0.297,0.425,0.247c0.18-0.047,0.29-0.229,0.251-0.411   c-0.047-0.183-0.229-0.298-0.414-0.264C59.628,179.971,59.513,180.158,59.553,180.347L59.553,180.347z M57.668,172.191   c0.041,0.187,0.227,0.306,0.414,0.266c0.187-0.041,0.306-0.227,0.265-0.414v-0.001c-0.05-0.187-0.238-0.302-0.427-0.262   C57.742,171.833,57.634,172.01,57.668,172.191L57.668,172.191z M27.134,179.183c0.109,0.153,0.321,0.189,0.473,0.083   c0.004-0.003,0.008-0.006,0.012-0.009c0.149-0.101,0.189-0.305,0.088-0.454c-0.004-0.006-0.008-0.011-0.012-0.017   c-0.106-0.158-0.321-0.198-0.477-0.094c-0.003,0.002-0.006,0.004-0.011,0.007C27.056,178.814,27.024,179.028,27.134,179.183   L27.134,179.183z M47.256,200.952c-0.025,0.188,0.105,0.363,0.292,0.393c0.186,0.031,0.363-0.093,0.395-0.278   c0.028-0.188-0.094-0.367-0.28-0.408C47.47,200.629,47.29,200.76,47.256,200.952L47.256,200.952z M48.645,192.706   c-0.037,0.179,0.079,0.355,0.258,0.392c0.006,0.001,0.014,0.002,0.02,0.003c0.186,0.031,0.363-0.093,0.395-0.278   c0.028-0.188-0.094-0.368-0.28-0.408C48.851,192.389,48.676,192.518,48.645,192.706L48.645,192.706z M50.022,184.461   c-0.033,0.186,0.093,0.363,0.278,0.395c0.186,0.033,0.363-0.093,0.395-0.278c0.031-0.185-0.093-0.363-0.278-0.395   S50.055,184.276,50.022,184.461z M51.399,176.218c-0.031,0.186,0.093,0.363,0.278,0.395c0.106,0.022,0.217-0.008,0.296-0.083   l0.014-0.002c0.05-0.054,0.086-0.122,0.099-0.195c0.025-0.188-0.105-0.363-0.292-0.393   C51.609,175.907,51.432,176.032,51.399,176.218L51.399,176.218z M78.561,194.272c0.101,0.149,0.305,0.188,0.455,0.088   c0.006-0.004,0.011-0.008,0.017-0.012c0.158-0.106,0.199-0.32,0.094-0.477c-0.002-0.003-0.004-0.006-0.007-0.011   c-0.117-0.15-0.331-0.182-0.486-0.073c-0.153,0.108-0.191,0.32-0.083,0.473C78.555,194.265,78.558,194.269,78.561,194.272   L78.561,194.272z M73.701,187.464c0.113,0.156,0.329,0.193,0.488,0.087c0.155-0.117,0.185-0.336,0.07-0.491   c-0.111-0.146-0.316-0.183-0.47-0.083c-0.157,0.103-0.202,0.314-0.098,0.471C73.692,187.453,73.697,187.459,73.701,187.464   L73.701,187.464z M31.176,178.47c0.085,0.077,0.215,0.072,0.292-0.012c0.077-0.085,0.072-0.215-0.012-0.292   c-0.085-0.077-0.215-0.072-0.292,0.012l0,0C31.089,178.264,31.095,178.391,31.176,178.47L31.176,178.47z M50.559,185.604   c0.004,0.112,0.097,0.198,0.209,0.194c0.112-0.004,0.199-0.097,0.195-0.209c-0.004-0.112-0.097-0.199-0.209-0.194   C50.641,185.398,50.555,185.492,50.559,185.604L50.559,185.604L50.559,185.604z M50.38,180.679   c0.011,0.114,0.109,0.199,0.222,0.192c0.112-0.004,0.199-0.097,0.195-0.209l0,0c0.001-0.108-0.087-0.194-0.194-0.195   c-0.005,0-0.011,0-0.016,0.001c-0.115-0.001-0.208,0.092-0.209,0.206C50.38,180.676,50.38,180.678,50.38,180.679L50.38,180.679z    M50.215,175.753c0.003,0.112,0.096,0.199,0.208,0.195c0.112-0.003,0.199-0.096,0.196-0.208c0-0.001,0-0.001,0-0.002   c0.001-0.108-0.087-0.194-0.193-0.195c-0.005,0-0.011,0-0.016,0.001C50.3,175.547,50.212,175.641,50.215,175.753   C50.215,175.752,50.215,175.753,50.215,175.753L50.215,175.753z M40.983,181.518c0.105,0.031,0.218-0.02,0.263-0.12   c0.041-0.102-0.007-0.218-0.11-0.259c-0.003-0.001-0.007-0.003-0.011-0.004c-0.099-0.042-0.214,0.003-0.256,0.102   c-0.002,0.006-0.005,0.011-0.006,0.018C40.825,181.36,40.878,181.478,40.983,181.518L40.983,181.518z M42.723,176.902   c0.105,0.031,0.218-0.02,0.263-0.12c0.036-0.105-0.017-0.221-0.12-0.263c-0.098-0.045-0.214-0.003-0.26,0.095   c-0.002,0.004-0.004,0.008-0.005,0.012c-0.045,0.105,0.004,0.227,0.11,0.272C42.714,176.898,42.718,176.9,42.723,176.902   L42.723,176.902z M59.742,180.909c0.045,0.102,0.164,0.148,0.266,0.103c0.102-0.045,0.148-0.164,0.103-0.266   c-0.034-0.098-0.143-0.149-0.241-0.114c-0.008,0.003-0.017,0.006-0.024,0.011c-0.101,0.042-0.148,0.159-0.106,0.259   C59.741,180.904,59.742,180.907,59.742,180.909L59.742,180.909z M57.695,176.423c0.05,0.105,0.175,0.148,0.28,0.101   c0.097-0.047,0.138-0.165,0.091-0.262c0,0,0-0.001-0.001-0.001c-0.036-0.098-0.143-0.149-0.241-0.114   c-0.008,0.003-0.017,0.006-0.024,0.011c-0.101,0.042-0.148,0.159-0.106,0.259C57.693,176.419,57.694,176.421,57.695,176.423   L57.695,176.423z M27.656,183.361c0.103,0.068,0.241,0.038,0.307-0.065c0.001-0.002,0.002-0.004,0.004-0.006   c0.072-0.103,0.045-0.245-0.057-0.315c-0.005-0.003-0.009-0.006-0.015-0.009c-0.103-0.068-0.241-0.038-0.307,0.065   c-0.001,0.002-0.002,0.004-0.004,0.006C27.516,183.146,27.547,183.291,27.656,183.361L27.656,183.361z M30.679,178.622   c0.111,0.07,0.256,0.037,0.326-0.073c0.07-0.11,0.037-0.256-0.073-0.325c-0.103-0.068-0.241-0.038-0.307,0.065   c-0.001,0.002-0.002,0.004-0.004,0.006c-0.076,0.1-0.055,0.242,0.044,0.317C30.669,178.616,30.674,178.619,30.679,178.622   L30.679,178.622z M50.888,187.376c0.02,0.118,0.131,0.198,0.25,0.178c0.008-0.001,0.018-0.003,0.026-0.006   c0.123-0.029,0.199-0.153,0.171-0.276c-0.033-0.122-0.151-0.202-0.277-0.185c-0.127,0.033-0.203,0.161-0.17,0.287   C50.887,187.375,50.887,187.376,50.888,187.376L50.888,187.376z M49.666,181.882c0.033,0.127,0.161,0.203,0.287,0.17   c0.001,0,0.001,0,0.002,0c0.123-0.029,0.199-0.153,0.171-0.276c-0.033-0.122-0.151-0.202-0.277-0.185   C49.722,181.627,49.643,181.753,49.666,181.882L49.666,181.882z M48.469,176.372c0.014,0.12,0.122,0.207,0.242,0.192   c0.011-0.001,0.023-0.004,0.034-0.007c0.123-0.029,0.199-0.153,0.171-0.276c-0.033-0.122-0.151-0.202-0.277-0.185   C48.517,176.126,48.442,176.249,48.469,176.372L48.469,176.372z M39.355,184.805c0.027,0.02,0.057,0.034,0.09,0.043   c0.124,0.023,0.243-0.059,0.266-0.183c0-0.003,0.001-0.005,0.001-0.008c0.02-0.122-0.056-0.239-0.176-0.27l-0.014,0.002   c-0.124-0.023-0.243,0.059-0.266,0.183c0,0.003-0.001,0.005-0.001,0.008C39.236,184.67,39.277,184.76,39.355,184.805   L39.355,184.805z M40.248,179.034c-0.026,0.122,0.051,0.242,0.173,0.269c0.001,0,0.002,0,0.003,0.001   c0.127,0.022,0.25-0.054,0.283-0.179c0.017-0.13-0.067-0.25-0.193-0.281C40.389,178.822,40.27,178.907,40.248,179.034   L40.248,179.034z M60.372,180.304c0.074,0.105,0.218,0.131,0.323,0.056c0.002-0.001,0.004-0.003,0.006-0.004   c0.101-0.073,0.125-0.213,0.054-0.314c-0.064-0.105-0.199-0.139-0.304-0.077c-0.004,0.003-0.009,0.005-0.014,0.008   C60.33,180.047,60.299,180.193,60.372,180.304L60.372,180.304z M57.158,175.686c0.065,0.101,0.199,0.131,0.299,0.066   c0.005-0.003,0.011-0.007,0.017-0.011c0.105-0.063,0.139-0.199,0.077-0.303c-0.003-0.004-0.005-0.009-0.008-0.014   c-0.074-0.109-0.221-0.138-0.331-0.066C57.106,175.434,57.082,175.581,57.158,175.686L57.158,175.686L57.158,175.686z    M31.966,198.523c-0.036,0.217,0.112,0.422,0.33,0.457c0.218,0.036,0.422-0.112,0.458-0.329c0.036-0.218-0.112-0.422-0.329-0.457   C32.206,198.159,32.003,198.306,31.966,198.523L31.966,198.523z M33.458,188.991c-0.028,0.221,0.124,0.422,0.344,0.456   c0.218,0.027,0.416-0.127,0.444-0.345c0.027-0.218-0.127-0.416-0.345-0.443C33.686,188.633,33.492,188.779,33.458,188.991z    M34.963,179.457c-0.036,0.217,0.112,0.422,0.329,0.457c0.217,0.035,0.422-0.112,0.458-0.329l0,0   c0.036-0.217-0.112-0.422-0.329-0.457C35.204,179.091,34.999,179.238,34.963,179.457L34.963,179.457z M70.042,198.82   c0.137,0.176,0.388,0.215,0.573,0.089c0.175-0.137,0.207-0.391,0.07-0.565c-0.133-0.169-0.375-0.206-0.55-0.082   C69.957,198.395,69.917,198.64,70.042,198.82z M64.36,191.021c0.131,0.175,0.378,0.215,0.558,0.091   c0.179-0.128,0.221-0.378,0.092-0.558c-0.128-0.179-0.378-0.221-0.558-0.092l-0.001,0.001   C64.274,190.594,64.234,190.841,64.36,191.021z M58.677,183.223c0.131,0.176,0.378,0.217,0.558,0.091   c0.176-0.137,0.215-0.388,0.089-0.572c-0.137-0.176-0.391-0.207-0.566-0.07C58.589,182.805,58.553,183.047,58.677,183.223   L58.677,183.223z M52.996,175.425c0.131,0.176,0.378,0.217,0.558,0.091c0.175-0.138,0.213-0.388,0.089-0.572   c-0.128-0.173-0.374-0.212-0.547-0.083c-0.003,0.002-0.005,0.004-0.008,0.006c-0.176,0.116-0.227,0.353-0.112,0.528   C52.981,175.405,52.989,175.414,52.996,175.425L52.996,175.425z M23.241,180.868c0.19,0.117,0.438,0.056,0.555-0.133   c0.117-0.189,0.056-0.438-0.133-0.555c-0.19-0.117-0.438-0.056-0.555,0.133C22.996,180.504,23.054,180.748,23.241,180.868   L23.241,180.868z M49.445,203.124c0.062,0.21,0.274,0.338,0.489,0.296c0.211-0.059,0.336-0.275,0.282-0.487   c-0.046-0.212-0.255-0.346-0.468-0.3c-0.002,0.001-0.005,0.001-0.007,0.002C49.525,202.688,49.392,202.906,49.445,203.124   C49.445,203.122,49.445,203.122,49.445,203.124z M47.18,193.734c0.052,0.217,0.27,0.349,0.488,0.296h0.001   c0.209-0.051,0.336-0.263,0.284-0.473l0,0c-0.048-0.214-0.261-0.347-0.475-0.298C47.264,193.308,47.131,193.52,47.18,193.734   L47.18,193.734z M44.916,184.358c0.046,0.212,0.255,0.346,0.467,0.3c0.002-0.001,0.005-0.001,0.007-0.002   c0.218-0.046,0.357-0.26,0.311-0.479c-0.045-0.218-0.26-0.357-0.479-0.311c-0.218,0.046-0.357,0.26-0.311,0.479   C44.914,184.347,44.915,184.353,44.916,184.358z M43.594,206.227c0.048,0.213,0.261,0.347,0.474,0.298   c0.213-0.048,0.347-0.261,0.298-0.474c-0.047-0.208-0.251-0.341-0.46-0.3C43.688,205.795,43.549,206.009,43.594,206.227   L43.594,206.227z M41.728,196.795c0.045,0.218,0.259,0.357,0.477,0.311c0.211-0.047,0.348-0.251,0.315-0.463   c-0.049-0.217-0.258-0.359-0.479-0.325C41.826,196.37,41.688,196.579,41.728,196.795L41.728,196.795z M39.863,187.363   c0.045,0.218,0.259,0.357,0.477,0.311c0.215-0.041,0.355-0.249,0.315-0.463c-0.04-0.215-0.249-0.355-0.464-0.314   C39.975,186.941,39.83,187.146,39.863,187.363L39.863,187.363z M38.012,177.93c0.033,0.209,0.23,0.352,0.438,0.318   c0.008-0.001,0.017-0.003,0.025-0.005c0.213-0.043,0.353-0.249,0.315-0.463c-0.041-0.215-0.249-0.355-0.464-0.314   C38.11,177.509,37.97,177.717,38.012,177.93L38.012,177.93z M61.479,173.342c0.187,0.116,0.433,0.063,0.557-0.119   c0.117-0.182,0.065-0.425-0.117-0.543c-0.17-0.123-0.409-0.086-0.533,0.086c-0.004,0.006-0.008,0.011-0.012,0.018   c-0.127,0.18-0.083,0.427,0.098,0.554C61.473,173.338,61.476,173.34,61.479,173.342L61.479,173.342z M25.474,191.438   c-0.041,0.213,0.099,0.418,0.311,0.459c0.001,0,0.002,0,0.003,0.001c0.215,0.046,0.427-0.09,0.475-0.303   c0.04-0.218-0.1-0.428-0.318-0.474C25.73,191.083,25.521,191.222,25.474,191.438L25.474,191.438z M27.371,182.002   c-0.045,0.214,0.091,0.424,0.305,0.471c0.214,0.045,0.424-0.091,0.471-0.305c0-0.002,0.001-0.005,0.001-0.007   c0.037-0.217-0.102-0.425-0.318-0.474c-0.213-0.041-0.418,0.099-0.46,0.311C27.371,182,27.371,182.001,27.371,182.002   L27.371,182.002z M59.811,194.335c0.127,0.182,0.376,0.229,0.56,0.105c0.18-0.122,0.228-0.366,0.106-0.546   c-0.112-0.183-0.351-0.241-0.534-0.13c-0.005,0.003-0.009,0.006-0.015,0.009c-0.186,0.118-0.243,0.364-0.125,0.55   C59.805,194.329,59.807,194.332,59.811,194.335L59.811,194.335z M54.479,186.334c0.127,0.182,0.376,0.229,0.56,0.105   c0.18-0.122,0.228-0.366,0.106-0.546c-0.112-0.183-0.351-0.241-0.534-0.13c-0.005,0.003-0.009,0.006-0.015,0.009   c-0.186,0.118-0.242,0.364-0.125,0.55C54.474,186.327,54.476,186.33,54.479,186.334L54.479,186.334z M49.146,178.333   c0.127,0.182,0.376,0.229,0.56,0.105c0.18-0.122,0.228-0.366,0.106-0.546c-0.12-0.185-0.368-0.237-0.553-0.117   c-0.185,0.12-0.237,0.368-0.117,0.553C49.143,178.33,49.145,178.331,49.146,178.333L49.146,178.333z M43.8,189.629   c0.067,0.153,0.243,0.222,0.396,0.156c0.148-0.064,0.219-0.236,0.16-0.386c-0.055-0.148-0.222-0.224-0.371-0.167   c-0.009,0.003-0.019,0.007-0.028,0.012C43.809,189.31,43.74,189.479,43.8,189.629L43.8,189.629z M40.948,182.977   c0.067,0.153,0.245,0.224,0.398,0.157c0.153-0.066,0.224-0.245,0.157-0.398c0-0.001-0.001-0.002-0.001-0.003   c-0.064-0.151-0.238-0.222-0.39-0.159c-0.003,0.001-0.006,0.003-0.009,0.004C40.952,182.648,40.884,182.823,40.948,182.977   L40.948,182.977z M38.094,176.31c0.068,0.153,0.247,0.222,0.399,0.155c0.152-0.068,0.222-0.247,0.155-0.399   c-0.068-0.153-0.247-0.222-0.399-0.155l0,0C38.099,175.981,38.031,176.158,38.094,176.31L38.094,176.31z M28.424,188.904   c0.005,0.164,0.141,0.295,0.306,0.294c0.162-0.011,0.289-0.144,0.292-0.306c-0.003-0.165-0.139-0.296-0.303-0.294   c-0.001,0-0.002,0-0.003,0c-0.16-0.002-0.292,0.125-0.294,0.284C28.423,188.889,28.423,188.897,28.424,188.904L28.424,188.904z    M28.328,181.646c0.006,0.167,0.141,0.301,0.308,0.307c0.164-0.003,0.296-0.139,0.294-0.303c0-0.001,0-0.002,0-0.003   c0.004-0.159-0.122-0.292-0.281-0.295c-0.003,0-0.007,0-0.011,0c-0.165-0.005-0.303,0.124-0.308,0.289   C28.328,181.643,28.328,181.645,28.328,181.646L28.328,181.646z M54.107,178.402c0.113,0.115,0.297,0.117,0.412,0.005   c0.002-0.002,0.004-0.004,0.007-0.007c0.119-0.112,0.124-0.298,0.012-0.417c-0.005-0.005-0.011-0.011-0.017-0.017   c-0.124-0.111-0.315-0.1-0.424,0.024C53.993,178.109,53.997,178.289,54.107,178.402L54.107,178.402z M31.237,179.315   c0.083,0.123,0.251,0.157,0.374,0.074l0,0c0.118-0.069,0.159-0.219,0.091-0.338c-0.004-0.007-0.009-0.015-0.015-0.022   c-0.068-0.123-0.221-0.167-0.344-0.101c-0.006,0.003-0.012,0.007-0.019,0.011c-0.127,0.073-0.17,0.234-0.098,0.36   C31.231,179.304,31.234,179.309,31.237,179.315L31.237,179.315z"/>
	<path id="texture-4-i4" opacity="0.66" fill="#FFFFFF" enable-background="new    " d="M72.953,176.412   c0.102,0.044,0.221-0.004,0.266-0.106c0.044-0.102-0.004-0.221-0.106-0.265c-0.102-0.044-0.221,0.004-0.265,0.106l0,0   C72.803,176.249,72.85,176.368,72.953,176.412L72.953,176.412z M74.854,171.856c0.108,0.041,0.228-0.005,0.279-0.109   c0.038-0.105-0.015-0.224-0.12-0.263c-0.094-0.047-0.209-0.008-0.256,0.086c-0.003,0.007-0.006,0.014-0.009,0.021   C74.704,171.695,74.752,171.811,74.854,171.856L74.854,171.856z M93.649,176.359c0.042,0.106,0.161,0.159,0.267,0.117l0,0   c0.098-0.036,0.149-0.143,0.114-0.242c-0.003-0.008-0.006-0.017-0.011-0.024c-0.038-0.102-0.151-0.156-0.254-0.119   C93.659,176.133,93.607,176.253,93.649,176.359L93.649,176.359L93.649,176.359z M83.167,175.712   c0.007,0.113,0.098,0.203,0.211,0.209c0.116-0.001,0.21-0.095,0.209-0.211s-0.095-0.21-0.211-0.209   C83.262,175.508,83.173,175.599,83.167,175.712L83.167,175.712z M83.182,170.774c0.004,0.112,0.097,0.199,0.209,0.194l0,0   c0.108,0.008,0.202-0.073,0.21-0.18c0-0.005,0.001-0.011,0.001-0.017c-0.003-0.115-0.096-0.207-0.211-0.209   C83.279,170.571,83.189,170.661,83.182,170.774L83.182,170.774z M46.028,177.633c0.137,0.161,0.378,0.181,0.54,0.045   c0.003-0.003,0.007-0.006,0.011-0.009c0.159-0.137,0.175-0.376,0.04-0.534c-0.001-0.001-0.001-0.002-0.002-0.002   c-0.137-0.161-0.378-0.181-0.54-0.045c-0.003,0.003-0.007,0.006-0.011,0.009c-0.159,0.137-0.176,0.376-0.04,0.534   C46.024,177.632,46.027,177.633,46.028,177.633L46.028,177.633z M74.147,201.092c-0.011,0.214,0.151,0.396,0.364,0.411   c0.205,0.022,0.389-0.125,0.412-0.329c0.001-0.007,0.001-0.014,0.002-0.021c0.011-0.214-0.151-0.396-0.364-0.411   C74.349,200.724,74.164,200.88,74.147,201.092L74.147,201.092L74.147,201.092z M74.799,191.76   c-0.009,0.215,0.156,0.396,0.371,0.405c0.21,0.009,0.39-0.149,0.405-0.359c0.017-0.211-0.14-0.396-0.351-0.412l0,0   C75.009,191.386,74.823,191.546,74.799,191.76L74.799,191.76z M75.463,182.412c-0.017,0.211,0.141,0.394,0.351,0.411   c0.004,0,0.009,0.001,0.014,0.001c0.205,0.022,0.389-0.125,0.412-0.329c0.001-0.007,0.001-0.014,0.002-0.021   c0.007-0.216-0.153-0.4-0.367-0.424C75.661,182.037,75.477,182.199,75.463,182.412L75.463,182.412z M76.115,173.08   c-0.011,0.214,0.153,0.397,0.367,0.409c0.213,0.011,0.395-0.15,0.409-0.363c0.017-0.211-0.139-0.396-0.351-0.412c0,0,0,0-0.001,0   c-0.214-0.02-0.403,0.137-0.423,0.351C76.115,173.069,76.115,173.074,76.115,173.08L76.115,173.08z M56.345,191.935   c0.193,0.089,0.421,0.004,0.51-0.188c0.089-0.192,0.004-0.421-0.188-0.51c-0.188-0.087-0.412-0.007-0.505,0.178   C56.071,191.61,56.151,191.841,56.345,191.935L56.345,191.935z M60.527,183.555c0.193,0.089,0.421,0.004,0.51-0.188   c0.089-0.192,0.004-0.421-0.188-0.51c-0.188-0.087-0.412-0.007-0.505,0.179C60.253,183.23,60.336,183.46,60.527,183.555   L60.527,183.555z M64.714,175.189c0.197,0.092,0.431,0.006,0.524-0.19c0.089-0.19,0.012-0.417-0.173-0.515   c-0.193-0.101-0.43-0.027-0.532,0.164c-0.101,0.192-0.027,0.43,0.164,0.532C64.7,175.183,64.707,175.186,64.714,175.189z    M91.885,194.528c0.072,0.202,0.292,0.307,0.495,0.239c0.199-0.064,0.307-0.278,0.242-0.477c0-0.001-0.001-0.003-0.001-0.004   c-0.052-0.198-0.256-0.315-0.454-0.263c-0.009,0.002-0.019,0.005-0.028,0.008C91.938,194.107,91.828,194.321,91.885,194.528   L91.885,194.528z M88.92,185.64c0.075,0.201,0.29,0.309,0.496,0.253c0.202-0.072,0.307-0.292,0.239-0.495   c-0.069-0.202-0.286-0.309-0.488-0.241c-0.002,0.001-0.004,0.001-0.006,0.002c-0.199,0.064-0.307,0.278-0.242,0.476   C88.919,185.638,88.919,185.638,88.92,185.64L88.92,185.64z M85.956,176.766c0.06,0.195,0.267,0.306,0.464,0.247   c0.006-0.002,0.011-0.004,0.018-0.005c0.204-0.06,0.319-0.274,0.259-0.479c-0.002-0.006-0.004-0.012-0.006-0.019   c-0.07-0.204-0.29-0.31-0.494-0.241s-0.31,0.29-0.241,0.494C85.956,176.765,85.956,176.766,85.956,176.766L85.956,176.766z    M48.235,187.619c0.161,0.1,0.373,0.051,0.475-0.108c0.102-0.16,0.054-0.373-0.105-0.475c-0.16-0.102-0.373-0.054-0.475,0.105   c-0.001,0.001-0.001,0.002-0.002,0.003C48.028,187.306,48.076,187.516,48.235,187.619L48.235,187.619z M52.667,180.532   c0.161,0.099,0.372,0.051,0.475-0.108c0.106-0.158,0.065-0.372-0.093-0.479c-0.158-0.106-0.372-0.064-0.479,0.093   c-0.004,0.006-0.007,0.011-0.011,0.018c-0.102,0.155-0.06,0.364,0.095,0.466C52.659,180.528,52.663,180.529,52.667,180.532   L52.667,180.532z M56.959,173.24c0.014,0.086,0.066,0.161,0.14,0.205c0.161,0.099,0.372,0.051,0.475-0.108   c0.105-0.163,0.056-0.381-0.106-0.487c-0.001-0.001-0.002-0.001-0.003-0.002c-0.098-0.062-0.219-0.072-0.326-0.025l-0.014,0.002   c-0.06,0.024-0.11,0.071-0.136,0.131C56.931,173.041,56.919,173.146,56.959,173.24L56.959,173.24z M82.789,193.199   c0.05,0.187,0.238,0.302,0.427,0.262c0.18-0.04,0.294-0.218,0.254-0.398c-0.001-0.005-0.002-0.009-0.003-0.015   c-0.039-0.186-0.222-0.305-0.408-0.265c-0.002,0-0.004,0.001-0.006,0.001C82.871,192.832,82.755,193.013,82.789,193.199   L82.789,193.199z M80.923,185.068c0.045,0.182,0.23,0.294,0.412,0.251c0.18-0.04,0.294-0.218,0.254-0.398   c-0.001-0.005-0.002-0.009-0.003-0.015c-0.039-0.186-0.222-0.305-0.408-0.265c-0.002,0-0.004,0.001-0.006,0.001   C80.987,184.694,80.876,184.882,80.923,185.068L80.923,185.068z M79.038,176.912c0.039,0.186,0.222,0.305,0.408,0.266   c0.002,0,0.004-0.001,0.006-0.001c0.176-0.033,0.292-0.205,0.258-0.38c-0.002-0.011-0.004-0.021-0.007-0.031   c-0.039-0.186-0.222-0.305-0.408-0.265c-0.002,0-0.004,0.001-0.006,0.001C79.107,176.549,78.998,176.729,79.038,176.912   L79.038,176.912z M64.861,189.388c-0.025,0.188,0.105,0.363,0.292,0.393c0.186,0.031,0.363-0.093,0.395-0.278   c0.028-0.188-0.094-0.368-0.28-0.408C65.074,189.065,64.893,189.195,64.861,189.388L64.861,189.388z M66.25,181.142   c-0.037,0.179,0.079,0.355,0.258,0.392c0.006,0.001,0.014,0.002,0.02,0.003c0.186,0.031,0.363-0.093,0.395-0.278   c0.028-0.188-0.094-0.368-0.28-0.408C66.454,180.824,66.28,180.954,66.25,181.142L66.25,181.142z M67.627,172.898   c-0.033,0.186,0.093,0.363,0.278,0.395c0.186,0.033,0.363-0.093,0.395-0.278c0.031-0.185-0.093-0.363-0.278-0.395   S67.659,172.712,67.627,172.898L67.627,172.898z M96.165,182.709c0.101,0.149,0.305,0.188,0.455,0.088   c0.006-0.004,0.011-0.008,0.017-0.012c0.158-0.106,0.199-0.32,0.094-0.477c-0.002-0.003-0.004-0.006-0.007-0.011   c-0.117-0.15-0.331-0.182-0.486-0.073c-0.153,0.108-0.191,0.32-0.083,0.473C96.159,182.7,96.161,182.704,96.165,182.709   L96.165,182.709z M91.306,175.9c0.113,0.156,0.329,0.193,0.488,0.087c0.155-0.117,0.185-0.336,0.07-0.491   c-0.111-0.146-0.316-0.183-0.47-0.083c-0.157,0.103-0.202,0.314-0.098,0.471C91.296,175.888,91.301,175.895,91.306,175.9z    M68.163,174.04c0.004,0.112,0.097,0.199,0.209,0.194c0.112-0.004,0.199-0.097,0.195-0.209s-0.097-0.199-0.209-0.194   C68.246,173.835,68.159,173.928,68.163,174.04L68.163,174.04L68.163,174.04z M67.984,169.115c0.011,0.114,0.109,0.199,0.222,0.192   c0.112-0.004,0.199-0.097,0.195-0.209l0,0c0.001-0.108-0.087-0.194-0.194-0.195c-0.005,0-0.011,0-0.016,0.001   c-0.115-0.001-0.208,0.092-0.209,0.206C67.984,169.111,67.984,169.113,67.984,169.115L67.984,169.115z M68.492,175.811   c0.02,0.118,0.131,0.199,0.25,0.178c0.008-0.001,0.018-0.003,0.026-0.006c0.123-0.029,0.199-0.153,0.171-0.276   c-0.033-0.122-0.151-0.202-0.277-0.185c-0.127,0.033-0.203,0.161-0.17,0.287C68.492,175.81,68.492,175.811,68.492,175.811   L68.492,175.811z M67.269,170.318c0.033,0.127,0.161,0.203,0.287,0.17c0.001,0,0.001,0,0.002,0   c0.123-0.029,0.199-0.153,0.171-0.276c-0.033-0.122-0.151-0.202-0.277-0.185C67.326,170.063,67.248,170.188,67.269,170.318   L67.269,170.318z M56.959,173.24c0.027,0.02,0.057,0.034,0.09,0.043c0.124,0.023,0.243-0.059,0.266-0.183   c0-0.003,0.001-0.005,0.001-0.008c0.02-0.122-0.056-0.239-0.176-0.27l-0.014,0.002c-0.124-0.023-0.243,0.059-0.266,0.183   c0,0.003-0.001,0.005-0.001,0.008C56.841,173.106,56.881,173.196,56.959,173.24L56.959,173.24z M49.57,186.959   c-0.036,0.217,0.112,0.422,0.33,0.457c0.218,0.036,0.422-0.112,0.458-0.329c0.035-0.218-0.112-0.422-0.329-0.457   C49.811,186.594,49.606,186.742,49.57,186.959L49.57,186.959z M51.062,177.427c-0.028,0.221,0.124,0.422,0.344,0.456   c0.218,0.027,0.416-0.127,0.444-0.345c0.027-0.218-0.127-0.416-0.345-0.443C51.29,177.069,51.096,177.215,51.062,177.427z    M87.646,187.255c0.137,0.176,0.388,0.215,0.573,0.089c0.176-0.137,0.207-0.391,0.07-0.565c-0.133-0.169-0.375-0.206-0.55-0.082   C87.562,186.83,87.521,187.076,87.646,187.255L87.646,187.255z M81.964,179.458c0.131,0.175,0.378,0.215,0.558,0.091   c0.179-0.128,0.221-0.378,0.092-0.558c-0.128-0.179-0.378-0.221-0.558-0.092l-0.001,0.001   C81.878,179.031,81.838,179.277,81.964,179.458L81.964,179.458z M76.282,171.658c0.131,0.176,0.378,0.217,0.558,0.091   c0.175-0.137,0.215-0.388,0.089-0.572c-0.137-0.176-0.391-0.207-0.566-0.07C76.192,171.24,76.158,171.482,76.282,171.658   L76.282,171.658z M67.049,191.56c0.063,0.21,0.274,0.338,0.489,0.296c0.211-0.059,0.336-0.275,0.282-0.487   c-0.046-0.212-0.255-0.346-0.468-0.3c-0.002,0.001-0.005,0.001-0.007,0.002C67.129,191.124,66.997,191.342,67.049,191.56   C67.049,191.559,67.049,191.56,67.049,191.56L67.049,191.56z M64.784,182.169c0.052,0.217,0.27,0.349,0.488,0.296h0.001   c0.209-0.051,0.336-0.263,0.284-0.473l0,0c-0.048-0.214-0.261-0.347-0.475-0.298C64.868,181.743,64.736,181.956,64.784,182.169   L64.784,182.169z M62.52,172.793c0.046,0.212,0.255,0.346,0.467,0.3c0.002-0.001,0.005-0.001,0.007-0.002   c0.218-0.046,0.357-0.26,0.311-0.479c-0.045-0.218-0.26-0.357-0.479-0.311c-0.218,0.046-0.357,0.26-0.311,0.479   C62.518,172.784,62.519,172.789,62.52,172.793z M61.198,194.663c0.048,0.213,0.261,0.347,0.474,0.298   c0.213-0.048,0.347-0.261,0.298-0.474c-0.047-0.208-0.251-0.341-0.46-0.3C61.292,194.231,61.153,194.444,61.198,194.663   L61.198,194.663z M59.333,185.23c0.045,0.218,0.259,0.357,0.477,0.311c0.211-0.047,0.348-0.251,0.315-0.463   c-0.049-0.217-0.258-0.359-0.479-0.325C59.429,184.805,59.292,185.014,59.333,185.23L59.333,185.23z M57.468,175.799   c0.045,0.218,0.259,0.357,0.477,0.311c0.215-0.041,0.355-0.249,0.315-0.463c-0.041-0.215-0.249-0.355-0.464-0.314   C57.579,175.377,57.434,175.582,57.468,175.799L57.468,175.799z M43.078,179.874c-0.041,0.213,0.099,0.418,0.311,0.459   c0.001,0,0.002,0,0.003,0.001c0.215,0.046,0.427-0.09,0.475-0.303c0.04-0.218-0.1-0.428-0.318-0.474   C43.334,179.518,43.125,179.657,43.078,179.874L43.078,179.874z M77.415,182.771c0.127,0.182,0.376,0.229,0.56,0.105   c0.18-0.122,0.228-0.366,0.106-0.546c-0.112-0.183-0.351-0.241-0.534-0.13c-0.005,0.003-0.009,0.006-0.015,0.009   c-0.186,0.118-0.243,0.364-0.125,0.55C77.41,182.765,77.412,182.768,77.415,182.771L77.415,182.771z M72.082,174.771   c0.127,0.182,0.376,0.229,0.56,0.105c0.18-0.122,0.228-0.366,0.106-0.546c-0.112-0.183-0.351-0.241-0.534-0.13   c-0.005,0.003-0.009,0.006-0.015,0.009c-0.186,0.118-0.242,0.364-0.125,0.55C72.078,174.764,72.08,174.767,72.082,174.771   L72.082,174.771z M61.404,178.065c0.067,0.153,0.243,0.222,0.396,0.156c0.148-0.064,0.219-0.236,0.16-0.386   c-0.055-0.148-0.222-0.224-0.371-0.167c-0.009,0.003-0.019,0.007-0.028,0.012C61.413,177.746,61.344,177.915,61.404,178.065   L61.404,178.065z M46.029,177.339c0.005,0.164,0.141,0.295,0.306,0.294c0.162-0.011,0.289-0.144,0.292-0.306   c-0.003-0.165-0.139-0.296-0.303-0.294c-0.001,0-0.002,0-0.003,0c-0.16-0.002-0.292,0.125-0.294,0.284   C46.028,177.326,46.028,177.332,46.029,177.339L46.029,177.339z"/>
	
		<linearGradient id="L_sleeve_1_-i4" gradientUnits="userSpaceOnUse" x1="4215.3198" y1="2812.6555" x2="4440.0005" y2="3690.3206" gradientTransform="matrix(0.0741 0 0 0.0741 -230.5491 -141.1613)">
		<stop offset="0.1291" style="stop-color:#428DFC"/>
		<stop offset="0.9987" style="stop-color:#1D72D8"/>
	</linearGradient>
	<path id="L_sleeve-i4" fill="url(#L_sleeve_1_-i4)" d="M141.889,131.385c0,0-3.455,7.149-15.537,7.643   c-12.081,0.495-14.799,2.463-23.679,8.138c-8.88,5.675-25.649,7.886-42.428-18.245c-15.4-24.004-20.613-50.494-17.907-64.59   c4.109,1.508,8.327,2.701,12.619,3.569c1.39,0.284,2.685,0.506,3.908,0.674c2.223,0.326,6.645,0.55,8.226,0.644   c2.855,9.433,6.183,45.07,27.58,40.817c13.407-2.597,26.39-7.027,38.59-13.163L141.889,131.385z"/>
	
		<linearGradient id="sweater_1_-i4" gradientUnits="userSpaceOnUse" x1="3290.8882" y1="3171.4163" x2="3663.6816" y2="4397.8501" gradientTransform="matrix(0.0741 0 0 0.0741 -230.5491 -141.1613)">
		<stop offset="0.1291" style="stop-color:#428DFC"/>
		<stop offset="0.9987" style="stop-color:#1D72D8"/>
	</linearGradient>
	<path id="sweater-i4" fill="url(#sweater_1_-i4)" d="M69.242,167.813c-10.375,4.59-24.995,8.328-45.472,9.16   c-4.803,0.201-9.94,0.225-15.41,0.074c-16.737-19.529-3.971-40.565,0.811-54.051c4.771-13.497,0.19-13.971,9.238-36.985   c0.996-2.365,2.146-4.661,3.444-6.875c1.506,21.73,10.038,46.114,21.889,66.833C51.103,158.843,59.529,165.603,69.242,167.813z"/>
	<path id="R_sleeve-i4" fill="#428DFC" d="M146.682,140.713c0,0-3.908,11.381-23.352,14.455c-19.444,3.085-23.12,8.781-32.685,11.424   c-7.753,2.148-14.873,2.716-21.404,1.221c-9.711-2.211-18.139-8.97-25.501-21.846c-11.849-20.719-20.382-45.103-21.889-66.833   c2.4-4.252,5.093-8.332,8.058-12.213c3.17-3.895,5.782-6.812,7.91-9.013c2.844-1.379,24.74-5.157,28.196-4.61   c0,0-1.433,32.207,14.114,52.779c1.685,2.222-1.283-1.898,0,0c6.082,8.999,11.629,10.216,16.79,10.216   c6.004,0,26.768-5.564,37.955-15.608L146.682,140.713z"/>
	<path id="face-i4" fill="#FFBEB6" d="M57.357,45.807c4.542,3.898,14.841,10.428,21.043,7.917c7.422-3.011,9.494-9.131,10.865-8.908   c1.367,0.232,4.413,0.016,4.794-1.418c0.385-1.421-2.327-6.43-1.613-11.787c0.066-0.498,0.121-0.98,0.148-1.456l-0.003-0.014   c0.02-0.113,0.031-0.228,0.034-0.343c0.006-0.054,0.006-0.11,0.001-0.164c-0.002-0.019-0.001-0.038,0.002-0.057   c-0.001-0.071,0.004-0.15,0.008-0.23c0.007-0.572,0.007-1.419-0.078-2.426c-0.034-0.47-0.088-0.985-0.166-1.531   c-0.082-0.615-0.214-1.269-0.372-1.936c-0.011-0.048-0.022-0.096-0.033-0.143c-0.04-0.166-0.072-0.326-0.117-0.495   c-0.077-0.297-0.167-0.591-0.266-0.891c-0.071-0.235-0.155-0.465-0.245-0.688c-0.037-0.106-0.082-0.218-0.127-0.329   c-0.079-0.205-0.165-0.414-0.258-0.615c-0.015-0.045-0.033-0.089-0.056-0.131c-0.005,0.008-0.002,0.022-0.014,0.038   c-0.112,0.425-0.26,0.84-0.444,1.24c-0.05,0.131-0.12,0.275-0.19,0.418c-0.264,0.531-0.574,1.037-0.927,1.512   c-0.053,0.083-0.116,0.16-0.183,0.245c-0.062,0.077-0.13,0.162-0.197,0.249c-0.135,0.17-0.283,0.345-0.441,0.513   c-0.015,0.024-0.034,0.036-0.051,0.06c-0.224,0.254-0.461,0.497-0.709,0.726c-0.087,0.097-0.184,0.173-0.279,0.265   c-0.004,0.006-0.011,0.009-0.019,0.011c-0.184,0.173-0.39,0.346-0.605,0.512l-0.011,0.017c-0.103,0.087-0.214,0.166-0.326,0.247   c-0.487,0.378-0.996,0.725-1.526,1.041c-0.182,0.117-0.38,0.222-0.585,0.337c-0.095,0.055-0.184,0.103-0.288,0.153   c-0.095,0.055-0.196,0.12-0.299,0.169c-0.054,0.029-0.111,0.055-0.168,0.079c-0.151,0.09-0.316,0.159-0.485,0.237   c-0.168,0.079-0.337,0.157-0.514,0.23c-0.168,0.079-0.337,0.157-0.522,0.225c-0.466,0.19-0.957,0.366-1.469,0.538   c-0.286,0.096-0.581,0.186-0.88,0.285c-1.141,0.332-2.299,0.604-3.47,0.811l-0.761,0.139c-2.336,0.403-4.611,1.094-6.776,2.056   c-0.319,0.181-0.641,0.371-0.979,0.562c-0.914,0.53-1.785,1.129-2.606,1.796C61.709,37.801,59.011,41.561,57.357,45.807z"/>
	<path id="eye-i4" fill="#1C2868" d="M94.993,32.951c-1.041,1.566-3.154,1.991-4.721,0.95c-0.567-0.377-1.008-0.915-1.266-1.545   c-0.2-0.479,0.51-0.88,0.712-0.395c0.492,1.344,1.981,2.035,3.326,1.545c0.506-0.185,0.944-0.524,1.249-0.969   C94.594,32.111,95.297,32.523,94.993,32.951L94.993,32.951z"/>
	<path id="hair-i4" fill="#E94A47" d="M71.474,0.899c-2.552-0.747-5.217-1.032-7.869-0.842h-0.105   c-9.689,0.317-17.057,5.762-21.668,13.54c-2.624,3.988-4.561,8.387-5.733,13.015c-2.39,8.373-4.796,24.315-16.312,23.898   c-0.509-0.018-0.508,0.772,0,0.79c7.357,0.266,11.119-6.119,13.474-12.266c1.552-4.052,2.557-8.292,3.757-12.427   c-0.324,1.728-0.544,3.472-0.663,5.225c-1.295,18.718-14.873,21.856-14.873,21.856c6.428,4.301,13.336,7.842,20.582,10.549   c4.195,1.554,8.507,2.78,12.893,3.664c1.39,0.284,2.685,0.506,3.908,0.674c3.548,0.591,7.151,0.8,10.744,0.622   c5.802-7.675,3.656-15.48,1.216-21.98c3.651,7.011,5.557,13.491,1.728,21.32c-0.222,0.454,0.458,0.856,0.682,0.399   c2.303-4.412,2.954-9.501,1.834-14.351c-1.611-6.604-7.628-11.925-7.134-18.755c0.479-1.819,2.075-3.135,5.562-3.797   c0.158-0.031,0.316-0.052,0.485-0.085c17.296-2.853,16.938-11.781,16.938-11.803c1.315,3.166,1.888,6.59,1.674,10.012   C99.156,13.291,84.325,4.616,71.474,0.899z"/>
</g>

        </g>
    </g>
</g>

<!-- ITEM 5 -->
<g>
    <defs>
        
        <clipPath id="clip-path-id-viewbox-item-5">
            <rect x="0.0" y="0.0" width="300.0" height="383.0"/>
        </clipPath>
    </defs>
    <g transform="translate(742.0 621.0) rotate(0.0 -112.5 143.5) scale(-0.75 0.7493472584856397)">
        <g clip-path="url(#clip-path-id-viewbox-item-5)" transform="translate(-0.0 -0.0)">

<linearGradient id="R_F_leg_1_-i5" gradientUnits="userSpaceOnUse" x1="8741.082" y1="13249.4326" x2="16637.7715" y2="17365.2813" gradientTransform="matrix(0.0222 0 0 0.0222 -197.4722 -74.0781)">
	<stop offset="0" style="stop-color:#A1C3FC"/>
	<stop offset="0.6955" style="stop-color:#81AEF2"/>
	<stop offset="1" style="stop-color:#78A9EF"/>
</linearGradient>
<path id="R_F_leg-i5" fill="url(#R_F_leg_1_-i5)" d="M59.372,299.34c-9.824,1.861-12.878,5.979-13.409,11.694h32.26  c4.248-3.056,7.833-13.288,7.7-30.296c-0.266-20.597,0.797-78.931,0.797-78.931l-42.881-10.896c0,0,14.736,39.864,18.586,62.719  C66.408,276.484,69.727,297.346,59.372,299.34z"/>
<linearGradient id="L_B_leg_1_-i5" gradientUnits="userSpaceOnUse" x1="11085.9121" y1="14254.7119" x2="16300.1631" y2="15689.8281" gradientTransform="matrix(0.0222 0 0 0.0222 -197.4722 -74.0781)">
	<stop offset="0" style="stop-color:#A1C3FC"/>
	<stop offset="0.6955" style="stop-color:#81AEF2"/>
	<stop offset="1" style="stop-color:#78A9EF"/>
</linearGradient>
<path id="L_B_leg-i5" fill="url(#L_B_leg_1_-i5)" d="M102.386,210.443c0,0-9.824,46.508,11.55,60.991  c21.241,14.484,29.871,8.505,33.588,15.281c3.85,6.777-2.921,10.231-13.674,8.505c-10.621-1.728-26.817-1.728-28.941,15.812h51.51  c10.222,0,38.367-48.634,37.438-81.854L102.386,210.443z"/>
<path id="tail-i5" fill="#23286B" d="M280.549,302.662c-13.01-12.623-32.659-18.338-46.067-30.296  c-4.779-5.714-9.028-11.959-12.479-18.47c-0.133-0.266-0.133-0.398-0.266-0.665c0-0.133-0.133-0.266-0.266-0.398  c-5.709-11.427-7.169-20.33-6.505-21.925c-26.817,52.886,8.762,73.083,15.798,108.297s-3.983,42.255-3.983,42.255  c38.766,6.644,56.29-10.364,56.29-10.364c9.16-45.977-12.745-62.054-42.748-92.351c6.903,4.783,14.604,8.637,21.772,12.757  c24.56,13.82,39.297,37.605,35.712,66.439c-0.133,1.063,1.46,1.063,1.593,0C302.189,337.609,295.153,317.145,280.549,302.662z"/>
<path id="R_ear-i5" fill="#23286B" d="M68.001,67.198c4.381-27.373-20.179-53.684-20.179-53.684c3.186,6.246,0.133,32.024-7.567,52.886  l0,0c-3.717,9.568-15.002,14.085-20.047,22.723c-3.585,6.378-4.647,13.953-2.921,21.128c0.266,1.063,1.726,0.531,1.593-0.398  c-2.522-11.694,1.992-20.996,10.621-28.703c3.053-2.524,5.709-5.315,8.231-8.372c-1.593,3.455-3.319,6.909-5.443,10.099  c-13.541,20.464-7.833,31.493-7.833,31.493c15.002,8.372,50.183,0.93,50.183,0.93C67.736,100.152,65.346,83.409,68.001,67.198z"/>
<path id="body-i5" fill="#A1C3FC" d="M214.965,228.913c-0.929-16.212-8.098-31.493-19.914-42.522  c-36.774-34.549-96.117-69.629-98.374-110.556C94.42,34.908,98.403,24.544,80.613,11.92S51.804,10.193,32.82,7.269  C24.191,6.073,15.827,3.814,7.861,0.36c-2.124-0.93-4.514,0-5.443,2.126c0,0.133-0.133,0.266-0.133,0.398  c-2.92,8.903-6.77,29.101,14.869,38.934c31.597,14.484,29.074,45.179,22.171,70.294c-8.762,31.891-17.126,78.133,32.791,100.855l0,0  c4.514,13.155,8.231,26.709,11.019,40.396c3.983,22.856,7.302,43.718-3.053,45.577c-9.957,1.861-13.01,6.113-13.409,11.959h31.862  c4.381-2.657,8.231-13.022,8.098-30.563c-0.133-11.162,0.133-33.618,0.398-51.69c5.31,2.392,10.488,4.783,15.533,7.042  c0.266,13.421,3.186,28.436,13.674,35.611c21.241,14.484,29.871,8.505,33.588,15.281c3.85,6.777-2.921,10.231-13.674,8.505  c-10.621-1.728-26.817-1.728-28.941,15.812h51.51c5.974,0,19.648-15.945,28.41-36.542c3.983-9.435,6.505-19.267,7.567-29.367  C214.833,239.012,215.098,233.963,214.965,228.913z"/>
<path id="texture-i5" opacity="0.86" fill="#FFFFFF" enable-background="new    " d="M121.105,181.077  c-0.266,0.266-0.266,0.798,0,1.063c0.266,0.266,0.664,0.398,0.929,0.133c0,0,0,0,0.133,0c0.266-0.266,0.266-0.798,0-1.063  C121.769,180.943,121.37,180.811,121.105,181.077L121.105,181.077z M134.115,168.719c-0.266,0.266-0.266,0.798,0,1.063  c0.266,0.266,0.664,0.398,1.062,0.133l0,0c0.266-0.266,0.266-0.798,0.133-1.063C134.912,168.586,134.513,168.453,134.115,168.719  L134.115,168.719z M147.258,156.361c-0.266,0.266-0.266,0.798,0,1.063c0.266,0.266,0.664,0.398,0.929,0.133c0,0,0,0,0.133,0  c0.266-0.266,0.266-0.798,0-1.063C148.055,156.228,147.657,156.096,147.258,156.361L147.258,156.361L147.258,156.361z   M109.024,143.604c0.133,0.398,0.531,0.665,0.929,0.531l0,0c0.398-0.133,0.531-0.531,0.398-0.93  c-0.133-0.398-0.531-0.665-0.929-0.531l0,0C109.156,142.674,108.891,143.205,109.024,143.604L109.024,143.604z M125.619,137.491  c0.133,0.398,0.531,0.665,0.929,0.531l0,0c0.398-0.133,0.531-0.531,0.398-0.93c-0.133-0.398-0.531-0.665-0.929-0.531l0,0  C125.751,136.561,125.486,137.093,125.619,137.491L125.619,137.491z M153.498,196.358c-0.133,0.398,0,0.798,0.398,1.063  c0.398,0.133,0.797,0,0.929-0.266l0,0c0.266-0.398,0.133-0.798-0.266-1.063C154.162,195.827,153.763,195.827,153.498,196.358  C153.498,196.225,153.498,196.225,153.498,196.358L153.498,196.358z M161.198,179.615c-0.133,0.398,0,0.798,0.398,1.063  c0.398,0.133,0.797,0,0.929-0.398l0,0c0.133-0.398,0-0.798-0.398-1.063C161.729,179.084,161.331,179.217,161.198,179.615  L161.198,179.615L161.198,179.615z M143.01,181.874c-0.133,0.398-0.133,0.798,0.266,0.93c0.266,0.133,0.664,0.133,0.797-0.133l0,0  c0.133-0.266,0.133-0.798-0.266-0.93C143.674,181.476,143.276,181.608,143.01,181.874L143.01,181.874z M151.108,167.789  c-0.133,0.266-0.133,0.665,0.266,0.93c0.266,0.133,0.664,0.133,0.797-0.133l0,0c0.133-0.266,0.133-0.798-0.266-0.93  C151.772,167.257,151.374,167.39,151.108,167.789C151.108,167.656,151.108,167.789,151.108,167.789L151.108,167.789z   M123.893,151.71c-0.266,0.266-0.398,0.665-0.133,0.93c0.133,0.266,0.531,0.398,0.797,0.133l0,0c0.266-0.266,0.398-0.665,0.133-0.93  C124.556,151.577,124.158,151.444,123.893,151.71L123.893,151.71L123.893,151.71z M136.505,141.876  c-0.266,0.266-0.398,0.665-0.133,0.93c0.133,0.266,0.531,0.398,0.797,0.133l0,0c0.266-0.266,0.398-0.665,0.133-0.93  C137.301,141.744,136.903,141.744,136.505,141.876L136.505,141.876L136.505,141.876z M174.739,185.462  c0,0.398,0.133,0.665,0.531,0.798l0,0c0.398,0,0.664-0.133,0.797-0.531l0,0c0-0.398-0.133-0.665-0.531-0.798  C175.138,184.798,174.872,185.063,174.739,185.462C174.739,185.329,174.739,185.462,174.739,185.462L174.739,185.462z   M91.898,138.554c-0.266,0.266-0.398,0.798-0.133,1.063c0.266,0.398,0.664,0.398,1.062,0.133l0,0  c0.266-0.266,0.398-0.798,0.133-1.063C92.827,138.422,92.296,138.289,91.898,138.554C92.031,138.554,92.031,138.554,91.898,138.554  L91.898,138.554z M157.348,180.147c0,0.398,0.266,0.798,0.664,0.93c0.398,0,0.797-0.266,0.797-0.665l0,0  c0.133-0.398-0.133-0.798-0.531-0.93C157.879,179.349,157.481,179.615,157.348,180.147  C157.348,180.014,157.348,180.147,157.348,180.147z M159.87,161.145c0,0.398,0.266,0.798,0.664,0.93  c0.398,0,0.797-0.266,0.797-0.665l0,0c0.133-0.398-0.133-0.798-0.531-0.93C160.401,160.48,160.003,160.745,159.87,161.145  L159.87,161.145L159.87,161.145z M124.025,157.822c-0.133,0.398-0.133,0.798,0.266,1.063c0.398,0.266,0.797,0.133,1.062-0.266l0,0  c0.266-0.398,0.133-0.798-0.266-1.063C124.689,157.291,124.158,157.423,124.025,157.822L124.025,157.822L124.025,157.822z   M133.186,141.345c-0.266,0.398-0.133,0.798,0.266,1.063c0.398,0.266,0.797,0.133,0.929-0.266l0,0  c0.266-0.398,0.133-0.798-0.266-1.063l0,0C133.982,140.813,133.451,140.946,133.186,141.345  C133.319,141.345,133.186,141.345,133.186,141.345L133.186,141.345z M112.077,154.101c-0.266,0.398-0.133,0.798,0.266,1.063  c0.398,0.266,0.797,0.133,1.062-0.133l0,0c0.266-0.398,0.133-0.798-0.133-1.063C112.741,153.703,112.343,153.703,112.077,154.101  L112.077,154.101L112.077,154.101z M121.901,138.156c-0.266,0.398-0.133,0.798,0.266,1.063c0.398,0.266,0.797,0.133,1.062-0.266l0,0  c0.266-0.398,0.133-0.798-0.266-1.063C122.565,137.757,122.167,137.757,121.901,138.156L121.901,138.156L121.901,138.156z   M149.382,159.683c-0.133,0.398,0.133,0.798,0.664,0.93c0.398,0,0.797-0.266,0.797-0.665l0,0c0.133-0.398-0.133-0.798-0.531-0.93  l0,0C149.913,158.885,149.515,159.151,149.382,159.683C149.515,159.55,149.382,159.55,149.382,159.683z"/>
<path id="L_ear-i5" fill="#23286B" d="M124.025,72.115c-18.188-10.099-20.179-24.582-25.091-36.409  c-3.717-8.903-9.559-16.743-16.993-22.988c2.124,2.524,6.107,10.763,3.452,36.276c0,0.266,0,0.398,0,0.665  c-6.505,27.108-9.957,56.474,9.824,78.931c0.664,0.798,1.859-0.398,1.195-1.196c-16.595-18.869-16.329-42.92-11.948-66.041  c-1.46,26.576,2.655,44.781,20.047,66.041c0,0,21.905,0.93,47.262-23.121C151.639,104.404,142.213,82.214,124.025,72.115z"/>
<path id="eye-i5" fill="#1C2868" d="M49.946,2.486c-3.186,6.246,1.991,12.89,9.16,11.959c0.929-0.133,0.664-1.329-0.266-1.196  c-3.85,0.798-7.567-1.728-8.364-5.581c-0.266-1.594-0.133-3.322,0.664-4.651C51.539,2.221,50.344,1.821,49.946,2.486L49.946,2.486z"/>

        </g>
    </g>
</g>

<!-- ITEM 6 -->
<g>
    <defs>
        
        <clipPath id="clip-path-id-viewbox-item-6">
            <rect x="0.0" y="0.0" width="157.0" height="200.0"/>
        </clipPath>
    </defs>
    <g transform="translate(1367.0 782.0) rotate(28.218293381460498 41.0 52.0) scale(0.5222929936305732 0.52)">
        <g clip-path="url(#clip-path-id-viewbox-item-6)" transform="translate(-0.0 -0.0)">

<path fill="#DBECFF" d="M76.416,47.676L35.565,6.686c-6.647,2.703-12.726,6.397-17.968,11.374l44.167,44.317  c2.478,2.486,2.478,6.515,0,9.001s-6.493,2.486-8.97,0L9.45,27.887c-4.109,6.338-6.873,13.462-8.327,21.049l36.57,36.694  c2.478,2.486,2.478,6.515,0,9.001c-2.478,2.486-6.493,2.486-8.97,0L0,65.811c1.076,21.472,11.232,44.574,29.844,63.25  c0.435,0.436,0.875,0.863,1.315,1.291c-3.095,4.408-5.994,8.967-8.602,13.723C15.238,157.415,7.345,177.947,11.302,200l6.243-1.128  c-3.628-20.218,3.745-39.29,10.569-51.729c2.353-4.29,4.969-8.431,7.768-12.457c17.468,15.145,38.132,23.631,57.36,24.684  L65.95,131.986c-2.478-2.486-2.478-6.515,0-9.001c2.478-2.486,6.493-2.486,8.97,0l35.17,35.29c7.55-1.47,14.597-4.295,20.796-8.536  l-40.866-41.005c-2.478-2.486-2.478-6.515,0-9.001c2.478-2.486,6.493-2.486,8.97,0l41.426,41.567  c4.69-5.365,8.133-11.726,10.628-18.739L113.643,85.03c-2.478-2.486-2.478-6.515,0-9.001c2.478-2.486,6.493-2.486,8.97,0  l32.148,32.257c1.567-8.671,2.173-17.886,2.238-27.158l-20.182-20.252c-2.478-2.486-2.478-6.515,0-9.001s6.493-2.486,8.97,0  l10.748,10.785c-1.328-25.929-4.756-49.683-0.656-60.066c-13.615,3.15-36.779-0.543-61.233-2.034l13.912,13.959  c2.478,2.486,2.478,6.515,0,9.001c-2.478,2.486-6.493,2.486-8.97,0L76.147,0c-9.175,0.069-18.24,0.76-26.767,2.546l36.007,36.129  c2.478,2.486,2.478,6.515,0,9.001C82.909,50.161,78.893,50.161,76.416,47.676z"/>

        </g>
    </g>
</g>

<!-- ITEM 7 -->
<g>
    <defs>
        
        <clipPath id="clip-path-id-viewbox-item-7">
            <rect x="0.0" y="0.0" width="157.0" height="200.0"/>
        </clipPath>
    </defs>
    <g transform="translate(289.0 804.0) rotate(334.9807091779919 -25.5 32.5) scale(-0.3248407643312102 0.325)">
        <g clip-path="url(#clip-path-id-viewbox-item-7)" transform="translate(-0.0 -0.0)">

<path fill="#DBECFF" d="M76.416,47.676L35.565,6.686c-6.647,2.703-12.726,6.397-17.968,11.374l44.167,44.317  c2.478,2.486,2.478,6.515,0,9.001s-6.493,2.486-8.97,0L9.45,27.887c-4.109,6.338-6.873,13.462-8.327,21.049l36.57,36.694  c2.478,2.486,2.478,6.515,0,9.001c-2.478,2.486-6.493,2.486-8.97,0L0,65.811c1.076,21.472,11.232,44.574,29.844,63.25  c0.435,0.436,0.875,0.863,1.315,1.291c-3.095,4.408-5.994,8.967-8.602,13.723C15.238,157.415,7.345,177.947,11.302,200l6.243-1.128  c-3.628-20.218,3.745-39.29,10.569-51.729c2.353-4.29,4.969-8.431,7.768-12.457c17.468,15.145,38.132,23.631,57.36,24.684  L65.95,131.986c-2.478-2.486-2.478-6.515,0-9.001c2.478-2.486,6.493-2.486,8.97,0l35.17,35.29c7.55-1.47,14.597-4.295,20.796-8.536  l-40.866-41.005c-2.478-2.486-2.478-6.515,0-9.001c2.478-2.486,6.493-2.486,8.97,0l41.426,41.567  c4.69-5.365,8.133-11.726,10.628-18.739L113.643,85.03c-2.478-2.486-2.478-6.515,0-9.001c2.478-2.486,6.493-2.486,8.97,0  l32.148,32.257c1.567-8.671,2.173-17.886,2.238-27.158l-20.182-20.252c-2.478-2.486-2.478-6.515,0-9.001s6.493-2.486,8.97,0  l10.748,10.785c-1.328-25.929-4.756-49.683-0.656-60.066c-13.615,3.15-36.779-0.543-61.233-2.034l13.912,13.959  c2.478,2.486,2.478,6.515,0,9.001c-2.478,2.486-6.493,2.486-8.97,0L76.147,0c-9.175,0.069-18.24,0.76-26.767,2.546l36.007,36.129  c2.478,2.486,2.478,6.515,0,9.001C82.909,50.161,78.893,50.161,76.416,47.676z"/>

        </g>
    </g>
</g>

              </svg>