<svg xmlns="http://www.w3.org/2000/svg" version="1.1" viewBox="0 0 3000 2000" width="3000" height="2000">
<defs/><!--ITEM: Illustration component 1--><g transform="translate(496.25 176.25) rotate(0.0 988.125 805.625)  scale(3.0970850963798777 3.0943921643940846)"><svg width="638.1" height="520.7" viewBox="0.0 0.0 638.1 520.7"><linearGradient id="a-i1"><stop offset="0" stop-color="#a1c3fc" fill="#000000"/><stop offset=".6955" stop-color="#81aef2" fill="#000000"/><stop offset="1" stop-color="#78a9ef" fill="#000000"/></linearGradient><linearGradient xmlns:xlink="http://www.w3.org/1999/xlink" id="b-i1" gradientUnits="userSpaceOnUse" x1="285.0525" x2="352.5879" xlink:href="#a-i1" y1="389.1052" y2="389.1052"/><linearGradient xmlns:xlink="http://www.w3.org/1999/xlink" id="c-i1" gradientUnits="userSpaceOnUse" x1="0" x2="638.0653" xlink:href="#a-i1" y1="195.0824" y2="195.0824"/><linearGradient xmlns:xlink="http://www.w3.org/1999/xlink" id="d-i1" gradientUnits="userSpaceOnUse" x1="95.7592" x2="541.4562" xlink:href="#a-i1" y1="497.2703" y2="497.2703"/><linearGradient id="e-i1" gradientUnits="userSpaceOnUse" x1="29.6312" x2="608.7342" y1="185.161" y2="185.161"><stop offset="0" stop-color="#23286b" fill="#000000"/><stop offset="1" stop-color="#151a4f" fill="#000000"/></linearGradient><linearGradient id="f-i1"><stop offset="0" stop-color="#428dfc" fill="#000000"/><stop offset=".6994" stop-color="#1d72d8" fill="#000000"/></linearGradient><linearGradient xmlns:xlink="http://www.w3.org/1999/xlink" id="g-i1" gradientUnits="userSpaceOnUse" x1="580.6357" x2="592.3112" xlink:href="#f-i1" y1="366.5319" y2="366.5319"/><linearGradient id="h-i1"><stop offset="0" stop-color="#eee" fill="#000000"/><stop offset="1" stop-color="#dce3ea" fill="#000000"/></linearGradient><linearGradient xmlns:xlink="http://www.w3.org/1999/xlink" id="i-i1" gradientTransform="matrix(.9826 -.186 .186 .9826 -244.3058 752.4111)" gradientUnits="userSpaceOnUse" x1="472.4896" x2="494.281" xlink:href="#h-i1" y1="-570.9745" y2="-570.9745"/><linearGradient xmlns:xlink="http://www.w3.org/1999/xlink" id="j-i1" gradientTransform="matrix(.6458 -.7635 .7635 .6458 95.9525 3551.5107)" gradientUnits="userSpaceOnUse" x1="2640.115" x2="2664.4561" xlink:href="#h-i1" y1="-2228.2141" y2="-2228.2141"/><linearGradient id="k-i1" gradientUnits="userSpaceOnUse" x1="72.9703" x2="84.4178" y1="365.6704" y2="365.6704"><stop offset="0" stop-color="#e94a47" fill="#000000"/><stop offset="1" stop-color="#d62929" fill="#000000"/></linearGradient><linearGradient xmlns:xlink="http://www.w3.org/1999/xlink" id="l-i1" gradientUnits="userSpaceOnUse" x1="90.0354" x2="101.483" xlink:href="#f-i1" y1="365.9576" y2="365.9576"/><linearGradient xmlns:xlink="http://www.w3.org/1999/xlink" id="m-i1" gradientUnits="userSpaceOnUse" x1="107.1005" x2="118.5481" xlink:href="#f-i1" y1="366.2448" y2="366.2448"/><path d="m285.1 265.6h67.5v247.1h-67.5z" fill="url(#b-i1)"/><path d="m0 .1h638.1v389.9h-638.1z" fill="url(#c-i1)"/><path d="m95.8 473.8h445.7v46.9h-445.7z" fill="url(#d-i1)"/><path d="m29.6 29h579.1v312.2h-579.1z" fill="url(#e-i1)"/><circle cx="586.5" cy="366.5" fill="url(#g-i1)" r="5.8"/><g fill="#eee"><circle cx="567" cy="366.5" r="4.1"/><circle cx="549.8" cy="366.5" r="4.1"/><circle cx="533.8" cy="366.5" r="4.1"/></g><path d="m137.2 110.2-21.4 4-4.1-21.4 21.4-4z" fill="url(#i-i1)"/><path d="m124.8 86.1-15.8 18.5-18.5-15.7 15.7-18.6z" fill="url(#j-i1)" opacity=".35"/><path d="m84.4 365.7-5.7 5.7-5.7-5.7 5.7-5.8z" fill="url(#k-i1)"/><path d="m101.5 366-5.7 5.7-5.8-5.7 5.8-5.8z" fill="url(#l-i1)"/><path d="m118.5 366.2-5.7 5.8-5.7-5.8 5.7-5.7z" fill="url(#m-i1)"/></svg></g><!--ITEM: Illustration component 2--><g transform="translate(536.25 1688.75) rotate(0.0 968.125 49.375)  scale(3.203590337524818 3.1957928802589)"><svg width="604.4" height="30.9" viewBox="0.0 0.0 604.4 30.9"><linearGradient id="a-i2"><stop offset="0" stop-color="#23286b" fill="#000000"/><stop offset="1" stop-color="#151a4f" fill="#000000"/></linearGradient><linearGradient xmlns:xlink="http://www.w3.org/1999/xlink" id="b-i2" gradientUnits="userSpaceOnUse" x1="19.1886" x2="52.5876" xlink:href="#a-i2" y1="12.4901" y2="12.4901"/><linearGradient xmlns:xlink="http://www.w3.org/1999/xlink" id="c-i2" gradientUnits="userSpaceOnUse" x1="65.2241" x2="98.6231" xlink:href="#a-i2" y1="12.4901" y2="12.4901"/><linearGradient xmlns:xlink="http://www.w3.org/1999/xlink" id="d-i2" gradientUnits="userSpaceOnUse" x1="111.2596" x2="144.6586" xlink:href="#a-i2" y1="12.4901" y2="12.4901"/><linearGradient xmlns:xlink="http://www.w3.org/1999/xlink" id="e-i2" gradientUnits="userSpaceOnUse" x1="157.2951" x2="190.6941" xlink:href="#a-i2" y1="12.4901" y2="12.4901"/><linearGradient xmlns:xlink="http://www.w3.org/1999/xlink" id="f-i2" gradientUnits="userSpaceOnUse" x1="203.3306" x2="236.7296" xlink:href="#a-i2" y1="12.4901" y2="12.4901"/><linearGradient xmlns:xlink="http://www.w3.org/1999/xlink" id="g-i2" gradientUnits="userSpaceOnUse" x1="249.3661" x2="282.765" xlink:href="#a-i2" y1="12.4901" y2="12.4901"/><linearGradient xmlns:xlink="http://www.w3.org/1999/xlink" id="h-i2" gradientUnits="userSpaceOnUse" x1="295.4016" x2="328.8005" xlink:href="#a-i2" y1="12.4901" y2="12.4901"/><linearGradient xmlns:xlink="http://www.w3.org/1999/xlink" id="i-i2" gradientUnits="userSpaceOnUse" x1="341.437" x2="374.836" xlink:href="#a-i2" y1="12.4901" y2="12.4901"/><linearGradient xmlns:xlink="http://www.w3.org/1999/xlink" id="j-i2" gradientUnits="userSpaceOnUse" x1="387.4725" x2="420.8715" xlink:href="#a-i2" y1="12.4901" y2="12.4901"/><linearGradient xmlns:xlink="http://www.w3.org/1999/xlink" id="k-i2" gradientUnits="userSpaceOnUse" x1="457.1642" x2="490.5632" xlink:href="#a-i2" y1="12.4901" y2="12.4901"/><linearGradient xmlns:xlink="http://www.w3.org/1999/xlink" id="l-i2" gradientUnits="userSpaceOnUse" x1="502.2899" x2="535.6888" xlink:href="#a-i2" y1="12.4901" y2="12.4901"/><linearGradient xmlns:xlink="http://www.w3.org/1999/xlink" id="m-i2" gradientUnits="userSpaceOnUse" x1="546.5056" x2="579.9046" xlink:href="#a-i2" y1="12.4901" y2="12.4901"/><linearGradient id="n-i2" gradientUnits="userSpaceOnUse" x1="0" x2="604.3812" y1="19.9906" y2="19.9906"><stop offset="0" stop-color="rgb(66,141,252)" fill="#000000"/><stop offset="1" stop-color="rgb(47,108,222)" fill="#000000"/></linearGradient><path d="m19.2 0h33.4v25h-33.4z" fill="url(#b-i2)"/><path d="m65.2 0h33.4v25h-33.4z" fill="url(#c-i2)"/><path d="m111.3 0h33.4v25h-33.4z" fill="url(#d-i2)"/><path d="m157.3 0h33.4v25h-33.4z" fill="url(#e-i2)"/><path d="m203.3 0h33.4v25h-33.4z" fill="url(#f-i2)"/><path d="m249.4 0h33.4v25h-33.4z" fill="url(#g-i2)"/><path d="m295.4 0h33.4v25h-33.4z" fill="url(#h-i2)"/><path d="m341.4 0h33.4v25h-33.4z" fill="url(#i-i2)"/><path d="m387.5 0h33.4v25h-33.4z" fill="url(#j-i2)"/><path d="m457.2 0h33.4v25h-33.4z" fill="url(#k-i2)"/><path d="m502.3 0h33.4v25h-33.4z" fill="url(#l-i2)"/><path d="m546.5 0h33.4v25h-33.4z" fill="url(#m-i2)"/><path d="m0 9.1h604.4v21.8h-604.4z" fill="url(#n-i2)"/></svg></g><!--ITEM: Illustration component 3--><g transform="translate(978.75 403.75) rotate(0.0 506.25 253.125)  scale(3.1493001555209954 3.152241594022416)"><svg width="321.5" height="160.6" viewBox="0.0 0.0 321.5 160.6"><path d="m318.7 160.6c1.8-5.9 2.8-26 2.8-32.5 0-35.1-28.5-63.6-63.6-63.6-7.1 0-14 1.2-20.4 3.4-4.8-38.3-37.5-67.9-77-67.9-40.4 0-73.6 30.8-77.4 70.2-6.5-2.3-13.4-3.5-20.6-3.5-34.5 0-62.5 27.9-62.5 62.4 0 5.4.8 26 3.2 31.4h315.5z" fill="#eee"/><g fill="#428dfc"><path d="m147.8 83.4h26.2v40.9h-26.2z"/><path d="m160.9 46.5-33.7 49.5h67.4z"/></g></svg></g><!--ITEM: Illustration component 4--><g transform="translate(736.25 1015.0) rotate(0.0 748.75 32.5)  scale(2.982473610834495 3.051643192488263)"><svg width="502.1" height="21.3" viewBox="0.0 0.0 502.1 21.3"><path d="m502 21.2-502 .1.1-21.2 502-.1z" fill="#d6d7d8"/><path d="m366 21.2-366 .1.1-21.2 366-.1z" fill="#e94a47"/></svg></g></svg>