<?xml version="1.0" encoding="UTF-8"?><svg version="1.1" xmlns="http://www.w3.org/2000/svg" xmlns:xlink="http://www.w3.org/1999/xlink" viewBox="0 0 1500 1500" width="1500" height="1500" x="0px" y="0px">
              
              <!-- ITEM 0 -->
<g>
    <defs>
        
        <clipPath id="clip-path-id-viewbox-item-0">
            <rect x="0.0" y="0.0" width="157.0" height="200.0"/>
        </clipPath>
    </defs>
    <g transform="translate(797.0 159.0) rotate(0.0 -294.5 375.0) scale(-3.751592356687898 3.75)">
        <g clip-path="url(#clip-path-id-viewbox-item-0)" transform="translate(-0.0 -0.0)">

<path fill="#eeeeee" d="M76.416,47.676L35.565,6.686c-6.647,2.703-12.726,6.397-17.968,11.374l44.167,44.317  c2.478,2.486,2.478,6.515,0,9.001s-6.493,2.486-8.97,0L9.45,27.887c-4.109,6.338-6.873,13.462-8.327,21.049l36.57,36.694  c2.478,2.486,2.478,6.515,0,9.001c-2.478,2.486-6.493,2.486-8.97,0L0,65.811c1.076,21.472,11.232,44.574,29.844,63.25  c0.435,0.436,0.875,0.863,1.315,1.291c-3.095,4.408-5.994,8.967-8.602,13.723C15.238,157.415,7.345,177.947,11.302,200l6.243-1.128  c-3.628-20.218,3.745-39.29,10.569-51.729c2.353-4.29,4.969-8.431,7.768-12.457c17.468,15.145,38.132,23.631,57.36,24.684  L65.95,131.986c-2.478-2.486-2.478-6.515,0-9.001c2.478-2.486,6.493-2.486,8.97,0l35.17,35.29c7.55-1.47,14.597-4.295,20.796-8.536  l-40.866-41.005c-2.478-2.486-2.478-6.515,0-9.001c2.478-2.486,6.493-2.486,8.97,0l41.426,41.567  c4.69-5.365,8.133-11.726,10.628-18.739L113.643,85.03c-2.478-2.486-2.478-6.515,0-9.001c2.478-2.486,6.493-2.486,8.97,0  l32.148,32.257c1.567-8.671,2.173-17.886,2.238-27.158l-20.182-20.252c-2.478-2.486-2.478-6.515,0-9.001s6.493-2.486,8.97,0  l10.748,10.785c-1.328-25.929-4.756-49.683-0.656-60.066c-13.615,3.15-36.779-0.543-61.233-2.034l13.912,13.959  c2.478,2.486,2.478,6.515,0,9.001c-2.478,2.486-6.493,2.486-8.97,0L76.147,0c-9.175,0.069-18.24,0.76-26.767,2.546l36.007,36.129  c2.478,2.486,2.478,6.515,0,9.001C82.909,50.161,78.893,50.161,76.416,47.676z"/>

        </g>
    </g>
</g>

<!-- ITEM 1 -->
<g>
    <defs>
        
        <clipPath id="clip-path-id-viewbox-item-1">
            <rect x="-1366.388" y="703.252" width="123.185" height="129.389"/>
        </clipPath>
    </defs>
    <g transform="translate(683.0 136.0) rotate(0.0 357.5 375.0) scale(5.804278118277388 5.796474197961186)">
        <g clip-path="url(#clip-path-id-viewbox-item-1)" transform="translate(1366.388 -703.252)">

<g>
	<polygon fill="#A1C3FC" points="-1283.815,703.252 -1294.129,708.536 -1281.106,708.536  "/>
	<polygon fill="#A1C3FC" points="-1330.206,727.014 -1271.63,727.014 -1276.617,717.289 -1311.217,717.289  "/>
	<polygon fill="#A1C3FC" points="-1366.282,745.492 -1262.155,745.492 -1267.142,735.767 -1347.295,735.767  "/>
	<polygon fill="#A1C3FC" points="-1361.401,763.97 -1252.678,763.97 -1257.666,754.245 -1366.388,754.245  "/>
	<polygon fill="#A1C3FC" points="-1351.924,782.448 -1243.203,782.448 -1248.19,772.723 -1356.911,772.723  "/>
	<polygon fill="#A1C3FC" points="-1342.449,800.926 -1264.265,800.926 -1245.278,791.201 -1347.436,791.201  "/>
	<polygon fill="#A1C3FC" points="-1332.973,819.403 -1300.341,819.403 -1281.353,809.679 -1337.96,809.679  "/>
	<polygon fill="#A1C3FC" points="-1326.185,832.641 -1317.429,828.156 -1328.485,828.156  "/>
</g>

        </g>
    </g>
</g>

<!-- ITEM 2 -->
<g>
    <defs>
        
        <clipPath id="clip-path-id-viewbox-item-2">
            <rect x="0.0" y="0.0" width="392.035" height="244.12"/>
        </clipPath>
    </defs>
    <g transform="translate(471.0 877.0) rotate(0.0 375.0 234.0) scale(1.9130944941140458 1.9170899557594625)">
        <g clip-path="url(#clip-path-id-viewbox-item-2)" transform="translate(-0.0 -0.0)">

<g>
	
		<linearGradient id="_1_leg_1_-i2" gradientUnits="userSpaceOnUse" x1="386.4334" y1="191.7601" x2="387.0574" y2="8.2947" gradientTransform="matrix(1 0 0 1 0 -70)">
		<stop offset="0" style="stop-color:#EEEEEE"/>
		<stop offset="1" style="stop-color:#DCE3EA"/>
	</linearGradient>
	<rect id="_1_leg-i2" x="380.792" y="11.118" fill="url(#_1_leg_1_-i2)" width="11.243" height="233.002"/>
	<g>
		
			<linearGradient id="_3_leg_1_-i2" gradientUnits="userSpaceOnUse" x1="5.4197" y1="257.2327" x2="6.0437" y2="73.7673" gradientTransform="matrix(1 0 0 1 0 -70)">
			<stop offset="0" style="stop-color:#EEEEEE"/>
			<stop offset="1" style="stop-color:#DCE3EA"/>
		</linearGradient>
		<rect id="_3_leg-i2" x="0.001" y="11.118" fill="url(#_3_leg_1_-i2)" width="11.243" height="233.002"/>
		
			<linearGradient id="_2_leg_1_-i2" gradientUnits="userSpaceOnUse" x1="139.01" y1="283.9023" x2="139.6341" y2="100.4368" gradientTransform="matrix(1 0 0 1 0 -70)">
			<stop offset="0" style="stop-color:#EEEEEE"/>
			<stop offset="1" style="stop-color:#DCE3EA"/>
		</linearGradient>
		<rect id="_2_leg-i2" x="133.682" y="11.118" fill="url(#_2_leg_1_-i2)" width="11.243" height="233.002"/>
		
			<linearGradient id="side_1_-i2" gradientUnits="userSpaceOnUse" x1="165.4002" y1="77.5139" x2="100.2496" y2="79.9269" gradientTransform="matrix(1 0 0 1 0 -70)">
			<stop offset="0" style="stop-color:#EEEEEE"/>
			<stop offset="1" style="stop-color:#DCE3EA"/>
		</linearGradient>
		<rect id="side-i2" fill="url(#side_1_-i2)" width="392.03" height="12.76"/>
		
			<linearGradient id="front_1_-i2" gradientUnits="userSpaceOnUse" x1="-44.9772" y1="77.5548" x2="75.5166" y2="76.3499" gradientTransform="matrix(1 0 0 1 0 -70)">
			<stop offset="0" style="stop-color:#EEEEEE"/>
			<stop offset="1" style="stop-color:#DCE3EA"/>
		</linearGradient>
		<rect id="front-i2" x="0.09" fill="url(#front_1_-i2)" width="144.83" height="12.76"/>
	</g>
</g>

        </g>
    </g>
</g>

<!-- ITEM 3 -->
<g>
    <defs>
        
        <clipPath id="clip-path-id-viewbox-item-3">
            <rect x="0.0" y="0.0" width="307.119" height="229.909"/>
        </clipPath>
    </defs>
    <g transform="translate(570.0 418.0) rotate(0.0 305.0 228.5) scale(1.9862007886193949 1.9877429765689905)">
        <g clip-path="url(#clip-path-id-viewbox-item-3)" transform="translate(-0.0 -0.0)">

<g>
	<rect x="121.322" y="148.638" fill="#151A4F" width="69.889" height="77.764"/>
	<rect x="78.01" y="223.88" fill="#23286B" width="156.513" height="6.029"/>
	<rect x="0" y="0" fill="#23286B" width="307.119" height="198.84"/>
	<rect x="5.414" y="4.958" fill="#FFFFFF" width="296.291" height="163.755"/>
</g>
<circle fill="#151A4F" cx="282.15" cy="183.469" r="8.754"/>

        </g>
    </g>
</g>

<!-- ITEM 4 -->
<g>
    <defs>
        
        <clipPath id="clip-path-id-viewbox-item-4">
            <rect x="0.0" y="0.0" width="246.0" height="400.0"/>
        </clipPath>
    </defs>
    <g transform="translate(350.0 529.0) rotate(0.0 256.0 415.5) scale(2.0813008130081303 2.0775)">
        <g clip-path="url(#clip-path-id-viewbox-item-4)" transform="translate(-0.0 -0.0)">

<g id="woman-i4">
	<path id="R_shoe-i4" fill="#428DFC" d="M152.108,364.28l29.395,0.001c0,0,12.677,13.535,28.135,20.157   C225.097,391.06,229.734,400,229.734,400l-90.434-0.003L152.108,364.28"/>
	
		<linearGradient id="L_shoe_1_-i4" gradientUnits="userSpaceOnUse" x1="6317.9932" y1="5965.6313" x2="5276.9561" y2="6748.3096" gradientTransform="matrix(0.0741 0 0 0.0741 -230.5491 -141.1613)">
		<stop offset="0.1291" style="stop-color:#428DFC"/>
		<stop offset="0.9987" style="stop-color:#1D72D8"/>
	</linearGradient>
	<path id="L_shoe-i4" fill="url(#L_shoe_1_-i4)" d="M162.684,316.413l28.765-6.045c0,0,15.192,10.638,31.683,13.939   S246,335.401,246,335.401l-88.5,18.6L162.684,316.413"/>
	
		<linearGradient id="L_trousers_1_-i4" gradientUnits="userSpaceOnUse" x1="6116.8398" y1="4295.8628" x2="4424.7715" y2="5169.9668" gradientTransform="matrix(0.0741 0 0 0.0741 -230.5491 -141.1613)">
		<stop offset="0" style="stop-color:#23286B"/>
		<stop offset="1" style="stop-color:#151A4F"/>
	</linearGradient>
	<path id="L_trousers-i4" fill="url(#L_trousers_1_-i4)" d="M68.731,158.283c0,0,66.854,11.795,84.267,18.885   c17.414,7.089,18.618,25.964,26.166,65.135c8.774,45.536,12.803,68.314,12.803,68.314l-32.816,6.659   c0,0-11.472-5.763-15.355-25.646s-1.837-21.743-6.55-32.403c-4.714-10.66-8.485-16.449-8.486-30.147   c-0.001-13.697-7.901-20.465-19.684-19.722c-11.783,0.744-64.178,0.165-86.463-35.775l-4.991-8.048   C17.622,165.535,54.601,150.935,68.731,158.283"/>
	
		<linearGradient id="L_hand_1_-i4" gradientUnits="userSpaceOnUse" x1="4895.2109" y1="2539.8235" x2="4982.9346" y2="3002.3611" gradientTransform="matrix(0.0741 0 0 0.0741 -230.5491 -141.1613)">
		<stop offset="0" style="stop-color:#FFBEB6"/>
		<stop offset="1" style="stop-color:#F2A19C"/>
	</linearGradient>
	<path id="L_hand-i4" fill="url(#L_hand_1_-i4)" d="M133.262,96.874c0,0,6.605-2.79,6.605-7.909c0-5.119,8.669-8.665,8.669-8.665   l-6.708,13.38l-3.536,7.494C138.291,101.173,130.993,113.645,133.262,96.874z"/>
	<path id="R_trousers-i4" fill="#23286B" d="M129.239,337.016c3.828,8.678,14.735,21.869,22.87,27.262l29.395,0.001   c-1.221-4.999-26.229-107.917-36.084-126.027c-8.041-14.761-19.391-30.365-30.682-43.957l-28.217-33.023l-27.988,5.599   c-0.986-0.399-2.799-0.696-3.887-1.059c-2.019-0.68-3.924,7.025-6.527,5.224c-4.433,2.22-28.039,0.178-31.274,1.453   c2.071,24.011,22.748,41.663,47.185,53.668c45.58,22.394,37.256,33.532,41.093,48.523c3.808,14.999,6.471,23.948,15.156,34.696   C128.985,320.127,121.958,320.459,129.239,337.016z"/>
	<path id="phone-i4" fill="#23286B" d="M158.671,97.514l-17.044-3.881c-1.009-0.23-1.641-1.234-1.411-2.244   c0.059-0.261,0.173-0.506,0.336-0.719l22.458-29.472c0.453-0.594,1.217-0.863,1.942-0.683l17.144,4.252   c1.005,0.25,1.618,1.265,1.368,2.27c-0.064,0.253-0.178,0.491-0.337,0.697l-22.558,29.102   C160.122,97.411,159.381,97.676,158.671,97.514z"/>
	
		<linearGradient id="R_hand_1_-i4" gradientUnits="userSpaceOnUse" x1="5179.2612" y1="3244.6477" x2="4890.5005" y2="3529.7051" gradientTransform="matrix(0.0741 -7.542857e-004 7.542857e-004 0.0741 -231.3851 -141.1325)">
		<stop offset="0" style="stop-color:#FFBEB6"/>
		<stop offset="1" style="stop-color:#F2A19C"/>
	</linearGradient>
	<path id="R_hand-i4" fill="url(#R_hand_1_-i4)" d="M134.868,100.916c0,0,4.871-3.676,6.96-7.237c0,0,3.203,0.743,5.199,1.066   c0,0,0.261-5.078,10.289-5.936c9.042-0.774,7.851-2.738,13.444-4.566c5.594-1.829,7.876-0.179,8.19,1.688   c0,0-5.887,2.127-7.243,4.306c-1.356,2.179-2.976,7.511-7.882,9.234c-4.906,1.723-21.83,3.077-25.357,14.432l0,0L134.868,100.916"/>
	<path id="texture-3-i4" opacity="0.66" fill="#FFFFFF" enable-background="new    " d="M55.349,187.976   c0.102,0.044,0.221-0.004,0.266-0.106c0.044-0.102-0.004-0.221-0.106-0.265c-0.102-0.044-0.221,0.004-0.265,0.106l0,0   C55.199,187.812,55.246,187.932,55.349,187.976L55.349,187.976z M57.25,183.42c0.108,0.041,0.228-0.005,0.279-0.109   c0.038-0.105-0.015-0.224-0.12-0.263c-0.094-0.047-0.209-0.008-0.256,0.086c-0.003,0.007-0.006,0.014-0.009,0.021   C57.1,183.258,57.147,183.376,57.25,183.42L57.25,183.42L57.25,183.42z M59.165,178.862c0.102,0.044,0.221-0.004,0.264-0.106l0,0   c0.041-0.108-0.005-0.228-0.109-0.279c-0.11-0.036-0.23,0.017-0.277,0.122C59.006,178.706,59.06,178.823,59.165,178.862   L59.165,178.862z M61.066,174.307c0.102,0.044,0.221-0.004,0.265-0.106l0,0c0.043-0.108-0.004-0.229-0.109-0.279   c-0.102-0.044-0.221,0.004-0.264,0.106l0,0C60.914,174.136,60.963,174.258,61.066,174.307L61.066,174.307z M76.045,187.923   c0.042,0.106,0.161,0.159,0.267,0.117l0,0c0.098-0.036,0.149-0.143,0.114-0.242c-0.003-0.008-0.006-0.017-0.011-0.024   c-0.038-0.102-0.151-0.156-0.254-0.119C76.055,187.697,76.003,187.816,76.045,187.923L76.045,187.923L76.045,187.923z    M48.241,179.983c0.077,0.078,0.203,0.08,0.28,0.003c0.078-0.077,0.08-0.203,0.003-0.28s-0.203-0.08-0.28-0.003l0,0   c-0.079,0.069-0.087,0.187-0.017,0.265C48.232,179.974,48.236,179.978,48.241,179.983L48.241,179.983z M51.746,176.506   c0.06,0.062,0.156,0.073,0.228,0.024l0.014-0.002c0.016,0,0.029-0.007,0.039-0.019c0.048-0.045,0.071-0.111,0.06-0.176   c-0.007-0.044-0.027-0.086-0.057-0.118c-0.077-0.077-0.202-0.079-0.28-0.003c-0.082,0.077-0.086,0.205-0.009,0.286   C51.741,176.501,51.743,176.504,51.746,176.506L51.746,176.506z M55.252,173.028c0.08,0.074,0.205,0.068,0.278-0.011   c0.078-0.077,0.08-0.203,0.003-0.28c-0.077-0.078-0.203-0.08-0.28-0.003l0,0c-0.082,0.077-0.086,0.205-0.009,0.286   C55.247,173.024,55.249,173.026,55.252,173.028L55.252,173.028z M65.562,187.275c0.007,0.113,0.098,0.203,0.211,0.209   c0.116-0.001,0.21-0.095,0.209-0.211s-0.095-0.21-0.211-0.209C65.658,187.073,65.568,187.164,65.562,187.275L65.562,187.275z    M65.577,182.338c0.004,0.112,0.097,0.198,0.209,0.194l0,0c0.108,0.008,0.202-0.073,0.21-0.18c0-0.005,0.001-0.011,0.001-0.017   c-0.003-0.115-0.096-0.207-0.211-0.209C65.674,182.135,65.584,182.226,65.577,182.338L65.577,182.338z M28.423,189.197   c0.137,0.161,0.378,0.181,0.54,0.045c0.003-0.003,0.007-0.006,0.011-0.009c0.159-0.137,0.175-0.376,0.04-0.534   c-0.001-0.001-0.001-0.002-0.002-0.002c-0.137-0.161-0.378-0.181-0.54-0.045c-0.003,0.003-0.007,0.006-0.011,0.009   c-0.159,0.137-0.176,0.376-0.04,0.534C28.421,189.196,28.422,189.197,28.423,189.197L28.423,189.197z M35.49,183.06   c0.142,0.162,0.389,0.179,0.55,0.037c0.162-0.142,0.179-0.389,0.037-0.55l-0.001-0.001c-0.137-0.159-0.376-0.175-0.534-0.04   c-0.001,0.001-0.002,0.001-0.002,0.002C35.378,182.65,35.357,182.893,35.49,183.06L35.49,183.06z M42.572,176.921   c0.142,0.162,0.389,0.178,0.55,0.036c0.162-0.142,0.178-0.389,0.036-0.55c-0.142-0.162-0.389-0.178-0.55-0.036   c-0.161,0.137-0.182,0.378-0.045,0.54C42.566,176.915,42.569,176.918,42.572,176.921L42.572,176.921z M56.542,212.656   c-0.011,0.214,0.151,0.396,0.364,0.411c0.205,0.022,0.389-0.125,0.412-0.329c0.001-0.007,0.001-0.014,0.002-0.021   c0.011-0.214-0.151-0.396-0.364-0.411C56.745,212.289,56.559,212.444,56.542,212.656L56.542,212.656L56.542,212.656z    M57.195,203.324c-0.009,0.215,0.156,0.396,0.371,0.405c0.21,0.009,0.39-0.149,0.405-0.359c0.017-0.211-0.14-0.396-0.351-0.412l0,0   C57.404,202.95,57.219,203.11,57.195,203.324L57.195,203.324z M57.859,193.976c-0.017,0.211,0.141,0.394,0.351,0.411   c0.004,0,0.009,0.001,0.014,0.001c0.205,0.022,0.389-0.125,0.412-0.329c0.001-0.007,0.001-0.014,0.002-0.021   c0.007-0.216-0.153-0.4-0.367-0.424C58.056,193.601,57.873,193.763,57.859,193.976L57.859,193.976z M58.511,184.644   c-0.011,0.214,0.153,0.397,0.367,0.409c0.213,0.011,0.395-0.15,0.409-0.363c0.017-0.211-0.139-0.396-0.351-0.412c0,0,0,0-0.001,0   c-0.214-0.02-0.403,0.137-0.423,0.351C58.511,184.634,58.511,184.639,58.511,184.644L58.511,184.644z M59.174,175.296   c-0.018,0.211,0.138,0.395,0.349,0.412c0.211,0.018,0.395-0.138,0.412-0.349c0-0.005,0.001-0.011,0.001-0.016   c0.019-0.209-0.134-0.393-0.343-0.412c-0.003,0-0.005,0-0.008-0.001C59.373,174.921,59.189,175.083,59.174,175.296L59.174,175.296z    M38.74,203.5c0.193,0.089,0.421,0.004,0.51-0.188c0.089-0.192,0.004-0.421-0.189-0.51c-0.189-0.087-0.412-0.007-0.505,0.178   C38.466,203.175,38.548,203.405,38.74,203.5L38.74,203.5z M42.923,195.119c0.193,0.089,0.421,0.004,0.51-0.188   c0.089-0.192,0.004-0.421-0.189-0.51c-0.189-0.087-0.412-0.007-0.505,0.179C42.651,194.794,42.731,195.024,42.923,195.119   L42.923,195.119z M47.109,186.752c0.197,0.092,0.431,0.006,0.524-0.19c0.089-0.19,0.012-0.417-0.173-0.515   c-0.193-0.101-0.43-0.027-0.532,0.164c-0.101,0.192-0.027,0.43,0.164,0.532C47.096,186.747,47.102,186.749,47.109,186.752z    M51.289,178.359c0.186,0.099,0.418,0.027,0.517-0.16c0.002-0.003,0.003-0.007,0.005-0.011c0.098-0.188,0.025-0.42-0.163-0.518   c-0.189-0.098-0.42-0.025-0.518,0.163c-0.003,0.005-0.005,0.011-0.008,0.017c-0.097,0.178-0.031,0.4,0.146,0.497   C51.274,178.35,51.282,178.355,51.289,178.359L51.289,178.359z M74.281,206.091c0.072,0.202,0.292,0.307,0.495,0.239   c0.199-0.064,0.307-0.278,0.242-0.477c0-0.001-0.001-0.003-0.001-0.004c-0.052-0.198-0.256-0.315-0.454-0.263   c-0.009,0.002-0.019,0.005-0.028,0.008C74.333,205.67,74.223,205.885,74.281,206.091L74.281,206.091z M71.315,197.204   c0.075,0.201,0.29,0.309,0.496,0.253c0.202-0.072,0.307-0.292,0.239-0.495c-0.069-0.202-0.286-0.309-0.488-0.241   c-0.002,0.001-0.004,0.001-0.006,0.002c-0.199,0.064-0.307,0.278-0.242,0.476C71.314,197.201,71.314,197.203,71.315,197.204   L71.315,197.204z M68.352,188.329c0.06,0.195,0.267,0.306,0.464,0.247c0.006-0.002,0.011-0.004,0.018-0.005   c0.204-0.06,0.319-0.274,0.259-0.479c-0.002-0.006-0.004-0.012-0.006-0.019c-0.07-0.204-0.29-0.31-0.494-0.241   s-0.31,0.29-0.241,0.494C68.352,188.328,68.352,188.329,68.352,188.329L68.352,188.329z M65.373,179.444   c0.072,0.202,0.292,0.307,0.495,0.239c0.196-0.06,0.306-0.267,0.247-0.463c-0.002-0.006-0.004-0.011-0.005-0.017   c-0.066-0.203-0.279-0.314-0.483-0.255C65.422,179.018,65.309,179.237,65.373,179.444L65.373,179.444z M30.631,199.184   c0.161,0.1,0.373,0.051,0.475-0.108c0.102-0.16,0.054-0.373-0.105-0.475c-0.16-0.102-0.373-0.054-0.475,0.105   c-0.001,0.001-0.001,0.002-0.002,0.003C30.424,198.869,30.471,199.08,30.631,199.184L30.631,199.184z M35.063,192.096   c0.161,0.099,0.372,0.051,0.475-0.108c0.106-0.158,0.065-0.372-0.093-0.479c-0.158-0.106-0.372-0.064-0.479,0.093   c-0.004,0.006-0.007,0.011-0.011,0.018c-0.102,0.155-0.06,0.364,0.095,0.466C35.055,192.09,35.059,192.094,35.063,192.096   L35.063,192.096z M39.355,184.805c0.014,0.086,0.066,0.161,0.14,0.205c0.161,0.099,0.372,0.051,0.475-0.108   c0.105-0.163,0.056-0.381-0.106-0.487c-0.001-0.001-0.002-0.001-0.003-0.002c-0.098-0.062-0.219-0.072-0.326-0.025l-0.014,0.002   c-0.06,0.024-0.11,0.071-0.136,0.131C39.327,184.604,39.315,184.711,39.355,184.805L39.355,184.805z M43.928,177.922   c0.165,0.1,0.38,0.046,0.48-0.118c0.099-0.164,0.047-0.377-0.115-0.479c-0.161-0.1-0.373-0.051-0.475,0.108   c-0.105,0.164-0.056,0.381,0.106,0.487C43.926,177.921,43.927,177.922,43.928,177.922L43.928,177.922z M65.186,204.764   c0.05,0.187,0.238,0.302,0.427,0.262c0.18-0.04,0.294-0.218,0.254-0.398c-0.001-0.005-0.002-0.009-0.003-0.015   c-0.039-0.186-0.222-0.305-0.408-0.265c-0.002,0-0.004,0.001-0.006,0.001C65.267,204.397,65.151,204.578,65.186,204.764   L65.186,204.764z M63.318,196.632c0.045,0.182,0.23,0.294,0.412,0.251c0.18-0.04,0.294-0.218,0.254-0.398   c-0.001-0.005-0.002-0.009-0.003-0.015c-0.039-0.186-0.222-0.305-0.408-0.265c-0.002,0-0.004,0.001-0.006,0.001   C63.383,196.259,63.272,196.447,63.318,196.632L63.318,196.632z M61.434,188.475c0.039,0.186,0.222,0.305,0.408,0.266   c0.002,0,0.004-0.001,0.006-0.001c0.176-0.033,0.292-0.205,0.258-0.38c-0.002-0.011-0.004-0.021-0.007-0.031   c-0.039-0.186-0.222-0.305-0.408-0.265c-0.002,0-0.004,0.001-0.006,0.001C61.504,188.113,61.394,188.294,61.434,188.475   L61.434,188.475z M59.553,180.347c0.049,0.185,0.24,0.297,0.425,0.247c0.18-0.047,0.29-0.229,0.251-0.411   c-0.047-0.183-0.229-0.298-0.414-0.264C59.628,179.971,59.513,180.158,59.553,180.347L59.553,180.347z M57.668,172.191   c0.041,0.187,0.227,0.306,0.414,0.266c0.187-0.041,0.306-0.227,0.265-0.414v-0.001c-0.05-0.187-0.238-0.302-0.427-0.262   C57.742,171.833,57.634,172.01,57.668,172.191L57.668,172.191z M27.134,179.183c0.109,0.153,0.321,0.189,0.473,0.083   c0.004-0.003,0.008-0.006,0.012-0.009c0.149-0.101,0.189-0.305,0.088-0.454c-0.004-0.006-0.008-0.011-0.012-0.017   c-0.106-0.158-0.321-0.198-0.477-0.094c-0.003,0.002-0.006,0.004-0.011,0.007C27.056,178.814,27.024,179.028,27.134,179.183   L27.134,179.183z M47.256,200.952c-0.025,0.188,0.105,0.363,0.292,0.393c0.186,0.031,0.363-0.093,0.395-0.278   c0.028-0.188-0.094-0.367-0.28-0.408C47.47,200.629,47.29,200.76,47.256,200.952L47.256,200.952z M48.645,192.706   c-0.037,0.179,0.079,0.355,0.258,0.392c0.006,0.001,0.014,0.002,0.02,0.003c0.186,0.031,0.363-0.093,0.395-0.278   c0.028-0.188-0.094-0.368-0.28-0.408C48.851,192.389,48.676,192.518,48.645,192.706L48.645,192.706z M50.022,184.461   c-0.033,0.186,0.093,0.363,0.278,0.395c0.186,0.033,0.363-0.093,0.395-0.278c0.031-0.185-0.093-0.363-0.278-0.395   S50.055,184.276,50.022,184.461z M51.399,176.218c-0.031,0.186,0.093,0.363,0.278,0.395c0.106,0.022,0.217-0.008,0.296-0.083   l0.014-0.002c0.05-0.054,0.086-0.122,0.099-0.195c0.025-0.188-0.105-0.363-0.292-0.393   C51.609,175.907,51.432,176.032,51.399,176.218L51.399,176.218z M78.561,194.272c0.101,0.149,0.305,0.188,0.455,0.088   c0.006-0.004,0.011-0.008,0.017-0.012c0.158-0.106,0.199-0.32,0.094-0.477c-0.002-0.003-0.004-0.006-0.007-0.011   c-0.117-0.15-0.331-0.182-0.486-0.073c-0.153,0.108-0.191,0.32-0.083,0.473C78.555,194.265,78.558,194.269,78.561,194.272   L78.561,194.272z M73.701,187.464c0.113,0.156,0.329,0.193,0.488,0.087c0.155-0.117,0.185-0.336,0.07-0.491   c-0.111-0.146-0.316-0.183-0.47-0.083c-0.157,0.103-0.202,0.314-0.098,0.471C73.692,187.453,73.697,187.459,73.701,187.464   L73.701,187.464z M31.176,178.47c0.085,0.077,0.215,0.072,0.292-0.012c0.077-0.085,0.072-0.215-0.012-0.292   c-0.085-0.077-0.215-0.072-0.292,0.012l0,0C31.089,178.264,31.095,178.391,31.176,178.47L31.176,178.47z M50.559,185.604   c0.004,0.112,0.097,0.198,0.209,0.194c0.112-0.004,0.199-0.097,0.195-0.209c-0.004-0.112-0.097-0.199-0.209-0.194   C50.641,185.398,50.555,185.492,50.559,185.604L50.559,185.604L50.559,185.604z M50.38,180.679   c0.011,0.114,0.109,0.199,0.222,0.192c0.112-0.004,0.199-0.097,0.195-0.209l0,0c0.001-0.108-0.087-0.194-0.194-0.195   c-0.005,0-0.011,0-0.016,0.001c-0.115-0.001-0.208,0.092-0.209,0.206C50.38,180.676,50.38,180.678,50.38,180.679L50.38,180.679z    M50.215,175.753c0.003,0.112,0.096,0.199,0.208,0.195c0.112-0.003,0.199-0.096,0.196-0.208c0-0.001,0-0.001,0-0.002   c0.001-0.108-0.087-0.194-0.193-0.195c-0.005,0-0.011,0-0.016,0.001C50.3,175.547,50.212,175.641,50.215,175.753   C50.215,175.752,50.215,175.753,50.215,175.753L50.215,175.753z M40.983,181.518c0.105,0.031,0.218-0.02,0.263-0.12   c0.041-0.102-0.007-0.218-0.11-0.259c-0.003-0.001-0.007-0.003-0.011-0.004c-0.099-0.042-0.214,0.003-0.256,0.102   c-0.002,0.006-0.005,0.011-0.006,0.018C40.825,181.36,40.878,181.478,40.983,181.518L40.983,181.518z M42.723,176.902   c0.105,0.031,0.218-0.02,0.263-0.12c0.036-0.105-0.017-0.221-0.12-0.263c-0.098-0.045-0.214-0.003-0.26,0.095   c-0.002,0.004-0.004,0.008-0.005,0.012c-0.045,0.105,0.004,0.227,0.11,0.272C42.714,176.898,42.718,176.9,42.723,176.902   L42.723,176.902z M59.742,180.909c0.045,0.102,0.164,0.148,0.266,0.103c0.102-0.045,0.148-0.164,0.103-0.266   c-0.034-0.098-0.143-0.149-0.241-0.114c-0.008,0.003-0.017,0.006-0.024,0.011c-0.101,0.042-0.148,0.159-0.106,0.259   C59.741,180.904,59.742,180.907,59.742,180.909L59.742,180.909z M57.695,176.423c0.05,0.105,0.175,0.148,0.28,0.101   c0.097-0.047,0.138-0.165,0.091-0.262c0,0,0-0.001-0.001-0.001c-0.036-0.098-0.143-0.149-0.241-0.114   c-0.008,0.003-0.017,0.006-0.024,0.011c-0.101,0.042-0.148,0.159-0.106,0.259C57.693,176.419,57.694,176.421,57.695,176.423   L57.695,176.423z M27.656,183.361c0.103,0.068,0.241,0.038,0.307-0.065c0.001-0.002,0.002-0.004,0.004-0.006   c0.072-0.103,0.045-0.245-0.057-0.315c-0.005-0.003-0.009-0.006-0.015-0.009c-0.103-0.068-0.241-0.038-0.307,0.065   c-0.001,0.002-0.002,0.004-0.004,0.006C27.516,183.146,27.547,183.291,27.656,183.361L27.656,183.361z M30.679,178.622   c0.111,0.07,0.256,0.037,0.326-0.073c0.07-0.11,0.037-0.256-0.073-0.325c-0.103-0.068-0.241-0.038-0.307,0.065   c-0.001,0.002-0.002,0.004-0.004,0.006c-0.076,0.1-0.055,0.242,0.044,0.317C30.669,178.616,30.674,178.619,30.679,178.622   L30.679,178.622z M50.888,187.376c0.02,0.118,0.131,0.198,0.25,0.178c0.008-0.001,0.018-0.003,0.026-0.006   c0.123-0.029,0.199-0.153,0.171-0.276c-0.033-0.122-0.151-0.202-0.277-0.185c-0.127,0.033-0.203,0.161-0.17,0.287   C50.887,187.375,50.887,187.376,50.888,187.376L50.888,187.376z M49.666,181.882c0.033,0.127,0.161,0.203,0.287,0.17   c0.001,0,0.001,0,0.002,0c0.123-0.029,0.199-0.153,0.171-0.276c-0.033-0.122-0.151-0.202-0.277-0.185   C49.722,181.627,49.643,181.753,49.666,181.882L49.666,181.882z M48.469,176.372c0.014,0.12,0.122,0.207,0.242,0.192   c0.011-0.001,0.023-0.004,0.034-0.007c0.123-0.029,0.199-0.153,0.171-0.276c-0.033-0.122-0.151-0.202-0.277-0.185   C48.517,176.126,48.442,176.249,48.469,176.372L48.469,176.372z M39.355,184.805c0.027,0.02,0.057,0.034,0.09,0.043   c0.124,0.023,0.243-0.059,0.266-0.183c0-0.003,0.001-0.005,0.001-0.008c0.02-0.122-0.056-0.239-0.176-0.27l-0.014,0.002   c-0.124-0.023-0.243,0.059-0.266,0.183c0,0.003-0.001,0.005-0.001,0.008C39.236,184.67,39.277,184.76,39.355,184.805   L39.355,184.805z M40.248,179.034c-0.026,0.122,0.051,0.242,0.173,0.269c0.001,0,0.002,0,0.003,0.001   c0.127,0.022,0.25-0.054,0.283-0.179c0.017-0.13-0.067-0.25-0.193-0.281C40.389,178.822,40.27,178.907,40.248,179.034   L40.248,179.034z M60.372,180.304c0.074,0.105,0.218,0.131,0.323,0.056c0.002-0.001,0.004-0.003,0.006-0.004   c0.101-0.073,0.125-0.213,0.054-0.314c-0.064-0.105-0.199-0.139-0.304-0.077c-0.004,0.003-0.009,0.005-0.014,0.008   C60.33,180.047,60.299,180.193,60.372,180.304L60.372,180.304z M57.158,175.686c0.065,0.101,0.199,0.131,0.299,0.066   c0.005-0.003,0.011-0.007,0.017-0.011c0.105-0.063,0.139-0.199,0.077-0.303c-0.003-0.004-0.005-0.009-0.008-0.014   c-0.074-0.109-0.221-0.138-0.331-0.066C57.106,175.434,57.082,175.581,57.158,175.686L57.158,175.686L57.158,175.686z    M31.966,198.523c-0.036,0.217,0.112,0.422,0.33,0.457c0.218,0.036,0.422-0.112,0.458-0.329c0.036-0.218-0.112-0.422-0.329-0.457   C32.206,198.159,32.003,198.306,31.966,198.523L31.966,198.523z M33.458,188.991c-0.028,0.221,0.124,0.422,0.344,0.456   c0.218,0.027,0.416-0.127,0.444-0.345c0.027-0.218-0.127-0.416-0.345-0.443C33.686,188.633,33.492,188.779,33.458,188.991z    M34.963,179.457c-0.036,0.217,0.112,0.422,0.329,0.457c0.217,0.035,0.422-0.112,0.458-0.329l0,0   c0.036-0.217-0.112-0.422-0.329-0.457C35.204,179.091,34.999,179.238,34.963,179.457L34.963,179.457z M70.042,198.82   c0.137,0.176,0.388,0.215,0.573,0.089c0.175-0.137,0.207-0.391,0.07-0.565c-0.133-0.169-0.375-0.206-0.55-0.082   C69.957,198.395,69.917,198.64,70.042,198.82z M64.36,191.021c0.131,0.175,0.378,0.215,0.558,0.091   c0.179-0.128,0.221-0.378,0.092-0.558c-0.128-0.179-0.378-0.221-0.558-0.092l-0.001,0.001   C64.274,190.594,64.234,190.841,64.36,191.021z M58.677,183.223c0.131,0.176,0.378,0.217,0.558,0.091   c0.176-0.137,0.215-0.388,0.089-0.572c-0.137-0.176-0.391-0.207-0.566-0.07C58.589,182.805,58.553,183.047,58.677,183.223   L58.677,183.223z M52.996,175.425c0.131,0.176,0.378,0.217,0.558,0.091c0.175-0.138,0.213-0.388,0.089-0.572   c-0.128-0.173-0.374-0.212-0.547-0.083c-0.003,0.002-0.005,0.004-0.008,0.006c-0.176,0.116-0.227,0.353-0.112,0.528   C52.981,175.405,52.989,175.414,52.996,175.425L52.996,175.425z M23.241,180.868c0.19,0.117,0.438,0.056,0.555-0.133   c0.117-0.189,0.056-0.438-0.133-0.555c-0.19-0.117-0.438-0.056-0.555,0.133C22.996,180.504,23.054,180.748,23.241,180.868   L23.241,180.868z M49.445,203.124c0.062,0.21,0.274,0.338,0.489,0.296c0.211-0.059,0.336-0.275,0.282-0.487   c-0.046-0.212-0.255-0.346-0.468-0.3c-0.002,0.001-0.005,0.001-0.007,0.002C49.525,202.688,49.392,202.906,49.445,203.124   C49.445,203.122,49.445,203.122,49.445,203.124z M47.18,193.734c0.052,0.217,0.27,0.349,0.488,0.296h0.001   c0.209-0.051,0.336-0.263,0.284-0.473l0,0c-0.048-0.214-0.261-0.347-0.475-0.298C47.264,193.308,47.131,193.52,47.18,193.734   L47.18,193.734z M44.916,184.358c0.046,0.212,0.255,0.346,0.467,0.3c0.002-0.001,0.005-0.001,0.007-0.002   c0.218-0.046,0.357-0.26,0.311-0.479c-0.045-0.218-0.26-0.357-0.479-0.311c-0.218,0.046-0.357,0.26-0.311,0.479   C44.914,184.347,44.915,184.353,44.916,184.358z M43.594,206.227c0.048,0.213,0.261,0.347,0.474,0.298   c0.213-0.048,0.347-0.261,0.298-0.474c-0.047-0.208-0.251-0.341-0.46-0.3C43.688,205.795,43.549,206.009,43.594,206.227   L43.594,206.227z M41.728,196.795c0.045,0.218,0.259,0.357,0.477,0.311c0.211-0.047,0.348-0.251,0.315-0.463   c-0.049-0.217-0.258-0.359-0.479-0.325C41.826,196.37,41.688,196.579,41.728,196.795L41.728,196.795z M39.863,187.363   c0.045,0.218,0.259,0.357,0.477,0.311c0.215-0.041,0.355-0.249,0.315-0.463c-0.04-0.215-0.249-0.355-0.464-0.314   C39.975,186.941,39.83,187.146,39.863,187.363L39.863,187.363z M38.012,177.93c0.033,0.209,0.23,0.352,0.438,0.318   c0.008-0.001,0.017-0.003,0.025-0.005c0.213-0.043,0.353-0.249,0.315-0.463c-0.041-0.215-0.249-0.355-0.464-0.314   C38.11,177.509,37.97,177.717,38.012,177.93L38.012,177.93z M61.479,173.342c0.187,0.116,0.433,0.063,0.557-0.119   c0.117-0.182,0.065-0.425-0.117-0.543c-0.17-0.123-0.409-0.086-0.533,0.086c-0.004,0.006-0.008,0.011-0.012,0.018   c-0.127,0.18-0.083,0.427,0.098,0.554C61.473,173.338,61.476,173.34,61.479,173.342L61.479,173.342z M25.474,191.438   c-0.041,0.213,0.099,0.418,0.311,0.459c0.001,0,0.002,0,0.003,0.001c0.215,0.046,0.427-0.09,0.475-0.303   c0.04-0.218-0.1-0.428-0.318-0.474C25.73,191.083,25.521,191.222,25.474,191.438L25.474,191.438z M27.371,182.002   c-0.045,0.214,0.091,0.424,0.305,0.471c0.214,0.045,0.424-0.091,0.471-0.305c0-0.002,0.001-0.005,0.001-0.007   c0.037-0.217-0.102-0.425-0.318-0.474c-0.213-0.041-0.418,0.099-0.46,0.311C27.371,182,27.371,182.001,27.371,182.002   L27.371,182.002z M59.811,194.335c0.127,0.182,0.376,0.229,0.56,0.105c0.18-0.122,0.228-0.366,0.106-0.546   c-0.112-0.183-0.351-0.241-0.534-0.13c-0.005,0.003-0.009,0.006-0.015,0.009c-0.186,0.118-0.243,0.364-0.125,0.55   C59.805,194.329,59.807,194.332,59.811,194.335L59.811,194.335z M54.479,186.334c0.127,0.182,0.376,0.229,0.56,0.105   c0.18-0.122,0.228-0.366,0.106-0.546c-0.112-0.183-0.351-0.241-0.534-0.13c-0.005,0.003-0.009,0.006-0.015,0.009   c-0.186,0.118-0.242,0.364-0.125,0.55C54.474,186.327,54.476,186.33,54.479,186.334L54.479,186.334z M49.146,178.333   c0.127,0.182,0.376,0.229,0.56,0.105c0.18-0.122,0.228-0.366,0.106-0.546c-0.12-0.185-0.368-0.237-0.553-0.117   c-0.185,0.12-0.237,0.368-0.117,0.553C49.143,178.33,49.145,178.331,49.146,178.333L49.146,178.333z M43.8,189.629   c0.067,0.153,0.243,0.222,0.396,0.156c0.148-0.064,0.219-0.236,0.16-0.386c-0.055-0.148-0.222-0.224-0.371-0.167   c-0.009,0.003-0.019,0.007-0.028,0.012C43.809,189.31,43.74,189.479,43.8,189.629L43.8,189.629z M40.948,182.977   c0.067,0.153,0.245,0.224,0.398,0.157c0.153-0.066,0.224-0.245,0.157-0.398c0-0.001-0.001-0.002-0.001-0.003   c-0.064-0.151-0.238-0.222-0.39-0.159c-0.003,0.001-0.006,0.003-0.009,0.004C40.952,182.648,40.884,182.823,40.948,182.977   L40.948,182.977z M38.094,176.31c0.068,0.153,0.247,0.222,0.399,0.155c0.152-0.068,0.222-0.247,0.155-0.399   c-0.068-0.153-0.247-0.222-0.399-0.155l0,0C38.099,175.981,38.031,176.158,38.094,176.31L38.094,176.31z M28.424,188.904   c0.005,0.164,0.141,0.295,0.306,0.294c0.162-0.011,0.289-0.144,0.292-0.306c-0.003-0.165-0.139-0.296-0.303-0.294   c-0.001,0-0.002,0-0.003,0c-0.16-0.002-0.292,0.125-0.294,0.284C28.423,188.889,28.423,188.897,28.424,188.904L28.424,188.904z    M28.328,181.646c0.006,0.167,0.141,0.301,0.308,0.307c0.164-0.003,0.296-0.139,0.294-0.303c0-0.001,0-0.002,0-0.003   c0.004-0.159-0.122-0.292-0.281-0.295c-0.003,0-0.007,0-0.011,0c-0.165-0.005-0.303,0.124-0.308,0.289   C28.328,181.643,28.328,181.645,28.328,181.646L28.328,181.646z M54.107,178.402c0.113,0.115,0.297,0.117,0.412,0.005   c0.002-0.002,0.004-0.004,0.007-0.007c0.119-0.112,0.124-0.298,0.012-0.417c-0.005-0.005-0.011-0.011-0.017-0.017   c-0.124-0.111-0.315-0.1-0.424,0.024C53.993,178.109,53.997,178.289,54.107,178.402L54.107,178.402z M31.237,179.315   c0.083,0.123,0.251,0.157,0.374,0.074l0,0c0.118-0.069,0.159-0.219,0.091-0.338c-0.004-0.007-0.009-0.015-0.015-0.022   c-0.068-0.123-0.221-0.167-0.344-0.101c-0.006,0.003-0.012,0.007-0.019,0.011c-0.127,0.073-0.17,0.234-0.098,0.36   C31.231,179.304,31.234,179.309,31.237,179.315L31.237,179.315z"/>
	<path id="texture-4-i4" opacity="0.66" fill="#FFFFFF" enable-background="new    " d="M72.953,176.412   c0.102,0.044,0.221-0.004,0.266-0.106c0.044-0.102-0.004-0.221-0.106-0.265c-0.102-0.044-0.221,0.004-0.265,0.106l0,0   C72.803,176.249,72.85,176.368,72.953,176.412L72.953,176.412z M74.854,171.856c0.108,0.041,0.228-0.005,0.279-0.109   c0.038-0.105-0.015-0.224-0.12-0.263c-0.094-0.047-0.209-0.008-0.256,0.086c-0.003,0.007-0.006,0.014-0.009,0.021   C74.704,171.695,74.752,171.811,74.854,171.856L74.854,171.856z M93.649,176.359c0.042,0.106,0.161,0.159,0.267,0.117l0,0   c0.098-0.036,0.149-0.143,0.114-0.242c-0.003-0.008-0.006-0.017-0.011-0.024c-0.038-0.102-0.151-0.156-0.254-0.119   C93.659,176.133,93.607,176.253,93.649,176.359L93.649,176.359L93.649,176.359z M83.167,175.712   c0.007,0.113,0.098,0.203,0.211,0.209c0.116-0.001,0.21-0.095,0.209-0.211s-0.095-0.21-0.211-0.209   C83.262,175.508,83.173,175.599,83.167,175.712L83.167,175.712z M83.182,170.774c0.004,0.112,0.097,0.199,0.209,0.194l0,0   c0.108,0.008,0.202-0.073,0.21-0.18c0-0.005,0.001-0.011,0.001-0.017c-0.003-0.115-0.096-0.207-0.211-0.209   C83.279,170.571,83.189,170.661,83.182,170.774L83.182,170.774z M46.028,177.633c0.137,0.161,0.378,0.181,0.54,0.045   c0.003-0.003,0.007-0.006,0.011-0.009c0.159-0.137,0.175-0.376,0.04-0.534c-0.001-0.001-0.001-0.002-0.002-0.002   c-0.137-0.161-0.378-0.181-0.54-0.045c-0.003,0.003-0.007,0.006-0.011,0.009c-0.159,0.137-0.176,0.376-0.04,0.534   C46.024,177.632,46.027,177.633,46.028,177.633L46.028,177.633z M74.147,201.092c-0.011,0.214,0.151,0.396,0.364,0.411   c0.205,0.022,0.389-0.125,0.412-0.329c0.001-0.007,0.001-0.014,0.002-0.021c0.011-0.214-0.151-0.396-0.364-0.411   C74.349,200.724,74.164,200.88,74.147,201.092L74.147,201.092L74.147,201.092z M74.799,191.76   c-0.009,0.215,0.156,0.396,0.371,0.405c0.21,0.009,0.39-0.149,0.405-0.359c0.017-0.211-0.14-0.396-0.351-0.412l0,0   C75.009,191.386,74.823,191.546,74.799,191.76L74.799,191.76z M75.463,182.412c-0.017,0.211,0.141,0.394,0.351,0.411   c0.004,0,0.009,0.001,0.014,0.001c0.205,0.022,0.389-0.125,0.412-0.329c0.001-0.007,0.001-0.014,0.002-0.021   c0.007-0.216-0.153-0.4-0.367-0.424C75.661,182.037,75.477,182.199,75.463,182.412L75.463,182.412z M76.115,173.08   c-0.011,0.214,0.153,0.397,0.367,0.409c0.213,0.011,0.395-0.15,0.409-0.363c0.017-0.211-0.139-0.396-0.351-0.412c0,0,0,0-0.001,0   c-0.214-0.02-0.403,0.137-0.423,0.351C76.115,173.069,76.115,173.074,76.115,173.08L76.115,173.08z M56.345,191.935   c0.193,0.089,0.421,0.004,0.51-0.188c0.089-0.192,0.004-0.421-0.188-0.51c-0.188-0.087-0.412-0.007-0.505,0.178   C56.071,191.61,56.151,191.841,56.345,191.935L56.345,191.935z M60.527,183.555c0.193,0.089,0.421,0.004,0.51-0.188   c0.089-0.192,0.004-0.421-0.188-0.51c-0.188-0.087-0.412-0.007-0.505,0.179C60.253,183.23,60.336,183.46,60.527,183.555   L60.527,183.555z M64.714,175.189c0.197,0.092,0.431,0.006,0.524-0.19c0.089-0.19,0.012-0.417-0.173-0.515   c-0.193-0.101-0.43-0.027-0.532,0.164c-0.101,0.192-0.027,0.43,0.164,0.532C64.7,175.183,64.707,175.186,64.714,175.189z    M91.885,194.528c0.072,0.202,0.292,0.307,0.495,0.239c0.199-0.064,0.307-0.278,0.242-0.477c0-0.001-0.001-0.003-0.001-0.004   c-0.052-0.198-0.256-0.315-0.454-0.263c-0.009,0.002-0.019,0.005-0.028,0.008C91.938,194.107,91.828,194.321,91.885,194.528   L91.885,194.528z M88.92,185.64c0.075,0.201,0.29,0.309,0.496,0.253c0.202-0.072,0.307-0.292,0.239-0.495   c-0.069-0.202-0.286-0.309-0.488-0.241c-0.002,0.001-0.004,0.001-0.006,0.002c-0.199,0.064-0.307,0.278-0.242,0.476   C88.919,185.638,88.919,185.638,88.92,185.64L88.92,185.64z M85.956,176.766c0.06,0.195,0.267,0.306,0.464,0.247   c0.006-0.002,0.011-0.004,0.018-0.005c0.204-0.06,0.319-0.274,0.259-0.479c-0.002-0.006-0.004-0.012-0.006-0.019   c-0.07-0.204-0.29-0.31-0.494-0.241s-0.31,0.29-0.241,0.494C85.956,176.765,85.956,176.766,85.956,176.766L85.956,176.766z    M48.235,187.619c0.161,0.1,0.373,0.051,0.475-0.108c0.102-0.16,0.054-0.373-0.105-0.475c-0.16-0.102-0.373-0.054-0.475,0.105   c-0.001,0.001-0.001,0.002-0.002,0.003C48.028,187.306,48.076,187.516,48.235,187.619L48.235,187.619z M52.667,180.532   c0.161,0.099,0.372,0.051,0.475-0.108c0.106-0.158,0.065-0.372-0.093-0.479c-0.158-0.106-0.372-0.064-0.479,0.093   c-0.004,0.006-0.007,0.011-0.011,0.018c-0.102,0.155-0.06,0.364,0.095,0.466C52.659,180.528,52.663,180.529,52.667,180.532   L52.667,180.532z M56.959,173.24c0.014,0.086,0.066,0.161,0.14,0.205c0.161,0.099,0.372,0.051,0.475-0.108   c0.105-0.163,0.056-0.381-0.106-0.487c-0.001-0.001-0.002-0.001-0.003-0.002c-0.098-0.062-0.219-0.072-0.326-0.025l-0.014,0.002   c-0.06,0.024-0.11,0.071-0.136,0.131C56.931,173.041,56.919,173.146,56.959,173.24L56.959,173.24z M82.789,193.199   c0.05,0.187,0.238,0.302,0.427,0.262c0.18-0.04,0.294-0.218,0.254-0.398c-0.001-0.005-0.002-0.009-0.003-0.015   c-0.039-0.186-0.222-0.305-0.408-0.265c-0.002,0-0.004,0.001-0.006,0.001C82.871,192.832,82.755,193.013,82.789,193.199   L82.789,193.199z M80.923,185.068c0.045,0.182,0.23,0.294,0.412,0.251c0.18-0.04,0.294-0.218,0.254-0.398   c-0.001-0.005-0.002-0.009-0.003-0.015c-0.039-0.186-0.222-0.305-0.408-0.265c-0.002,0-0.004,0.001-0.006,0.001   C80.987,184.694,80.876,184.882,80.923,185.068L80.923,185.068z M79.038,176.912c0.039,0.186,0.222,0.305,0.408,0.266   c0.002,0,0.004-0.001,0.006-0.001c0.176-0.033,0.292-0.205,0.258-0.38c-0.002-0.011-0.004-0.021-0.007-0.031   c-0.039-0.186-0.222-0.305-0.408-0.265c-0.002,0-0.004,0.001-0.006,0.001C79.107,176.549,78.998,176.729,79.038,176.912   L79.038,176.912z M64.861,189.388c-0.025,0.188,0.105,0.363,0.292,0.393c0.186,0.031,0.363-0.093,0.395-0.278   c0.028-0.188-0.094-0.368-0.28-0.408C65.074,189.065,64.893,189.195,64.861,189.388L64.861,189.388z M66.25,181.142   c-0.037,0.179,0.079,0.355,0.258,0.392c0.006,0.001,0.014,0.002,0.02,0.003c0.186,0.031,0.363-0.093,0.395-0.278   c0.028-0.188-0.094-0.368-0.28-0.408C66.454,180.824,66.28,180.954,66.25,181.142L66.25,181.142z M67.627,172.898   c-0.033,0.186,0.093,0.363,0.278,0.395c0.186,0.033,0.363-0.093,0.395-0.278c0.031-0.185-0.093-0.363-0.278-0.395   S67.659,172.712,67.627,172.898L67.627,172.898z M96.165,182.709c0.101,0.149,0.305,0.188,0.455,0.088   c0.006-0.004,0.011-0.008,0.017-0.012c0.158-0.106,0.199-0.32,0.094-0.477c-0.002-0.003-0.004-0.006-0.007-0.011   c-0.117-0.15-0.331-0.182-0.486-0.073c-0.153,0.108-0.191,0.32-0.083,0.473C96.159,182.7,96.161,182.704,96.165,182.709   L96.165,182.709z M91.306,175.9c0.113,0.156,0.329,0.193,0.488,0.087c0.155-0.117,0.185-0.336,0.07-0.491   c-0.111-0.146-0.316-0.183-0.47-0.083c-0.157,0.103-0.202,0.314-0.098,0.471C91.296,175.888,91.301,175.895,91.306,175.9z    M68.163,174.04c0.004,0.112,0.097,0.199,0.209,0.194c0.112-0.004,0.199-0.097,0.195-0.209s-0.097-0.199-0.209-0.194   C68.246,173.835,68.159,173.928,68.163,174.04L68.163,174.04L68.163,174.04z M67.984,169.115c0.011,0.114,0.109,0.199,0.222,0.192   c0.112-0.004,0.199-0.097,0.195-0.209l0,0c0.001-0.108-0.087-0.194-0.194-0.195c-0.005,0-0.011,0-0.016,0.001   c-0.115-0.001-0.208,0.092-0.209,0.206C67.984,169.111,67.984,169.113,67.984,169.115L67.984,169.115z M68.492,175.811   c0.02,0.118,0.131,0.199,0.25,0.178c0.008-0.001,0.018-0.003,0.026-0.006c0.123-0.029,0.199-0.153,0.171-0.276   c-0.033-0.122-0.151-0.202-0.277-0.185c-0.127,0.033-0.203,0.161-0.17,0.287C68.492,175.81,68.492,175.811,68.492,175.811   L68.492,175.811z M67.269,170.318c0.033,0.127,0.161,0.203,0.287,0.17c0.001,0,0.001,0,0.002,0   c0.123-0.029,0.199-0.153,0.171-0.276c-0.033-0.122-0.151-0.202-0.277-0.185C67.326,170.063,67.248,170.188,67.269,170.318   L67.269,170.318z M56.959,173.24c0.027,0.02,0.057,0.034,0.09,0.043c0.124,0.023,0.243-0.059,0.266-0.183   c0-0.003,0.001-0.005,0.001-0.008c0.02-0.122-0.056-0.239-0.176-0.27l-0.014,0.002c-0.124-0.023-0.243,0.059-0.266,0.183   c0,0.003-0.001,0.005-0.001,0.008C56.841,173.106,56.881,173.196,56.959,173.24L56.959,173.24z M49.57,186.959   c-0.036,0.217,0.112,0.422,0.33,0.457c0.218,0.036,0.422-0.112,0.458-0.329c0.035-0.218-0.112-0.422-0.329-0.457   C49.811,186.594,49.606,186.742,49.57,186.959L49.57,186.959z M51.062,177.427c-0.028,0.221,0.124,0.422,0.344,0.456   c0.218,0.027,0.416-0.127,0.444-0.345c0.027-0.218-0.127-0.416-0.345-0.443C51.29,177.069,51.096,177.215,51.062,177.427z    M87.646,187.255c0.137,0.176,0.388,0.215,0.573,0.089c0.176-0.137,0.207-0.391,0.07-0.565c-0.133-0.169-0.375-0.206-0.55-0.082   C87.562,186.83,87.521,187.076,87.646,187.255L87.646,187.255z M81.964,179.458c0.131,0.175,0.378,0.215,0.558,0.091   c0.179-0.128,0.221-0.378,0.092-0.558c-0.128-0.179-0.378-0.221-0.558-0.092l-0.001,0.001   C81.878,179.031,81.838,179.277,81.964,179.458L81.964,179.458z M76.282,171.658c0.131,0.176,0.378,0.217,0.558,0.091   c0.175-0.137,0.215-0.388,0.089-0.572c-0.137-0.176-0.391-0.207-0.566-0.07C76.192,171.24,76.158,171.482,76.282,171.658   L76.282,171.658z M67.049,191.56c0.063,0.21,0.274,0.338,0.489,0.296c0.211-0.059,0.336-0.275,0.282-0.487   c-0.046-0.212-0.255-0.346-0.468-0.3c-0.002,0.001-0.005,0.001-0.007,0.002C67.129,191.124,66.997,191.342,67.049,191.56   C67.049,191.559,67.049,191.56,67.049,191.56L67.049,191.56z M64.784,182.169c0.052,0.217,0.27,0.349,0.488,0.296h0.001   c0.209-0.051,0.336-0.263,0.284-0.473l0,0c-0.048-0.214-0.261-0.347-0.475-0.298C64.868,181.743,64.736,181.956,64.784,182.169   L64.784,182.169z M62.52,172.793c0.046,0.212,0.255,0.346,0.467,0.3c0.002-0.001,0.005-0.001,0.007-0.002   c0.218-0.046,0.357-0.26,0.311-0.479c-0.045-0.218-0.26-0.357-0.479-0.311c-0.218,0.046-0.357,0.26-0.311,0.479   C62.518,172.784,62.519,172.789,62.52,172.793z M61.198,194.663c0.048,0.213,0.261,0.347,0.474,0.298   c0.213-0.048,0.347-0.261,0.298-0.474c-0.047-0.208-0.251-0.341-0.46-0.3C61.292,194.231,61.153,194.444,61.198,194.663   L61.198,194.663z M59.333,185.23c0.045,0.218,0.259,0.357,0.477,0.311c0.211-0.047,0.348-0.251,0.315-0.463   c-0.049-0.217-0.258-0.359-0.479-0.325C59.429,184.805,59.292,185.014,59.333,185.23L59.333,185.23z M57.468,175.799   c0.045,0.218,0.259,0.357,0.477,0.311c0.215-0.041,0.355-0.249,0.315-0.463c-0.041-0.215-0.249-0.355-0.464-0.314   C57.579,175.377,57.434,175.582,57.468,175.799L57.468,175.799z M43.078,179.874c-0.041,0.213,0.099,0.418,0.311,0.459   c0.001,0,0.002,0,0.003,0.001c0.215,0.046,0.427-0.09,0.475-0.303c0.04-0.218-0.1-0.428-0.318-0.474   C43.334,179.518,43.125,179.657,43.078,179.874L43.078,179.874z M77.415,182.771c0.127,0.182,0.376,0.229,0.56,0.105   c0.18-0.122,0.228-0.366,0.106-0.546c-0.112-0.183-0.351-0.241-0.534-0.13c-0.005,0.003-0.009,0.006-0.015,0.009   c-0.186,0.118-0.243,0.364-0.125,0.55C77.41,182.765,77.412,182.768,77.415,182.771L77.415,182.771z M72.082,174.771   c0.127,0.182,0.376,0.229,0.56,0.105c0.18-0.122,0.228-0.366,0.106-0.546c-0.112-0.183-0.351-0.241-0.534-0.13   c-0.005,0.003-0.009,0.006-0.015,0.009c-0.186,0.118-0.242,0.364-0.125,0.55C72.078,174.764,72.08,174.767,72.082,174.771   L72.082,174.771z M61.404,178.065c0.067,0.153,0.243,0.222,0.396,0.156c0.148-0.064,0.219-0.236,0.16-0.386   c-0.055-0.148-0.222-0.224-0.371-0.167c-0.009,0.003-0.019,0.007-0.028,0.012C61.413,177.746,61.344,177.915,61.404,178.065   L61.404,178.065z M46.029,177.339c0.005,0.164,0.141,0.295,0.306,0.294c0.162-0.011,0.289-0.144,0.292-0.306   c-0.003-0.165-0.139-0.296-0.303-0.294c-0.001,0-0.002,0-0.003,0c-0.16-0.002-0.292,0.125-0.294,0.284   C46.028,177.326,46.028,177.332,46.029,177.339L46.029,177.339z"/>
	
		<linearGradient id="L_sleeve_1_-i4" gradientUnits="userSpaceOnUse" x1="4215.3198" y1="2812.6555" x2="4440.0005" y2="3690.3206" gradientTransform="matrix(0.0741 0 0 0.0741 -230.5491 -141.1613)">
		<stop offset="0.1291" style="stop-color:#428DFC"/>
		<stop offset="0.9987" style="stop-color:#1D72D8"/>
	</linearGradient>
	<path id="L_sleeve-i4" fill="url(#L_sleeve_1_-i4)" d="M141.889,131.385c0,0-3.455,7.149-15.537,7.643   c-12.081,0.495-14.799,2.463-23.679,8.138c-8.88,5.675-25.649,7.886-42.428-18.245c-15.4-24.004-20.613-50.494-17.907-64.59   c4.109,1.508,8.327,2.701,12.619,3.569c1.39,0.284,2.685,0.506,3.908,0.674c2.223,0.326,6.645,0.55,8.226,0.644   c2.855,9.433,6.183,45.07,27.58,40.817c13.407-2.597,26.39-7.027,38.59-13.163L141.889,131.385z"/>
	
		<linearGradient id="sweater_1_-i4" gradientUnits="userSpaceOnUse" x1="3290.8882" y1="3171.4163" x2="3663.6816" y2="4397.8501" gradientTransform="matrix(0.0741 0 0 0.0741 -230.5491 -141.1613)">
		<stop offset="0.1291" style="stop-color:#428DFC"/>
		<stop offset="0.9987" style="stop-color:#1D72D8"/>
	</linearGradient>
	<path id="sweater-i4" fill="url(#sweater_1_-i4)" d="M69.242,167.813c-10.375,4.59-24.995,8.328-45.472,9.16   c-4.803,0.201-9.94,0.225-15.41,0.074c-16.737-19.529-3.971-40.565,0.811-54.051c4.771-13.497,0.19-13.971,9.238-36.985   c0.996-2.365,2.146-4.661,3.444-6.875c1.506,21.73,10.038,46.114,21.889,66.833C51.103,158.843,59.529,165.603,69.242,167.813z"/>
	<path id="R_sleeve-i4" fill="#428DFC" d="M146.682,140.713c0,0-3.908,11.381-23.352,14.455c-19.444,3.085-23.12,8.781-32.685,11.424   c-7.753,2.148-14.873,2.716-21.404,1.221c-9.711-2.211-18.139-8.97-25.501-21.846c-11.849-20.719-20.382-45.103-21.889-66.833   c2.4-4.252,5.093-8.332,8.058-12.213c3.17-3.895,5.782-6.812,7.91-9.013c2.844-1.379,24.74-5.157,28.196-4.61   c0,0-1.433,32.207,14.114,52.779c1.685,2.222-1.283-1.898,0,0c6.082,8.999,11.629,10.216,16.79,10.216   c6.004,0,26.768-5.564,37.955-15.608L146.682,140.713z"/>
	<path id="face-i4" fill="#FFBEB6" d="M57.357,45.807c4.542,3.898,14.841,10.428,21.043,7.917c7.422-3.011,9.494-9.131,10.865-8.908   c1.367,0.232,4.413,0.016,4.794-1.418c0.385-1.421-2.327-6.43-1.613-11.787c0.066-0.498,0.121-0.98,0.148-1.456l-0.003-0.014   c0.02-0.113,0.031-0.228,0.034-0.343c0.006-0.054,0.006-0.11,0.001-0.164c-0.002-0.019-0.001-0.038,0.002-0.057   c-0.001-0.071,0.004-0.15,0.008-0.23c0.007-0.572,0.007-1.419-0.078-2.426c-0.034-0.47-0.088-0.985-0.166-1.531   c-0.082-0.615-0.214-1.269-0.372-1.936c-0.011-0.048-0.022-0.096-0.033-0.143c-0.04-0.166-0.072-0.326-0.117-0.495   c-0.077-0.297-0.167-0.591-0.266-0.891c-0.071-0.235-0.155-0.465-0.245-0.688c-0.037-0.106-0.082-0.218-0.127-0.329   c-0.079-0.205-0.165-0.414-0.258-0.615c-0.015-0.045-0.033-0.089-0.056-0.131c-0.005,0.008-0.002,0.022-0.014,0.038   c-0.112,0.425-0.26,0.84-0.444,1.24c-0.05,0.131-0.12,0.275-0.19,0.418c-0.264,0.531-0.574,1.037-0.927,1.512   c-0.053,0.083-0.116,0.16-0.183,0.245c-0.062,0.077-0.13,0.162-0.197,0.249c-0.135,0.17-0.283,0.345-0.441,0.513   c-0.015,0.024-0.034,0.036-0.051,0.06c-0.224,0.254-0.461,0.497-0.709,0.726c-0.087,0.097-0.184,0.173-0.279,0.265   c-0.004,0.006-0.011,0.009-0.019,0.011c-0.184,0.173-0.39,0.346-0.605,0.512l-0.011,0.017c-0.103,0.087-0.214,0.166-0.326,0.247   c-0.487,0.378-0.996,0.725-1.526,1.041c-0.182,0.117-0.38,0.222-0.585,0.337c-0.095,0.055-0.184,0.103-0.288,0.153   c-0.095,0.055-0.196,0.12-0.299,0.169c-0.054,0.029-0.111,0.055-0.168,0.079c-0.151,0.09-0.316,0.159-0.485,0.237   c-0.168,0.079-0.337,0.157-0.514,0.23c-0.168,0.079-0.337,0.157-0.522,0.225c-0.466,0.19-0.957,0.366-1.469,0.538   c-0.286,0.096-0.581,0.186-0.88,0.285c-1.141,0.332-2.299,0.604-3.47,0.811l-0.761,0.139c-2.336,0.403-4.611,1.094-6.776,2.056   c-0.319,0.181-0.641,0.371-0.979,0.562c-0.914,0.53-1.785,1.129-2.606,1.796C61.709,37.801,59.011,41.561,57.357,45.807z"/>
	<path id="eye-i4" fill="#1C2868" d="M94.993,32.951c-1.041,1.566-3.154,1.991-4.721,0.95c-0.567-0.377-1.008-0.915-1.266-1.545   c-0.2-0.479,0.51-0.88,0.712-0.395c0.492,1.344,1.981,2.035,3.326,1.545c0.506-0.185,0.944-0.524,1.249-0.969   C94.594,32.111,95.297,32.523,94.993,32.951L94.993,32.951z"/>
	<path id="hair-i4" fill="#E94A47" d="M71.474,0.899c-2.552-0.747-5.217-1.032-7.869-0.842h-0.105   c-9.689,0.317-17.057,5.762-21.668,13.54c-2.624,3.988-4.561,8.387-5.733,13.015c-2.39,8.373-4.796,24.315-16.312,23.898   c-0.509-0.018-0.508,0.772,0,0.79c7.357,0.266,11.119-6.119,13.474-12.266c1.552-4.052,2.557-8.292,3.757-12.427   c-0.324,1.728-0.544,3.472-0.663,5.225c-1.295,18.718-14.873,21.856-14.873,21.856c6.428,4.301,13.336,7.842,20.582,10.549   c4.195,1.554,8.507,2.78,12.893,3.664c1.39,0.284,2.685,0.506,3.908,0.674c3.548,0.591,7.151,0.8,10.744,0.622   c5.802-7.675,3.656-15.48,1.216-21.98c3.651,7.011,5.557,13.491,1.728,21.32c-0.222,0.454,0.458,0.856,0.682,0.399   c2.303-4.412,2.954-9.501,1.834-14.351c-1.611-6.604-7.628-11.925-7.134-18.755c0.479-1.819,2.075-3.135,5.562-3.797   c0.158-0.031,0.316-0.052,0.485-0.085c17.296-2.853,16.938-11.781,16.938-11.803c1.315,3.166,1.888,6.59,1.674,10.012   C99.156,13.291,84.325,4.616,71.474,0.899z"/>
</g>

        </g>
    </g>
</g>

<!-- ITEM 5 -->
<g>
    <defs>
        
        <clipPath id="clip-path-id-viewbox-item-5">
            <rect x="0.0" y="0.0" width="223.473" height="358.478"/>
        </clipPath>
    </defs>
    <g transform="translate(808.0 486.0) rotate(0.0 69.0 110.5) scale(0.6175242646762695 0.6164952939929368)">
        <g clip-path="url(#clip-path-id-viewbox-item-5)" transform="translate(-0.0 -0.0)">

<g>
	
		<linearGradient id="top_1_-i5" gradientUnits="userSpaceOnUse" x1="112.214" y1="55.9614" x2="99.4893" y2="429.748" gradientTransform="matrix(1 0 0 1 0 -70)">
		<stop offset="0.0898" style="stop-color:#428dfc"/>
		<stop offset="0.8178" style="stop-color:#2a76e6"/>
	</linearGradient>
	<path id="top-i5" fill="url(#top_1_-i5)" d="M223.468,0c-1.411,34.46-18.07,88.976-43.517,128.836   c-18.564,29.095-41.801,50.382-67.204,50.382c-22.626,0-43.832-16.902-61.606-41.163C21.614,97.781,1.522,37.2,0.004,0H223.468z"/>
	
		<linearGradient id="bottom_1_-i5" gradientUnits="userSpaceOnUse" x1="52.1594" y1="288.727" x2="209.6229" y2="597.2916" gradientTransform="matrix(1 0 0 1 0 -70)">
		<stop offset="0.0898" style="stop-color:#428dfc"/>
		<stop offset="0.8178" style="stop-color:#2a76e6"/>
	</linearGradient>
	<path id="bottom-i5" fill="url(#bottom_1_-i5)" d="M0,358.478c2.44-59.609,52.539-179.214,112.748-179.214   s108.285,119.604,110.725,179.214H0z"/>
	
		<linearGradient id="top-2_1_-i5" gradientUnits="userSpaceOnUse" x1="137.2206" y1="378.3897" x2="117.2899" y2="217.5204" gradientTransform="matrix(1 0 0 1 0 -70)">
		<stop offset="0.0898" style="stop-color:#428dfc"/>
		<stop offset="0.8178" style="stop-color:#2a76e6"/>
	</linearGradient>
	<path id="top-2-i5" fill="url(#top-2_1_-i5)" d="M179.951,128.836c-18.564,29.095-41.801,50.382-67.204,50.382   c-22.626,0-43.832-16.902-61.606-41.163C76.229,135.737,131.967,131.954,179.951,128.836z"/>
	
		<linearGradient id="bottom-2_1_-i5" gradientUnits="userSpaceOnUse" x1="156.1392" y1="786.8744" x2="103.2258" y2="359.7875" gradientTransform="matrix(1 0 0 1 0 -70)">
		<stop offset="0.0898" style="stop-color:#428dfc"/>
		<stop offset="0.8178" style="stop-color:#2a76e6"/>
	</linearGradient>
	<path id="bottom-2-i5" fill="url(#bottom-2_1_-i5)" d="M220.377,354.678l0.725-0.013l-8.941-9.431c-1.827-1.996-3.653-3.921-5.476-5.776   l-92.41-97.474h-3.658l-92.579,97.497C11.569,345.363,5.54,351.712,0,358.477h223.472   C222.44,357.186,221.409,355.924,220.377,354.678z"/>
	
		<linearGradient id="sand_1_-i5" gradientUnits="userSpaceOnUse" x1="111.3569" y1="264.4574" x2="112.1215" y2="298.0951" gradientTransform="matrix(1 0 0 1 0 -70)">
		<stop offset="0.0898" style="stop-color:#428dfc"/>
		<stop offset="0.8178" style="stop-color:#2a76e6"/>
	</linearGradient>
	<rect id="sand-i5" x="110.345" y="179.434" fill="url(#sand_1_-i5)" width="4" height="117"/>
</g>

        </g>
    </g>
</g>

<!-- ITEM 6 -->
<g>
    <defs>
        
        <clipPath id="clip-path-id-viewbox-item-6">
            <rect x="0.0" y="0.0" width="214.0" height="372.0"/>
        </clipPath>
    </defs>
    <g transform="translate(180.0 693.0) rotate(0.0 193.0 335.5) scale(1.8037383177570094 1.803763440860215)">
        <g clip-path="url(#clip-path-id-viewbox-item-6)" transform="translate(-0.0 -0.0)">

<g>
	
		<linearGradient id="wheel_3_1_-i6" gradientUnits="userSpaceOnUse" x1="3845.3201" y1="8969.1982" x2="2455.0232" y2="10940.25" gradientTransform="matrix(0.0178 0 0 0.0178 98.2222 188.9022)">
		<stop offset="0.0898" style="stop-color:#EEEEEE"/>
		<stop offset="0.8178" style="stop-color:#D6D7D8"/>
	</linearGradient>
	<circle id="wheel_3-i6" fill="url(#wheel_3_1_-i6)" cx="159.695" cy="358.12" r="13.876"/>
	
		<linearGradient id="chair_seat_1_-i6" gradientUnits="userSpaceOnUse" x1="7166.9385" y1="-1395.4995" x2="1579.5626" y2="-796.85" gradientTransform="matrix(0.0178 0 0 0.0178 98.2222 188.9022)">
		<stop offset="0.14" style="stop-color:#E94A47"/>
		<stop offset="1" style="stop-color:#C63030"/>
	</linearGradient>
	<rect id="chair_seat-i6" x="31.339" y="158.247" fill="url(#chair_seat_1_-i6)" width="182.661" height="33.757"/>
	
		<linearGradient id="chair_bottom_1_1_-i6" gradientUnits="userSpaceOnUse" x1="1267.5669" y1="1223.2161" x2="1458.7025" y2="-751.934" gradientTransform="matrix(0.0178 0 0 0.0178 98.2222 188.9022)">
		<stop offset="0" style="stop-color:#23286B"/>
		<stop offset="1" style="stop-color:#151A4F"/>
	</linearGradient>
	<path id="chair_bottom_1-i6" fill="url(#chair_bottom_1_1_-i6)" d="M89.379,192.004h66.313l0,0l0,0c0,5.871-4.803,10.541-10.541,10.541   h-45.098C94.049,202.545,89.379,197.875,89.379,192.004L89.379,192.004L89.379,192.004z"/>
	
		<linearGradient id="chair_bottom_2_1_-i6" gradientUnits="userSpaceOnUse" x1="-1774.4059" y1="-171.9043" x2="1984.7495" y2="1946.5952" gradientTransform="matrix(0.0178 0 0 0.0178 98.2222 188.9022)">
		<stop offset="0" style="stop-color:#23286B"/>
		<stop offset="1" style="stop-color:#151A4F"/>
	</linearGradient>
	<rect id="chair_bottom_2-i6" x="114.33" y="202.411" fill="url(#chair_bottom_2_1_-i6)" width="16.278" height="29.754"/>
	
		<linearGradient id="chair_bottom_3_1_-i6" gradientUnits="userSpaceOnUse" x1="1394.5601" y1="4361.2573" x2="1237.8496" y2="9752.2109" gradientTransform="matrix(0.0178 0 0 0.0178 98.2222 188.9022)">
		<stop offset="0" style="stop-color:#23286B"/>
		<stop offset="1" style="stop-color:#151A4F"/>
	</linearGradient>
	<path id="chair_bottom_3-i6" fill="url(#chair_bottom_3_1_-i6)" d="M120.735,228.963h3.603c5.871,0,10.674,4.803,10.674,10.674v86.994   l0,0h-24.951l0,0v-86.994C109.927,233.766,114.731,228.963,120.735,228.963z"/>
	
		<linearGradient id="leg_4_1_-i6" gradientUnits="userSpaceOnUse" x1="3770.3982" y1="8052.0967" x2="1153.2808" y2="7284.2041" gradientTransform="matrix(0.0178 0 0 0.0178 98.2222 188.9022)">
		<stop offset="0" style="stop-color:#23286B"/>
		<stop offset="1" style="stop-color:#151A4F"/>
	</linearGradient>
	<path id="leg_4-i6" fill="url(#leg_4_1_-i6)" d="M122.603,326.631h61.376c7.605,0,13.61,6.138,13.61,13.61v4.403h-4.403v-0.934v-1.868   c0-6.004-4.803-10.808-10.808-10.808l0,0h-59.775L122.603,326.631z"/>
	<path id="leg_3-i6" fill="#23286B" d="M122.603,326.631h25.885c7.605,0,13.61,6.138,13.61,13.61v4.403h-4.403v-0.934v-1.868   c0-6.004-4.803-10.808-10.808-10.808l0,0h-24.284V326.631z"/>
	
		<linearGradient id="leg_1_1_-i6" gradientUnits="userSpaceOnUse" x1="-3130.1257" y1="6079.877" x2="-1030.1648" y2="7976.1084" gradientTransform="matrix(0.0178 0 0 0.0178 98.2222 188.9022)">
		<stop offset="0" style="stop-color:#23286B"/>
		<stop offset="1" style="stop-color:#151A4F"/>
	</linearGradient>
	<path id="leg_1-i6" fill="url(#leg_1_1_-i6)" d="M122.87,326.631H61.493c-7.605,0-13.61,6.138-13.61,13.61v4.403h4.403v-0.934v-1.868   c0-6.004,4.803-10.808,10.808-10.808l0,0h59.775L122.87,326.631z"/>
	<path id="leg_2-i6" fill="#23286B" d="M122.87,326.631H96.985c-7.605,0-13.61,6.138-13.61,13.61v4.403h4.403v-0.934v-1.868   c0-6.004,4.803-10.808,10.808-10.808l0,0h24.284V326.631z"/>
	
		<linearGradient id="wheel_2_1_-i6" gradientUnits="userSpaceOnUse" x1="-234.7086" y1="9132.1367" x2="-2663.3267" y2="11085.5889" gradientTransform="matrix(0.0178 0 0 0.0178 98.2222 188.9022)">
		<stop offset="0.0898" style="stop-color:#EEEEEE"/>
		<stop offset="0.8178" style="stop-color:#D6D7D8"/>
	</linearGradient>
	<circle id="wheel_2-i6" fill="url(#wheel_2_1_-i6)" cx="85.51" cy="358.12" r="13.876"/>
	
		<linearGradient id="wheel_4_1_-i6" gradientUnits="userSpaceOnUse" x1="6100.9658" y1="8845.0889" x2="4235.5049" y2="10833.748" gradientTransform="matrix(0.0178 0 0 0.0178 98.2222 188.9022)">
		<stop offset="0.0898" style="stop-color:#EEEEEE"/>
		<stop offset="0.8178" style="stop-color:#D6D7D8"/>
	</linearGradient>
	<circle id="wheel_4-i6" fill="url(#wheel_4_1_-i6)" cx="195.454" cy="358.12" r="13.876"/>
	
		<linearGradient id="wheel_1_1_-i6" gradientUnits="userSpaceOnUse" x1="-2203.6692" y1="8805.1846" x2="-3681.9573" y2="10881.835" gradientTransform="matrix(0.0178 0 0 0.0178 98.2222 188.9022)">
		<stop offset="0.0898" style="stop-color:#EEEEEE"/>
		<stop offset="0.8178" style="stop-color:#D6D7D8"/>
	</linearGradient>
	<circle id="wheel_1-i6" fill="url(#wheel_1_1_-i6)" cx="50.019" cy="358.12" r="13.876"/>
	
		<linearGradient id="chair_back_1_-i6" gradientUnits="userSpaceOnUse" x1="554.8203" y1="-8350.1348" x2="-5185.3027" y2="3563.3252" gradientTransform="matrix(0.0178 0 0 0.0178 98.2222 188.9022)">
		<stop offset="0.14" style="stop-color:#E94A47"/>
		<stop offset="1" style="stop-color:#C63030"/>
	</linearGradient>
	<path id="chair_back-i6" fill="url(#chair_back_1_-i6)" d="M154.225,192.004H31.339L0.384,26.822C-1.884,14.546,6.121,2.671,18.53,0.403   c1.334-0.267,2.802-0.4,4.136-0.4h76.72c10.941,0,20.281,7.739,22.282,18.413L154.225,192.004z"/>
</g>

        </g>
    </g>
</g>

<!-- ITEM 7 -->
<g>
    <defs>
        
        <clipPath id="clip-path-id-viewbox-item-7">
            <rect x="0.0" y="0.0" width="41.672" height="121.016"/>
        </clipPath>
    </defs>
    <g transform="translate(1189.0 958.0) rotate(0.0 71.0 204.5) scale(3.4075638318295263 3.3797183843458716)">
        <g clip-path="url(#clip-path-id-viewbox-item-7)" transform="translate(-0.0 -0.0)">

<path fill="#A1C3FC" d="M25.497,0c-5.48,4.669-9.596,28.884-9.596,52.527s4.115,43.379,9.596,48.049  c5.48-4.669,9.596-24.406,9.596-48.049S30.977,4.669,25.497,0z"/>
<linearGradient id="SVGID_1_-i7" gradientUnits="userSpaceOnUse" x1="4.8767" y1="65.6405" x2="26.7672" y2="65.6405">
	<stop offset="0" style="stop-color:#C6DAFD"/>
	<stop offset="1" style="stop-color:#B8D1FD"/>
</linearGradient>
<path fill="url(#SVGID_1_-i7)" d="M9.65,15.71c-4.886,5.287-6.094,29.82-3.284,53.295s9.243,42.583,15.239,46.567  c4.886-5.287,6.626-25.374,3.816-48.849S15.646,19.694,9.65,15.71z"/>
<linearGradient id="SVGID_2_-i7" gradientUnits="userSpaceOnUse" x1="1.354994e-005" y1="100.18" x2="41.6724" y2="100.18">
	<stop offset="0" style="stop-color:#428DFC"/>
	<stop offset="1" style="stop-color:#1D72D8"/>
</linearGradient>
<path fill="url(#SVGID_2_-i7)" d="M37.286,121.016H4.387c-2.423,0-4.387-1.964-4.387-4.387V79.344h41.672v37.286  C41.672,119.052,39.708,121.016,37.286,121.016z"/>

        </g>
    </g>
</g>

              </svg>