<?xml version="1.0" encoding="UTF-8"?><svg version="1.1" xmlns="http://www.w3.org/2000/svg" xmlns:xlink="http://www.w3.org/1999/xlink" viewBox="0 0 1500 1500" width="1500" height="1500" x="0px" y="0px">
    
    
    <!-- ITEM 0 -->
    <g>
        <defs>
            <clipPath id="clip-path-id-viewbox-item-0">
                <rect x="0.0" y="0.0" width="222.725" height="228.849"/>
            </clipPath>
        </defs>
        <g transform="translate(128.0 301.0) rotate(348.93613338076517 211.5 216.5) scale(1.8992030530923785 1.8920773086183467)">
            <g clip-path="url(#clip-path-id-viewbox-item-0)" transform="translate(-0.0 -0.0)">
                
<ellipse transform="matrix(0.9848 -0.1735 0.1735 0.9848 -11.305 19.9699)" fill="#FFFFFF" cx="108.596" cy="74.661" rx="109.587" ry="68.971"/>
<g>
	<path fill="#a1c3fc" d="M137.572,228.849c-0.601,0-1.168-0.363-1.398-0.957c-3.227-8.302-1.036-17.427,1.083-26.252   c2.366-9.855,4.601-19.166-0.746-26.485c-4.082-5.589-11.496-7.84-18.21-9.304c-8.461-1.847-17.224-3.055-25.699-4.223   c-10.65-1.468-21.663-2.985-32.268-5.789c-22.75-6.016-39.725-17.867-47.798-33.371c-2.438-4.682-4.06-9.767-4.9-15.065   c-2.286-3.25-4.153-6.835-5.474-10.785c-9.544-28.539,15.402-57.58,42.62-72.486C70.848,9.855,100.316,1.51,130,0   c0.82-0.019,1.532,0.594,1.574,1.422c0.042,0.827-0.595,1.532-1.422,1.574c-29.235,1.487-58.258,9.705-83.93,23.766   C20.064,41.088-3.992,68.761,5.006,95.666c0.557,1.665,1.219,3.261,1.977,4.791C6.458,83.998,12.927,66.3,25.448,52.471   c14.257-15.747,34.837-26.99,64.765-35.384c41.547-11.651,75.993-10.385,102.382,3.762c16.829,9.022,32.574,27.162,29.813,47.35   c-1.072,7.834-4.768,15.582-11.631,24.382c-16.582,21.261-41.121,36.218-70.964,43.252c-27.02,6.369-57.524,5.889-85.896-1.353   c-14.119-3.603-31.021-10.158-42.102-21.961c0.839,2.974,1.963,5.841,3.382,8.564c10.359,19.895,33.207,28.498,45.903,31.855   c10.429,2.757,21.35,4.262,31.911,5.718c8.532,1.176,17.354,2.392,25.929,4.263c7.264,1.585,15.319,4.067,19.993,10.466   c6.166,8.44,3.662,18.869,1.24,28.956c-2.011,8.376-4.09,17.037-1.204,24.465c0.3,0.771-0.083,1.641-0.854,1.941   C137.937,228.817,137.753,228.849,137.572,228.849z M10.482,106.222c10.186,13.998,28.87,21.445,44.177,25.352   c50.606,12.915,117.772,5.296,153.753-40.839c6.524-8.364,10.027-15.655,11.024-22.942c2.566-18.762-12.343-35.768-28.257-44.299   C165.494,9.723,131.797,8.541,91.024,19.976c-29.36,8.233-49.49,19.199-63.352,34.509C14.155,69.413,7.987,88.997,10.482,106.222z"/>
</g>

            </g>
        </g>
    </g>
    
    <!-- ITEM 1 -->
    <g>
        <defs>
            <clipPath id="clip-path-id-viewbox-item-1">
                <rect x="0.0" y="0.0" width="214.0" height="372.0"/>
            </clipPath>
        </defs>
        <g transform="translate(1360.0 686.0) rotate(0.0 -197.0 342.0) scale(-1.841121495327103 1.8387096774193548)">
            <g clip-path="url(#clip-path-id-viewbox-item-1)" transform="translate(-0.0 -0.0)">
                
<g>
	
		<linearGradient id="wheel_3_1_-i1" gradientUnits="userSpaceOnUse" x1="3845.3201" y1="8969.1982" x2="2455.0232" y2="10940.25" gradientTransform="matrix(0.0178 0 0 0.0178 98.2222 188.9022)">
		<stop offset="0.0898" style="stop-color:#EEEEEE"/>
		<stop offset="0.8178" style="stop-color:#D6D7D8"/>
	</linearGradient>
	<circle id="wheel_3-i1" fill="url(#wheel_3_1_-i1)" cx="159.695" cy="358.12" r="13.876"/>
	
		<linearGradient id="chair_seat_1_-i1" gradientUnits="userSpaceOnUse" x1="7166.9385" y1="-1395.4995" x2="1579.5626" y2="-796.85" gradientTransform="matrix(0.0178 0 0 0.0178 98.2222 188.9022)">
		<stop offset="0.14" style="stop-color:#eb4132"/>
		<stop offset="1" style="stop-color:#c8271b"/>
	</linearGradient>
	<rect id="chair_seat-i1" x="31.339" y="158.247" fill="url(#chair_seat_1_-i1)" width="182.661" height="33.757"/>
	
		<linearGradient id="chair_bottom_1_1_-i1" gradientUnits="userSpaceOnUse" x1="1267.5669" y1="1223.2161" x2="1458.7025" y2="-751.934" gradientTransform="matrix(0.0178 0 0 0.0178 98.2222 188.9022)">
		<stop offset="0" style="stop-color:#23286B"/>
		<stop offset="1" style="stop-color:#151A4F"/>
	</linearGradient>
	<path id="chair_bottom_1-i1" fill="url(#chair_bottom_1_1_-i1)" d="M89.379,192.004h66.313l0,0l0,0c0,5.871-4.803,10.541-10.541,10.541   h-45.098C94.049,202.545,89.379,197.875,89.379,192.004L89.379,192.004L89.379,192.004z"/>
	
		<linearGradient id="chair_bottom_2_1_-i1" gradientUnits="userSpaceOnUse" x1="-1774.4059" y1="-171.9043" x2="1984.7495" y2="1946.5952" gradientTransform="matrix(0.0178 0 0 0.0178 98.2222 188.9022)">
		<stop offset="0" style="stop-color:#23286B"/>
		<stop offset="1" style="stop-color:#151A4F"/>
	</linearGradient>
	<rect id="chair_bottom_2-i1" x="114.33" y="202.411" fill="url(#chair_bottom_2_1_-i1)" width="16.278" height="29.754"/>
	
		<linearGradient id="chair_bottom_3_1_-i1" gradientUnits="userSpaceOnUse" x1="1394.5601" y1="4361.2573" x2="1237.8496" y2="9752.2109" gradientTransform="matrix(0.0178 0 0 0.0178 98.2222 188.9022)">
		<stop offset="0" style="stop-color:#23286B"/>
		<stop offset="1" style="stop-color:#151A4F"/>
	</linearGradient>
	<path id="chair_bottom_3-i1" fill="url(#chair_bottom_3_1_-i1)" d="M120.735,228.963h3.603c5.871,0,10.674,4.803,10.674,10.674v86.994   l0,0h-24.951l0,0v-86.994C109.927,233.766,114.731,228.963,120.735,228.963z"/>
	
		<linearGradient id="leg_4_1_-i1" gradientUnits="userSpaceOnUse" x1="3770.3982" y1="8052.0967" x2="1153.2808" y2="7284.2041" gradientTransform="matrix(0.0178 0 0 0.0178 98.2222 188.9022)">
		<stop offset="0" style="stop-color:#23286B"/>
		<stop offset="1" style="stop-color:#151A4F"/>
	</linearGradient>
	<path id="leg_4-i1" fill="url(#leg_4_1_-i1)" d="M122.603,326.631h61.376c7.605,0,13.61,6.138,13.61,13.61v4.403h-4.403v-0.934v-1.868   c0-6.004-4.803-10.808-10.808-10.808l0,0h-59.775L122.603,326.631z"/>
	<path id="leg_3-i1" fill="#23286B" d="M122.603,326.631h25.885c7.605,0,13.61,6.138,13.61,13.61v4.403h-4.403v-0.934v-1.868   c0-6.004-4.803-10.808-10.808-10.808l0,0h-24.284V326.631z"/>
	
		<linearGradient id="leg_1_1_-i1" gradientUnits="userSpaceOnUse" x1="-3130.1257" y1="6079.877" x2="-1030.1648" y2="7976.1084" gradientTransform="matrix(0.0178 0 0 0.0178 98.2222 188.9022)">
		<stop offset="0" style="stop-color:#23286B"/>
		<stop offset="1" style="stop-color:#151A4F"/>
	</linearGradient>
	<path id="leg_1-i1" fill="url(#leg_1_1_-i1)" d="M122.87,326.631H61.493c-7.605,0-13.61,6.138-13.61,13.61v4.403h4.403v-0.934v-1.868   c0-6.004,4.803-10.808,10.808-10.808l0,0h59.775L122.87,326.631z"/>
	<path id="leg_2-i1" fill="#23286B" d="M122.87,326.631H96.985c-7.605,0-13.61,6.138-13.61,13.61v4.403h4.403v-0.934v-1.868   c0-6.004,4.803-10.808,10.808-10.808l0,0h24.284V326.631z"/>
	
		<linearGradient id="wheel_2_1_-i1" gradientUnits="userSpaceOnUse" x1="-234.7086" y1="9132.1367" x2="-2663.3267" y2="11085.5889" gradientTransform="matrix(0.0178 0 0 0.0178 98.2222 188.9022)">
		<stop offset="0.0898" style="stop-color:#EEEEEE"/>
		<stop offset="0.8178" style="stop-color:#D6D7D8"/>
	</linearGradient>
	<circle id="wheel_2-i1" fill="url(#wheel_2_1_-i1)" cx="85.51" cy="358.12" r="13.876"/>
	
		<linearGradient id="wheel_4_1_-i1" gradientUnits="userSpaceOnUse" x1="6100.9658" y1="8845.0889" x2="4235.5049" y2="10833.748" gradientTransform="matrix(0.0178 0 0 0.0178 98.2222 188.9022)">
		<stop offset="0.0898" style="stop-color:#EEEEEE"/>
		<stop offset="0.8178" style="stop-color:#D6D7D8"/>
	</linearGradient>
	<circle id="wheel_4-i1" fill="url(#wheel_4_1_-i1)" cx="195.454" cy="358.12" r="13.876"/>
	
		<linearGradient id="wheel_1_1_-i1" gradientUnits="userSpaceOnUse" x1="-2203.6692" y1="8805.1846" x2="-3681.9573" y2="10881.835" gradientTransform="matrix(0.0178 0 0 0.0178 98.2222 188.9022)">
		<stop offset="0.0898" style="stop-color:#EEEEEE"/>
		<stop offset="0.8178" style="stop-color:#D6D7D8"/>
	</linearGradient>
	<circle id="wheel_1-i1" fill="url(#wheel_1_1_-i1)" cx="50.019" cy="358.12" r="13.876"/>
	
		<linearGradient id="chair_back_1_-i1" gradientUnits="userSpaceOnUse" x1="554.8203" y1="-8350.1348" x2="-5185.3027" y2="3563.3252" gradientTransform="matrix(0.0178 0 0 0.0178 98.2222 188.9022)">
		<stop offset="0.14" style="stop-color:#eb4132"/>
		<stop offset="1" style="stop-color:#c8271b"/>
	</linearGradient>
	<path id="chair_back-i1" fill="url(#chair_back_1_-i1)" d="M154.225,192.004H31.339L0.384,26.822C-1.884,14.546,6.121,2.671,18.53,0.403   c1.334-0.267,2.802-0.4,4.136-0.4h76.72c10.941,0,20.281,7.739,22.282,18.413L154.225,192.004z"/>
</g>

            </g>
        </g>
    </g>
    
    <!-- ITEM 2 -->
    <g>
        <defs>
            <clipPath id="clip-path-id-viewbox-item-2">
                <rect x="0.0" y="0.0" width="222.725" height="228.849"/>
            </clipPath>
        </defs>
        <g transform="translate(1400.0 216.0) rotate(0.0 -233.5 239.5) scale(-2.0967560893478505 2.0930832120743372)">
            <g clip-path="url(#clip-path-id-viewbox-item-2)" transform="translate(-0.0 -0.0)">
                
<ellipse transform="matrix(0.9848 -0.1735 0.1735 0.9848 -11.305 19.9699)" fill="#FFFFFF" cx="108.596" cy="74.661" rx="109.587" ry="68.971"/>
<g>
	<path fill="#a1c3fc" d="M137.572,228.849c-0.601,0-1.168-0.363-1.398-0.957c-3.227-8.302-1.036-17.427,1.083-26.252   c2.366-9.855,4.601-19.166-0.746-26.485c-4.082-5.589-11.496-7.84-18.21-9.304c-8.461-1.847-17.224-3.055-25.699-4.223   c-10.65-1.468-21.663-2.985-32.268-5.789c-22.75-6.016-39.725-17.867-47.798-33.371c-2.438-4.682-4.06-9.767-4.9-15.065   c-2.286-3.25-4.153-6.835-5.474-10.785c-9.544-28.539,15.402-57.58,42.62-72.486C70.848,9.855,100.316,1.51,130,0   c0.82-0.019,1.532,0.594,1.574,1.422c0.042,0.827-0.595,1.532-1.422,1.574c-29.235,1.487-58.258,9.705-83.93,23.766   C20.064,41.088-3.992,68.761,5.006,95.666c0.557,1.665,1.219,3.261,1.977,4.791C6.458,83.998,12.927,66.3,25.448,52.471   c14.257-15.747,34.837-26.99,64.765-35.384c41.547-11.651,75.993-10.385,102.382,3.762c16.829,9.022,32.574,27.162,29.813,47.35   c-1.072,7.834-4.768,15.582-11.631,24.382c-16.582,21.261-41.121,36.218-70.964,43.252c-27.02,6.369-57.524,5.889-85.896-1.353   c-14.119-3.603-31.021-10.158-42.102-21.961c0.839,2.974,1.963,5.841,3.382,8.564c10.359,19.895,33.207,28.498,45.903,31.855   c10.429,2.757,21.35,4.262,31.911,5.718c8.532,1.176,17.354,2.392,25.929,4.263c7.264,1.585,15.319,4.067,19.993,10.466   c6.166,8.44,3.662,18.869,1.24,28.956c-2.011,8.376-4.09,17.037-1.204,24.465c0.3,0.771-0.083,1.641-0.854,1.941   C137.937,228.817,137.753,228.849,137.572,228.849z M10.482,106.222c10.186,13.998,28.87,21.445,44.177,25.352   c50.606,12.915,117.772,5.296,153.753-40.839c6.524-8.364,10.027-15.655,11.024-22.942c2.566-18.762-12.343-35.768-28.257-44.299   C165.494,9.723,131.797,8.541,91.024,19.976c-29.36,8.233-49.49,19.199-63.352,34.509C14.155,69.413,7.987,88.997,10.482,106.222z"/>
</g>

            </g>
        </g>
    </g>
    
    <!-- ITEM 3 -->
    <g>
        <defs>
            <clipPath id="clip-path-id-viewbox-item-3">
                <rect x="0.0" y="0.0" width="241.467" height="155.769"/>
            </clipPath>
        </defs>
        <g transform="translate(996.0 155.0) rotate(0.0 -259.0 168.0) scale(-2.145220671975881 2.1570402326521965)">
            <g clip-path="url(#clip-path-id-viewbox-item-3)" transform="translate(-0.0 -0.0)">
                
<ellipse transform="matrix(0.9998 0.0221 -0.0221 0.9998 1.9016 -2.8639)" fill="#a1c3fc" cx="130.304" cy="84.456" rx="100.86" ry="71.295"/>
<g>
	<path fill="#a1c3fc" d="M140.211,154.851c-2.276,0-4.56-0.055-6.857-0.166c-10.827-0.521-21.822-2.148-33.305-4.97   c-20.012-2.296-38.43-7.076-55.673-14.406c-0.862-0.366-1.264-1.363-0.897-2.226c0.366-0.862,1.362-1.264,2.226-0.897   c9.117,3.876,18.576,7.026,28.436,9.462c-6.813-2.535-13.842-5.452-21.144-8.766c-14.018-6.36-29.112-14.766-34.782-28.877   c-5.857-14.578,0.24-30.617,6.387-41.505C39.34,36.395,65.007,16.032,95.023,6.631c2.179-0.683,4.377-1.306,6.587-1.869   C94.104,5.697,86.656,7.11,79.342,9.003C49.073,16.84,11.009,38.509,3.355,73.786c-0.199,0.916-1.104,1.497-2.018,1.299   c-0.916-0.199-1.497-1.103-1.298-2.018c7.981-36.784,47.25-59.27,78.453-67.349c21.338-5.524,43.79-7.032,65.604-4.583   c10.648,0.831,21.143,2.962,31.148,6.372c1.529,0.463,3.053,0.947,4.565,1.452c30.362,10.142,51.874,28.36,59.019,49.985   c7.955,24.074-2.514,53.857-25.458,72.428C194.742,146.449,168.379,154.85,140.211,154.851z M133.253,151.283   c0.088,0.005,0.176,0.009,0.264,0.014c29.891,1.431,58.224-6.784,77.718-22.563c21.871-17.701,31.893-45.962,24.372-68.725   c-3.626-10.972-11.203-21.047-21.925-29.547c6.62,6.683,11.512,14.177,14.376,22.188c8.05,22.518-0.454,50.171-21.161,68.812   c-21.714,19.547-42.139,28.683-66.228,29.621C138.175,151.181,135.701,151.248,133.253,151.283z M100.645,146.367   c12.618,1.437,25.878,1.874,39.892,1.326c23.24-0.906,43.006-9.773,64.089-28.752c19.696-17.73,27.829-43.911,20.236-65.147   c-5.679-15.885-19.901-29.681-40.048-38.847c-3.455-1.571-6.996-2.975-10.6-4.206c-9.883-2.986-20.109-5.066-30.483-6.232   C127.771,3.27,111.468,5.037,96.038,9.87c-29.203,9.146-54.163,28.937-68.481,54.299c-5.781,10.24-11.548,25.244-6.194,38.571   c5.223,12.999,19.631,20.97,33.036,27.053C71.044,137.345,86.245,142.811,100.645,146.367z"/>
</g>

            </g>
        </g>
    </g>
    
    <!-- ITEM 4 -->
    <g>
        <defs>
            <clipPath id="clip-path-id-viewbox-item-4">
                <rect x="0.0" y="0.0" width="391.12" height="326.61"/>
            </clipPath>
        </defs>
        <g transform="translate(272.0 396.0) rotate(0.0 56.0 47.0) scale(0.2863571282470853 0.2878050274027127)">
            <g clip-path="url(#clip-path-id-viewbox-item-4)" transform="translate(-0.0 -0.0)">
                <title>social_media_twitter</title><g id="Слой_2-i4" data-name="Слой 2"><g id="Слой_107-i4" data-name="Слой 107"><path d="M377.35,6.33c-1.63-.8-1.54-.14-3.5,1-.88.54-1.11,2.54-2.3,3.23-1,.55-2.46.4-3.6,1s-2.28.72-3.41,1.31-1.66,2-2.78,2.53-2.28.79-3.4,1.31-2.11,1.2-3.24,1.69-2.63-.08-3.77.37-2.15,1.08-3.29,1.49-1.93,1.87-3.09,2.23-2.38.58-3.54.89-2.28,1.1-3.45,1.35-2.72-1.33-3.9-1.16-2,.35-3.15.43c-1.67-.63-1.24-.05-3-1.49-.78-.63-2.06-.92-3.16-1.74-.87-.65-2.09-1-3.15-1.7s-1-2.68-2-3.36-2.41-.57-3.48-1.21-1.66-1.81-2.74-2.41-2-1.22-3.13-1.78-2.57-.13-3.67-.65-2-1.22-3.15-1.7-2.33-.53-3.46-1-1.94-1.56-3.09-2-2.6.4-3.76,0-2.13-1.07-3.3-1.37-2.14-1.18-3.32-1.44-2.26-.9-3.44-1.11-2.52.77-3.72.61-2.34-.18-3.54-.28S273.48.12,272.28.07s-2.4.2-3.6.2S266.24,0,265,0s-2.44.13-3.65.24-2.48-.06-3.69.11-2.1,2.16-3.3,2.38-2.42.08-3.61.35-2.33.58-3.51.9-2.28.73-3.44,1.09-2.44.29-3.59.69-2.2,1-3.34,1.44-2.69-.14-3.8.35-1.94,1.63-3,2.15-2.16,1.11-3.23,1.67S225,13,223.9,13.64s-2.85,0-3.88.6-1.58,2.06-2.58,2.74-2,1.37-3,2.09-2.26,1.06-3.21,1.82-2.06,1.36-3,2.15-1.81,1.67-2.7,2.5-1.17,2.3-2,3.16-1.42,2-2.23,2.89-2.5,1.06-3.27,2-1.18,2.19-1.9,3.16-1.66,1.82-2.34,2.83-.45,2.59-1.08,3.63-1.56,1.89-2.13,3-.47,2.45-1,3.55-1.38,2-1.84,3.14-1.43,2-1.82,3.19-.23,2.47-.56,3.64-1.88,2-2.15,3.23.41,2.57.21,3.78.24,2.45.1,3.67-1.75,2.41-1.86,3.6.11,2.61,0,3.8.5,2.63.44,3.82c-.08,1.34-.61,2.58-.64,3.75-.05,1.37.87,2.63.87,3.78,0,1.41-.76,2.67-.7,3.78.07,1.51-.05,2.8.07,3.8.34,2.72,2.85,2.53,1.56,3.91s-1.65.52-4,.38c-1,0-2.21-.4-3.59-.51-1.08-.08-2.23-.87-3.52-1-1.13-.1-2.3-.39-3.56-.53s-2.46.8-3.7.65-2.18-1.52-3.41-1.68-2.54,1-3.76.87-2.24-1.07-3.45-1.27S152.23,96,151,95.77s-2.33-.41-3.52-.64-2.66,1.16-3.85.91-2.32-.6-3.5-.86-2.12-1.42-3.3-1.7-2.43-.14-3.6-.44-2.29-.67-3.45-1-2.34-.54-3.49-.89-2.18-1.06-3.33-1.42-2.63.32-3.77-.07-1.77-2.21-2.9-2.61-2.2-.93-3.32-1.36-2.38-.46-3.5-.92-1.94-1.5-3-2-2.79.36-3.88-.16S101,80.31,100,79.77s-2.38-.58-3.44-1.15-2.62-.25-3.65-.85S91,76.23,90,75.6s-1.8-1.6-2.8-2.24-2.56-.45-3.54-1.12-1.7-1.74-2.68-2.42-1.9-1.44-2.86-2.14-1.39-2.11-2.34-2.82-2.06-1.21-3-1.93-2-1.26-3-2-1.5-1.92-2.42-2.67-2.23-1-3.13-1.8-1.51-1.91-2.41-2.67S60.24,52,59.35,51.2s-1.86-1.49-2.74-2.27-2.54-.76-3.41-1.56-1.6-1.79-2.46-2.59-1-2.38-1.88-3.19-2.55-.81-3.39-1.63-1.18-2.21-2-3-2-1.36-2.84-2.19-1.74-1.67-2.54-2.5-1.47-1.94-2.26-2.78-1.33-2.05-2.11-2.9-2.56-.95-3.31-1.79-1.35-2.09-2.09-2.93S27.7,19.08,27,18.26c-.9-1-2.33-1.37-3-2.13-1.48-1.76-.5-2.26-2.27-2.12s-1.54.1-2.69,2.13c-.51.9-.95,2.1-1.58,3.35-.51,1-.7,2.28-1.25,3.48s-1.19,2.1-1.68,3.29-.94,2.23-1.37,3.42-.38,2.43-.77,3.63.09,2.53-.24,3.74-.48,2.35-.76,3.56S10,42.79,9.81,44s.33,2.5.16,3.73-1,2.31-1.1,3.55S8.71,53.71,8.66,55s-.41,2.43-.4,3.67S8,61.09,8,62.33s.73,2.4.86,3.63S9.83,68.28,10,69.5s.21,2.32.43,3.44-.16,2.43.09,3.54-.13,2.46.16,3.56.66,2.27,1,3.37,2.17,1.79,2.52,2.87.87,2.16,1.25,3.23-.37,2.64,0,3.69,1.52,1.92,2,3,.78,2.23,1.25,3.24,1.67,1.8,2.18,2.79.51,2.41,1.05,3.37,1.13,2.1,1.7,3,1.26,2.07,1.85,2.94c.75,1.11,1.54,2,2.13,2.75a22.4,22.4,0,0,0,2,2.42,25.24,25.24,0,0,1-3.68-.21c-1.09,0-2.43.79-3.79.63C21,117,19.87,116,18.61,115.69a30.46,30.46,0,0,1-3.43-1.3c-1.19-.42-2.94.4-4-.2A10,10,0,0,1,8.82,112c-1.68.65-1.12.59-1.29,2.86-.07,1,.73,2.27.7,3.64,0,1.09-.19,2.29-.16,3.58,0,1.13.84,2.27.93,3.53s-1,2.45-.9,3.68,1.08,2.23,1.28,3.45-.61,2.53-.36,3.73.64,2.32,1,3.5,1.5,2,1.87,3.2.79,2.22,1.21,3.36-.1,2.61.38,3.73,1.21,2.09,1.75,3.17,1.13,2.12,1.73,3.18,1.87,1.64,2.52,2.67.43,2.58,1.13,3.57,2.28,1.27,3,2.22.68,2.54,1.49,3.45,2.64.77,3.5,1.64,1.11,2.23,2,3.05,2.27,1,3.21,1.76.79,2.83,1.76,3.56,2,1.39,3,2.07,2.46.61,3.49,1.25,2.39.59,3.46,1.18,1.53,2.16,2.62,2.71,2.63,0,3.74.51,1,1.64,2.09,2.11c0,1.72.13,1.52-1.84,2.37-.9.39-2.63-.8-3.85-.35-1,.37-1.82,1.47-3,1.84s-2,1.38-3.12,1.68-2.43-.42-3.59-.19-2.28-.06-3.44.09-2.66.69-3.82.76c-.92,1.51,1.67,1.19,2.51,3.29.38.92.85,2,1.41,3.2.45,1-.68,2.84-.1,4s2.47,1.29,3.07,2.38,1.21,1.93,1.85,3-.07,2.77.6,3.79,1.25,2,2,3,1.56,1.77,2.3,2.73,2,1.39,2.79,2.32,2,1.33,2.8,2.23.73,2.49,1.56,3.36,1.15,2.2,2,3,2.65.61,3.54,1.41,1.52,1.82,2.44,2.58,1.6,1.76,2.55,2.48,2.55.47,3.53,1.16,1.46,2,2.47,2.64,2.46.45,3.49,1.05,1.8,1.53,2.85,2.09,1.69,1.85,2.77,2.37,2.5.17,3.59.64,1.83,1.71,2.94,2.15,2.31.54,3.44.93,2.43.07,3.58.42,1.24,1.71,2.4,2c.69,1.68.68,1.17-.82,3-.64.79-2.23,1-3.24,2-.77.77-1.13,2.15-2.15,3-.85.73-1.5,1.92-2.54,2.7s-2.32.85-3.39,1.56-2,1.36-3.06,2-2.11,1.12-3.23,1.71-2.1,1.12-3.24,1.66-2.48.29-3.63.79-1.81,1.86-3,2.32-2.07,1.35-3.25,1.77-2.82-.88-4-.49S56,276,54.77,276.34s-2,1.8-3.2,2.12-2.58-.39-3.79-.1-2.34.54-3.55.8-2.43.11-3.64.35-2.31.7-3.53.91-2.17,1.65-3.4,1.84-2.65-1.5-3.88-1.33-2.37.35-3.59.5-2.36.53-3.58.65-2.35.69-3.58.8-2.43-.19-3.66-.1S13,283.9,11.8,284s-2.44-.44-3.67-.37-2.39.89-3.62.94-2.95-.87-4.19-.84c-1.16,1.37,1.13,1.55,2,3.7a21.31,21.31,0,0,0,1.39,3.23c.53.95.57,2.32,1.34,3.39a34,34,0,0,0,2.12,3c.74.84,2,1.35,2.88,2.23s2.07,1.13,3.05,1.93,1.52,1.82,2.54,2.56,1.57,1.87,2.63,2.54,2.12,1.07,3.21,1.69,2.59.12,3.69.68,2.12,1,3.24,1.48S29.89,312.49,31,313s2.7-.41,3.86,0,1.88,1.73,3,2.13,2.58-.29,3.75.08,2.23.72,3.41,1.05,1.85,2.21,3,2.52,2.52-.26,3.71,0,2.07,1.61,3.26,1.87,2.43,0,3.63.27,2.39.2,3.59.42,2.41,0,3.61.22,2.33.43,3.54.61,2.3.71,3.5.87,2.35.45,3.56.6,2.4-.09,3.61,0,2.43-.38,3.63-.26,2.29,1.08,3.5,1.18,2.4,0,3.61.06,2.4-.29,3.62-.21,2.36.29,3.58.36,2.32,1.21,3.53,1.26,2.38.33,3.59.37,2.41-.6,3.63-.57,2.4-.85,3.62-.83,2.38-.18,3.59-.16,2.38,1.29,3.59,1.3,2.4-.19,3.61-.19,2.4.35,3.6.33,2.41.32,3.61.28,2.32-1.69,3.51-1.76,2.44.66,3.63.57,2.45.47,3.64.35,2.26-1.48,3.44-1.61,2.32-.64,3.51-.79,2.4,0,3.58-.22,2.42,0,3.6-.18,2.44,0,3.62-.18,2.47.11,3.64-.14,2.14-1.46,3.3-1.73,2.47,0,3.63-.25,2.41-.3,3.56-.6,2.15-1.24,3.31-1.57,2.52.07,3.66-.27,1.9-2,3-2.33,2.22-.9,3.35-1.28,2.43-.29,3.55-.69,2.45-.28,3.57-.7,2.31-.68,3.43-1.12,2.12-1.15,3.22-1.61,1.82-1.84,2.92-2.32,2.56-.12,3.65-.62S209,306.51,210,306s2.41-.54,3.48-1.06,2-1.35,3.08-1.9,2.34-.7,3.4-1.26,1.95-1.44,3-2,1.57-2.1,2.61-2.7,2.84.13,3.87-.48,1.73-1.79,2.75-2.41,1.79-1.65,2.81-2.29,2.33-.8,3.33-1.46,1.89-1.49,2.88-2.16,1.67-1.79,2.65-2.48,2.47-.66,3.44-1.37,1.48-2,2.44-2.74,1.52-1.95,2.47-2.68,2.93-.13,3.87-.87,1.19-2.35,2.12-3.1,2.49-.75,3.41-1.52.86-2.69,1.76-3.47,2.31-1,3.2-1.78,1.37-2.06,2.25-2.87,2.48-.85,3.35-1.67.71-2.71,1.57-3.55,2.8-.55,3.65-1.4,1.61-1.78,2.45-2.63,1.89-1.51,2.72-2.38,1.68-1.72,2.49-2.6,1.2-2.15,2-3,1-2.29,1.8-3.19,2.16-1.29,2.94-2.21,1.44-1.91,2.2-2.84,2-1.48,2.73-2.41,1.68-1.74,2.41-2.68,1.24-2.08,2-3,.57-2.56,1.28-3.52,2.19-1.37,2.88-2.34.52-2.57,1.21-3.55,1.8-1.66,2.47-2.65.66-2.43,1.32-3.43,2.58-1.18,3.23-2.19,1.21-2.07,1.84-3.09.73-2.36,1.35-3.39,1.66-1.8,2.25-2.84.15-2.67.74-3.71,1.47-1.92,2-3,1.93-1.68,2.49-2.74-.3-2.84.24-3.91,1.24-2,1.76-3.12,1.64-1.86,2.15-2.95.86-2.23,1.36-3.32,1.69-1.87,2.16-3,0-2.62.43-3.72,1.45-2,1.9-3.09,1.62-1.94,2.05-3.06.59-2.35,1-3.47-.56-2.74-.16-3.87,1-2.18,1.36-3.31.8-2.25,1.16-3.39,1.57-2,1.91-3.16,0-2.49.35-3.64,1.53-2.06,1.84-3.21.74-2.29,1-3.45-.73-2.64-.45-3.81,1.24-2.16,1.5-3.33.33-2.37.57-3.54,1.32-2.18,1.55-3.36-.67-2.55-.46-3.73.87-2.28,1.05-3.46,1-2.27,1.2-3.46,0-2.41.19-3.6.68-2.34.81-3.53.28-2.38.4-3.58-1.15-2.5-1.05-3.69,1.39-2.3,1.47-3.49.47-2.39.52-3.58-.84-2.44-.81-3.63.23-2.39.25-3.59,0-2.36,0-3.56c.89-1.54,1.55,0,3.39-1.3.83-.57,1.25-2.06,2.34-2.85.88-.64,1.3-2,2.32-2.82s2.72-.25,3.69-1,1.82-1.47,2.76-2.24,2-1.3,2.9-2.09.84-2.61,1.73-3.42,2.23-1,3.09-1.88,2.22-1.13,3.05-2,.59-2.72,1.39-3.59,2.65-.83,3.41-1.73,1.22-2.12,1.93-3,1.81-1.68,2.46-2.65.94-2.28,1.52-3.29.18-2.58.67-3.63a28.78,28.78,0,0,0,1.3-3.21c.38-1.15,1.44-2.23,1.64-3.37-1.77-.38-1.82.55-3.62.75s-1.89-.6-3.69-.4-1.64,1.59-3.44,1.79-1.78.4-3.58.6-1.9-.7-3.7-.5-1.78.37-3.57.57-1.78.39-3.58.59-1.86-.27-3.66-.07-1.67,0-3.46-.36,1.53.55,3.08-1.14c.69-.75.48-2.55,1.35-3.62.69-.86,1.65-1.62,2.41-2.68s1.89-1.56,2.57-2.63,0-2.72.64-3.82,1.86-1.67,2.41-2.78.75-2.26,1.23-3.4.61-2.29,1-3.45,1.7-1.94,2-3.12,1.16-2.2,1.44-3.4.51-2.38.72-3.59S377.21,7.55,377.35,6.33Z" style="fill:#a1c3fc;"/></g></g>
            </g>
        </g>
    </g>
    
    <!-- ITEM 5 -->
    <g>
        <defs>
            <clipPath id="clip-path-id-viewbox-item-5">
                <rect x="0.0" y="0.0" width="401.53" height="279.05"/>
            </clipPath>
        </defs>
        <g transform="translate(1107.0 329.0) rotate(7.536885794722136 64.5 45.0) scale(0.3212711378975419 0.3225228453682136)">
            <g clip-path="url(#clip-path-id-viewbox-item-5)" transform="translate(-0.0 -0.0)">
                <title>social_media_youtube</title><g id="Слой_2-i5" data-name="Слой 2"><g id="Слой_52-i5" data-name="Слой 52"><path d="M265.89,126.58c-2.22-.74-4.51-1.34-6.72-2.11s-4-2.83-6.15-3.64-4.75-.7-6.93-1.55-3.69-3.37-5.86-4.24-5-.05-7.2-1-4.3-1.89-6.43-2.84-4.24-2-6.37-3-3.83-2.85-5.94-3.87-4.41-1.63-6.5-2.68-3.94-2.52-6-3.6A11.92,11.92,0,0,0,196,92.3a17.28,17.28,0,0,0-8-1.86c-2.13-1.21-4.07-2.66-6.19-3.91s-4.39-2.21-6.49-3.5-4.4-2.23-6.48-3.55a13.71,13.71,0,0,0-4.24-1.65,25.21,25.21,0,0,0-4.2-7.68c-1.62-2.23-2.44-5.6-5.1-7.44a14.2,14.2,0,0,0-8-2.23c-2.59.06-4.6,2.76-6.89,4.05s-4.68,2.25-6,4.47c-1.06,1.81-2.28,3.5-2.52,5.35s-1.15,3.86-.6,5.73c-1,2.77.34,5.76,1,8.41a16.86,16.86,0,0,0,4.45,7.11c-.1,3.29-.54,6.7-.61,10-.05,2.41-1.57,4.8-1.6,7.21s.39,4.83.37,7.25-.46,4.82-.47,7.23,2.24,4.83,2.24,7.24-.93,4.91-.91,7.36-.87,4.92-.83,7.37,1,4.89,1.05,7.34-.55,4.93-.48,7.38,1.68,4.86,1.76,7.31-1.66,5-1.56,7.42,2.57,4.8,2.68,7.25-1.34,5-1.21,7.42a17.23,17.23,0,0,0,1.48,6.72c1,2,3.46,3,5.16,4.42s3.17,3.79,5.33,4.34,4.35-1.3,6.61-1.88c.06.05.95.38,1,.42,2.08,1.56,3.49,4.33,5.68,4.71,2.36.41,4.65-1.68,6.95-2.44s5.17-.25,7.13-1.82,3.68-3.4,5.61-5,2.94-4.27,4.87-5.86,4.86-1.83,6.77-3.44c2.28-1.32,4.34-2.85,6.64-4.15s4.38-3,6.67-4.31,3.76-3.86,6-5.14,5.58-.51,7.83-1.79c2.32-.86,4.15-2.74,6.44-3.61s5.05-.63,7.33-1.54,4.29-2.56,6.54-3.53,4.35-2.35,6.57-3.41,4-2.86,6.2-4,4.66-1.72,6.76-3,3.38-3.7,5.41-5.12,5-1.41,7-3c2.26-1.84,3.07-4.49,3.68-6.85.64-2.52,1.14-5.28.32-7.81s-1.84-5.36-3.63-7.27S268.33,127.39,265.89,126.58ZM166,163.24a32.06,32.06,0,0,0,4.87,3.26c-1,.52-3.28,1.11-4.3,1.64C166.48,166.83,166,164.55,166,163.24Z" style="fill:#fff;"/><path d="M396.86,138.58c-.23-2.33-.6-4.65-.83-7s.55-4.77.31-7.1-1.88-4.52-2.12-6.86,2-4.92,1.77-7.25-1.48-4.56-1.72-6.89.42-4.76.17-7.1-1.59-4.35-1.84-6.6-.28-4.5-.57-6.74-.21-4.53-.56-6.76-.88-4.44-1.32-6.65-1.08-4.39-1.63-6.57-.56-4.57-1.25-6.71-2.26-4.29-3.18-6.51-1.08-4.81-2.16-7-2.86-3.94-4.12-6-3.4-3.47-4.82-5.38-3.25-3.43-4.83-5.21-3-3.61-4.78-5.22a61.37,61.37,0,0,0-5.51-4.43c-1.92-1.43-3.25-3.69-5.32-4.87a56,56,0,0,0-6.3-3.57,55.6,55.6,0,0,0-7-1.84c-2.29-.6-4.8.1-7.2-.18S327.45,4.87,325,4.91c-2.33-1.61-5.13-3.6-8.25-3.6-2.42,0-4.85,0-7.27,0s-4.84,1.57-7.26,1.57-4.85-1-7.27-1-4.84.76-7.26.76-4.85-1.12-7.27-1.12-4.84,1.85-7.26,1.86-4.85-.75-7.27-.75-4.84-.4-7.26-.39-4.85,1-7.27,1-4.84-2-7.27-2-4.84,2.12-7.26,2.13-4.84-.27-7.26-.27-4.85.56-7.27.57S217.46,1.19,215,1.19,210.2,3.7,207.78,3.7s-4.85-2.37-7.27-2.36-4.84.9-7.26.9S188.41,3.75,186,3.75s-4.85-2.36-7.27-2.36-4.84,1.72-7.27,1.72-4.84.82-7.26.82-4.85-2.66-7.27-2.66c-1.15,0-2.31,1.12-3.43,1.4-2.21-.15-4.5,1.47-6.71,1.32s-4.4-.57-6.61-.71S135.9.77,133.69.62,129.17,1.83,127,1.68,122.62.15,120.41,0s-4.57,2-6.78,1.86a11.55,11.55,0,0,0-7.86,2.41c-2.35-.17-5.16-1.19-7.48-1.32s-4.68-1.63-7-1.64S86.47.86,84.15,1s-4.57,2-6.86,2.41-4.79-.14-7,.58c-2.56.16-4.65,2.84-7.17,3.33s-5.08.29-7.51,1.1a63.94,63.94,0,0,0-7,2.94,65.45,65.45,0,0,0-6.45,4c-2.16,1.35-4.62,2.19-6.63,3.79s-4.37,2.77-6.2,4.59-3.55,3.27-5,5.09-1.34,4.87-2.65,6.84-2.83,3.72-3.95,5.8S14,45,13.06,47.14s-1.64,4.49-2.44,6.73,0,5-.68,7.23-3.16,4.08-3.69,6.39.11,4.88-.31,7.21-.54,4.71-.87,7-2.42,4.49-2.68,6.84-.05,4.8-.25,7.14.58,4.84.42,7.21S.83,107.62.71,110s-.21,4.78-.3,7.16.67,4.81.62,7.19-1,4.76-1,7.15-.06,4.78,0,7.16,2.61,4.73,2.67,7.11.34,4.74.43,7.12-.39,4.78-.26,7.16-1.79,4.88-1.63,7.26.5,4.76.7,7.13,2.24,4.59,2.47,7,.79,4.76,1.06,7.17.78,4.75,1.11,7.15.23,4.83.64,7.21.75,4.76,1.27,7.11,1.75,4.5,2.41,6.82,1.41,4.54,2.24,6.8,1.64,4.44,2.66,6.63,2.26,4.12,3.5,6.2S21,241,22.43,243s1.84,4.81,3.54,6.57,4.37,2.42,6.28,4,4.38,1.83,6.27,3.11,3.67,2.74,5.67,3.87,3.53,3.22,5.63,4.18,4.25,1.9,6.42,2.71,4.46,1.3,6.68,2,4.53.94,6.8,1.45,4.68-.06,7,.33,4.39,1.75,6.7,2,4.63,0,7,.17,4.57.83,6.89.94,4.61,1,6.94,1,4.65.79,7,.78,4.64-1.57,7-1.61,4.87-.46,7.29-.36,4.83.33,7.25.42,4.82.8,7.23.89,4.78,1.81,7.2,1.9,4.93-2.35,7.35-2.26,4.77,2,7.19,2.05,4.89-1.22,7.31-1.13,4.81,1.1,7.23,1.18,4.82.71,7.24.78,4.85-.26,7.27-.19,4.86-.75,7.28-.69,4.69.54,7,.58,4.71-.87,7.06-.85,4.7,2.31,7.05,2.3,4.7-.94,7-1,4.7-.13,7.05-.18,4.7-.45,7-.54,4.66-.92,7-1,4.7,0,7-.18,4.77.72,7.12.53,4.6-1.25,6.94-1.49,4.64-1.15,7-1.43c.29.08.62,1.36.92,1.43a55.45,55.45,0,0,0,7.31.71c2.47.2,4.95,1.31,7.37,1.16s4.58-2.44,7-2.95,5-.11,7.29-1c2.33.48,4.58,1.78,6.94,2.06s4.82,0,7.19.09,4.81.38,7.18.23,4.67-1.27,7-1.64,4.32-2.19,6.63-2.79,4.72-.43,7-1.25,4.63-1.14,6.79-2.16,4.43-1.79,6.48-3,4.41-2,6.28-3.37,2.08-4.83,3.81-6.39,5.29-1.31,6.87-3,3.2-3.58,4.62-5.44,1.9-4.45,3.16-6.43,1.56-4.47,2.65-6.55,3.33-3.59,4.25-5.74.84-4.71,1.6-6.92,2.95-4,3.54-6.29-.43-4.93,0-7.23-.11-4.65.21-6.93,1.91-4.39,2.12-6.68,1.22-4.55,1.34-6.85-1.5-4.67-1.46-7,2.21-4.61,2.17-6.92-1-4.6-1.09-6.9-1.77-4.52-1.91-6.82.51-4.64.33-6.94-.94-4.53-1.15-6.83S397.1,140.87,396.86,138.58Zm-248.3,4.14c0-2.36-.1-4.72-.08-7.08s1.08-4.71,1.11-7.07-1.35-4.74-1.31-7.09,2.57-4.67,2.62-7-.9-4.74-.84-7.1,1-4.69,1.09-7c.08-2.57-1-5.16-.87-7.68s.34-5.13.27-7.65a54.79,54.79,0,0,0-.49-7.18c2.34,1.37,4.26,2.6,6.62,4s4.78,2.55,7.13,3.89c2,1.16,3.73,2.88,5.75,4S174,91.34,176,92.5s3.58,3.12,5.6,4.27,4.38,1.74,6.4,2.89,4.54,1.46,6.56,2.61,4.29,1.9,6.31,3,3.93,2.52,5.95,3.67,4.05,2.18,6.05,3.31,3.43,3.27,5.44,4.39,3.81,2.61,5.82,3.72,4.27,1.77,6.29,2.87,4.59,1.15,6.62,2.22,3.62,3,5.66,4.05,3.61,3,5.66,4.08,4.11,2.09,6.17,3.1,4.81.61,6.89,1.59,3.41,2.48,5.5,3.44c-2,1.26-3.37,2.69-5.4,3.91s-4.62,1.43-6.68,2.61-3.21,3.93-5.29,5.06-4.52,1.57-6.62,2.66-4.39,1.8-6.5,2.86-3.79,3-5.92,4-5.12.21-7.27,1.21-3.41,3.9-5.56,4.87-4.43,1.68-6.6,2.62-4.25,2.47-6.5,3.45-5.47-.34-7.72.63-3.51,4.22-5.77,5.18-5.43-.28-7.68.68-4.16,2.72-6.42,3.66-3.93,3.28-6.19,4.22-5.42-.3-7.68.65-3.86,3.45-6.11,4.39-5.41,2.56-7.67,3.5c-.06-2.25,1.86-5.72,1.81-8s-1-4.48-1.08-6.73-1.84-4.48-1.87-6.73.21-4.51.19-6.76,2.17-4.52,2.16-6.78-1.53-4.49-1.54-6.74,1.23-4.51,1.23-6.76S148.55,145,148.56,142.72Z" style="fill:#a1c3fc;"/></g></g>
            </g>
        </g>
    </g>
    
    <!-- ITEM 6 -->
    <g>
        <defs>
            <clipPath id="clip-path-id-viewbox-item-6">
                <rect x="0.0" y="0.0" width="250.0" height="400.0"/>
            </clipPath>
        </defs>
        <g transform="translate(1215.0 379.0) rotate(0.0 -309.0 494.5) scale(-2.472 2.4725)">
            <g clip-path="url(#clip-path-id-viewbox-item-6)" transform="translate(-0.0 -0.0)">
                
<linearGradient id="L_hand_2_-i6" gradientUnits="userSpaceOnUse" x1="-5316.6431" y1="-2118.8042" x2="-4161.3257" y2="-2118.8042" gradientTransform="matrix(-0.0741 0 0 -0.0741 -161.7387 23.3094)">
	<stop offset="0" style="stop-color:#FFBEB6"/>
	<stop offset="1" style="stop-color:#F2A19C"/>
</linearGradient>
<path id="L_hand_1_-i6" fill="url(#L_hand_2_-i6)" d="M160.6,170.704c0,0,17.391,3.24,26.578-0.057  c9.187-3.297,22.412-11.753,26.918-8.629c4.507,3.124,18.128,12.701,18.128,12.701s-3.813,4.166-12.135-1.041  c-8.32-5.208-9.482-1.816-13.99,1.483c-4.508,3.298-13.376,12.671-21.523,9.894c-8.146-2.778-12.481-1.909-19.761,2.951  c-7.281,4.86-18.2,11.283-18.2,11.283l6.24-24.475L160.6,170.704z"/>
<linearGradient id="R_sleeve_2_-i6" gradientUnits="userSpaceOnUse" x1="-4350.062" y1="4017.3782" x2="-3444.1685" y2="4017.3782" gradientTransform="matrix(-0.0741 0 0 0.0741 -161.7387 -141.1613)">
	<stop offset="0" style="stop-color:#28306D"/>
	<stop offset="1" style="stop-color:#13194C"/>
</linearGradient>
<path id="R_sleeve_1_-i6" fill="url(#R_sleeve_2_-i6)" d="M93.474,130.468c0.327,1.338,0.624,2.734,0.881,4.162  c5.887,32.311,19.969,46.081,38.701,47.694c10.078,0.868,18.655-0.646,25.72-1.38l1.825-10.24  C107.854,166.76,97.966,140.248,93.474,130.468z"/>
<linearGradient id="L_shoe_1_-i6" gradientUnits="userSpaceOnUse" x1="6236.978" y1="7010.6753" x2="5364.6953" y2="7129.6226" gradientTransform="matrix(0.0741 0 0 0.0741 -230.5491 -141.1613)">
	<stop offset="0" style="stop-color:#A1C3FC"/>
	<stop offset="0.6955" style="stop-color:#81AEF2"/>
	<stop offset="0.8442" style="stop-color:#7DACF1"/>
	<stop offset="1" style="stop-color:#78A9EF"/>
</linearGradient>
<path id="L_shoe-i6" fill="url(#L_shoe_1_-i6)" d="M165.797,363.944l-12.906,36.053L244.003,400c0,0-4.672-9.024-20.245-15.707  c-15.573-6.684-30.11-20.347-30.11-20.347L165.797,363.944"/>
<linearGradient id="R_shoe_1_-i6" gradientUnits="userSpaceOnUse" x1="5133.3979" y1="7063.6235" x2="3517.6943" y2="7341.167" gradientTransform="matrix(0.0741 0 0 0.0741 -230.5491 -141.1613)">
	<stop offset="0" style="stop-color:#A1C3FC"/>
	<stop offset="0.6955" style="stop-color:#81AEF2"/>
	<stop offset="1" style="stop-color:#78A9EF"/>
</linearGradient>
<path id="R_shoe-i6" fill="url(#R_shoe_1_-i6)" d="M112.368,363.944l-12.906,36.053L190.576,400c0,0-4.672-9.024-20.245-15.707  c-15.573-6.684-28.225-20.352-28.225-20.352L112.368,363.944"/>
<linearGradient id="L_trousers_1_-i6" gradientUnits="userSpaceOnUse" x1="6780.1279" y1="6681.3901" x2="5089.311" y2="5387.6592" gradientTransform="matrix(0.0741 0 0 0.0741 -230.5491 -141.1613)">
	<stop offset="0.1291" style="stop-color:#428DFC"/>
	<stop offset="0.9987" style="stop-color:#1D72D8"/>
</linearGradient>
<path id="L_trousers-i6" fill="url(#L_trousers_1_-i6)" d="M163.812,200.054c-26.941-2.796-69.599-4.115-69.599-4.115l-63.037,11.021  c0,0-12.995,29.007,38.568,31.691c24.57,1.279,77.148,11.774,89.74,6.462c2.328-0.991,5.017,0.095,6.007,2.426  c0.27,0.637,0.393,1.328,0.359,2.019c-0.264,4.959-0.285,7.531-7.288,26.601c-10.632,28.954-3.598,68.27,7.233,87.785h27.851  c1.414-7.968,18.924-115.211,19.486-132.516C214.016,204.184,182.826,202.027,163.812,200.054z"/>
<path id="R_trousers-i6" fill="#428DFC" d="M15.514,184.947c0,0-20.981,47.759,28.705,61.828c23.676,6.705,74.504,6.254,87.959,3.87  c2.49-0.45,4.871,1.207,5.32,3.7c0.122,0.682,0.09,1.382-0.097,2.048c-1.355,4.777-1.946,7.28-12.998,24.32  c-18.951,29.218-22.175,61.09-12.035,83.229l29.737-0.003c0,0,42.838-101.592,49.469-118.353  c9.429-23.829-11.176-35.041-37.715-40.465S79.421,188.2,79.421,188.2L15.514,184.947"/>
<path id="texture-3-i6" opacity="0.86" fill="#FFFFFF" enable-background="new    " d="M44.127,216.853  c0.099,0.042,0.213-0.003,0.256-0.103c0.043-0.099-0.003-0.214-0.103-0.256c-0.099-0.042-0.213,0.003-0.256,0.103l0,0  C43.982,216.696,44.028,216.81,44.127,216.853L44.127,216.853z M45.961,212.449c0.103,0.04,0.219-0.005,0.269-0.104  c0.036-0.102-0.014-0.216-0.116-0.254c-0.091-0.046-0.201-0.009-0.248,0.082c-0.003,0.007-0.006,0.014-0.009,0.02  C45.817,212.292,45.862,212.406,45.961,212.449L45.961,212.449z M64.099,216.802c0.04,0.103,0.156,0.154,0.259,0.113l0,0  c0.095-0.034,0.144-0.139,0.109-0.234c-0.003-0.008-0.006-0.016-0.01-0.023c-0.036-0.099-0.147-0.151-0.246-0.115  C64.109,216.583,64.059,216.699,64.099,216.802L64.099,216.802z M37.268,209.125c0.074,0.075,0.195,0.077,0.27,0.003  c0.075-0.074,0.077-0.195,0.003-0.27c-0.074-0.075-0.195-0.077-0.27-0.003c-0.075,0.066-0.083,0.181-0.016,0.257  C37.259,209.116,37.264,209.12,37.268,209.125L37.268,209.125z M53.982,216.176c0.007,0.109,0.094,0.195,0.204,0.202  c0.112-0.001,0.202-0.092,0.201-0.205s-0.092-0.203-0.204-0.202C54.076,215.98,53.989,216.067,53.982,216.176L53.982,216.176z   M18.142,218.034c0.132,0.156,0.366,0.175,0.522,0.044c0.003-0.003,0.007-0.006,0.01-0.009c0.154-0.133,0.171-0.364,0.038-0.516  c-0.001-0.001-0.002-0.002-0.002-0.003c-0.132-0.156-0.366-0.175-0.522-0.044c-0.003,0.003-0.007,0.006-0.01,0.009  c-0.154,0.133-0.171,0.363-0.038,0.516C18.141,218.032,18.142,218.033,18.142,218.034z M24.963,212.101  c0.137,0.156,0.375,0.171,0.531,0.034c0.156-0.137,0.172-0.376,0.034-0.532l0,0c-0.132-0.154-0.363-0.171-0.516-0.038  c-0.001,0.001-0.002,0.002-0.003,0.002C24.855,211.703,24.835,211.938,24.963,212.101L24.963,212.101z M45.279,240.715  c-0.01,0.207,0.147,0.383,0.352,0.398c0.198,0.021,0.375-0.121,0.397-0.319c0.001-0.007,0.001-0.014,0.002-0.02  c0.01-0.207-0.147-0.383-0.352-0.397C45.474,240.359,45.296,240.51,45.279,240.715C45.279,240.714,45.279,240.715,45.279,240.715  L45.279,240.715z M45.908,231.692c-0.012,0.208,0.146,0.385,0.352,0.398c0.207,0.012,0.384-0.146,0.397-0.352l0,0  c0.016-0.205-0.134-0.383-0.338-0.4c0,0,0,0-0.001,0C46.11,231.331,45.932,231.485,45.908,231.692L45.908,231.692z M46.549,222.655  c-0.016,0.204,0.137,0.381,0.339,0.397c0.004,0,0.009,0.001,0.014,0.001c0.198,0.021,0.375-0.121,0.397-0.319  c0.001-0.007,0.001-0.014,0.002-0.02c0.007-0.209-0.148-0.387-0.353-0.411C46.74,222.291,46.563,222.448,46.549,222.655  L46.549,222.655z M47.178,213.631c-0.012,0.207,0.146,0.385,0.352,0.397c0.206,0.012,0.384-0.146,0.396-0.352  c0.017-0.205-0.134-0.383-0.338-0.4c0,0,0,0-0.001,0c-0.206-0.02-0.389,0.133-0.41,0.338  C47.179,213.621,47.178,213.626,47.178,213.631L47.178,213.631z M14.017,202.438c0.067,0.196,0.28,0.302,0.476,0.235  s0.301-0.281,0.235-0.477c-0.001-0.002-0.001-0.003-0.002-0.005c-0.069-0.194-0.281-0.298-0.477-0.232  c-0.194,0.066-0.298,0.276-0.234,0.472C14.015,202.433,14.015,202.436,14.017,202.438L14.017,202.438z M28.099,231.862  c0.186,0.086,0.407,0.004,0.492-0.182c0.086-0.186,0.004-0.407-0.182-0.493c-0.182-0.084-0.397-0.008-0.487,0.172  C27.835,231.547,27.914,231.771,28.099,231.862z M32.136,223.76c0.186,0.086,0.407,0.004,0.492-0.182  c0.086-0.186,0.004-0.407-0.182-0.493c-0.182-0.084-0.397-0.008-0.487,0.172C31.872,223.445,31.951,223.668,32.136,223.76  L32.136,223.76z M36.175,215.67c0.19,0.088,0.417,0.006,0.506-0.184c0.086-0.184,0.012-0.403-0.168-0.497  c-0.186-0.098-0.417-0.026-0.514,0.16c-0.098,0.186-0.026,0.417,0.16,0.514C36.164,215.665,36.17,215.668,36.175,215.67z   M62.396,234.369c0.069,0.194,0.281,0.298,0.478,0.232c0.192-0.063,0.296-0.269,0.234-0.46c-0.001-0.002-0.001-0.003-0.002-0.004  c-0.051-0.192-0.248-0.306-0.438-0.254c-0.009,0.003-0.019,0.005-0.027,0.009C62.447,233.962,62.341,234.169,62.396,234.369z   M59.534,225.775c0.073,0.193,0.281,0.299,0.479,0.244c0.194-0.069,0.297-0.282,0.232-0.478c-0.066-0.194-0.276-0.299-0.471-0.233  c-0.003,0.001-0.004,0.002-0.007,0.003c-0.192,0.063-0.296,0.268-0.235,0.46C59.534,225.773,59.534,225.774,59.534,225.775z   M56.675,217.195c0.058,0.189,0.258,0.297,0.448,0.238c0.006-0.002,0.011-0.003,0.017-0.006c0.196-0.059,0.308-0.264,0.25-0.462  c-0.002-0.006-0.003-0.012-0.006-0.018c-0.068-0.195-0.281-0.299-0.478-0.232C56.711,216.784,56.607,217.001,56.675,217.195z   M20.273,227.688c0.156,0.097,0.359,0.051,0.458-0.103c0.099-0.154,0.055-0.359-0.099-0.46c-0.154-0.099-0.36-0.055-0.459,0.099  c-0.001,0.002-0.003,0.003-0.003,0.006C20.075,227.385,20.12,227.589,20.273,227.688L20.273,227.688z M24.551,220.836  c0.156,0.096,0.359,0.05,0.458-0.103c0.103-0.153,0.063-0.359-0.09-0.462c-0.153-0.103-0.359-0.063-0.461,0.09  c-0.003,0.006-0.008,0.011-0.011,0.017c-0.099,0.15-0.059,0.351,0.092,0.451C24.542,220.831,24.546,220.833,24.551,220.836  L24.551,220.836z M28.693,213.787c0.013,0.083,0.063,0.155,0.136,0.197c0.156,0.096,0.359,0.05,0.458-0.103  c0.101-0.158,0.056-0.369-0.103-0.47c-0.001-0.001-0.002-0.001-0.003-0.002c-0.094-0.06-0.211-0.069-0.314-0.024l-0.013,0.002  c-0.059,0.023-0.106,0.069-0.13,0.127C28.666,213.594,28.655,213.696,28.693,213.787L28.693,213.787z M33.106,207.133  c0.16,0.096,0.367,0.045,0.463-0.115c0.095-0.158,0.046-0.364-0.11-0.46c-0.156-0.097-0.36-0.051-0.458,0.103  c-0.101,0.159-0.055,0.369,0.103,0.471C33.103,207.132,33.104,207.133,33.106,207.133L33.106,207.133z M53.619,233.085  c0.049,0.181,0.231,0.293,0.414,0.254c0.174-0.038,0.283-0.211,0.245-0.385c-0.001-0.004-0.003-0.009-0.003-0.014  c-0.037-0.18-0.214-0.295-0.393-0.257c-0.002,0.001-0.004,0.001-0.006,0.002C53.698,232.729,53.587,232.904,53.619,233.085  L53.619,233.085z M51.817,225.222c0.043,0.177,0.221,0.285,0.397,0.243c0.174-0.038,0.283-0.211,0.246-0.385  c-0.001-0.004-0.003-0.009-0.003-0.014c-0.037-0.18-0.214-0.295-0.393-0.257c-0.002,0-0.004,0.001-0.006,0.002  C51.88,224.861,51.774,225.043,51.817,225.222L51.817,225.222z M49.999,217.337c0.037,0.18,0.214,0.295,0.393,0.257  c0.002-0.001,0.004-0.001,0.006-0.002c0.171-0.032,0.281-0.197,0.249-0.368c-0.002-0.01-0.004-0.02-0.008-0.03  c-0.037-0.18-0.214-0.295-0.393-0.257c-0.002,0-0.004,0.001-0.006,0.002C50.067,216.985,49.961,217.16,49.999,217.337  L49.999,217.337z M16.899,208.352c0.104,0.148,0.308,0.183,0.456,0.079c0.004-0.003,0.009-0.006,0.012-0.009  c0.145-0.098,0.182-0.295,0.084-0.44c-0.003-0.006-0.008-0.011-0.012-0.016c-0.103-0.153-0.308-0.192-0.461-0.09  c-0.003,0.003-0.007,0.004-0.009,0.007C16.824,207.995,16.792,208.202,16.899,208.352L16.899,208.352z M23.473,203.656  c0.103,0.148,0.307,0.187,0.457,0.085c0.153-0.107,0.189-0.318,0.083-0.472c-0.111-0.147-0.316-0.182-0.471-0.083  c-0.149,0.109-0.181,0.319-0.071,0.468C23.472,203.655,23.472,203.656,23.473,203.656L23.473,203.656z M36.317,229.398  c-0.024,0.182,0.1,0.351,0.281,0.38c0.18,0.03,0.35-0.089,0.381-0.269c0.027-0.182-0.091-0.355-0.27-0.395  C36.524,229.087,36.35,229.212,36.317,229.398z M37.659,221.426c-0.036,0.173,0.076,0.343,0.249,0.378  c0.007,0.002,0.013,0.003,0.02,0.003c0.18,0.03,0.35-0.089,0.381-0.269c0.027-0.182-0.091-0.355-0.27-0.395  C37.855,221.119,37.687,221.245,37.659,221.426z M38.987,213.455c-0.03,0.18,0.089,0.35,0.269,0.382  c0.18,0.03,0.35-0.089,0.381-0.269l0,0c0.03-0.18-0.089-0.35-0.269-0.382C39.189,213.155,39.017,213.276,38.987,213.455z   M66.526,222.941c0.098,0.145,0.294,0.182,0.439,0.084c0.006-0.003,0.011-0.008,0.016-0.012c0.153-0.103,0.192-0.309,0.09-0.462  c-0.003-0.003-0.004-0.007-0.007-0.009c-0.112-0.145-0.319-0.175-0.468-0.071c-0.148,0.104-0.183,0.309-0.079,0.457  C66.521,222.933,66.524,222.937,66.526,222.941L66.526,222.941z M61.838,216.358c0.109,0.15,0.317,0.187,0.471,0.083  c0.149-0.112,0.179-0.325,0.067-0.474c-0.107-0.143-0.304-0.177-0.454-0.08c-0.152,0.099-0.194,0.304-0.095,0.456  C61.83,216.347,61.833,216.353,61.838,216.358L61.838,216.358z M20.8,207.663c0.082,0.075,0.207,0.069,0.281-0.012  c0.074-0.081,0.069-0.208-0.012-0.282c-0.082-0.075-0.207-0.069-0.281,0.012C20.717,207.463,20.722,207.586,20.8,207.663  L20.8,207.663z M24.044,204.184c0.082,0.075,0.207,0.069,0.281-0.012c0.075-0.082,0.069-0.208-0.012-0.282  c-0.082-0.075-0.207-0.069-0.281,0.012l0,0C23.962,203.985,23.967,204.108,24.044,204.184L24.044,204.184z M39.504,214.56  c0.003,0.108,0.094,0.192,0.201,0.188c0.107-0.003,0.192-0.094,0.188-0.202c-0.003-0.107-0.094-0.192-0.201-0.188l0,0  C39.585,214.362,39.501,214.452,39.504,214.56L39.504,214.56L39.504,214.56z M39.332,209.798c0.01,0.109,0.104,0.192,0.215,0.187  c0.108-0.003,0.192-0.093,0.188-0.202l0,0c0.001-0.103-0.083-0.188-0.187-0.188c-0.005,0-0.01,0-0.014,0.001  c-0.11-0.001-0.2,0.088-0.201,0.198C39.332,209.795,39.332,209.796,39.332,209.798L39.332,209.798z M30.265,210.61  c0.102,0.03,0.21-0.02,0.254-0.116c0.04-0.098-0.008-0.211-0.106-0.25c-0.003-0.002-0.007-0.003-0.01-0.004  c-0.096-0.042-0.206,0.003-0.248,0.098c-0.003,0.006-0.004,0.011-0.007,0.017C30.111,210.457,30.163,210.57,30.265,210.61  L30.265,210.61z M31.943,206.145c0.102,0.03,0.21-0.02,0.254-0.116c0.034-0.102-0.016-0.214-0.116-0.254  c-0.094-0.044-0.206-0.003-0.251,0.091c-0.002,0.004-0.003,0.008-0.005,0.012c-0.043,0.102,0.004,0.22,0.105,0.262  C31.935,206.142,31.939,206.144,31.943,206.145L31.943,206.145z M17.403,212.392c0.099,0.065,0.233,0.036,0.297-0.063  c0.001-0.002,0.003-0.003,0.003-0.006c0.069-0.1,0.043-0.237-0.057-0.305c-0.004-0.003-0.009-0.006-0.014-0.009  c-0.099-0.065-0.233-0.036-0.297,0.063c-0.001,0.002-0.003,0.003-0.003,0.006C17.268,212.183,17.299,212.323,17.403,212.392  L17.403,212.392z M20.321,207.811c0.107,0.066,0.248,0.032,0.313-0.075c0.065-0.105,0.033-0.243-0.069-0.311  c-0.099-0.065-0.233-0.036-0.297,0.063c-0.001,0.002-0.003,0.003-0.003,0.006c-0.073,0.097-0.054,0.234,0.043,0.307  C20.31,207.804,20.315,207.807,20.321,207.811L20.321,207.811z M23.251,203.227c0.095,0.054,0.215,0.037,0.291-0.04  c0.011-0.015,0.024-0.017,0.023-0.03c0.068-0.106,0.036-0.247-0.071-0.315c-0.106-0.068-0.247-0.035-0.314,0.071  C23.113,203.019,23.144,203.159,23.251,203.227z M39.822,216.273c0.019,0.113,0.126,0.191,0.241,0.171  c0.009-0.002,0.017-0.003,0.026-0.006c0.119-0.028,0.192-0.148,0.166-0.266c-0.031-0.118-0.147-0.194-0.268-0.179  c-0.122,0.031-0.195,0.156-0.165,0.277C39.822,216.272,39.822,216.272,39.822,216.273L39.822,216.273z M38.643,210.962  c0.03,0.123,0.156,0.195,0.277,0.165c0.001,0,0.001,0,0.002-0.001c0.119-0.028,0.192-0.148,0.165-0.266  c-0.031-0.118-0.147-0.194-0.268-0.179C38.698,210.716,38.621,210.836,38.643,210.962L38.643,210.962z M15.67,199.262  c0.071,0.098,0.205,0.122,0.304,0.053c0.105-0.066,0.137-0.206,0.071-0.311c-0.002-0.003-0.004-0.006-0.006-0.009  c-0.075-0.101-0.216-0.123-0.318-0.048C15.62,199.02,15.598,199.161,15.67,199.262L15.67,199.262z M28.693,213.787  c0.026,0.018,0.056,0.033,0.086,0.042c0.119,0.022,0.235-0.057,0.257-0.177c0.001-0.003,0.001-0.005,0.001-0.008  c0.019-0.118-0.055-0.231-0.171-0.26l-0.013,0.002c-0.119-0.022-0.235,0.057-0.257,0.177c-0.001,0.003-0.001,0.005-0.001,0.008  C28.578,213.657,28.617,213.744,28.693,213.787L28.693,213.787z M29.554,208.207c-0.024,0.118,0.05,0.234,0.168,0.26  c0.001,0,0.002,0,0.003,0.001c0.122,0.021,0.241-0.054,0.273-0.173c0.016-0.126-0.065-0.242-0.186-0.271  C29.691,208.002,29.575,208.085,29.554,208.207L29.554,208.207z M21.561,227.05c-0.034,0.21,0.108,0.408,0.318,0.443  s0.408-0.108,0.442-0.318c0.034-0.21-0.108-0.408-0.318-0.443C21.795,226.699,21.597,226.841,21.561,227.05L21.561,227.05z   M23.001,217.834c-0.027,0.213,0.119,0.408,0.332,0.44c0.209,0.026,0.401-0.123,0.427-0.333c0.026-0.21-0.122-0.402-0.333-0.427  C23.222,217.488,23.034,217.63,23.001,217.834z M24.454,208.616c-0.034,0.21,0.108,0.408,0.318,0.443  c0.209,0.034,0.408-0.108,0.442-0.318s-0.108-0.408-0.318-0.443C24.687,208.263,24.489,208.406,24.454,208.616L24.454,208.616z   M58.306,227.339c0.132,0.171,0.374,0.209,0.552,0.086c0.17-0.133,0.199-0.377,0.067-0.547c-0.127-0.164-0.361-0.198-0.531-0.078  C58.225,226.926,58.186,227.164,58.306,227.339z M52.823,219.797c0.127,0.169,0.365,0.208,0.539,0.087  c0.173-0.126,0.212-0.367,0.088-0.54c-0.125-0.173-0.366-0.213-0.539-0.088C52.74,219.384,52.701,219.624,52.823,219.797z   M13.142,209.981c0.183,0.113,0.423,0.055,0.536-0.129c0.113-0.183,0.055-0.423-0.128-0.537s-0.423-0.055-0.536,0.129  C12.906,209.628,12.963,209.865,13.142,209.981L13.142,209.981z M17.993,202.009c0.175,0.117,0.414,0.071,0.532-0.105  c0.002-0.003,0.004-0.006,0.006-0.009c0.109-0.184,0.053-0.421-0.128-0.537c-0.181-0.113-0.419-0.059-0.532,0.122  c-0.002,0.003-0.003,0.004-0.004,0.007C17.759,201.665,17.815,201.899,17.993,202.009L17.993,202.009z M38.43,231.499  c0.06,0.204,0.264,0.326,0.471,0.287c0.203-0.057,0.324-0.266,0.272-0.471c-0.044-0.205-0.247-0.334-0.451-0.29  c-0.003,0.001-0.005,0.001-0.008,0.002C38.507,231.077,38.378,231.289,38.43,231.499C38.43,231.498,38.43,231.498,38.43,231.499  L38.43,231.499z M36.243,222.42c0.052,0.21,0.262,0.338,0.471,0.287h0.001c0.202-0.051,0.325-0.254,0.275-0.457c0,0,0,0,0-0.001  c-0.047-0.207-0.251-0.336-0.457-0.29s-0.336,0.251-0.289,0.458C36.243,222.418,36.243,222.419,36.243,222.42L36.243,222.42z   M34.059,213.355c0.044,0.205,0.247,0.334,0.45,0.29c0.003-0.001,0.005-0.001,0.008-0.002c0.21-0.045,0.345-0.251,0.3-0.462  c-0.044-0.211-0.251-0.345-0.461-0.301c-0.21,0.045-0.345,0.251-0.3,0.462C34.057,213.346,34.058,213.35,34.059,213.355z   M32.783,234.498c0.048,0.206,0.252,0.334,0.457,0.288c0.205-0.048,0.334-0.252,0.287-0.458c-0.046-0.201-0.243-0.329-0.444-0.291  C32.874,234.082,32.739,234.288,32.783,234.498L32.783,234.498z M30.983,225.379c0.044,0.21,0.25,0.344,0.459,0.301  c0.203-0.047,0.336-0.242,0.303-0.448c-0.048-0.21-0.249-0.347-0.462-0.315C31.077,224.968,30.945,225.17,30.983,225.379  L30.983,225.379z M29.183,216.261c0.044,0.21,0.25,0.344,0.459,0.301c0.207-0.041,0.343-0.24,0.303-0.448  c-0.04-0.208-0.24-0.343-0.447-0.304l0,0C29.29,215.852,29.151,216.051,29.183,216.261z M27.396,207.14  c0.031,0.203,0.221,0.339,0.423,0.308c0.008-0.001,0.016-0.003,0.024-0.004c0.205-0.042,0.341-0.241,0.302-0.448  c-0.039-0.208-0.239-0.343-0.446-0.305c-0.207,0.039-0.343,0.239-0.304,0.447C27.395,207.138,27.396,207.14,27.396,207.14z   M15.297,220.199c-0.039,0.206,0.096,0.405,0.301,0.445c0.001,0,0.002,0,0.003,0.001c0.207,0.045,0.413-0.086,0.459-0.294  c0.039-0.211-0.097-0.414-0.306-0.458C15.543,219.857,15.342,219.992,15.297,220.199z M17.127,211.078  c-0.044,0.207,0.088,0.411,0.294,0.456c0.207,0.045,0.411-0.088,0.455-0.295c0.001-0.003,0.001-0.005,0.002-0.008  c0.035-0.21-0.098-0.411-0.306-0.458c-0.205-0.04-0.404,0.096-0.444,0.302C17.128,211.075,17.128,211.076,17.127,211.078  L17.127,211.078z M18.946,201.971c-0.035,0.213,0.109,0.413,0.322,0.448c0.202,0.033,0.395-0.097,0.442-0.297  c0.041-0.211-0.095-0.415-0.306-0.458C19.191,201.622,18.988,201.76,18.946,201.971z M48.433,223.002  c0.122,0.175,0.363,0.22,0.54,0.101c0.174-0.117,0.219-0.353,0.103-0.528c-0.108-0.177-0.338-0.233-0.516-0.126  c-0.005,0.003-0.009,0.006-0.014,0.009c-0.181,0.113-0.235,0.352-0.12,0.533C48.428,222.994,48.431,222.998,48.433,223.002  L48.433,223.002z M43.288,215.266c0.122,0.175,0.363,0.22,0.54,0.101c0.174-0.117,0.219-0.353,0.103-0.528  c-0.108-0.177-0.338-0.233-0.516-0.126c-0.005,0.003-0.009,0.006-0.014,0.009c-0.18,0.113-0.235,0.352-0.12,0.533  C43.282,215.259,43.285,215.262,43.288,215.266L43.288,215.266z M32.982,218.452c0.065,0.148,0.235,0.215,0.382,0.151  c0.144-0.063,0.211-0.228,0.154-0.374c-0.054-0.143-0.215-0.216-0.358-0.161c-0.009,0.003-0.018,0.008-0.027,0.012  C32.99,218.143,32.924,218.307,32.982,218.452L32.982,218.452z M30.23,212.02c0.065,0.148,0.237,0.216,0.384,0.15  c0.148-0.065,0.215-0.237,0.15-0.385c0,0,0-0.001-0.001-0.001c-0.062-0.147-0.23-0.216-0.376-0.154  c-0.003,0.002-0.006,0.003-0.009,0.004C30.234,211.701,30.168,211.872,30.23,212.02L30.23,212.02z M27.476,205.575  c0.065,0.148,0.237,0.215,0.385,0.149c0.148-0.065,0.214-0.237,0.149-0.386c-0.065-0.148-0.237-0.215-0.385-0.149l0,0  C27.481,205.257,27.414,205.427,27.476,205.575L27.476,205.575z M18.144,217.75c0.006,0.16,0.137,0.285,0.295,0.284  c0.157-0.011,0.279-0.139,0.283-0.296c-0.003-0.16-0.133-0.287-0.293-0.284c-0.001,0-0.002,0-0.003,0  c-0.154-0.003-0.281,0.121-0.283,0.275C18.143,217.737,18.143,217.743,18.144,217.75L18.144,217.75z M18.051,210.734  c0.007,0.161,0.137,0.291,0.298,0.297c0.16-0.003,0.286-0.134,0.283-0.294c0-0.001,0-0.002,0-0.003  c0.003-0.154-0.118-0.282-0.272-0.286c-0.003,0-0.007,0-0.01,0c-0.16-0.005-0.293,0.119-0.298,0.28  C18.051,210.73,18.051,210.732,18.051,210.734L18.051,210.734z M17.974,203.729c-0.003,0.154,0.12,0.282,0.275,0.284  c0.007,0,0.014,0,0.02-0.001c0.153,0.005,0.28-0.115,0.285-0.268c0-0.005,0-0.01,0-0.014c-0.007-0.161-0.137-0.291-0.298-0.297  c-0.16,0.003-0.286,0.134-0.283,0.294C17.974,203.727,17.974,203.728,17.974,203.729L17.974,203.729z M16.386,202.3  c0.013,0.088,0.093,0.148,0.181,0.137c0.088-0.012,0.15-0.093,0.137-0.181c-0.012-0.088-0.093-0.15-0.181-0.137  c-0.004,0.001-0.009,0.002-0.014,0.003C16.428,202.139,16.375,202.216,16.386,202.3L16.386,202.3z M20.857,208.479  c0.08,0.119,0.242,0.152,0.36,0.072l0,0c0.113-0.066,0.154-0.212,0.088-0.326c-0.004-0.008-0.009-0.014-0.014-0.021  c-0.065-0.118-0.213-0.162-0.332-0.098c-0.006,0.003-0.012,0.007-0.018,0.011c-0.121,0.071-0.165,0.226-0.094,0.348  C20.851,208.469,20.855,208.474,20.857,208.479z M17.496,203.105c0.065,0.118,0.213,0.162,0.332,0.098  c0.006-0.003,0.012-0.007,0.018-0.011c0.121-0.071,0.165-0.226,0.094-0.348c-0.003-0.005-0.006-0.01-0.009-0.015  c-0.077-0.123-0.239-0.16-0.363-0.085c-0.118,0.075-0.154,0.231-0.08,0.349C17.492,203.098,17.494,203.101,17.496,203.105  L17.496,203.105z M14.124,197.746c0.079,0.121,0.239,0.158,0.363,0.085c0.122-0.073,0.163-0.232,0.09-0.355  c-0.002-0.003-0.003-0.006-0.005-0.009c-0.077-0.123-0.239-0.16-0.363-0.085C14.087,197.462,14.051,197.621,14.124,197.746  L14.124,197.746z"/>
<path id="L_hand-i6" fill="#FFBEB6" d="M136.959,179.104c0,0,55.838-1.692,65.025-4.99c9.187-3.298,23.401-10.763,27.908-7.638  C234.4,169.599,250,183.139,250,183.139s-3.813,4.166-12.134-1.042c-8.32-5.208-8.493-6.771-13.001-3.471  c-4.508,3.298-17.334,12.671-25.48,9.895c-8.146-2.777-12.481-1.909-19.761,2.951c-7.281,4.86-45.19,23.737-45.19,23.737  L136.959,179.104"/>
<linearGradient id="sweater_1_-i6" gradientUnits="userSpaceOnUse" x1="3939.8174" y1="3494.9009" x2="4164.9072" y2="4876.9497" gradientTransform="matrix(0.0741 0 0 0.0741 -230.5491 -141.1613)">
	<stop offset="0" style="stop-color:#23286B"/>
	<stop offset="1" style="stop-color:#151A4F"/>
</linearGradient>
<path id="sweater-i6" fill="url(#sweater_1_-i6)" d="M130.66,100.635l-17.437-17.461l0,0c-11.594,1.486-22.834,5.011-33.203,10.411  c-5.705,2.995-11.181,6.414-16.377,10.228c-23.843,17.498-23.903,27.777-37.309,38.374c-0.026,0.024-0.056,0.048-0.086,0.069  c-13.382,10.571-30.974,23.088-25.076,47.496c5.95,3.515,11.632,6.638,17.045,9.371c17.773,9.028,32.755,14.206,45.194,16.915  c0,0,0.009,0.009,0.009,0c7.468,1.706,15.105,2.566,22.764,2.563c6.05,0.033,12.073-0.821,17.876-2.538  c2.263-0.678,4.461-1.562,6.564-2.638c5.979-0.847,11.874-2.211,17.62-4.074C97.593,163.977,130.66,100.635,130.66,100.635z"/>
<path id="R_sleeve-i6" fill="#23286B" d="M130.66,100.635c0,0-37.187,23.418-28.691,56.032c2.486,9.544,8.642,14.294,19.891,17.844  c13.477,4.253,16.99,4.149,16.99,4.149l-3.729,61.001c0,0-28.258,0.545-40.609-13.175c-13.891-15.429-25.115-17.337-33.567-23.343  c-12.846-9.129-16.161-24.483-15.332-42.328c1.559-33.581,26.106-66.396,67.612-77.643l0,0"/>
<linearGradient id="neck_1_-i6" gradientUnits="userSpaceOnUse" x1="4618.4375" y1="3334.8464" x2="4837.2231" y2="3035.4563" gradientTransform="matrix(0.0741 0 0 0.0741 -230.5491 -141.1613)">
	<stop offset="0" style="stop-color:#FFBEB6"/>
	<stop offset="1" style="stop-color:#F2A19C"/>
</linearGradient>
<path id="neck-i6" fill="url(#neck_1_-i6)" d="M146.2,75.726c0,0-7.47,8.543-15.54,24.909c0,0-14.323,3.326-17.437-17.461  c0,0,15.058-6.845,15.552-14.166L146.2,75.726z"/>
<path id="face-i6" fill="#FFBEB6" d="M166.405,54.644c0.002,0.137-0.001,0.239,0.003,0.299c0.006,0.02,0.008,0.042,0.003,0.061  c0.006,0.549-0.009,1.107-0.039,1.685c-0.328,6.215,3.236,11.712,2.929,13.383c-0.307,1.671-3.775,2.205-5.363,2.071  s-4.884,7.307-12.05,10.658c-6.725,3.145-15.569,0.995-20.883-3.345c0.028-13.427,2.066-22.534,15.685-26.099  c14.865-3.898,16.869-9.694,16.869-9.694C165.317,47.064,166.29,50.817,166.405,54.644z"/>
<linearGradient id="hair_1_-i6" gradientUnits="userSpaceOnUse" x1="4683.8062" y1="1870.7925" x2="4905.5459" y2="2340.7488" gradientTransform="matrix(0.0741 0 0 0.0741 -230.5491 -141.1613)">
	<stop offset="0" style="stop-color:#E94A47"/>
	<stop offset="0.9918" style="stop-color:#D62929"/>
</linearGradient>
<ellipse id="hair-i6" fill="url(#hair_1_-i6)" cx="123.942" cy="13.192" rx="13.173" ry="13.192"/>
<path id="eyeglasses-i6" fill="#23286B" d="M175.49,61.393c1.256-3.435,0.433-7.216-1.832-8.434l-0.001-0.001  c-2.267-1.214-5.136,0.593-6.393,4.027c-0.144,0.397-0.262,0.802-0.353,1.215c-1.498-0.446-3.013,0.338-4.321,1.277  c-0.029-0.207-0.038-0.419-0.08-0.621c-0.237-1.646-1.19-3.101-2.604-3.974c-2.624-1.405-5.943,0.694-7.401,4.676  c-0.695,1.851-0.864,3.858-0.49,5.799c0.222,1.309,0.862,2.51,1.821,3.427c0.239,0.212,0.502,0.395,0.783,0.546  c1.346,0.687,2.964,0.555,4.182-0.338c1.51-1.063,2.638-2.584,3.219-4.338c0.478-1.312,0.705-2.704,0.669-4.1  c1.167-0.885,2.66-1.835,4.06-1.383c-0.281,2.362,0.343,4.601,1.681,5.78c0.204,0.181,0.428,0.338,0.667,0.468  C171.365,66.635,174.233,64.827,175.49,61.393z M158.42,68.116c-1.006,0.747-2.347,0.866-3.468,0.306  c-1.169-0.731-1.956-1.944-2.144-3.312c-0.329-1.725-0.175-3.506,0.444-5.148c1.274-3.483,4.109-5.351,6.319-4.166  c0.226,0.122,0.438,0.269,0.63,0.439c0.8,0.77,1.331,1.777,1.514,2.872c0.329,1.725,0.175,3.506-0.444,5.148  C160.758,65.816,159.758,67.17,158.42,68.116z M169.43,64.51c-1.86-0.998-2.492-4.189-1.42-7.122  c1.074-2.934,3.456-4.511,5.311-3.518c1.862,0.996,2.492,4.191,1.42,7.122C173.669,63.925,171.286,65.504,169.43,64.51z"/>
<path id="hair-2-i6" fill="#E94A47" d="M139.52,23.365c-8.059-1.645-14.352-0.248-18.999,2.506c-5.533-0.344-10.06-4.544-10.824-10.044  c-0.09-0.543-0.915-0.313-0.825,0.228c0.794,5.448,5.055,9.734,10.493,10.554c-3.052,2.079-5.526,4.9-7.191,8.198  c-0.357,0.506-0.71,1.02-1.057,1.546c-3.166,4.784-6.259,8.406-11.471,11.063c-6.907,3.522-15.935,6.765-15.979,15.958  c0.009,0.237,0.206,0.421,0.443,0.414c0.226-0.008,0.406-0.188,0.414-0.414c0.054-11.231,13.576-12.751,20.585-18.296  c1.824-1.522,3.417-3.302,4.727-5.285c-2.052,4.071-5.22,8.895-10.642,10.791c-10.198,3.567-11.963,15.683-11.963,15.683  c17.746,16.883,49.62,17.709,49.62,17.709c6.71-14.544-1.344-21.541,10.93-27.292c13.922-6.524,15.78-13.03,15.78-13.03  c1.806,3.515,2.782,7.397,2.854,11.35C172.373,35.04,154.585,26.438,139.52,23.365z"/>

            </g>
        </g>
    </g>
    
    <!-- ITEM 7 -->
    <g>
        <defs>
            <clipPath id="clip-path-id-viewbox-item-7">
                <rect x="-343.543" y="748.354" width="103.828" height="48.248"/>
            </clipPath>
        </defs>
        <g transform="translate(388.0 682.0) rotate(0.0 244.0 112.5) scale(4.700080903031937 4.663405737025369)">
            <g clip-path="url(#clip-path-id-viewbox-item-7)" transform="translate(343.543 -748.354)">
                
<rect x="-286.495" y="789.769" fill="#89B3F4" width="46.78" height="6.833"/>
<polygon fill="#A1C3FC" points="-343.543,748.354 -285.409,748.354 -272.006,796.602 -330.14,796.602 "/>
<circle fill="#89B3F4" cx="-309.512" cy="773.308" r="4.993"/>

            </g>
        </g>
    </g>
    
    <!-- ITEM 8 -->
    <g>
        <defs>
            <clipPath id="clip-path-id-viewbox-item-8">
                <rect x="0.0" y="0.0" width="303.069" height="220.055"/>
            </clipPath>
        </defs>
        <g transform="translate(667.0 282.0) rotate(9.331882826467853 50.5 36.5) scale(0.33325744302452576 0.33173524800618026)">
            <g clip-path="url(#clip-path-id-viewbox-item-8)" transform="translate(-0.0 -0.0)">
                <title>+1</title><g id="Слой_2-i8" data-name="Слой 2"><g id="Слой_1-2-i8" data-name="Слой 1"><path d="M142.2,142.192v-.17c-.11-.63-.77-.94-1.42-1.18s-1.27-.45-1.31-.81c-.09-.83,1.79-2,1.42-3.12-.62-1.88-.65-4-1.89-5.61a6.267,6.267,0,0,1-1.48-4.35,7.575,7.575,0,0,0-.83-3.39,9.011,9.011,0,0,0-2.77-3.26,45.849,45.849,0,0,0-6.61-4,9.581,9.581,0,0,0-3.77-1,6.673,6.673,0,0,0-3.08.51,7.446,7.446,0,0,1-5.17.21,7.311,7.311,0,0,0-5.24.57,5.923,5.923,0,0,0-2,.61,8.753,8.753,0,0,1-1.07.49,12.715,12.715,0,0,1-2.66,0,5.817,5.817,0,0,0-1.18,0c-1.43-.31-2.86.4-4.3.49s-2.74.9-3.22,3.73c-1.83-3-3.66-3.9-4.59-1.86-.39.86-.73,1.34-1.1,1.49a5.541,5.541,0,0,0-.3-.53,6.091,6.091,0,0,1-.74-4.76,7.573,7.573,0,0,0-.77-5.19,6.368,6.368,0,0,1-.75-4.91c.37-1.71-.43-3.38-.66-5.08-.14-1-.8-1.8-2.4-2.15-1.07-.24-1-.43-.16-1,2.64-1.91,2.39-3.59-.75-4.61-1-.34-.89-.52-.07-1a2.829,2.829,0,0,0,1.65-2.64c0-.65-.89-1.21-1.71-1.65s-1.59-.74-1.39-1.13a9.226,9.226,0,0,0,.92-2.48,3.682,3.682,0,0,0-.9-3.06,12.77,12.77,0,0,0-3.94-3.13,7.279,7.279,0,0,0-4.13-.8c-2.53.4-4.22,1-6.25.25h-.17c-.64.09-1,.74-1.23,1.37s-.49,1.25-.86,1.28c-.83.06-1.93-1.86-3.07-1.53-1.9.55-4,.5-5.68,1.69a6.266,6.266,0,0,1-4.4,1.32,7.6,7.6,0,0,0-3.42.71,9.014,9.014,0,0,0-3.36,2.65,45.713,45.713,0,0,0-4.2,6.47,9.568,9.568,0,0,0-1.18,3.73,6.68,6.68,0,0,0,.4,3.09,7.457,7.457,0,0,1,0,5.18,7.309,7.309,0,0,0,.38,5.25,5.911,5.911,0,0,0,.53,2,8.955,8.955,0,0,1,.51,1.12,12.721,12.721,0,0,1-.09,2.66,5.676,5.676,0,0,0,0,1.18c-.37,1.42.3,2.87.33,4.31s.8,2.77,3.61,3.35c-2.83,1.61-3.88,3.28-2.39,4.31a6.3,6.3,0,0,0-1,2.87c-.74-1.18-1.58-2.64-2.44-2.49-2.73.45-5.79-.41-7.92,2.57-.26.36-.46.21-.77,0-2.36-1.43-3.11-1-4.19,2.27-.95-1.13-1.91-2.23-3-2l-5.61,1.18a2.182,2.182,0,0,0-1.49,1.69c-.24.79-.42,1-1.09.38-2.06-1.93-3.43-1.43-4.18,1.5-.27,1-.45,1-1,.15a2.831,2.831,0,0,0-3.41-1.19,3.691,3.691,0,0,0-2.07,2.63c-.35,1.12-.29,2.07-.72,2.15a6.281,6.281,0,0,0-3,1.57,4.453,4.453,0,0,0-1.4,3.06v3.64a4.634,4.634,0,0,0,.74,2.47,4.852,4.852,0,0,1,.61,4.56c-.37,1.27,3,1.5,2.38,2.39-.79,1.1-1.79,2.09-1.56,3.23.33,1.63.59,3.27.83,4.92a1.669,1.669,0,0,0,1.1,1.45c.94.38.62.77.33,1.42a7.727,7.727,0,0,0-.61,2.23,7.206,7.206,0,0,0,.18,2.5,9.871,9.871,0,0,0,1.47,3.31,8.626,8.626,0,0,0,3.46,3,2.306,2.306,0,0,0,2.07-.32c.88-.56,1-.5,1.48.45a4,4,0,0,0,3.14,2.49c1.07,0,2-.68,2.8-2,.3-.54.4-.8,1-.3,2.43,2.28,3.37,1.91,4.67-1.55.93,1.17,1.85,2.08,3,1.9s1.44-2.08,2.19-2.5,1.9,1.63,3.07,1.56,1.46-3.13,2.47-2.36c1.24.94,2.29,1.44,3.44,1.19a33.8,33.8,0,0,1,3.64-.68c1.56-.16,2.77-1,3-3.92,1.84,2.64,3.19,3.38,4.25,2.26a4.886,4.886,0,0,0,3.35,1.72c-1.21.7-2.69,1.48-2.58,2.35.35,2.74-.62,5.77,2.29,8,.35.27.19.47,0,.77-1.51,2.31-1.12,3.07,2.12,4.27-1.17.91-2.3,1.83-2.1,2.92l1,5.65a2.179,2.179,0,0,0,1.64,1.55c.78.27,1,.45.34,1.1-2,2-1.56,3.37,1.35,4.23,1,.3.95.48.11,1a2.83,2.83,0,0,0-1.31,3.36,3.686,3.686,0,0,0,2.55,2.16c1.11.39,2.06.36,2.13.8a6.267,6.267,0,0,0,1.46,3.06,4.448,4.448,0,0,0,3,1.51c1.42.08,2.61.14,3.64.1a4.634,4.634,0,0,0,2.5-.65,4.852,4.852,0,0,1,4.58-.45c1.26.42,1.61-3,2.48-2.3,1.07.83,2,1.87,3.17,1.68,1.64-.27,3.29-.47,4.95-.66a1.668,1.668,0,0,0,1.49-1c.41-.93.79-.59,1.43-.28a7.671,7.671,0,0,0,2.09.62,7.178,7.178,0,0,0,2.51-.09,9.874,9.874,0,0,0,3.36-1.35,8.628,8.628,0,0,0,3.1-3.35,2.31,2.31,0,0,0-.25-2.08c-.52-.9-.46-1,.5-1.46a4,4,0,0,0,2.6-3.05c.07-1.07-.6-2.06-1.94-2.87-.52-.32-.79-.43-.26-1,2.37-2.35,2-3.29-1.38-4.72,1.2-.89,2.15-1.77,2-2.88s-2-1.51-2.42-2.28,1.7-1.83,1.67-3-3.08-1.57-2.27-2.56c1-1.2,1.52-2.24,1.31-3.39a33.384,33.384,0,0,1-.55-3.67c-.11-1.57-.91-2.81-3.81-3.17,4.07-2.62,3.82-4.29-.64-5.69,2.13-1.48,3-2.56,2.55-3.53a6.516,6.516,0,0,0,2.74-1.09,6.094,6.094,0,0,1,4.73-.91,7.563,7.563,0,0,0,5.15-1,6.371,6.371,0,0,1,4.88-.92c1.73.31,3.36-.55,5-.84,1-.17,1.77-.86,2.06-2.48.2-1.08.4-1,1-.2,2,2.57,3.67,2.25,4.58-.92.3-1.05.49-.91,1-.1a2.829,2.829,0,0,0,2.78,1.6c.65,0,1.18-.94,1.58-1.77s.68-1.61,1.08-1.43a9.231,9.231,0,0,0,2.52.83,3.676,3.676,0,0,0,3-1,12.726,12.726,0,0,0,3-4.06,7.258,7.258,0,0,0,.65-4.15C142.18,145.912,141.57,144.242,142.2,142.192Z" fill="#ffffff"/><path d="M302.83,182c-.25-1.63-.57-3.19-.94-4.77a3.736,3.736,0,0,0-1.45-1.82c-.92-.69-.93-1-.22-2.07,2.5-3.66,2.3-6.51-.58-10.05-.57-.69-.84-1-.37-2a14.786,14.786,0,0,0,1.09-3.12,6.143,6.143,0,0,0,0-2.79,8.191,8.191,0,0,0-1.6-3.19,8.585,8.585,0,0,0-4.11-2.9,11.878,11.878,0,0,0-.81-1.77,7.663,7.663,0,0,0-1.35-1.58,8.005,8.005,0,0,0-4.43-1.9,6.634,6.634,0,0,0-4.23.96,19.783,19.783,0,0,1-2.83,1.57c-1.77.61-4.1-1.06-6.66-.49a5.917,5.917,0,0,0-3,2.08c-.77.83-1.49,1.52-2.43,1.23-1.14-.35-2.16-.64-3.08-.87a17.43,17.43,0,0,0-2.58-.41,5.444,5.444,0,0,1-4-1.72c-1.34-1.46-2.87-3.24-6.09-3.69,1.3-2.69,1.89-4.6,1.48-6.42s-1.8-3.47-4.23-5.34c1.7-2.5,2.49-4.42,2.24-6.36s-1.54-3.9-4-6.27a8.186,8.186,0,0,0,1.6-2.2,4.351,4.351,0,0,0,.39-2.68c-1.18-5.88-1-12.19-4.5-17.38a1.4,1.4,0,0,1-.34-1.38c1.5-4.34,0-7.53-3.41-9.93a7.06,7.06,0,0,0,1.49-5.8c-.84-4.11-1.1-8.51-2.63-12.27a28.006,28.006,0,0,1-2-10.14,36.322,36.322,0,0,0-2.38-11.64,27.044,27.044,0,0,1-2-10.34,32.062,32.062,0,0,0-2.25-11.63,25.074,25.074,0,0,1-1.5-5.2c-.35-1.82-.56-3.73-1-5.94a15.848,15.848,0,0,0-3.43-7.15,13.4,13.4,0,0,0-3.56-2.93,12.379,12.379,0,0,0-4.19-1.44A36.647,36.647,0,0,0,211.83.1c-1,0-2,.09-3,.11s-1.88,0-2.86,0c-3.74-.18-7.59.9-11.37,1.43-2.24.32-4.1,1.15-5.16,2.87-.71,1.15-1.11,1.07-2.22.37-3.72-2.34-7.45-1.71-10.19,1.74-.91,1.14-1.29,1-2.24.29a7.194,7.194,0,0,0-5.46-1.15c-2.93.33-4.57,3.89-5.92,3.54a13.035,13.035,0,0,0-4.32-.59,7.314,7.314,0,0,0-2.84.83A8.014,8.014,0,0,0,153.41,12a21.456,21.456,0,0,0-1.89,3.57l-1.13,2.61a27.454,27.454,0,0,0-1.73,5.16c-.73,3.6-1.67,6.83-3.91,9.69a1.334,1.334,0,0,0-.12.29c-.92,2.16.73,4.36.06,5.77-.77,1.61-3.24,2.13-4.1,4.46-1.45,3.94-3.59,7.75-4.42,11.75a26.1,26.1,0,0,1-3.58,9,30.875,30.875,0,0,0-1.52,2.74,14.488,14.488,0,0,0-1.35,4.34,10.928,10.928,0,0,0,0,3.23,9.846,9.846,0,0,0,.46,1.74c.19.47.39.94.62,1.38a11.99,11.99,0,0,0,3.22,3.78A41.349,41.349,0,0,0,139.47,85l5,2.84A23.6,23.6,0,0,0,157.83,91l6.4-.53a25.991,25.991,0,0,0,3.56-.6c.32-.08.68-.2,1-.31a7.4,7.4,0,0,0,1.47-.68c.41-.25.72-.45,1.06-.68l.81-.58a25.82,25.82,0,0,0,4.62-4.48,25.117,25.117,0,0,0,3.16-4.94,37.11,37.11,0,0,1,6-8.79v.06a24.237,24.237,0,0,1,2.09,10c0,3.19,1.21,6.5,1.69,9.79s1.58,6,4.6,7.42c-2.62,3.58-3.24,7.34-1,9.66s2.37,3.51.94,6.25a4.318,4.318,0,0,0-.48,2.23,6,6,0,0,0,.61,2.35,14.372,14.372,0,0,0,4,4.66,7.392,7.392,0,0,0-1.61,6.39c.89,3.94,1.17,8,2.35,11.59a16.925,16.925,0,0,1,.67,8.92c-.37,1.73-.72,3.42-1.07,4.83a32.627,32.627,0,0,1-1,3.27,2.476,2.476,0,0,1-1.61,1.48l-.67.14a4.5,4.5,0,0,1-.77,0,7.478,7.478,0,0,1-.92-.1c-.37-.06-.75-.13-1.15-.23-2.9-.67-6.63-.31-10.69,0a11.8,11.8,0,0,0-5.89,2,6.08,6.08,0,0,0-2.7,4.55,8.221,8.221,0,0,0-7.66,3.7,7.92,7.92,0,0,0,.12,8,7.68,7.68,0,0,0-3.09,3.19,8.167,8.167,0,0,0-.86,4.16,7.428,7.428,0,0,0,3.95,6.26c-1,1.4-2.27,3.12-1.7,5.14.9,3.18,1.7,6.33,2.77,9.23s2.68,6.25,6,8.53a3.671,3.671,0,0,1,1.33,1.75,8.827,8.827,0,0,0,6.41,5,7.448,7.448,0,0,0,6.38-2.4c1.94,1,3.68,1.94,6.09,1.47l12.37-2.36a6.186,6.186,0,0,0,3.66-2.07,1.7,1.7,0,0,1,2.3-.7q.076.042.15.09c3.92,1.61,7,.83,9.41-2.39.86-1.14,1.24-1.1,2.22-.35a7.1,7.1,0,0,0,5.49,1c2.92-.4,4.78-4.06,5.79-3.71,2.5.86,4.61,1.83,7.54,1.18,3.58-.79,7.52-.85,10.74-2.25a22.538,22.538,0,0,1,10-1.79c2.71.06,3.74-3.51,5.57-3.07,2.27.54,4.26,1.32,6.77.8,3.6-.75,7.21-1.44,10.82-2.11a6.309,6.309,0,0,0,3.6-1.66c1.05-1.19,2-1,3.66-1.33a11.748,11.748,0,0,0,8.51-6.33,13.292,13.292,0,0,0,1.19-3.65A18.928,18.928,0,0,0,302.83,182Z" fill="#ffffff"/></g></g>
            </g>
        </g>
    </g>
    
</svg>