<svg xmlns="http://www.w3.org/2000/svg" version="1.1" viewBox="0 0 3000 2250" width="3000" height="2250">
<defs/><!--ITEM: Illustration component 1--><g transform="translate(622.5 373.125) rotate(0.0 1103.4375 726.5625)  scale(2.8151608891156683 2.820599670408379)"><svg width="783.925" height="515.183" viewBox="0.0 0.0 783.925 515.183"><path d="m673.551 329.439h-42.8v-11.802h42.799l-.015-288.79-561.329.198.008 77.948.001 11.802.017 296.889 561.329-.199z" fill="#eee"/><path d="m111.888 106.757h72.697v11.802h-72.697z" fill="#fff"/><path d="m184.585 94.98h60.238v11.802h-60.238z" fill="#fff"/><path d="m586.156 108.46h177.762v11.802h-177.762z" fill="#78a9ef"/><path d="m572.069 96.658h14.087v11.802h-14.087z" fill="#78a9ef"/><path d="m586.156 170.186h30.926v13.283h-30.926z" fill="#d6d7d8"/><path d="m487.846 156.903h98.31v13.283h-98.31z" fill="#d6d7d8"/><path d="m607.649 226.43h110.984v11.779h-110.984z" fill="#eee"/><path d="m714.299 315.863h69.626v11.802h-69.626z" fill="#a1c3fc"/><path d="m640.078 36.83-561.256.095.098-36.83 561.256-.095z" fill="#a1c3fc"/><g fill="#eee"><path d="m722.844 515.091-561.256.092.098-35.685 561.256-.092z"/><path d="m601.463 450.827-561.256.047.098-18.415 561.256-.047z"/><path d="m614.751 9.416h15.22v16.673h-15.22z"/></g><path d="m0 230.996h157.643v11.802h-157.643z" fill="#a1c3fc"/></svg></g><!--ITEM: Illustration component 2--><g transform="translate(1171.875 1134.375) rotate(0.0 532.5 101.25)  scale(2.8972969443718988 2.9257086716560234)"><svg width="367.584" height="69.214" viewBox="0.0 0.0 367.584 69.214"><g fill="#1f2463"><path d="m32.846.831h14.042l8.556 42.485 10.771-42.553 13.485-.006-18.82 67.786-12.965.073-8.576-48.157-11.7 48.084h-12.97l-14.669-67.712h13.469l8.1 42.728z" fill-rule="evenodd"/><path d="m342.062 56.552c-8.9 0-16.146-9.4-16.146-21.519 0-14.1 11.569-27.192 27.9-21.815v-12.157c-26.711-5.734-40.936 12.649-40.936 33.972 0 23.3 14.172 34.1 29.182 34.1 11.47 0 22.625-8.388 25.036-25.506h-11.871c-1.378 7.598-5.347 12.925-13.165 12.925z" fill-rule="evenodd"/><path d="m339.207 25.75h28.377v11.912h-28.377z"/><path d="m94.152.831h12.348l19.678 67.774h-12.965l-13.037-49.175-14.343 49.186-12.965-.011z" fill-rule="evenodd"/></g><path d="m94.379 48.887h10.821v11.144h-10.821z" fill="#e94a47"/><path d="m237.12 23.959h12.348v44.647h-12.348z" fill="#1f2463"/><path d="m238.059 2.598h10.469v10.469h-10.469z" fill="#e94a47" transform="matrix(.70710678 -.70710678 .70710678 .70710678 65.721 174.329)"/><path d="m214.232.776v42.243l-21.04-42.243h-12.347v67.829h12.347v-42.276l21.04 42.276h12.347v-67.829z" fill="#1f2463" fill-rule="evenodd"/><path d="m293.396.776v42.243l-21.04-42.243h-12.348v67.829h12.348v-42.276l21.04 42.276h12.347v-67.829z" fill="#1f2463" fill-rule="evenodd"/><path d="m173.2 64.1-10.222-22.462c15.272-15.046 4.392-40.598-17.541-40.874-.7-.009-.7-.007-12.272-.007v67.848h12.348v-19.728a25.746 25.746 0 0 0 6.739-1l9.713 21.335zm-27.69-50.955a11.972 11.972 0 0 1 12.2 11.718 11.972 11.972 0 0 1 -12.2 11.716z" fill="#1f2463" fill-rule="evenodd"/></svg></g><!--ITEM: Illustration component 3--><g transform="translate(163.125 496.875) rotate(0.0 236.25 664.6875)  scale(2.6518127735997306 2.6513474379532345)"><svg width="178.18" height="501.396" viewBox="0.0 0.0 178.18 501.396"><linearGradient id="a-i3" gradientUnits="userSpaceOnUse" x1="230.89" x2="75.915" y1="473.83" y2="482.5"><stop offset=".129" stop-color="#428dfc" fill="#000000"/><stop offset=".999" stop-color="#1d72d8" fill="#000000"/></linearGradient><linearGradient id="b-i3" gradientUnits="userSpaceOnUse" x1="238.204" x2="80.077" y1="395.505" y2="313.556"><stop offset="0" stop-color="#e94a47" fill="#000000"/><stop offset=".992" stop-color="#d62929" fill="#000000"/></linearGradient><linearGradient id="c-i3" gradientTransform="matrix(-1 0 0 1 15669.763 -78)" gradientUnits="userSpaceOnUse" x1="15617.347" x2="15569.866" y1="166.698" y2="293.71"><stop offset="0" stop-color="#23286b" fill="#000000"/><stop offset=".361" stop-color="#1e2361" fill="#000000"/><stop offset="1" stop-color="#151a4f" fill="#000000"/></linearGradient><linearGradient id="d-i3" gradientTransform="matrix(-1 0 0 1 15669.763 -78)" gradientUnits="userSpaceOnUse" x1="15579.897" x2="15564.916" y1="142.73" y2="138.597"><stop offset="0" stop-color="#ffbeb6" fill="#000000"/><stop offset="1" stop-color="#f29b94" fill="#000000"/></linearGradient><linearGradient id="e-i3" gradientTransform="matrix(-1 0 0 1 15669.763 -78)" gradientUnits="userSpaceOnUse" x1="15561.211" x2="15582.262" y1="99.551" y2="153.315"><stop offset="0" stop-color="#e94a47" fill="#000000"/><stop offset=".847" stop-color="#a74a47" fill="#000000"/></linearGradient><linearGradient id="f-i3" gradientTransform="matrix(-1 0 0 1 15669.763 -78)" gradientUnits="userSpaceOnUse" x1="15542.497" x2="15552.947" y1="171.079" y2="109.868"><stop offset="0" stop-color="#ffbeb6" fill="#000000"/><stop offset="1" stop-color="#f2a19c" fill="#000000"/></linearGradient><linearGradient xmlns:xlink="http://www.w3.org/1999/xlink" id="g-i3" gradientTransform="matrix(-1 0 0 1 15669.763 0)" x1="15509.091" x2="15602.456" xlink:href="#c-i3" y1="140.578" y2="140.578"/><path d="m93.752 462.528-13.932 38.865h98.36s-5.044-9.728-21.857-16.933-32.5-21.935-32.5-21.935l-12.613-6.62-17.454 6.62" fill="url(#a-i3)"/><path d="m19.193 462.508-13.932 38.865h98.359s-5.043-9.728-21.856-16.933-32.5-21.935-32.5-21.935l-15.336-14.942z" fill="#428dfc"/><path d="m134.281 312.617c-1.688-21.73-7.376-41.52-10.86-61.359-.481-2.738-1.122-5.437-1.481-8.193-1.72-13.2-7.3-55.833-8.455-61.588l-25.645 2.98-12.3 1.939s-8.728 1.674-15.24 5.104c-2.518 12.4-3.1 27.792 1.01 45.832 11.855 52.027 12.777 44.722 10.953 81.227s4.1 24.185 5.927 62.515-26.867 35.77.72 81.264l53.469.191s4.462-116.97 1.902-149.912z" fill="url(#b-i3)"/><path d="m114.206 258.992s.657-71.374 3.164-80.332l-73.805 4.327-4.248 8.213c-.825-.168.762.169 0 0a120.815 120.815 0 0 0 2.263 70.1c18.913 56.761 7.378 56.492-.213 71.249-8.342 16.215-8.367 33.121-11.859 46.774-3.803 14.877-14.208 19.936-21.947 44.154a177.68 177.68 0 0 0 -7.561 39.175l60.677-.146s47.795-118.906 50.316-143.706c2.271-22.331 1.32-31.038 3.213-59.808z" fill="#e94a47"/><path d="m67.917 209.916a.262.262 0 0 0 .339.148h.009a.249.249 0 0 0 .122-.332.253.253 0 1 0 -.47.187zm5.776-2.372a.262.262 0 1 0 .148-.339.27.27 0 0 0 -.148.339zm5.924-2.713-.032.013a.24.24 0 0 0 -.1.324v.013a.243.243 0 0 0 .317.136.261.261 0 1 0 -.191-.486zm5.2-1.568a.254.254 0 1 0 .148-.339.261.261 0 0 0 -.148.339zm10.246-3.444a.26.26 0 0 0 -.147.339.261.261 0 1 0 .147-.339zm-8.594 28.571a.254.254 0 0 0 .135.334.255.255 0 1 0 -.135-.334zm2.405-5.766a.254.254 0 0 0 .135.335.28.28 0 0 0 .352-.137.259.259 0 0 0 -.151-.333l-.028-.011a.241.241 0 0 0 -.308.146zm2.4-5.765a.261.261 0 0 0 .153.332.255.255 0 0 0 .335-.135.28.28 0 0 0 -.137-.352.289.289 0 0 0 -.351.155zm3.906-6.656a.276.276 0 0 0 .137.352.254.254 0 0 0 .335-.135.275.275 0 0 0 -.137-.352.255.255 0 0 0 -.335.135zm17.747 18.115a.262.262 0 0 0 .191.487.138.138 0 0 0 .03-.014.238.238 0 0 0 .1-.323.251.251 0 0 0 -.321-.15zm-35.31-10.064-.019.018a.239.239 0 0 0 .015.337.251.251 0 1 0 0-.355zm4.431-4.417-.01.008a.257.257 0 0 0 .008.362.225.225 0 0 0 .288.032h.018a.061.061 0 0 0 .049-.025.246.246 0 0 0 .075-.222.273.273 0 0 0 -.073-.149.254.254 0 0 0 -.355 0zm4.435-4.4-.01.01a.256.256 0 0 0 .009.362.256.256 0 0 0 .356-.368.252.252 0 0 0 -.355 0zm4.431-4.418-.006.007a.259.259 0 0 0 0 .366l.018.017a.239.239 0 0 0 .337-.014l.009-.01a.258.258 0 0 0 -.363-.366zm8.61 22.818a.264.264 0 1 0 .262-.265.265.265 0 0 0 -.262.265zm.282-6.514a.284.284 0 0 0 -.264.267.255.255 0 0 0 .264.246h.022a.248.248 0 0 0 .245-.25.273.273 0 0 0 -.267-.264zm-47.214 8.269a.478.478 0 0 0 -.044.676l.012.014a.484.484 0 0 0 .684.032.478.478 0 0 0 .045-.676l-.011-.014a.484.484 0 0 0 -.685-.032zm8.955-7.786a.508.508 0 0 0 -.062.7.493.493 0 1 0 .741-.651.478.478 0 0 0 -.676-.045zm8.94-7.767-.013.012a.486.486 0 0 0 -.031.685.494.494 0 1 0 .044-.7zm8.94-7.766a.482.482 0 0 0 .484.819.306.306 0 0 0 .166-.076.457.457 0 0 0 .142-.251h.018a.473.473 0 0 0 -.114-.444l-.012-.014a.483.483 0 0 0 -.684-.032zm9.209 53.242a.482.482 0 0 0 -.522.443.5.5 0 0 0 .462.52h.026a.471.471 0 0 0 .5-.445.5.5 0 0 0 -.462-.52zm.839-11.831a.525.525 0 0 0 -.537.465.491.491 0 0 0 .981.059.485.485 0 0 0 -.444-.523zm.824-11.828a.5.5 0 0 0 -.52.462v.018a.483.483 0 0 0 .462.5h.026a.47.47 0 0 0 .5-.446.523.523 0 0 0 -.463-.538zm.829-11.812a.491.491 0 1 0 .457.523.484.484 0 0 0 -.444-.522zm6.815-11.237a.5.5 0 0 0 -.52.462v.026a.471.471 0 0 0 .446.5.494.494 0 0 0 .076-.984zm-50.5-3.576a.491.491 0 1 0 .626.3.5.5 0 0 0 -.626-.3zm11.225-3.743a.468.468 0 0 0 -.283.6c0 .011.006.022.01.033a.482.482 0 0 0 .9-.336l-.007-.022a.469.469 0 0 0 -.6-.282zm6.7 42.225a.5.5 0 0 0 .232.658h.01a.5.5 0 1 0 -.242-.662zm5.291-10.606a.5.5 0 0 0 .233.658h.009a.5.5 0 1 0 -.242-.662zm5.292-10.6a.526.526 0 0 0 .235.675.5.5 0 0 0 .443-.893.521.521 0 0 0 -.678.218zm5.311-10.591-.014.027a.463.463 0 0 0 .227.615l.013.006a.483.483 0 0 0 .647-.221l.01-.021a.486.486 0 1 0 -.883-.406zm5.292-10.606-.006.008a.487.487 0 0 0 .22.652.5.5 0 0 0 .658-.232.486.486 0 0 0 -.872-.428zm24 46.347a.5.5 0 0 0 .626.3.479.479 0 0 0 .3-.607c0-.013-.007-.025-.011-.037a.47.47 0 0 0 -.6-.287.523.523 0 0 0 -.318.626zm-3.454-11.857a.479.479 0 0 0 -.3.607.522.522 0 0 0 .628.32.5.5 0 0 0 .3-.626v-.008a.487.487 0 0 0 -.623-.294zm-3.746-11.248a.5.5 0 0 0 -.3.625l.007.022a.469.469 0 0 0 .6.283.1.1 0 0 0 .024-.008.486.486 0 0 0 .3-.62.5.5 0 0 0 -.626-.3zm-.477-11.1a.505.505 0 0 0 -.319.627.5.5 0 0 0 .626.3l.021-.008a.468.468 0 0 0 .283-.6.494.494 0 0 0 -.611-.322zm-47.541 25.448a.436.436 0 0 0 .6-.132.436.436 0 1 0 -.605.137zm5.461-9.549a.425.425 0 0 0 .146.584.435.435 0 1 0 -.136-.6zm5.614-9a.378.378 0 0 0 -.038.36.361.361 0 0 0 .177.258.439.439 0 0 0 .6-.136.445.445 0 0 0 -.141-.614.438.438 0 0 0 -.411-.032h-.017a.321.321 0 0 0 -.172.166zm5.605-8.966a.441.441 0 1 0 .747.469.441.441 0 0 0 -.745-.472zm5.592-8.969a.463.463 0 0 0 .155.616.442.442 0 0 0 .462-.754.461.461 0 0 0 -.617.138zm21.438 43.554a.462.462 0 0 0 .541.331h.019a.421.421 0 0 0 .3-.517v-.008a.436.436 0 0 0 -.522-.327.459.459 0 0 0 -.338.521zm-2.046-10.829a.446.446 0 0 0 -.314.539.434.434 0 0 0 .521.317h.018a.421.421 0 0 0 .3-.517v-.009a.435.435 0 0 0 -.522-.326zm-2.382-10.3a.442.442 0 0 0 -.317.52v.009a.435.435 0 0 0 .522.326.259.259 0 0 0 .04-.009.411.411 0 0 0 .277-.512v-.007a.434.434 0 0 0 -.522-.327zm-2.364-10.307a.464.464 0 0 0 -.332.542.441.441 0 0 0 .857-.207.457.457 0 0 0 -.525-.335zm-2.4-10.3a.457.457 0 0 0 -.318.521.44.44 0 1 0 .858-.192.462.462 0 0 0 -.541-.332zm-38.939 9.366.011.016a.429.429 0 0 0 .6.076l.022-.015a.415.415 0 0 0 .072-.581l-.009-.013a.436.436 0 0 0 -.608-.1.448.448 0 0 0 -.088.617zm8.6-6.166a.435.435 0 1 0 .722-.485.459.459 0 0 0 -.616-.109.441.441 0 0 0 -.105.59zm8.706-6.711a.42.42 0 0 0 -.093.587.444.444 0 0 0 .616.11.461.461 0 0 0 .109-.617.44.44 0 0 0 -.613-.09zm8.145 40.427a.442.442 0 0 0 .369.5.433.433 0 0 0 .5-.353.46.46 0 0 0 -.355-.517.454.454 0 0 0 -.513.366zm1.757-10.435v.026a.421.421 0 0 0 .357.474.433.433 0 0 0 .5-.353.46.46 0 0 0 -.354-.517.446.446 0 0 0 -.502.366zm.5-11.619-.026-.005a.42.42 0 0 0 -.474.357.433.433 0 0 0 .853.148v-.026a.42.42 0 0 0 -.357-.474zm3.483-9.6a.433.433 0 0 0 -.146.853.422.422 0 0 0 .375-.1h.018a.478.478 0 0 0 .124-.246.442.442 0 0 0 -.369-.5zm27.823 13.97a.192.192 0 0 0 -.021.016.429.429 0 0 0 -.088.6.45.45 0 0 0 .616.109.443.443 0 0 0 -.507-.727zm-15.137-24.46a.436.436 0 1 0 .723-.485.459.459 0 0 0 -.616-.109.445.445 0 0 0 -.107.594zm-37.173 11.72a.272.272 0 0 0 .016.37.262.262 0 1 0 -.016-.37zm4.008-2.364a.27.27 0 0 0 .016.369.262.262 0 1 0 -.016-.369zm2.906-5.16a.358.358 0 0 0 -.026.028.242.242 0 0 0 .042.341.25.25 0 0 0 .352-.013.221.221 0 0 0 .029-.032.242.242 0 0 0 -.045-.338.249.249 0 0 0 -.352.014zm17.15 18a.256.256 0 1 0 .264.247.257.257 0 0 0 -.264-.247zm-1.1-5.979a.263.263 0 0 0 -.257.266.268.268 0 0 0 .281.244.254.254 0 0 0 .246-.264v-.019a.247.247 0 0 0 -.264-.228zm-.225-6.233a.256.256 0 1 0 .265.247v-.02a.246.246 0 0 0 -.264-.227zm.832-5.027h-.017a.245.245 0 0 0 -.227.263l.009.069a.28.28 0 0 0 .254.177.253.253 0 0 0 .246-.263.273.273 0 0 0 -.175-.242h-.017a.108.108 0 0 0 -.073-.007zm8.182-5.986-.007.007a.257.257 0 0 0 0 .365.272.272 0 0 0 .369-.016.269.269 0 0 0 -.016-.369.249.249 0 0 0 -.351.013zm-21.09 18.241a.258.258 0 0 0 .152.331.278.278 0 0 0 .333-.152v-.013a.251.251 0 0 0 -.157-.319l-.023-.009a.249.249 0 0 0 -.31.162zm2.2-5.86-.008.016a.261.261 0 0 0 .161.333.278.278 0 0 0 .333-.151.266.266 0 0 0 -.152-.333l-.015-.006a.245.245 0 0 0 -.319.141zm2.182-5.84v.015a.251.251 0 0 0 .157.319l.023.008a.247.247 0 0 0 .31-.161.261.261 0 0 0 -.152-.333.28.28 0 0 0 -.333.152zm2.182-5.841a.263.263 0 0 0 .152.334l.023.009a.247.247 0 0 0 .309-.162.258.258 0 0 0 -.151-.332.279.279 0 0 0 -.333.151zm18.854 18.752a.255.255 0 1 0 .467-.206.288.288 0 0 0 -.013-.031.242.242 0 0 0 -.324-.1.256.256 0 0 0 -.13.337zm-2.458-7.919h-.007a.25.25 0 0 0 -.123.332.269.269 0 0 0 .354.128.248.248 0 0 0 .111-.333.292.292 0 0 0 -.014-.031.239.239 0 0 0 -.323-.1zm-4.132-5.417a.258.258 0 1 0 .351.111.268.268 0 0 0 -.351-.111zm-4.318-4.462a.19.19 0 0 0 -.006.212v.008a.251.251 0 0 0 .333.123.272.272 0 0 0 .148-.215.192.192 0 0 0 -.019-.139.266.266 0 0 0 -.337-.131.283.283 0 0 0 -.125.124v.018zm-30.492 20.125a.3.3 0 0 0 .093.413h.008a.284.284 0 0 0 .387-.095l.011-.019a.289.289 0 0 0 -.1-.394h-.008a.282.282 0 0 0 -.387.095zm3.025-7.282-.013.018a.287.287 0 0 0 .088.4.3.3 0 0 0 .32-.5l-.008-.006a.283.283 0 0 0 -.387.1zm3.332-7.758a.3.3 0 0 0 .092.412.317.317 0 0 0 .382-.053c.016-.02.032-.022.03-.04a.3.3 0 0 0 -.5-.317zm5.549-4.635a.3.3 0 1 0 .411-.093.274.274 0 0 0 -.284-.013c-.035 0-.049.025-.067.027zm16.97 23.519a.3.3 0 0 0 -.214.365.176.176 0 0 0 .007.033.275.275 0 0 0 .342.184.292.292 0 0 0 .217-.348.319.319 0 0 0 -.35-.234zm-1.529-6.955a.325.325 0 0 0 -.232.369.3.3 0 0 0 .365.212.291.291 0 0 0 .22-.346.32.32 0 0 0 -.35-.235zm-1.529-6.955a.291.291 0 0 0 -.216.349.241.241 0 0 0 .008.044.277.277 0 0 0 .342.19.293.293 0 0 0 .217-.348.321.321 0 0 0 -.351-.235zm-1.745-6.6a.241.241 0 0 0 .008.044.277.277 0 0 0 .342.19.292.292 0 0 0 .217-.348.306.306 0 0 0 -.351-.235.292.292 0 0 0 -.216.344zm-32.844 2.281a.287.287 0 0 0 -.069.4l.008.013a.294.294 0 0 0 .41.071.314.314 0 0 0 .066-.416l-.005-.009a.292.292 0 0 0 -.41-.058zm5.84-4.082a.3.3 0 0 0 -.065.415.286.286 0 0 0 .4.069l.013-.008a.294.294 0 0 0 .071-.41.305.305 0 0 0 -.417-.066zm18.131 12.117a.286.286 0 0 0 .225.337.313.313 0 0 0 .358-.226.324.324 0 0 0 -.244-.356.3.3 0 0 0 -.339.245zm1.581-7.242h-.01a.288.288 0 0 0 -.328.243.294.294 0 1 0 .338-.242zm1.26-7a.3.3 0 0 0 -.356.227.294.294 0 0 0 .242.338.124.124 0 0 0 .029.006.274.274 0 0 0 .311-.23.288.288 0 0 0 -.225-.337zm24.221 15.734a.3.3 0 0 0 -.085.417l.007.009a.293.293 0 0 0 .41.058.288.288 0 0 0 .069-.4l-.011-.016a.28.28 0 0 0 -.39-.069zm-5.605-6.137a.3.3 0 0 0 -.064.415l.014.021a.273.273 0 0 0 .384.048l.017-.01a.28.28 0 0 0 .069-.39.3.3 0 0 0 -.418-.084zm-4.082-5.841a.314.314 0 0 0 -.066.417.294.294 0 0 0 .491-.337l-.008-.013a.294.294 0 0 0 -.41-.071zm-44.309-3.595a.532.532 0 0 0 -.111.723.509.509 0 1 0 .111-.723zm15.132 50.4a.506.506 0 0 0 -.579.416.523.523 0 0 0 .433.577.506.506 0 0 0 .58-.417.517.517 0 0 0 -.434-.576zm1.9-12.066a.5.5 0 1 0 .417.58.508.508 0 0 0 -.417-.58zm1.888-12.062a.508.508 0 0 0 -.581.416.518.518 0 0 0 .434.577h.021a.5.5 0 1 0 .126-1zm1.9-12.067h-.01a.5.5 0 0 0 -.569.419.5.5 0 0 0 1 .163v-.011a.5.5 0 0 0 -.419-.569zm1.887-12.062a.507.507 0 0 0 -.58.416.518.518 0 0 0 .434.577.5.5 0 0 0 .146-.993zm41.9 36.983a.533.533 0 0 0 .723.112.509.509 0 0 0 -.608-.817.517.517 0 0 0 -.099.701zm-7.077-10.571a.505.505 0 0 0 .595.817h.005a.506.506 0 1 0 -.6-.817zm-7.2-9.863a.5.5 0 0 0 -.1.7.512.512 0 0 0 .706.115.533.533 0 0 0 .112-.723l-.008-.011a.5.5 0 0 0 -.7-.086zm-7.209-9.854a.486.486 0 0 0 -.079.681.513.513 0 0 0 .707.115.538.538 0 0 0 .112-.723l-.009-.011a.5.5 0 0 0 -.7-.087zm-7.171-9.91a.532.532 0 0 0 -.112.724.51.51 0 1 0 .112-.724zm-30.695 16.775a.52.52 0 0 0 .168.7.51.51 0 1 0 -.168-.7zm6.362-10.418a.511.511 0 0 0 .87.534.519.519 0 0 0 -.168-.7h-.008a.506.506 0 0 0 -.694.173zm27.328 38.666a.511.511 0 0 0 -.374.618.537.537 0 0 0 .619.374.51.51 0 0 0 .357-.615v-.009a.5.5 0 0 0 -.6-.368zm-2.864-11.865a.214.214 0 0 0 -.032.008.485.485 0 0 0 -.345.593.511.511 0 0 0 .618.374.5.5 0 0 0 .359-.6.3.3 0 0 0 -.008-.032.484.484 0 0 0 -.593-.345zm-2.865-11.884a.511.511 0 0 0 -.375.619v.009a.5.5 0 0 0 .6.367.51.51 0 0 0 -.226-1zm-2.863-11.866a.51.51 0 0 0 -.374.618.5.5 0 1 0 .374-.618zm15-10.46a.511.511 0 0 0 .188.7.5.5 0 0 0 .686-.166.511.511 0 0 0 -.871-.533zm-44.007 9.864a.5.5 0 0 0 .139.7.539.539 0 0 0 .708-.133.521.521 0 0 0 -.151-.7l-.023-.016a.484.484 0 0 0 -.667.147zm30.213 40.153a.509.509 0 1 0 .6.4.51.51 0 0 0 -.6-.4zm-2.36-11.936a.521.521 0 0 0 -.393.6.509.509 0 0 0 .6.394.518.518 0 0 0 .4-.586.538.538 0 0 0 -.606-.411zm-2.335-11.921a.521.521 0 0 0 -.414.588.51.51 0 0 0 .6.394.5.5 0 1 0 -.189-.982zm-2.371-11.933a.5.5 0 0 0 -.386.584l.007.032a.485.485 0 0 0 .579.365.506.506 0 0 0 .4-.586v-.012a.5.5 0 0 0 -.584-.385zm32.934-13.036a.5.5 0 0 0 .14.7.521.521 0 0 0 .7-.151.5.5 0 0 0 -.149-.688l-.023-.015a.481.481 0 0 0 -.666.146zm-15.454-.79a.365.365 0 0 0 .155.226c0 .017.022.033.041.047a.5.5 0 0 0 .638-.76.172.172 0 0 0 -.082-.078.515.515 0 0 0 -.4-.069v.018a.415.415 0 0 0 -.293.182.483.483 0 0 0 -.059.432zm-33.725 31.5a.5.5 0 0 0 .4.577.507.507 0 0 0 .6-.384.515.515 0 0 0 -.4-.6.522.522 0 0 0 -.6.411zm2.986-12.335a.5.5 0 0 0 -.578.4v.013a.5.5 0 0 0 .986.188.524.524 0 0 0 -.4-.6zm2.91-10.626a.5.5 0 1 0 .4.6.514.514 0 0 0 -.4-.6zm37.69 25.922-.014.008a.506.506 0 0 0 -.136.7.514.514 0 0 0 .709.132.5.5 0 0 0 .134-.691l-.012-.019a.49.49 0 0 0 -.681-.132zm-6.759-10.118a.506.506 0 0 0 -.136.7.513.513 0 0 0 .709.132.5.5 0 0 0 .134-.69l-.012-.019a.49.49 0 0 0 -.681-.133zm-6.741-10.125a.505.505 0 0 0 -.136.7.513.513 0 0 0 .708.132.5.5 0 0 0 .134-.691.508.508 0 0 0 -.694-.152zm-6.737-10.131a.51.51 0 0 0 -.144.707.519.519 0 0 0 .708.132.5.5 0 0 0 .134-.691.523.523 0 0 0 -.694-.151zm17.5-6.08a.385.385 0 1 0 -.212-.5.392.392 0 0 0 .209.5zm-46.046 5.856a.385.385 0 1 0 .493-.231.369.369 0 0 0 -.48.21c-.01.005-.013.012-.016.021zm28.383 25.363a.38.38 0 0 0 .7-.3.158.158 0 0 0 -.016-.035.362.362 0 0 0 -.488-.16.38.38 0 0 0 -.196.495zm-3.415-8.934a.382.382 0 1 0 .5.195v-.012a.376.376 0 0 0 -.5-.183zm-3.61-8.437a.391.391 0 0 0 -.2.5.382.382 0 1 0 .2-.5zm-3.609-8.436-.012.007a.376.376 0 0 0 -.183.5v.011a.366.366 0 0 0 .483.186.375.375 0 0 0 .211-.488.4.4 0 0 0 -.507-.214zm-8.448 24.49h-.029a.367.367 0 0 0 -.343.387.385.385 0 0 0 .387.372.4.4 0 0 0 .372-.387.378.378 0 0 0 -.387-.368zm2.648-8.625a.378.378 0 0 0 -.385.372.406.406 0 0 0 .391.388.377.377 0 0 0 .367-.387v-.013a.364.364 0 0 0 -.37-.36zm-3.7-7.543a.377.377 0 0 0 -.367.387v.028a.366.366 0 0 0 .387.343h.02a.363.363 0 0 0 .353-.371.405.405 0 0 0 -.39-.388zm33.173 3.265a.375.375 0 0 0 .53 0 .139.139 0 0 0 .021-.021.372.372 0 0 0 -.026-.526l-.011-.009a.368.368 0 0 0 -.518.03.375.375 0 0 0 -.001.526zm-6.566-6.4a.388.388 0 0 0 .543-.553.388.388 0 1 0 -.543.553zm-6.57-6.947a.381.381 0 0 0 .551.526.386.386 0 0 0 0-.531l-.019-.018a.375.375 0 0 0 -.529.023zm-21.503 6.179a.211.211 0 0 0 -.162.234.213.213 0 0 0 .238.18h.017a.211.211 0 1 0 -.093-.411zm1.285-4.941a.228.228 0 0 0 -.16.251.2.2 0 0 0 .233.157h.028a.187.187 0 0 0 .134-.229v-.016a.2.2 0 0 0 -.235-.163zm4.526 12.79a.082.082 0 0 0 -.02.012.335.335 0 0 0 -.091.464.34.34 0 0 0 .473.094l.028-.019a.314.314 0 0 0 .068-.437l-.015-.024a.318.318 0 0 0 -.443-.09zm-6.163-5.372-.016.01a.332.332 0 0 0 -.078.463l.014.024a.32.32 0 0 0 .444.09l.02-.013a.334.334 0 0 0 .091-.463.348.348 0 0 0 -.475-.111z" fill="#fff" opacity=".86"/><path d="m86.1 60.684a.03.03 0 0 0 .019-.01 61.3 61.3 0 0 1 18.419 13.558l15.084 109.368c-38.907 28.5-82.583 17.863-82.583 17.863-7.983-100.84 47.804-139.895 49.061-140.779z" fill="url(#c-i3)"/><path d="m108.917 57.135s-5.217 11.665-3.917 18.01c-5.451-5.383-12.12-10.858-18.879-14.465l12.854-13.054z" fill="url(#d-i3)"/><path d="m117.764 58.482c7.434-2.119 11.771-8.782 13.279-8.4s4.933.394 5.5-1.171c.549-1.562-2.038-7.405-.768-13.35.126-.552.223-1.08.309-1.616 0-.026.011-.036 0-.06l.044-.288c.049-.358.122-.977.17-1.788-4.3 1.563-8.139 1.7-9.838.555-4.814-3.223-5.8.07-11.3 3.581-5.521 3.512-9.729.689-16.232-1.688s-7.528 4.326-5.228 6.943 4.142 3.9 2.273 6.429a4.484 4.484 0 0 1 -1.21 1.41l.616.64q.292.3.613.579l2.978 2.542c5.365 4.543 11.83 7.679 18.794 5.682z" fill="#ffbeb6"/><path d="m50.722 38.117 86.783-10.791-.4-3.207-84.748 10.538a2.047 2.047 0 0 0 -1.78 2.285z" fill="#e94a47"/><path d="m80.791 31.1 56.321-7-.773-6.219a20.4 20.4 0 0 0 -22.759-17.723l-15 1.865a21.247 21.247 0 0 0 -18.458 23.706l.669 5.375z" fill="url(#e-i3)"/><path d="m94.765 49.037s-4.306 1.514-9.623-4.063-4.751-10.668-4.751-10.668 53.475-6.72 55.3-6.849 1.159-.288 7.437-5.936 10.178 2.616 6.021 8.77-15.914 4.818-20.8 2.881-6.852-2.507-10.659 1.59-11.335 4.418-17.113.29-10.477 2.06-5.842 6.748.03 7.237.03 7.237z" fill="#23286b"/><path d="m130.932 39.052a4.514 4.514 0 0 0 7.936-.789c.265-.634-.676-1.165-.945-.523a3.437 3.437 0 0 1 -6.063.762c-.398-.564-1.331-.018-.928.55z" fill="#1c2868"/><path d="m115.235 81.442c.733 8.15 2.242 29.077 2.242 29.077l20.325-5.143s-10.421-16.284-12.874-23.341c-1.754-5.042-5.873-11.637.989-16.648 5.465-3.992 8.967-5.3 7.318-11.835-1.64-6.508-3.442-2.919-5.939-.731-7.377 6.467-7.511 2.742-7.377-3.489.126-5.846-2.8-4.458-3.629-1.055-.581 2.4-1.393 4.187-2.307 7.253a17.251 17.251 0 0 0 -.825 7.615c.242 2.98 1.055 6.923 2.077 18.297z" fill="url(#f-i3)"/><path d="m109.358 97.662 37.594-9.606s11.607 14.353 9.331 37.3c-1.574 15.862 2.771 21.626 4.052 31.765.273 2.55-.078 4.179.168 6.192 1.01 8.071-1.677 26.233-30.6 29.594-8.881 1.038-18.109-2.149-26.889-7.515a87.329 87.329 0 0 1 -8-5.538c-16.413-12.661-22.467-33.987-27.7-43.242z" fill="url(#g-i3)"/><path d="m86.4 60.486c-12.83 9.888-30.616 40.176-23.827 72.137 3.614 17.018 15.594 35.377 32.237 48.215a88.575 88.575 0 0 0 8.105 5.622c.265.159.541.329.806.478 8.667 5.144 17.726 8.157 26.456 7.139 29.331-3.405 32.057-21.821 31.028-30-.255-2.048-.594-4.371-.87-6.959-9.059-.583-27.672-10.9-35.533-18.765-6.623-6.624-14.851-39.116-16.159-43.818-1.711-6.149-3.806-20.5-3.806-20.5a75.97 75.97 0 0 0 -8.276-7.435 90.742 90.742 0 0 0 -10.161-6.114z" fill="#23286b"/></svg></g><!--ITEM: Illustration component 4--><g transform="translate(1451.25 594.375) rotate(0.0 245.625 212.8125)  scale(2.8596958971731943 2.86097910182901)"><svg width="171.784" height="148.769" viewBox="0.0 0.0 171.784 148.769"><path d="m85.892 0-85.892 148.769h171.784z" fill="#e94a47"/><g fill="#fff"><path d="m92.105 107.786h-12.426l-5.677-56.706h23.78z"/><circle cx="85.892" cy="124.397" r="8.151"/></g></svg></g></svg>