<svg xmlns="http://www.w3.org/2000/svg" version="1.1" viewBox="0 0 3000 2250" width="3000" height="2250">
<defs/><!--ITEM: Illustration component 1--><g transform="translate(1404.375 303.75) rotate(0.0 299.0625 43.125)  scale(6.97928821470245 7.371794871794872)"><svg width="85.7" height="11.7" viewBox="0.0 0.0 85.7 11.7"><linearGradient id="a-i1" gradientUnits="userSpaceOnUse" x1="0" x2="85.672" y1="5.8748" y2="5.8748"><stop offset="0" stop-color="#428dfc" fill="#000000"/><stop offset=".6955" stop-color="#2175dc" fill="#000000"/><stop offset="1" stop-color="#1d72d8" fill="#000000"/></linearGradient><linearGradient id="b-i1" gradientUnits="userSpaceOnUse" x1="26.7775" x2="60.3381" y1="5.8748" y2="5.8748"><stop offset="0" stop-color="#eee" fill="#000000"/><stop offset="1" stop-color="#dce3ea" fill="#000000"/></linearGradient><path d="m0 0h85.7v11.7h-85.7z" fill="url(#a-i1)"/><path d="m26.8 0h33.6v11.7h-33.6z" fill="url(#b-i1)"/></svg></g><!--ITEM: Illustration component 2--><g transform="translate(793.125 305.625) rotate(0.0 307.5 45.0)  scale(7.176196032672112 7.6923076923076925)"><svg width="85.7" height="11.7" viewBox="0.0 0.0 85.7 11.7"><linearGradient id="a-i2" gradientUnits="userSpaceOnUse" x1="0" x2="85.672" y1="5.8748" y2="5.8748"><stop offset="0" stop-color="#428dfc" fill="#000000"/><stop offset=".6955" stop-color="#2175dc" fill="#000000"/><stop offset="1" stop-color="#1d72d8" fill="#000000"/></linearGradient><linearGradient id="b-i2" gradientUnits="userSpaceOnUse" x1="26.7775" x2="60.3381" y1="5.8748" y2="5.8748"><stop offset="0" stop-color="#eee" fill="#000000"/><stop offset="1" stop-color="#dce3ea" fill="#000000"/></linearGradient><path d="m0 0h85.7v11.7h-85.7z" fill="url(#a-i2)"/><path d="m26.8 0h33.6v11.7h-33.6z" fill="url(#b-i2)"/></svg></g><!--ITEM: Illustration component 3--><g transform="translate(1096.875 223.125) rotate(0.0 300.9375 43.125)  scale(7.023045507584597 7.371794871794872)"><svg width="85.7" height="11.7" viewBox="0.0 0.0 85.7 11.7"><linearGradient id="a-i3" gradientUnits="userSpaceOnUse" x1="0" x2="85.672" y1="5.8748" y2="5.8748"><stop offset="0" stop-color="#428dfc" fill="#000000"/><stop offset=".6955" stop-color="#2175dc" fill="#000000"/><stop offset="1" stop-color="#1d72d8" fill="#000000"/></linearGradient><linearGradient id="b-i3" gradientUnits="userSpaceOnUse" x1="26.7775" x2="60.3381" y1="5.8748" y2="5.8748"><stop offset="0" stop-color="#eee" fill="#000000"/><stop offset="1" stop-color="#dce3ea" fill="#000000"/></linearGradient><path d="m0 0h85.7v11.7h-85.7z" fill="url(#a-i3)"/><path d="m26.8 0h33.6v11.7h-33.6z" fill="url(#b-i3)"/></svg></g><!--ITEM: Illustration component 4--><g transform="translate(219.375 388.125) rotate(0.0 1274.0625 816.5625)  scale(7.379452649869679 7.383024412296565)"><svg width="345.3" height="221.2" viewBox="0.0 0.0 345.3 221.2"><linearGradient id="a-i4"><stop offset="0" stop-color="#23286b" fill="#000000"/><stop offset="1" stop-color="#151a4f" fill="#000000"/></linearGradient><linearGradient xmlns:xlink="http://www.w3.org/1999/xlink" id="b-i4" gradientUnits="userSpaceOnUse" x1="47.3646" x2="97.1922" xlink:href="#a-i4" y1="211.7824" y2="211.7824"/><linearGradient xmlns:xlink="http://www.w3.org/1999/xlink" id="c-i4" gradientUnits="userSpaceOnUse" x1="253.5019" x2="303.3296" xlink:href="#a-i4" y1="211.7824" y2="211.7824"/><linearGradient id="d-i4"><stop offset="0" stop-color="#a1c3fc" fill="#000000"/><stop offset=".6955" stop-color="#81aef2" fill="#000000"/><stop offset="1" stop-color="#78a9ef" fill="#000000"/></linearGradient><linearGradient xmlns:xlink="http://www.w3.org/1999/xlink" id="e-i4" gradientUnits="userSpaceOnUse" x1="0" x2="345.3342" xlink:href="#d-i4" y1="105.3912" y2="105.3912"/><linearGradient xmlns:xlink="http://www.w3.org/1999/xlink" id="f-i4" gradientUnits="userSpaceOnUse" x1="23.3894" x2="327.3047" xlink:href="#a-i4" y1="105.3912" y2="105.3912"/><linearGradient id="g-i4"><stop offset="0" stop-color="#428dfc" fill="#000000"/><stop offset=".6955" stop-color="#2175dc" fill="#000000"/><stop offset="1" stop-color="#1d72d8" fill="#000000"/></linearGradient><linearGradient xmlns:xlink="http://www.w3.org/1999/xlink" id="h-i4" gradientUnits="userSpaceOnUse" x1="54.9513" x2="154.9345" xlink:href="#g-i4" y1="73.8074" y2="73.8074"/><linearGradient id="i-i4"><stop offset="0" stop-color="#eee" fill="#000000"/><stop offset="1" stop-color="#dce3ea" fill="#000000"/></linearGradient><linearGradient xmlns:xlink="http://www.w3.org/1999/xlink" id="j-i4" gradientUnits="userSpaceOnUse" x1="86.2019" x2="125.3687" xlink:href="#i-i4" y1="73.8074" y2="73.8074"/><linearGradient xmlns:xlink="http://www.w3.org/1999/xlink" id="k-i4" gradientUnits="userSpaceOnUse" x1="66.0531" x2="166.0363" xlink:href="#g-i4" y1="166.4391" y2="166.4391"/><linearGradient xmlns:xlink="http://www.w3.org/1999/xlink" id="l-i4" gradientUnits="userSpaceOnUse" x1="97.3037" x2="136.4705" xlink:href="#i-i4" y1="166.4391" y2="166.4391"/><linearGradient xmlns:xlink="http://www.w3.org/1999/xlink" id="m-i4" gradientUnits="userSpaceOnUse" x1="19.7775" x2="327.3047" xlink:href="#d-i4" y1="105.8652" y2="105.8652"/><linearGradient xmlns:xlink="http://www.w3.org/1999/xlink" id="n-i4" gradientUnits="userSpaceOnUse" x1="54.9513" x2="154.9347" xlink:href="#d-i4" y1="60.9195" y2="60.9195"/><linearGradient xmlns:xlink="http://www.w3.org/1999/xlink" id="o-i4" gradientUnits="userSpaceOnUse" x1="54.9513" x2="154.9347" xlink:href="#d-i4" y1="74.0484" y2="74.0484"/><linearGradient xmlns:xlink="http://www.w3.org/1999/xlink" id="p-i4" gradientUnits="userSpaceOnUse" x1="54.9513" x2="154.9347" xlink:href="#d-i4" y1="87.8306" y2="87.8306"/><linearGradient xmlns:xlink="http://www.w3.org/1999/xlink" id="q-i4" gradientUnits="userSpaceOnUse" x1="66.133" x2="166.1159" xlink:href="#d-i4" y1="153.1324" y2="153.1324"/><linearGradient xmlns:xlink="http://www.w3.org/1999/xlink" id="r-i4" gradientUnits="userSpaceOnUse" x1="66.133" x2="166.1159" xlink:href="#d-i4" y1="167.2613" y2="167.2613"/><linearGradient xmlns:xlink="http://www.w3.org/1999/xlink" id="s-i4" gradientUnits="userSpaceOnUse" x1="66.133" x2="166.1159" xlink:href="#d-i4" y1="181.0435" y2="181.0435"/><linearGradient xmlns:xlink="http://www.w3.org/1999/xlink" id="t-i4" gradientUnits="userSpaceOnUse" x1="158.8" x2="328.7782" xlink:href="#i-i4" y1="105.4765" y2="105.4765"/><linearGradient xmlns:xlink="http://www.w3.org/1999/xlink" id="u-i4" gradientTransform="matrix(.5 .866 -.866 .5 1680.0933 -4254.1768)" gradientUnits="userSpaceOnUse" x1="3058.6687" x2="3083.948" xlink:href="#g-i4" y1="3459.9729" y2="3459.9729"/><linearGradient xmlns:xlink="http://www.w3.org/1999/xlink" id="v-i4" gradientUnits="userSpaceOnUse" x1="261.802" x2="223.7865" xlink:href="#g-i4" y1="116.444" y2="116.444"/><linearGradient xmlns:xlink="http://www.w3.org/1999/xlink" id="w-i4" gradientUnits="userSpaceOnUse" x1="237.8003" x2="249.7779" xlink:href="#g-i4" y1="70.4569" y2="70.4569"/><linearGradient xmlns:xlink="http://www.w3.org/1999/xlink" id="x-i4" gradientUnits="userSpaceOnUse" x1="242.5869" x2="254.5645" xlink:href="#d-i4" y1="79.8454" y2="79.8454"/><linearGradient xmlns:xlink="http://www.w3.org/1999/xlink" id="y-i4" gradientTransform="matrix(.5 -.866 .866 .5 2850.9778 3589.9146)" gradientUnits="userSpaceOnUse" x1="1689.2219" x2="1710.8265" xlink:href="#g-i4" y1="-3965.9719" y2="-3965.9719"/><linearGradient xmlns:xlink="http://www.w3.org/1999/xlink" id="z-i4" gradientTransform="matrix(.5 -.866 .866 .5 2850.9778 3589.9146)" gradientUnits="userSpaceOnUse" x1="1694.6046" x2="1716.2092" xlink:href="#d-i4" y1="-3966.5454" y2="-3966.5454"/><linearGradient xmlns:xlink="http://www.w3.org/1999/xlink" id="A-i4" gradientTransform="matrix(.5 .866 -.866 .5 1680.0933 -4254.1768)" gradientUnits="userSpaceOnUse" x1="3062.3435" x2="3083.948" xlink:href="#d-i4" y1="3454.9414" y2="3454.9414"/><linearGradient xmlns:xlink="http://www.w3.org/1999/xlink" id="B-i4" gradientUnits="userSpaceOnUse" x1="229.5731" x2="267.5782" xlink:href="#g-i4" y1="116.0621" y2="116.0621"/><linearGradient xmlns:xlink="http://www.w3.org/1999/xlink" id="C-i4" gradientUnits="userSpaceOnUse" x1="239.9755" x2="257.1758" xlink:href="#a-i4" y1="116.0621" y2="116.0621"/><linearGradient xmlns:xlink="http://www.w3.org/1999/xlink" id="D-i4" gradientUnits="userSpaceOnUse" x1="194.4275" x2="230.0128" xlink:href="#g-i4" y1="132.2386" y2="132.2386"/><linearGradient id="E-i4"><stop offset="0" stop-color="#f1b505" fill="#000000"/><stop offset="1" stop-color="#d89c05" fill="#000000"/></linearGradient><linearGradient xmlns:xlink="http://www.w3.org/1999/xlink" id="F-i4" gradientTransform="matrix(0 1 -1 0 3683.2507 -5621.5068)" gradientUnits="userSpaceOnUse" x1="5659.4961" x2="5690.7778" xlink:href="#E-i4" y1="3354.4724" y2="3354.4724"/><linearGradient xmlns:xlink="http://www.w3.org/1999/xlink" id="G-i4" gradientTransform="matrix(0 1 -1 0 3683.2507 -5621.5068)" gradientUnits="userSpaceOnUse" x1="5765.4722" x2="5796.7539" xlink:href="#E-i4" y1="3354.4724" y2="3354.4724"/><linearGradient xmlns:xlink="http://www.w3.org/1999/xlink" id="H-i4" gradientUnits="userSpaceOnUse" x1="148.7068" x2="154.5651" xlink:href="#a-i4" y1="79.7138" y2="79.7138"/><linearGradient xmlns:xlink="http://www.w3.org/1999/xlink" id="I-i4" gradientUnits="userSpaceOnUse" x1="148.5707" x2="154.429" xlink:href="#a-i4" y1="107.004" y2="107.004"/><linearGradient xmlns:xlink="http://www.w3.org/1999/xlink" id="J-i4" gradientUnits="userSpaceOnUse" x1="148.5707" x2="154.429" xlink:href="#a-i4" y1="133.4122" y2="133.4122"/><path d="m47.4 202.4h49.8v18.8h-49.8z" fill="url(#b-i4)"/><path d="m253.5 202.4h49.8v18.8h-49.8z" fill="url(#c-i4)"/><path d="m0 0h345.3v210.8h-345.3z" fill="url(#e-i4)"/><path d="m23.4 17.7h303.9v175.4h-303.9z" fill="url(#f-i4)"/><path d="m39.9 45.4c-.1.2 0 .4.2.5.2.1.4 0 .5-.2.1-.2 0-.4-.2-.5-.2-.1-.4 0-.5.2zm-3.7 8.9c-.1.2 0 .4.2.5s.4 0 .5-.2 0-.4-.2-.5-.4 0-.5.2zm-3.7 9c-.1.2 0 .4.2.5s.4 0 .5-.2c.1-.2 0-.4-.2-.5-.1-.1-.4 0-.5.2 0-.1 0 0 0 0zm36.5 10.6c-.2.1-.3.3-.2.5s.3.3.5.2.3-.3.2-.5c-.1-.2-.3-.3-.5-.2zm-8.9 3.7c-.2.1-.3.3-.2.5.1.2.3.3.5.2s.3-.3.2-.5-.3-.3-.5-.2zm-9 3.7c-.2.1-.3.3-.2.5s.3.3.5.2.3-.3.2-.5c0-.2-.3-.3-.5-.2zm-8.9 3.8c-.2.1-.3.3-.2.5.1.2.3.3.5.2s.3-.3.2-.5c-.1-.2-.3-.3-.5-.2zm11.1-24.9c-.1.2-.1.4 0 .5s.4.1.5 0 .1-.4 0-.5c-.1-.2-.3-.2-.5 0zm-6.8 6.8c-.1.2-.1.4 0 .5s.1.1.2.1.3 0 .3-.1c0 0 0 0 0-.1.1-.1.1-.3 0-.4s-.4-.1-.5 0zm-6.8 6.9c-.1.2-.1.4 0 .5.2.1.4.1.5 0 .2-.1.2-.4 0-.5-.1-.2-.4-.2-.5 0zm-6.9 6.9c-.1.2-.1.4 0 .5.2.2.4.2.6 0 .1-.1.2-.4 0-.5-.2-.2-.4-.2-.6 0 0-.1 0 0 0 0zm34.9 13.7c0 .2.2.4.4.4s.4-.2.4-.4-.2-.4-.4-.4-.4.2-.4.4zm3.1-73c-.3.3-.3.8 0 1.1.3.3.8.2 1-.1.3-.3.3-.8 0-1.1-.2-.3-.7-.2-1 .1zm-12 13.8c-.3.3-.2.8.1 1 .3.3.8.2 1.1-.1s.2-.8-.1-1.1c-.4-.1-.8-.1-1.1.2zm-12 13.9c-.3.3-.2.8.1 1.1s.8.2 1.1-.1.2-.8-.1-1.1c-.4-.3-.8-.3-1.1.1 0-.1 0-.1 0 0zm-12 13.8c-.3.3-.3.8 0 1.1.2.2.4.2.7.2.1 0 .3-.1.4-.2s.1-.2.1-.3c.2-.4 0-.8-.4-1-.3-.1-.6-.1-.8.2zm82.3 14.2c0 .4.4.7.8.7s.7-.4.7-.8c0-.4-.4-.7-.8-.7-.4.1-.7.4-.7.8zm-18.3 1.3c0 .4.4.7.8.7.4 0 .7-.4.7-.8s-.4-.7-.8-.7c-.4 0-.7.4-.7.8zm-18.3 1.3c0 .4.4.7.8.7s.7-.4.7-.8c0-.4-.4-.7-.8-.7-.4 0-.7.4-.7.8zm-18.2 1.3c0 .4.4.7.8.7.4 0 .7-.4.7-.8s-.4-.7-.8-.7c-.5 0-.8.4-.7.8zm-18.3 1.3c0 .4.4.7.8.7s.7-.4.7-.8-.4-.7-.8-.7c-.5-0-.8.4-.7.8zm-10.5-51.5c-.1.4.1.8.4.9.4.1.8-.1 1-.4.1-.4-.1-.8-.4-1-.4-.1-.8.1-1 .5zm-5.8 17.4c-.1.4.1.8.5 1 .4.1.8-.1.9-.5.1-.4-.1-.8-.5-1-.3-.1-.8.1-.9.5zm71.2-7.1c-.4.2-.6.6-.4 1s.6.6 1 .4.6-.6.4-1c-.2-.4-.6-.5-1-.4zm-16.4 8.2c-.4.2-.6.6-.4 1s.6.6 1 .4.6-.6.4-1c-.2-.4-.7-.6-1-.4zm-16.4 8.2c-.4.2-.5.7-.3 1 .2.4.7.5 1 .3.4-.2.5-.6.3-1-.2-.3-.7-.5-1-.3zm-16.4 8.2c-.4.2-.5.6-.4 1 .2.4.6.5 1 .4.4-.2.5-.6.3-1-.1-.4-.5-.6-.9-.4zm-16.4 8.2c-.4.2-.5.6-.3 1s.6.5 1 .3.5-.6.4-1c-.3-.3-.8-.5-1.1-.3zm70.7 37.6c-.1.4.1.8.4.9h.1c.4.1.8-.1.9-.5.1-.4-.1-.8-.5-1-.3 0-.8.2-.9.6zm-17.4-5.8c-.1.4.1.8.5 1 .4.1.8-.1 1-.5.1-.4-.1-.8-.5-1-.4-.1-.8.1-1 .5zm3.9-80.3c-.3.2-.4.6-.2.9s.6.4.9.2c.3-.2.4-.6.2-.9s-.6-.4-.9-.2zm-13.9 8.7c-.3.2-.4.6-.2.9s.6.4.9.2.4-.6.2-.9c-.1-.3-.5-.4-.9-.2zm-13.9 8.6c-.1.1-.2.1-.3.3-.1.2-.1.4 0 .6.2.3.6.4.9.2.3-.2.4-.6.2-.9-.1-.1-.2-.2-.4-.3-0 0-.2 0-.4.1zm-13.8 8.7c-.3.2-.4.6-.2.9s.6.4.9.2.4-.6.2-.9-.6-.4-.9-.2zm-13.9 8.7c-.3.2-.4.6-.2 1 .2.3.6.4.9.2s.4-.6.2-.9c-.2-.4-.6-.5-.9-.3zm66.5 33.7c-.1.4.1.7.5.8.3.1.7-.1.8-.5.1-.4-.1-.7-.5-.8-.3-.1-.7.1-.8.5zm-15.9-3.7c-.1.4.1.7.5.8.3.1.7-.1.8-.5.1-.4-.1-.7-.5-.8-.3-.1-.7.1-.8.5zm-15.9-3.7c-.1.4.1.7.5.8.3.1.7-.1.8-.4 0 0 0 0 0-.1.1-.4-.1-.7-.5-.8-.4-.1-.7.1-.8.5zm-16-3.7c-.1.4.2.7.5.8.4.1.7-.2.8-.5.1-.4-.1-.7-.5-.8-.3-.1-.7.2-.8.5zm-15.9-3.7c-.1.4.1.7.5.8s.7-.1.8-.5-.1-.7-.5-.8c-.4 0-.7.2-.8.5zm4-46.8c-.2.3-.1.7.2 1 .3.2.7.1 1-.2.2-.3.1-.7-.2-.9-.4-.2-.8-.1-1 .1zm-9.5 13.4c-.2.3-.2.7.1.9.3.2.7.1 1-.2.2-.3.1-.7-.2-1-.2-.1-.6 0-.9.3zm62 13.3c.1.4.4.6.8.5s.6-.4.5-.8-.4-.6-.8-.6c-.3.2-.5.6-.5.9zm-16.1 2.7c.1.4.4.6.8.5s.6-.4.5-.8c0-.4-.4-.6-.7-.6-.4.2-.7.6-.6.9zm-16.1 2.7c0 .4.4.6.7.6.4-.1.6-.4.6-.8-.1-.4-.4-.6-.8-.6-.3.1-.6.4-.5.8zm-16.2 2.7c.1.4.4.6.8.6.1 0 .3-.1.4-.2.1-.2.2-.4.2-.6-.1-.4-.4-.6-.8-.5-.4 0-.6.4-.6.7zm4.4-40.3c-.2.2-.2.4 0 .6s.4.2.6 0 .2-.4 0-.6c-.2-.2-.4-.2-.6 0zm-7 6.5c-.2.2-.2.4 0 .6s.4.2.6 0 .2-.4 0-.6c-.2-.1-.5-.1-.6 0zm-7.1 6.6c-.2.1-.2.4 0 .5.1.2.4.2.5.1.2-.1.2-.4 0-.5-.1-.2-.3-.2-.5-.1zm-7 6.6c-.2.2-.2.4 0 .6s.4.2.6 0c.2-.1.2-.4 0-.5-.2-.2-.5-.2-.6-.1zm35.2 18.6c0 .2.2.4.4.4s.4-.2.4-.4-.2-.4-.4-.4c-.2 0-.4.2-.4.4zm-9.6-.3c0 .2.1.4.4.4.2 0 .4-.2.4-.4 0-.2-.2-.4-.4-.4s-.4.1-.4.4zm-9.6-.4c0 .2.1.4.4.4.2 0 .4-.2.4-.4s-.2-.4-.4-.4c-.3 0-.4.2-.4.4zm-9.7-.3v.1c.1.2.2.3.4.3s.4-.2.4-.4c0-.2-.1-.3-.3-.4h-.1c-.2 0-.4.2-.4.4zm-8.8-36.1c-.1.2 0 .4.2.5.2.1.4 0 .5-.2.1-.2 0-.4-.2-.5s-.4-.1-.5.2c0-.1 0-.1 0 0zm29.6 17.7c-.2.1-.3.3-.2.5.1.2.3.3.5.2.2-.1.3-.3.2-.5 0-.1-.3-.2-.5-.2zm-9 3.4c-.2.1-.3.3-.2.5.1.2.3.3.5.2s.3-.3.2-.5c-.1-.1-.3-.2-.5-.2zm-9.1 3.4c-.2.1-.3.3-.2.5s.3.3.5.2.3-.3.2-.5c0-.2-.2-.3-.5-.2zm-9 3.4c-.2.1-.3.3-.2.5s.3.3.5.2.3-.3.2-.5c-.1-.2-.3-.3-.5-.2zm25.9 27c-.1.2 0 .4.2.5.2.1.4 0 .5-.2s0-.4-.2-.5c-.1-.1-.4 0-.5.2zm-8.7-4c-.1.2 0 .4.2.5.2.1.4 0 .5-.2.1-.2 0-.4-.2-.5s-.5 0-.5.2zm-8.8-4c-.1.2 0 .4.2.5s.5 0 .5-.2 0-.5-.2-.5c-.2-.1-.4 0-.5.2zm22.2-55.1c-.2.1-.3.4-.1.6.1.2.4.3.6.2.2-.1.3-.4.1-.6-.1-.3-.4-.4-.6-.2zm-9.3 5.9c-.2.1-.3.4-.1.6.1.2.4.3.6.1.2-.1.3-.4.1-.6-.1-.2-.3-.3-.6-.1zm-9.2 5.9c-.3.1-.3.4-.2.6s.4.3.6.1h.1c.2-.2.2-.4.1-.6s-.4-.2-.6-.1zm-9.3 6-.1.1v.1c-.1.1-.1.3 0 .4.1.2.4.3.6.1.2-.1.3-.4.1-.6-.1-.2-.4-.3-.6-.1zm35.8 28.1c0 .2.1.5.4.5.2.1.5-.1.5-.3.1-.2-.1-.5-.3-.5 0 0 0 0-.1 0-.2-.1-.5 0-.5.3zm-10.8-2.4c0 .2.1.5.4.5.2.1.5-.1.5-.3.1-.2-.1-.5-.3-.6-.3 0-.5.2-.6.4zm-10.8-2.3c0 .2.1.5.4.5.2.1.5-.1.5-.3.1-.2-.1-.5-.3-.5 0 0 0 0-.1 0-.2-.1-.4 0-.5.3zm-10.7-2.4c0 .2.1.5.4.5.2.1.5-.1.5-.3.1-.2-.1-.5-.3-.5 0 0 0 0-.1 0-.2-.1-.5.1-.5.3zm-8.6-33.1c-.1.2-.1.5.1.6s.5.1.6-.1c.1-.2.1-.5-.1-.6-.2-.1-.4-.1-.6.1zm35.9 17.1c-.2 0-.4.3-.4.5.1.2.3.4.5.3.2 0 .4-.3.4-.5 0-.1 0-.1-.1-.2 0-.1-.2-.1-.4-.1zm-11.2 2.5c.1.2.3.4.6.4.2-.1.4-.3.3-.6 0-.2-.3-.4-.5-.3-.3 0-.4.2-.4.5zm-10.8 1.9c0 .2.3.4.5.4s.4-.3.4-.5-.3-.4-.5-.4c-.3 0-.5.2-.4.5zm-10.9 1.9c0 .2.3.4.5.3.2 0 .4-.3.4-.5 0-.2-.3-.4-.5-.4-.3.1-.4.4-.4.6zm23.9 35.1c-.1.2-.1.5.1.6.2.1.5.1.6-.1.2-.2.1-.5-.1-.6-.1-.1-.4-.1-.6.1zm-9-6.3c-.1.2-.1.5.1.6s.5.1.6-.1c.1-.2.1-.5-.1-.6-.2-.1-.5-.1-.6.1zm-9-6.3c-.1.2-.1.5.1.6.2.1.5.1.6-.1s.1-.5-.1-.6-.5-.1-.6.1zm72.4-45.1c.1.4.5.7.9.7.4-.1.7-.5.6-.9s-.5-.7-.9-.7c-.4.1-.7.5-.6.9zm-18.7 2.9c.1.4.5.7.9.6s.7-.5.6-.9-.5-.7-.9-.6-.7.5-.6.9zm-18.7 2.9c.1.4.4.7.9.7.4-.1.7-.4.7-.9-.1-.4-.5-.7-.9-.7-.4.1-.7.5-.7.9zm-18.6 3c.1.4.5.7.9.6.4-.1.7-.5.6-.9s-.5-.7-.9-.6c-.4.1-.7.5-.6.9zm-18.7 2.9c.1.4.5.7.9.6s.7-.5.6-.9-.5-.7-.9-.7c-.4.2-.7.6-.6 1zm56.1 65c-.3.4-.2.8.2 1.1.3.2.8.2 1.1-.2.2-.4.2-.9-.2-1.1-.3-.2-.8-.1-1.1.2zm-15.2-11.1c-.3.3-.2.8.2 1.1.3.3.8.2 1.1-.2.3-.3.2-.8-.2-1.1-.4-.2-.9-.2-1.1.2zm-15.3-11.1c-.3.3-.2.8.1 1.1.4.2.9.2 1.1-.2s.2-.8-.2-1.1c-.3-.3-.7-.2-1 .2zm-15.3-11.1c-.3.3-.2.8.1 1.1.4.2.8.2 1.1-.2.2-.4.2-.8-.2-1.1-.2-.3-.7-.2-1 .2.1-.1 0-.1 0 0zm-15.3-11.2c-.2.4-.2.8.2 1.1s.8.2 1.1-.2c.2-.3.2-.8-.2-1.1-.3-.2-.8-.1-1.1.2zm69.7 4.6c-.1.4.2.8.6.9.4.1.8-.1 1-.6.1-.4-.2-.8-.6-1-.5 0-.9.3-1 .7zm-18.4-4.4c-.1.4.1.8.5.9.4.1.8-.1.9-.6.1-.4-.2-.9-.6-1-.2 0-.6.2-.8.7zm-18.3-4.4c-.1.4.2.8.6.9s.8-.2.9-.6-.2-.8-.6-.9c-.4-.1-.8.1-.9.6 0-.1 0 0 0 0zm-18.4-4.5c-.1.4.2.8.6.9s.8-.2.9-.6-.2-.8-.6-.9-.8.2-.9.6zm61.2 1.9c-.1.4.2.8.6.9s.8-.2.9-.6-.2-.8-.6-.9-.8.2-.9.6zm-18.5-3.7c-.1.4.2.8.6.9s.8-.2.9-.6-.2-.8-.6-.9c-.4 0-.8.2-.9.6zm-18.4-3.6c-.1.4.2.8.6.9s.8-.2.9-.6-.2-.8-.6-.9-.8.2-.9.6zm-18.5-3.6c-.1.4.2.8.6.9.4.1.8-.2.9-.6s-.2-.8-.6-.9c-.4-.1-.8.1-.9.6zm-18.4-3.7c-.1.4.2.8.6.9.3.1.6 0 .8-.3 0-.1 0-.1 0-.1.1-.1.1-.1.1-.2.1-.4-.2-.8-.6-.9-.5-.1-.9.2-.9.6zm26.7-16.9c.1.4.5.7.9.6s.7-.5.6-.9-.5-.7-.9-.6c-.4.1-.7.5-.6.9zm-18.5 3.8c.1.4.5.7.9.6s.7-.5.6-.9-.5-.7-.9-.6c-.4 0-.6.4-.6.9zm42.1 59.1c-.2.3-.1.8.2 1.1.4.2.8.1 1.1-.2.2-.4.2-.8-.2-1.1-.3-.3-.8-.2-1.1.2.1-.1 0-.1 0 0zm-15.6-10.5c-.2.3-.1.8.2 1.1.4.2.8.1 1.1-.2.2-.4.2-.8-.2-1.1s-.9-.2-1.1.2zm-15.7-10.4c-.2.4-.1.8.2 1.1.4.2.8.1 1.1-.2.2-.4.2-.8-.2-1.1-.3-.3-.8-.2-1.1.2zm-15.7-10.5c-.2.4-.1.8.2 1.1.4.2.8.1 1.1-.2.2-.4.1-.8-.2-1.1-.3-.2-.8-.1-1.1.2.1 0 .1 0 0 0zm38.2.1c-.1.3 0 .6.2.8h.1c.3.1.6 0 .8-.3.1-.3 0-.6-.3-.8-.3-.1-.7 0-.8.3zm-13.1-5.6c-.1.3 0 .6.3.8.3.1.6 0 .8-.3.1-.3 0-.6-.3-.8-.3-.1-.6-0-.8.3zm-13-5.6c-.1.3 0 .6.3.8.3.1.6 0 .8-.3.1-.3 0-.6-.3-.8-.3-.1-.7-0-.8.3zm-13.1-5.6c-.1.3 0 .7.3.8s.6 0 .8-.3c.1-.3 0-.6-.3-.7-.3-.2-.6-.1-.8.2zm37.9-13c0 .3.2.6.6.6.3 0 .6-.3.6-.6s-.3-.6-.6-.6-.6.2-.6.6c0-.1 0 0 0 0zm-14.2-.2c0 .3.2.6.6.6.3 0 .6-.2.6-.6 0-.3-.3-.6-.6-.6s-.6.3-.6.6zm-14.2-.2c0 .3.3.6.6.6s.6-.2.6-.5c0-.3-.2-.6-.5-.6-.4-.1-.7.2-.7.5zm-14.2-.1c0 .3.3.6.6.6.3 0 .6-.2.6-.5 0-.3-.2-.6-.6-.6-.3-.1-.6.1-.6.5zm21.8 50.2c-.2.2-.3.6 0 .8.2.2.6.3.8 0 .2-.2.2-.6 0-.8-.2-.3-.5-.3-.8 0zm-9.9-10.2c-.2.2-.2.6 0 .8s.6.2.8 0 .2-.6 0-.8-.6-.2-.8 0zm-9.9-10.2c-.2.2-.3.6 0 .8.2.2.6.2.8 0s.2-.6 0-.8-.6-.2-.8 0zm.2-20.1c-.1.1 0 .3.1.4.2.1.4.1.5-.1.1-.1 0-.3-.1-.4-.2-.1-.4 0-.5.1zm21.5-4.1c-.2.2-.1.5.1.7.2.2.5.1.7-.1.2-.2.1-.6-.1-.7-.2-.3-.5-.2-.7.1zm-22.6 14.2c-.2.2-.3.5-.1.7s.5.3.7.1.3-.5.1-.7c-.1-.2-.4-.3-.7-.1z" fill="#fff" opacity=".86"/><path d="m55 47.8h100v51.9h-100z" fill="url(#h-i4)"/><path d="m86.2 47.8h39.2v51.9h-39.2z" fill="url(#j-i4)"/><path d="m66.1 139.7h100v53.5h-100z" fill="url(#k-i4)"/><path d="m97.3 139.7h39.2v53.5h-39.2z" fill="url(#l-i4)"/><path d="m19.8 99.1h307.5v13.5h-307.5z" fill="url(#m-i4)"/><path d="m55 60.4h100v1h-100z" fill="url(#n-i4)"/><path d="m55 73.5h100v1h-100z" fill="url(#o-i4)"/><path d="m55 87.3h100v1h-100z" fill="url(#p-i4)"/><path d="m66.1 152.6h100v1h-100z" fill="url(#q-i4)"/><path d="m66.1 166.8h100v1h-100z" fill="url(#r-i4)"/><path d="m66.1 180.5h100v1h-100z" fill="url(#s-i4)"/><path d="m327.8 193.7-169 11.7v-199.8l170 11.7z" fill="url(#t-i4)"/><path d="m144 187.2 14.8 10.5v-184.4l-14.8 10.4z" fill="#d6d7d8"/><path d="m200.4 156.9-6-13.7 42-32 6 13.7-35.8 32.7z" fill="url(#u-i4)"/><ellipse cx="242.8" cy="116.4" fill="url(#v-i4)" rx="19" ry="25.1"/><path d="m249.8 93.1-7.2-.9h-4.8v-44.4h12z" fill="url(#w-i4)"/><path d="m242.6 47.8h12v64h-12z" fill="url(#x-i4)"/><path d="m290.3 143.8-6 13.7-41.9-32 6-13.7z" fill="url(#y-i4)"/><path d="m292.5 138.9-6 13.7-41.9-32 6-13.7z" fill="url(#z-i4)"/><path d="m206.6 157.6-6-13.7 42-32 6 13.7z" fill="url(#A-i4)"/><ellipse cx="248.6" cy="116.1" fill="url(#B-i4)" rx="19" ry="25.1"/><ellipse cx="248.6" cy="116.1" fill="url(#C-i4)" rx="8.6" ry="11.4"/><path d="m224 120.6s3.8 1.2 6 .8l-29.4 22.4-6.2-.7c5-4.8 28.9-21.8 29.6-22.5z" fill="url(#D-i4)"/><path d="m325.2 69.3v-31.3h7.2v31.3z" fill="url(#F-i4)"/><path d="m325.2 175.2v-31.2h7.2v31.2z" fill="url(#G-i4)"/><ellipse cx="151.6" cy="79.7" fill="url(#H-i4)" rx="2.9" ry="7.4"/><ellipse cx="151.5" cy="107" fill="url(#I-i4)" rx="2.9" ry="7.4"/><ellipse cx="151.5" cy="133.4" fill="url(#J-i4)" rx="2.9" ry="7.4"/></svg></g><!--ITEM: Illustration component 5--><g transform="translate(530.625 832.5) rotate(0.0 79.6875 144.375)  scale(7.774390243902439 7.7)"><svg width="20.5" height="37.5" viewBox="0.0 0.0 20.5 37.5"><linearGradient id="a-i5" gradientUnits="userSpaceOnUse" x1="0" x2="20.5277" y1="18.7715" y2="18.7715"><stop offset="0" stop-color="#f1b505" fill="#000000"/><stop offset="1" stop-color="#d89c05" fill="#000000"/></linearGradient><linearGradient id="b-i5"><stop offset="0" stop-color="#23286b" fill="#000000"/><stop offset="1" stop-color="#151a4f" fill="#000000"/></linearGradient><linearGradient xmlns:xlink="http://www.w3.org/1999/xlink" id="c-i5" gradientUnits="userSpaceOnUse" x1=".000236" x2="20.5277" xlink:href="#b-i5" y1="4.7364" y2="4.7364"/><linearGradient xmlns:xlink="http://www.w3.org/1999/xlink" id="d-i5" gradientUnits="userSpaceOnUse" x1=".000236" x2="20.5277" xlink:href="#b-i5" y1="9.5939" y2="9.5939"/><linearGradient xmlns:xlink="http://www.w3.org/1999/xlink" id="e-i5" gradientUnits="userSpaceOnUse" x1=".000236" x2="20.5277" xlink:href="#b-i5" y1="14.8106" y2="14.8106"/><linearGradient xmlns:xlink="http://www.w3.org/1999/xlink" id="f-i5" gradientUnits="userSpaceOnUse" x1=".000236" x2="20.5277" xlink:href="#b-i5" y1="19.6339" y2="19.6339"/><linearGradient xmlns:xlink="http://www.w3.org/1999/xlink" id="g-i5" gradientUnits="userSpaceOnUse" x1=".000236" x2="20.5277" xlink:href="#b-i5" y1="24.3624" y2="24.3624"/><linearGradient xmlns:xlink="http://www.w3.org/1999/xlink" id="h-i5" gradientUnits="userSpaceOnUse" x1=".000236" x2="20.5277" xlink:href="#b-i5" y1="29.0919" y2="29.0919"/><linearGradient xmlns:xlink="http://www.w3.org/1999/xlink" id="i-i5" gradientUnits="userSpaceOnUse" x1=".000236" x2="20.5277" xlink:href="#b-i5" y1="33.8526" y2="33.8526"/><path d="m0 0h20.5v37.5h-20.5z" fill="url(#a-i5)"/><path d="m0 4.2h20.5v1h-20.5z" fill="url(#c-i5)"/><path d="m0 9.1h20.5v1h-20.5z" fill="url(#d-i5)"/><path d="m0 14.3h20.5v1h-20.5z" fill="url(#e-i5)"/><path d="m0 19.1h20.5v1h-20.5z" fill="url(#f-i5)"/><path d="m0 23.9h20.5v1h-20.5z" fill="url(#g-i5)"/><path d="m0 28.6h20.5v1h-20.5z" fill="url(#h-i5)"/><path d="m0 33.4h20.5v1h-20.5z" fill="url(#i-i5)"/></svg></g><!--ITEM: Illustration component 6--><g transform="translate(495.0 1659.375) rotate(0.0 70.3125 78.75)  scale(7.174744897959183 7.126696832579185)"><svg width="19.6" height="22.1" viewBox="0.0 0.0 19.6 22.1"><linearGradient id="a-i6" gradientUnits="userSpaceOnUse" x1="0" x2="19.6176" y1="11.0575" y2="11.0575"><stop offset="0" stop-color="#f1b505" fill="#000000"/><stop offset="1" stop-color="#d89c05" fill="#000000"/></linearGradient><linearGradient id="b-i6"><stop offset="0" stop-color="#23286b" fill="#000000"/><stop offset="1" stop-color="#151a4f" fill="#000000"/></linearGradient><linearGradient xmlns:xlink="http://www.w3.org/1999/xlink" id="c-i6" gradientUnits="userSpaceOnUse" x1=".000111" x2="19.6178" xlink:href="#b-i6" y1="4.2924" y2="4.2924"/><linearGradient xmlns:xlink="http://www.w3.org/1999/xlink" id="d-i6" gradientUnits="userSpaceOnUse" x1=".000111" x2="19.6178" xlink:href="#b-i6" y1="9.021" y2="9.021"/><linearGradient xmlns:xlink="http://www.w3.org/1999/xlink" id="e-i6" gradientUnits="userSpaceOnUse" x1=".000111" x2="19.6178" xlink:href="#b-i6" y1="13.7495" y2="13.7495"/><linearGradient xmlns:xlink="http://www.w3.org/1999/xlink" id="f-i6" gradientUnits="userSpaceOnUse" x1=".000111" x2="19.6178" xlink:href="#b-i6" y1="18.5112" y2="18.5112"/><path d="m0 0h19.6v22.1h-19.6z" fill="url(#a-i6)"/><path d="m0 3.8h19.6v1h-19.6z" fill="url(#c-i6)"/><path d="m0 8.5h19.6v1h-19.6z" fill="url(#d-i6)"/><path d="m0 13.2h19.6v1h-19.6z" fill="url(#e-i6)"/><path d="m0 18h19.6v1h-19.6z" fill="url(#f-i6)"/></svg></g><!--ITEM: Illustration component 7--><g transform="translate(841.875 1543.125) rotate(0.0 75.0 135.0)  scale(7.317073170731708 7.2)"><svg width="20.5" height="37.5" viewBox="0.0 0.0 20.5 37.5"><linearGradient id="a-i7" gradientUnits="userSpaceOnUse" x1="0" x2="20.5277" y1="18.7715" y2="18.7715"><stop offset="0" stop-color="#f1b505" fill="#000000"/><stop offset="1" stop-color="#d89c05" fill="#000000"/></linearGradient><linearGradient id="b-i7"><stop offset="0" stop-color="#23286b" fill="#000000"/><stop offset="1" stop-color="#151a4f" fill="#000000"/></linearGradient><linearGradient xmlns:xlink="http://www.w3.org/1999/xlink" id="c-i7" gradientUnits="userSpaceOnUse" x1=".000236" x2="20.5277" xlink:href="#b-i7" y1="4.7364" y2="4.7364"/><linearGradient xmlns:xlink="http://www.w3.org/1999/xlink" id="d-i7" gradientUnits="userSpaceOnUse" x1=".000236" x2="20.5277" xlink:href="#b-i7" y1="9.5939" y2="9.5939"/><linearGradient xmlns:xlink="http://www.w3.org/1999/xlink" id="e-i7" gradientUnits="userSpaceOnUse" x1=".000236" x2="20.5277" xlink:href="#b-i7" y1="14.8106" y2="14.8106"/><linearGradient xmlns:xlink="http://www.w3.org/1999/xlink" id="f-i7" gradientUnits="userSpaceOnUse" x1=".000236" x2="20.5277" xlink:href="#b-i7" y1="19.6339" y2="19.6339"/><linearGradient xmlns:xlink="http://www.w3.org/1999/xlink" id="g-i7" gradientUnits="userSpaceOnUse" x1=".000236" x2="20.5277" xlink:href="#b-i7" y1="24.3624" y2="24.3624"/><linearGradient xmlns:xlink="http://www.w3.org/1999/xlink" id="h-i7" gradientUnits="userSpaceOnUse" x1=".000236" x2="20.5277" xlink:href="#b-i7" y1="29.0919" y2="29.0919"/><linearGradient xmlns:xlink="http://www.w3.org/1999/xlink" id="i-i7" gradientUnits="userSpaceOnUse" x1=".000236" x2="20.5277" xlink:href="#b-i7" y1="33.8526" y2="33.8526"/><path d="m0 0h20.5v37.5h-20.5z" fill="url(#a-i7)"/><path d="m0 4.2h20.5v1h-20.5z" fill="url(#c-i7)"/><path d="m0 9.1h20.5v1h-20.5z" fill="url(#d-i7)"/><path d="m0 14.3h20.5v1h-20.5z" fill="url(#e-i7)"/><path d="m0 19.1h20.5v1h-20.5z" fill="url(#f-i7)"/><path d="m0 23.9h20.5v1h-20.5z" fill="url(#g-i7)"/><path d="m0 28.6h20.5v1h-20.5z" fill="url(#h-i7)"/><path d="m0 33.4h20.5v1h-20.5z" fill="url(#i-i7)"/></svg></g></svg>