<svg xmlns="http://www.w3.org/2000/svg" version="1.1" viewBox="0 0 3000 2250" width="3000" height="2250">
<defs/><!--ITEM: Illustration component 1--><g transform="translate(885.0 226.875) rotate(0.0 524.0625 858.75)  scale(3.0831195801809645 3.078398336679094)"><svg width="339.956" height="557.92" viewBox="0.0 0.0 339.956 557.92"><linearGradient id="a-i1" gradientTransform="matrix(0 1 -1 0 7528.658 -5498.951)" gradientUnits="userSpaceOnUse" x1="5793.673" x2="5838.91" y1="7244.452" y2="7244.452"><stop offset="0" stop-color="#23286b" fill="#000000"/><stop offset=".432" stop-color="#1d225f" fill="#000000"/><stop offset="1" stop-color="#151a4f" fill="#000000"/></linearGradient><path d="m0 0h339.956v557.92h-339.956z" fill="#d6d7d8"/><path d="m21.481 19.898h298.408v538.022h-298.408z" fill="#eee"/><path d="m284.591 339.959h-.77a7.706 7.706 0 0 1 -7.7-7.7v-29.84a7.706 7.706 0 0 1 7.7-7.7h.77a7.706 7.706 0 0 1 7.7 7.7v29.843a7.706 7.706 0 0 1 -7.7 7.697zm-.77-42.237a4.7 4.7 0 0 0 -4.7 4.7v29.843a4.7 4.7 0 0 0 4.7 4.7h.77a4.7 4.7 0 0 0 4.7-4.7v-29.846a4.7 4.7 0 0 0 -4.7-4.7z" fill="url(#a-i1)"/></svg></g><!--ITEM: Illustration component 2--><g transform="translate(1201.875 519.375) rotate(0.0 206.25 206.25)  scale(3.0880602489912334 3.0880602489912334)"><svg width="133.579" height="133.579" viewBox="0.0 0.0 133.579 133.579"><circle cx="66.79" cy="66.79" fill="#e94a47" r="66.79"/><circle cx="66.79" cy="66.79" fill="#fff" r="55.085"/><path d="m8.715 59.918h118.19v13.19h-118.19z" fill="#e94a47" transform="matrix(-.70710678 .70710678 -.70710678 -.70710678 162.791 65.595)"/></svg></g><!--ITEM: Illustration component 3--><g transform="translate(1695.0 450.0) rotate(0.0 442.5 747.1875)  scale(3.0318706127804482 3.0406292156778965)"><svg width="291.899" height="491.469" viewBox="0.0 0.0 291.899 491.469"><linearGradient id="a-i3" gradientUnits="userSpaceOnUse" x1="67.241" x2="167.904" y1="465.621" y2="465.621"><stop offset=".129" stop-color="#428dfc" fill="#000000"/><stop offset=".999" stop-color="#1d72d8" fill="#000000"/></linearGradient><linearGradient id="b-i3" gradientTransform="matrix(.97433865 -.2250871 .2250871 .97433865 547.784 2131.491)" gradientUnits="userSpaceOnUse" x1="-31.742" x2="-76.577" y1="-2050.469" y2="-2120.213"><stop offset="0" stop-color="#ffbeb6" fill="#000000"/><stop offset="1" stop-color="#f2a19c" fill="#000000"/></linearGradient><linearGradient id="c-i3" gradientUnits="userSpaceOnUse" x1="198.803" x2="170.108" y1="114.089" y2="195.392"><stop offset="0" stop-color="#23286b" fill="#000000"/><stop offset="1" stop-color="#151a4f" fill="#000000"/></linearGradient><linearGradient xmlns:xlink="http://www.w3.org/1999/xlink" id="d-i3" gradientTransform="translate(0 -198)" x1="151.167" x2="153.744" xlink:href="#b-i3" y1="294.43" y2="250.977"/><path d="m153.613 451.73 14.287 39.739h-100.659s5.14-9.9 22.439-17.3 33.22-22.44 33.22-22.44l15.624-11.958 15.089 11.958" fill="url(#a-i3)"/><path d="m269.137 451.73 14.291 39.739h-100.663s5.14-9.9 22.439-17.3 33.221-22.44 33.221-22.44l18.725-7.738 11.987 7.738" fill="#428dfc"/><path d="m202.007 254.512c-9.151 23.094-25.689 41.758-21.929 65.285s10.076 33.035 4.772 49.164c-2.29 6.966-5.118 19.25-.276 41.846 4.562 21.293-10.761 40.923-10.761 40.923h-51.038s-4.642-66.772-3.263-107 2.776-50.112 7.787-70.947c4-16.62 20.679-80.857 20.679-80.857l8.775-.759c21.938 6.18 42.873 4.445 58.542 1.193 1.755 13.88-5.515 41.419-13.288 61.152z" fill="#81aef2"/><path d="m291.306 451.73h-53.881s-52.8-81.742-67.344-108.2-15.919-86.4-18.932-112.548c-1.717-14.9-4.521-26.64-4.521-41.144 26.952 8.24 54-7.908 70.8-12.462 8.427 7.67 10.746 30.429 5.743 59.557-4.338 25.259-6.192 54.722-1.586 66.5 5.879 15.033 24.48 27.781 29.406 46.791 5.029 19.4.473 23.89 6.8 36.022 7.585 14.54 38.77 42.201 33.515 65.484z" fill="#a1c3fc"/><path d="m197.512 202.567a.508.508 0 0 0 -.376.108.365.365 0 0 0 .125.325.509.509 0 0 0 .376-.108c.125-.217 0-.325-.125-.325zm-5.767-2.06a.509.509 0 0 0 -.376.108.365.365 0 0 0 .125.325.512.512 0 0 0 .377-.108c0-.217 0-.325-.126-.325zm-12.661 18.215c0-.109-.251-.217-.376-.109-.125 0-.251.217-.125.325 0 .109.25.217.376.109.125-.109.25-.217.125-.325zm-2.382-4.988a.146.146 0 0 0 -.251-.108c-.125 0-.25.217-.125.325s.251.217.376.108c0 0 .125-.216 0-.325zm-2.382-4.987c0-.109-.25-.217-.376-.109s-.25.217-.125.326c0 .108.251.216.376.108.125 0 .125-.108.125-.325zm-2.382-4.988c0-.108-.25-.216-.376-.108-.125.108-.25.217-.125.325 0 .109.251.217.376.109.125 0 .125-.217.125-.326zm16.046 6.289a.257.257 0 0 0 -.376 0 .188.188 0 0 0 0 .325.257.257 0 0 0 .376 0c.126-.108.126-.325 0-.325zm-4.387-3.9a.257.257 0 0 0 -.376 0l-.126.108c0 .109 0 .109.126.217h.251c.125 0 .125-.217.125-.325zm-4.513-3.8a.257.257 0 0 0 -.376 0 .188.188 0 0 0 0 .325.257.257 0 0 0 .376 0c.125 0 .125-.217 0-.325zm-13.284 15.723a.219.219 0 1 0 .251.217c0-.109 0-.217-.251-.217zm0-5.421a.219.219 0 1 0 0 .434.255.255 0 0 0 .251-.217.254.254 0 0 0 -.251-.217zm38.234.434a.628.628 0 0 0 -.626 0 .606.606 0 0 0 0 .65.906.906 0 0 0 .752 0 .6.6 0 0 0 -.126-.65zm-8.9-6.723a.913.913 0 0 0 -.752 0 .608.608 0 0 0 0 .651.913.913 0 0 0 .752 0 .612.612 0 0 0 0-.651zm-18.181 39.249a.438.438 0 1 0 0 .867.506.506 0 0 0 .5-.433c0-.326-.25-.434-.5-.434zm-.878-10.192a.507.507 0 0 0 -.5.434.507.507 0 0 0 1 0c0-.325-.126-.434-.5-.434zm-.752-10.191a.438.438 0 1 0 0 .867.508.508 0 0 0 .5-.434c0-.325-.251-.433-.5-.433zm-.877-10.192a.508.508 0 0 0 -.5.434.507.507 0 0 0 1 0c0-.325-.251-.434-.5-.434zm-.752-10.191a.438.438 0 1 0 .5.433c0-.325-.251-.542-.5-.433zm44.376-2.6a.486.486 0 0 0 -.626.217c-.126.217 0 .434.25.542a.486.486 0 0 0 .627-.216.356.356 0 0 0 -.251-.543zm-11.156-3.252a.486.486 0 0 0 -.627.217c-.126.217 0 .433.251.542a.486.486 0 0 0 .626-.217c.126-.217 0-.434-.25-.542zm-6.77 36.429a.486.486 0 0 0 -.627-.216c-.25.108-.376.325-.25.542a.486.486 0 0 0 .626.217c.377-.109.377-.326.251-.543zm-5.265-9.107a.487.487 0 0 0 -.627-.217c-.25.109-.376.325-.25.542a.485.485 0 0 0 .626.217c.251-.108.376-.325.251-.542zm-5.265-9.216a.487.487 0 0 0 -.627-.217c-.25.109-.376.326-.25.542a.485.485 0 0 0 .626.217.356.356 0 0 0 .251-.542zm-5.265-9.107a.487.487 0 0 0 -.627-.217c-.251.108-.376.325-.251.542a.487.487 0 0 0 .627.217c.251-.108.376-.325.251-.542zm-25.824 20.6a.486.486 0 0 0 -.627.217c-.125.217 0 .433.251.542s.5-.109.627-.325c.125-.109 0-.326-.251-.434zm3.761-9.65a.487.487 0 0 0 -.627.217c-.125.217 0 .434.251.542a.486.486 0 0 0 .627-.217c.125-.325 0-.542-.251-.542zm3.761-9.758c-.251-.108-.5.109-.627.326s0 .433.251.542a.486.486 0 0 0 .626-.217.457.457 0 0 0 -.25-.651zm38.735 13.878c-.125-.216-.376-.216-.626-.108s-.251.325-.126.542.376.217.627.109c.125-.217.251-.434.125-.543zm-5.641-7.806c0-.108-.125-.108-.125-.108h-.376c-.251.108-.251.325-.125.542.125.217.376.217.626.108.126 0 .126-.108.126-.217a.364.364 0 0 0 -.126-.325zm-5.641-7.7c-.125-.217-.376-.217-.627-.108s-.25.325-.125.542.376.217.627.108c.251-.108.376-.433.125-.542zm-27.2 29.382c-.25 0-.5.109-.5.326 0 .216.125.433.251.433.25 0 .5-.108.5-.325.125-.217-.125-.434-.251-.434zm2.382-8.89c-.251 0-.5.108-.5.325 0 .217.125.434.25.434.251 0 .5-.109.5-.326.125-.216-.125-.433-.251-.433zm2.382-8.891c-.251 0-.5.109-.5.325a.274.274 0 0 0 .25.434c.251 0 .5-.108.5-.325 0-.217-.126-.434-.251-.434zm2.256-8.89c-.25 0-.5.108-.5.325a.393.393 0 0 0 .376.434c.251 0 .5-.109.5-.326a.394.394 0 0 0 -.377-.433zm2.382-8.891c-.25 0-.5.109-.5.325a.393.393 0 0 0 .376.434c.251 0 .5-.108.5-.325a.393.393 0 0 0 -.376-.434zm38.861 7.481c-.25-.108-.5-.108-.626.109a.347.347 0 0 0 .125.542.48.48 0 0 0 .627-.109c.125-.108 0-.325-.126-.542zm-8.649-5.2c-.251-.108-.5-.108-.627.108s-.125.434.125.542.5.109.627-.108.125-.434-.125-.542zm-17.174 29.274a.394.394 0 0 0 -.377.433c0 .217.251.326.5.326a.393.393 0 0 0 .376-.434c-.125-.217-.251-.434-.5-.325zm-1.755-9a.394.394 0 0 0 -.377.433c0 .217.251.326.5.326a.393.393 0 0 0 .376-.434.367.367 0 0 0 -.5-.325zm-1.755-9a.394.394 0 0 0 -.377.433c0 .217.251.326.5.326a.393.393 0 0 0 .376-.434.367.367 0 0 0 -.5-.325zm-1.755-9a.394.394 0 0 0 -.377.433c0 .109 0 .109.126.217a.506.506 0 0 0 .376.109.393.393 0 0 0 .376-.434.367.367 0 0 0 -.5-.325zm-27.705 12.035c-.251-.109-.5-.109-.627.108s-.125.434.126.542.5.109.627-.108a.433.433 0 0 0 -.126-.542zm53.779-9.65a.259.259 0 0 0 -.376 0 .188.188 0 0 0 0 .325.257.257 0 0 0 .376 0 .188.188 0 0 0 0-.325zm-4.262-3.9a.257.257 0 0 0 -.376 0 .187.187 0 0 0 0 .325.257.257 0 0 0 .376 0 .188.188 0 0 0 0-.325zm-4.262-3.9a.257.257 0 0 0 -.376 0 .187.187 0 0 0 0 .325.259.259 0 0 0 .376 0 .188.188 0 0 0 0-.325zm-16.175 15.713a.219.219 0 1 0 .251.217.253.253 0 0 0 -.251-.217zm.126-5.421a.253.253 0 0 0 -.251.217.253.253 0 0 0 .251.216.219.219 0 1 0 0-.433zm.251-5.313a.254.254 0 0 0 -.251.217.253.253 0 1 0 .251-.217zm29.208-8.131a.509.509 0 0 0 -.376.108.365.365 0 0 0 .125.325.508.508 0 0 0 .376-.108.365.365 0 0 0 -.125-.325zm-17.174 14.311a.146.146 0 0 0 -.251-.108c-.125 0-.25.108-.125.325 0 .108.251.217.376.108 0-.108.125-.216 0-.325zm-2.131-4.987c0-.109-.251-.217-.376-.109-.126 0-.251.217-.126.326 0 .108.251.216.376.108a.364.364 0 0 0 .126-.325zm-2.257-5.1c0-.108-.25-.217-.376-.108-.125 0-.25.216-.125.325a.146.146 0 0 0 .251.108c.25-.108.376-.217.25-.325zm-19.556 9.433a.511.511 0 0 0 -.376.108.364.364 0 0 0 .126.325c.125.109.25 0 .376-.108s0-.321-.126-.321zm2.633-4.879a.509.509 0 0 0 -.376.108.365.365 0 0 0 .125.325.508.508 0 0 0 .376-.108c0-.109 0-.325-.125-.325zm2.507-4.879a.509.509 0 0 0 -.376.108.365.365 0 0 0 .125.325.512.512 0 0 0 .377-.108c.125-.217 0-.325-.126-.325zm35.6 12.36a.506.506 0 0 0 -.376-.109.367.367 0 0 0 -.125.326.508.508 0 0 0 .376.108c.125 0 .25-.217.125-.325zm-3.886-5.2a.506.506 0 0 0 -.376-.109.365.365 0 0 0 -.126.325.508.508 0 0 0 .377.109c.25 0 .25-.109.125-.325zm-3.761-5.1a.506.506 0 0 0 -.376-.109c-.125 0-.125.217-.125.326a.259.259 0 0 0 .376 0c.125 0 .251-.109.125-.217zm-21.938 14.745a.681.681 0 0 0 -.376.217c0 .108 0 .217.251.325a.509.509 0 0 0 .376-.108c0-.217-.125-.434-.251-.434zm1.505-5.963a.674.674 0 0 0 -.376.217c0 .108 0 .217.25.325.126 0 .376 0 .376-.217 0-.217-.125-.325-.25-.325zm1.5-6.072a.684.684 0 0 0 -.376.217c0 .109 0 .217.251.325a.361.361 0 0 0 .376-.217c0-.108-.126-.216-.251-.325zm1.5-5.963c-.125 0-.376.108-.376.217s0 .217.251.325a.36.36 0 0 0 .376-.217c0-.217-.125-.325-.251-.325zm27.2-1.3c-.125-.108-.376-.108-.376.108-.125.109 0 .326.125.326.126.108.251 0 .376-.109a.485.485 0 0 0 -.125-.325zm-16.91 16.591c0-.108-.126-.216-.376-.216-.126 0-.251.108-.251.325 0 .108.125.217.376.217h.125c.126-.109.251-.217.126-.326zm-1.5-6.288c-.125 0-.25.217-.25.325s.25.217.376.217.25-.108.25-.325a.674.674 0 0 0 -.376-.217zm-1.258-6.072c-.126 0-.251.109-.251.326 0 .108.125.217.376.217.126 0 .251-.109.251-.326a.684.684 0 0 0 -.376-.217zm-23.944 7.265c-.125-.109-.25 0-.376.108-.125.109 0 .217.126.325a.257.257 0 0 0 .376 0 .581.581 0 0 0 -.126-.433zm4.137-4.988c-.125-.108-.376 0-.376.109-.125.108 0 .217.125.325a.259.259 0 0 0 .376 0c0-.217 0-.325-.125-.434zm33.1 35.346a.385.385 0 0 0 -.376.542c0 .217.251.433.627.325a.386.386 0 0 0 .376-.542c-.005-.217-.256-.325-.629-.325zm-1.881-10.409a.386.386 0 0 0 -.376.542c0 .217.251.434.627.326a.386.386 0 0 0 .376-.543.712.712 0 0 0 -.627-.325zm-1.88-10.408c-.251 0-.5.217-.376.433s.251.434.5.326a.386.386 0 0 0 .377-.542.38.38 0 0 0 -.5-.217zm-1.88-10.409a.385.385 0 0 0 -.376.542c0 .217.25.434.626.326a.385.385 0 0 0 .376-.542c-.125-.217-.376-.434-.626-.326zm-1.881-10.408a.386.386 0 0 0 -.376.542.367.367 0 0 0 .5.325.386.386 0 0 0 .376-.542.367.367 0 0 0 -.5-.325zm-42 31.334a.656.656 0 0 0 -.752.108.465.465 0 0 0 .125.651.659.659 0 0 0 .753-.109c.25-.325.125-.542-.126-.65zm7.271-8.566a.658.658 0 0 0 -.752.109.462.462 0 0 0 .125.65c.251.217.5.109.752-.108a.6.6 0 0 0 -.125-.651zm7.145-8.565a.659.659 0 0 0 -.752.108.464.464 0 0 0 .126.651.659.659 0 0 0 .752-.108.464.464 0 0 0 -.126-.651zm7.146-8.457a.657.657 0 0 0 -.752.109.462.462 0 0 0 .125.65.656.656 0 0 0 .752-.108.448.448 0 0 0 -.125-.651zm37.858 5.965a.513.513 0 0 0 -.752-.108.381.381 0 0 0 -.125.65.513.513 0 0 0 .752.109.463.463 0 0 0 .125-.651zm-6.393-9a.514.514 0 0 0 -.752-.108.448.448 0 0 0 -.126.65c.126.217.5.217.752.109a.464.464 0 0 0 .126-.651zm-27.2 33.394c-.251-.108-.5.109-.627.325-.125.217.126.434.376.542a.71.71 0 0 0 .627-.325c0-.325-.125-.542-.376-.542zm2.883-10.3c-.25-.108-.5.109-.627.325-.125.217.126.434.377.542.25.109.5-.108.626-.325a.59.59 0 0 0 -.376-.542zm2.758-10.191a.711.711 0 0 0 -.627.325.592.592 0 0 0 .376.542c.251.108.5-.109.627-.325.126-.326 0-.542-.376-.542zm2.883-10.3a.711.711 0 0 0 -.626.326.59.59 0 0 0 .376.542.712.712 0 0 0 .626-.325c.126-.217-.125-.434-.376-.543zm-1.131 34.151a.714.714 0 0 0 -.627.325c-.125.217.126.434.376.543a.711.711 0 0 0 .627-.326c0-.217-.125-.542-.376-.542zm2.257-10.3a.712.712 0 0 0 -.627.325.591.591 0 0 0 .376.543.712.712 0 0 0 .627-.326.369.369 0 0 0 -.376-.542zm2.381-10.3a.712.712 0 0 0 -.626.325c-.126.217.125.434.376.543a.713.713 0 0 0 .627-.326c.125-.217-.126-.433-.377-.542zm2.382-10.3a.715.715 0 0 0 -.627.325.59.59 0 0 0 .377.542.71.71 0 0 0 .626-.325.59.59 0 0 0 -.376-.542zm-29.083-5.1a.479.479 0 0 0 -.627-.108.349.349 0 0 0 -.125.542c.125.217.5.217.752.108 0-.108.125-.325 0-.542zm42.246 9.758c-.251 0-.5.326-.376.542 0 .217.376.434.627.326.25 0 .5-.326.376-.542 0-.217-.251-.434-.627-.326zm-2.382-10.3c-.251 0-.5.325-.376.542s.376.434.627.326c.251 0 .376-.217.376-.543 0-.216-.251-.433-.627-.325zm-38.109 23.419c-.251-.108-.5-.108-.627.109a.463.463 0 0 0 .126.65.656.656 0 0 0 .752-.108c.125-.217 0-.434-.251-.651zm6.769-8.673c-.25-.109-.5-.109-.626.108a.462.462 0 0 0 .125.65.656.656 0 0 0 .752-.108c0-.217 0-.542-.251-.65zm6.77-8.783a.657.657 0 0 0 -.752.109.462.462 0 0 0 .125.65.656.656 0 0 0 .752-.108.448.448 0 0 0 -.125-.651zm6.644 12.577c-.126-.108-.376 0-.5.109-.125.217 0 .325.251.433s.376 0 .5-.216c-0-.105-0-.322-.251-.322zm3.635-7.264a.41.41 0 0 0 -.5.108c-.126.217 0 .326.251.434s.376 0 .5-.217c0-.108-.125-.325-.251-.325zm3.636-7.373c-.251-.108-.376 0-.5.217s0 .325.251.434.376 0 .5-.217a.789.789 0 0 0 -.25-.434zm3.51-7.264c-.251-.108-.376 0-.5.217s0 .325.251.434c.125.108.376 0 .5-.109.126-.217 0-.433-.25-.542zm8.524 13.228q-.377 0-.376.325 0 .325.376.325.377 0 .376-.325t-.376-.325zm.125-7.915c-.25 0-.376.108-.376.325s.126.325.376.325q.377 0 .376-.325 0-.326-.376-.325zm-32.217 4.236a.428.428 0 0 0 -.5 0 .3.3 0 0 0 0 .434.428.428 0 0 0 .5 0 .3.3 0 0 0 0-.434zm6.519-5.529a.426.426 0 0 0 -.5 0 .3.3 0 0 0 0 .433.426.426 0 0 0 .5 0 .3.3 0 0 0 0-.433zm28.08-.217c-.125 0-.25 0-.25.108s0 .217.125.217a.465.465 0 0 0 .251-.108c0-.109-.126-.109-.126-.217zm.752-4.229c-.125 0-.25 0-.25.109 0 .108 0 .217.125.217.125 0 .251 0 .251-.109.125-.108 0-.217-.126-.217zm-6.639 11.055c-.125-.108-.376 0-.5.109-.125.108-.125.325.125.325a.334.334 0 0 0 .5-.108c.125-.109.125-.217-.126-.326zm4.388-6.071c-.125-.109-.376 0-.5.108s0 .326.126.434c.125.108.376 0 .5-.108.126-.217.126-.326-.125-.434zm4.513-6.072c-.126-.108-.376 0-.5.109s0 .325.126.433c.125.109.376 0 .5-.108a.588.588 0 0 0 -.125-.434z" fill="#fff" opacity=".86"/><path d="m78.108 134.464s-26.793-7.556-46.7-23.962c-15.769-13.002-29.008-22.177-30.214-21.256s-2.846 4.388 2.727 9.019 9.774 7.778 8 11.791-8.8 15.928 6.394 19.88 18.406-.521 25.493 7.877c4.464 5.4 12.313 14.271 15.913 20.387z" fill="url(#b-i3)"/><path d="m235.3 196.992s-46.376 30.671-119.728 9.275c0 0 28.941-112.6 29.943-127.514 0 0 16.184-3.316 18.564-12.272 16.541 14.427 68.849 49.145 71.221 130.511z" fill="url(#c-i3)"/><path d="m159.034 71.309a287.807 287.807 0 0 1 31.466 30.944c12.48 50.124-5.742 77.622-25.779 96.146-20.714 18.938-49.307 16.022-59.888 10.876-4.492-2.179-15.054-6.687-32.276-2.708-17.344 4.007-33.489-7.96-33.489-7.96l26.771-68.457c42.314 16.086 55.2 10.022 69.267-1.463 16.788-13.656 13.256-72.4 13.256-72.4 4.061 4.213 5.938 11.228 10.672 15.022z" fill="#23286b"/><path d="m164.419 67.077c-3.1 9.977-18.9 11.8-18.9 11.8.377-9.4-1.371-20.971-3.349-24.795a65.728 65.728 0 0 0 16.09-2.15 54.407 54.407 0 0 0 6.159 15.145z" fill="url(#d-i3)"/><path d="m169.433 22.306c12.657 13.536-2.571 31.777-11.395 32.792-6.017 1.63-21.655 1.717-26.294-4.3-4.387-5.641-3.134-11.533-4.513-12.034s-4.011-2.132-3.76-3.636 5.265-4.763 7.145-10.029a4.617 4.617 0 0 1 .627-1.378.388.388 0 0 1 .125-.251c1.379-3.134 2.076-8.049 4.834-10.306-.002 0 20.585-4.383 33.231 9.142z" fill="#ffbeb6"/><path d="m242.687 137.672c-4.137-6.9-10.959-11.586-16.6-16.976-10.53-9.9-1.952-22.512-3.457-34.3a14.647 14.647 0 0 0 -3.635-10.53c-6.519-7.4-17.966-7.858-25.636-18.583-3.067-4.283-5.734-16.004-6.708-22.783-1.457-10.14-2.163-23.513-17.987-31.623-11.511-5.9-23.791-1.459-28.868 2.042-5.165 3.56-8.143 8.046-6.3 12.462 0 0 2.144-3.75 3.3-4.086 0 0 5.392 13.752 19.648 12.264 3.026-.316 9.4-.263 7.975 5.274-1.118 4.352-6.553 5.283-6.788 6.066-2.758 11.659-.371 29.881 21.621 44.008 29.412 18.893 26.345 70.174 27.474 74.937l35.71 2.009s2.006-17.174-11.658-28.958-14.166-13.914-11.659-24.821c.627-2.757 1.379-5.515 1.881-8.148-1.129 7.9-3.134 16.046 1.88 23.066 3.51 4.764 9.151 7.647 13.163 11.909a43.453 43.453 0 0 1 11.533 26.7.564.564 0 0 0 1.128 0 45.015 45.015 0 0 0 -6.017-19.929z" fill="#e94a47"/><path d="m137.526 24.72a4.821 4.821 0 0 1 -6.629.673 4.9 4.9 0 0 1 -1.517-2.307c-.182-.65.882-1.166 1.051-.391a3.525 3.525 0 0 0 4.383 2.615 3.768 3.768 0 0 0 1.893-1.183c.316-.6 1.246.134.819.593z" fill="#1c2868"/></svg></g><!--ITEM: Illustration component 4--><g transform="translate(468.75 965.625) rotate(0.0 272.8125 489.375)  scale(2.9158472456766638 2.899158170368308)"><svg width="187.124" height="337.598" viewBox="0.0 0.0 187.124 337.598"><linearGradient id="a-i4" gradientUnits="userSpaceOnUse" x1="-35.72" x2="32.043" y1="294.013" y2="330.038"><stop offset="0" stop-color="#e94a47" fill="#000000"/><stop offset=".992" stop-color="#d62929" fill="#000000"/></linearGradient><linearGradient id="b-i4" gradientUnits="userSpaceOnUse" x1="-28.656" x2="32.196" y1="157.17" y2="230.369"><stop offset="0" stop-color="#23286b" fill="#000000"/><stop offset="1" stop-color="#151a4f" fill="#000000"/></linearGradient><linearGradient id="c-i4" gradientUnits="userSpaceOnUse" x1="91.148" x2="19.783" y1="94.258" y2="165.623"><stop offset="0" stop-color="#a1c3fc" fill="#000000"/><stop offset="1" stop-color="#81aef2" fill="#000000"/></linearGradient><linearGradient id="d-i4" gradientTransform="matrix(.9901022 -.14034828 .14034828 .9901022 -37.803 1207.995)" gradientUnits="userSpaceOnUse" x1="271.045" x2="287.179" y1="-1115.645" y2="-1141.172"><stop offset="0" stop-color="#ffbeb6" fill="#000000"/><stop offset="1" stop-color="#f29b94" fill="#000000"/></linearGradient><linearGradient id="e-i4" gradientTransform="matrix(-.854 .52 .52 .854 17300.116 -6397.763)" gradientUnits="userSpaceOnUse" x1="18109.028" x2="18109.028" y1="-3307.711" y2="-3380.746"><stop offset="0" stop-color="#ffbeb6" fill="#000000"/><stop offset="1" stop-color="#f2a19c" fill="#000000"/></linearGradient><linearGradient xmlns:xlink="http://www.w3.org/1999/xlink" id="f-i4" x1="127.802" x2="127.802" xlink:href="#e-i4" y1="193.626" y2="189.238"/><path d="m125.819 94.542s21.756-10.623 28.242-22.981 8.652-19.942 13.364-22.568c6.722-3.747 18.191-4.723 19.428-2.551 1.061 1.863-1.018 1.853-5.759 3.212a16.537 16.537 0 0 0 -5.809 2.8c-.419.378 3.61 1.42 4.327 2.887.817 1.673.14 5.156-.846 8.083-2.07 6.144.356 6.246-11.806 9.864-8.826 2.347-19.478 40.633-37.827 54.115s-2.331-32.742-3.314-32.858 3.314 32.857 3.314 32.857" fill="#ffbeb6"/><path d="m150.243 118.627a119.26 119.26 0 0 1 -42.228 20.541 47.674 47.674 0 0 1 -35.783-5.5c-22.738-13.771-38.708-24.366-21.321-59.6 2.851-5.784 18.089-19.678 18.668-20.268l10.633 6.662s-3.047 8.77 1.143 15.421c8.325 22.217 37.345 17.049 52.654.193z" fill="#81aef2"/><path d="m10.748 309.458-10.748 27.804 77.9.224s-6.7-8.173-19.57-14.219-19.369-13.809-19.369-13.809z" fill="url(#a-i4)"/><path d="m39.394 309.458-10.748 27.8 77.9.336a60.832 60.832 0 0 0 -19.57-14.331c-12.763-6.046-19.369-13.809-19.369-13.809h-28.213" fill="#e94a47"/><path d="m3.941 309.57s-3.181-26.842 7.119-54.27 13.84-23.541 17.14-42.2c3.563-20.142-3.679-59.148-3.679-59.148l39.521 1.538s4.062 55.52 1.039 69.627-22.425 84.453-22.425 84.453z" fill="url(#b-i4)"/><path d="m19.688 147.99s5.375 27.678 14.332 48.726 1.232 32.132-2.127 49.71-8.15 47.246-.425 63.144l36.251-.112s11.381-72.317 11.381-88.104-3.321-73.364-3.321-73.364z" fill="#23286b"/><path d="m40.038 168.709c0-.112-.112-.112-.224-.112s-.112.112-.112.224.112.112.224.112c.112 0 .224-.112.112-.224zm-10.684 2.691c0-.112-.112-.112-.224-.112s-.112.112-.112.224.112.112.224.112c.112 0 .224-.112.112-.224zm12.146-9.2c0-.112-.112-.112-.224-.112-.112 0-.112.112-.112.224s.112.112.224.112.112-.112.112-.224zm-2.9 24.521c-.224 0-.335.224-.335.448a.357.357 0 0 0 .335.336c.224 0 .336-.224.336-.448.112-.224-.112-.336-.336-.336zm2.166-6.3c-.224 0-.336.224-.336.448 0 .224.224.336.448.336s.336-.224.336-.448c-.112-.112-.224-.336-.448-.336zm.392-8.192c-.224 0-.336.224-.336.448a.358.358 0 0 0 .336.336.358.358 0 0 0 .336-.336c.112-.336-.112-.448-.336-.448zm-3.458-6.229c-.224 0-.336.224-.336.448 0 .223.224.335.448.335s.336-.224.336-.447-.224-.448-.448-.336zm-9.388.265c-.224-.112-.448 0-.448.224-.112.224 0 .447.224.447.224.112.336 0 .448-.224.112-.111 0-.335-.224-.447zm-.759-6c-.224-.112-.448 0-.448.224-.112.224 0 .336.224.448.224.112.447 0 .447-.224.112-.224 0-.448-.223-.448zm3.422 18.635a.582.582 0 0 0 -.448.224c0 .224 0 .336.224.448a.582.582 0 0 0 .448-.224c.112-.221.001-.333-.224-.448zm2.261-4.578a.582.582 0 0 0 -.448.224.581.581 0 0 0 .224.447.354.354 0 1 0 .224-.671zm.336-8.229a.582.582 0 0 0 -.448.224c0 .112 0 .336.224.336a.582.582 0 0 0 .448-.224c0-.112-.112-.224-.224-.336zm4.276-8.59a.354.354 0 1 0 .224.448c0-.221-.112-.445-.224-.445zm10.908 21.185c-.224 0-.336.224-.224.448 0 .224.224.336.336.224a.358.358 0 0 0 .336-.336c0-.224-.224-.448-.448-.336zm-4.525-7.949c-.224 0-.336.224-.224.448 0 .224.224.336.336.224.224 0 .336-.224.224-.336 0-.224-.224-.448-.336-.336zm-12.17-7.131c-.224 0-.336.224-.224.336 0 .223.224.335.336.223.224 0 .336-.223.224-.335 0-.112-.224-.224-.336-.224zm3.733-.5c-.112 0-.224 0-.224.112 0 .112 0 .224.112.224s.224 0 .224-.112a.391.391 0 0 1 -.112-.225zm8.225 13.4c-.112 0-.224 0-.224.112 0 .112 0 .224.112.224s.224 0 .224-.112a.391.391 0 0 1 -.112-.232zm-9.126 2.735c-.112 0-.224 0-.224.112 0 .112 0 .224.112.224s.224 0 .224-.112a.391.391 0 0 1 -.112-.228zm10.132-11.408a.241.241 0 0 0 -.224.224c0 .112 0 .224.112.224s.224 0 .224-.112c.112-.224 0-.336-.112-.336zm-11.437-7.785c-.112-.112-.224 0-.335 0-.112.112 0 .224 0 .336.111.112.223 0 .335 0 .224-.224.112-.336 0-.336zm-1.247 8.789c-.224-.112-.448-.112-.56.112s-.112.447.112.559c.224.112.448.112.56-.112s.112-.447-.112-.559zm5.486-7.5a.392.392 0 0 0 -.56.112c-.112.224-.112.448.112.56s.448.112.56-.112a.493.493 0 0 0 -.112-.56zm7.453 19.537c-.224 0-.448.112-.448.224 0 .224.112.448.224.448.224 0 .448-.112.448-.336.112-.112-.112-.336-.224-.336zm3.3-6.549c-.224 0-.448.112-.448.224 0 .223.112.447.224.447.224 0 .448-.112.448-.335.112-.112 0-.336-.224-.336zm3.579 9.292c-.224 0-.448.112-.448.336s.112.448.336.448.448-.112.448-.336-.112-.448-.336-.448zm-13.95-13.243c-.224-.112-.448-.112-.56.112-.112.224-.112.448.112.56s.448.112.56-.112a.39.39 0 0 0 -.112-.56zm3.76-5.568c-.224-.112-.448-.112-.56.112-.112.224-.112.448.112.56s.448.112.56-.112c.112-.112 0-.336-.112-.56z" fill="#fff" opacity=".86"/><path d="m96.35 155.887c-47.022 11.644-83.724-12.114-83.724-12.114 0-9.692.8-20.619 7.6-28.244 9.572-10.723 8.252-18.018 17.479-31.69 15.832-23.456 31.874-30.039 31.874-30.039 8.089 0 12.34 1.169 17.266 5.536-.866 47.133 9.505 96.551 9.505 96.551z" fill="url(#c-i4)"/><path d="m86.81 60.581c-7.57-1.7-12.99-3.906-17.231-6.786 0 0 5.4-11.4 4.987-13.485l1.218.619a.388.388 0 0 1 -.079.237 3.5 3.5 0 0 1 -.825 1.361l.633.476c.237.079.379.285.617.365l2.943 1.618a23.663 23.663 0 0 0 9.037 3.129 72.877 72.877 0 0 0 -1.3 12.466z" fill="url(#d-i4)"/><path d="m96.694 45.472c5.391-3.843 6.9-10.493 8.249-10.666s4.106-1.119 4.041-2.5c.041-1.415-3.144-5.524-4.47-10.581-.993-3.784-1.367-6.91-1.561-7.554-5.581-4.45-12.756-5.852-21.671-1.99-11.667 5.052-17.664 11.43-17.229 20.836 2.97 6.35 11.643 11.056 11.311 11.507l.7.375c.246.042.418.225.665.267l3.153 1.156c5.673 2.151 11.85 2.864 16.812-.85z" fill="#ffbeb6"/><path d="m52.621 14.7s.57 3.312 2.085 8.753a28.324 28.324 0 0 0 5.223 10.821c5.671 7.126 14.789 10.259 17.859 11.047a8.175 8.175 0 0 0 .138-3.818 4.467 4.467 0 0 0 -.153-.492c-.026-.08-.06-.16-.093-.24a3.673 3.673 0 0 0 -.381-.69 3.331 3.331 0 0 0 -.765-.807 4.165 4.165 0 0 0 -1.1-.608 13.479 13.479 0 0 1 -3.309-1.753 7.115 7.115 0 0 1 -1.387-1.32c-.007 0-.007 0-.008-.006a4.589 4.589 0 0 1 -.48-.738 3.548 3.548 0 0 1 -.4-2.31v-.007a4.1 4.1 0 0 1 .374-1.158s-.008-.006 0-.007a5.406 5.406 0 0 1 .469-.812 4.277 4.277 0 0 1 1.031-1.1c2.164-1.544 4.258 1.495 7.387-.2 3.52-1.907 6.214-7.836 6.366-8.177a.007.007 0 0 0 .006-.008l.008.006c3.315.955 11.281 2.336 17.06-.353.257-.117.513-.24.768-.371 5.8-2.8 11.856-7.032 12.49-20.353z" fill="#23286b"/><path d="m102.385 42.609a.5.5 0 0 1 -.5-.45 2.4 2.4 0 0 0 -4.263-1.26.5.5 0 0 1 -.78-.626 3.4 3.4 0 0 1 6.038 1.785.5.5 0 0 1 -.447.548z" fill="#23286b"/><path d="m98.716 187.792c12.129 11.349 9.17 10.764 13.462 17.646 3.5 5.6 8.816 4.559 15.983.239 9.438-5.689.668-11.678.668-11.678a8.557 8.557 0 0 0 3.14.305 1.294 1.294 0 0 0 .567-2.381c-8.183-5.482-8.509-6.172-16.294-7.291-9.046-.2-30.765-36.053-32.64-39.384-4.107 5.241-13.054 8.377-18.569 12.108 2.967 1.781 23.709 21.103 33.683 30.436z" fill="url(#e-i4)"/><path d="m70.2 55.4s-40.3 80.408-1.67 128.054c0 0 37.467-31.491 39.871-32.968 0 0-26.173-42.021-25.306-89.9a40.778 40.778 0 0 1 -6.66-1.936c-4.914-1.721-6.235-3.25-6.235-3.25z" fill="#a1c3fc"/><path d="m128.829 194-6.305-4.181s6.845 3.457 10.283 2.337c0-.001 1.832 3.137-3.978 1.844z" fill="url(#f-i4)"/></svg></g></svg>