<svg xmlns="http://www.w3.org/2000/svg" version="1.1" viewBox="0 0 3000 2000" width="3000" height="2000">
<defs/><!--ITEM: Illustration component 1--><g transform="translate(1121.25 585.0) rotate(0.0 722.5 21.25)  scale(1.7183969556427638 1.7)"><svg width="840.9" height="25.0" viewBox="0.0 0.0 840.9 25.0"><linearGradient id="a-i1" gradientUnits="userSpaceOnUse" x1="819.7618" x2="16.4023" y1="11.8651" y2="13.175"><stop offset="0" stop-color="#eee" fill="#000000"/><stop offset="1" stop-color="#d6d7d8" fill="#000000"/></linearGradient><path d="m0 0h840.9v25h-840.9z" fill="url(#a-i1)"/></svg></g><!--ITEM: Illustration component 2--><g transform="translate(926.25 353.75) rotate(0.0 715.0 583.125)  scale(2.2410280520294625 2.2397733819857883)"><svg width="638.1" height="520.7" viewBox="0.0 0.0 638.1 520.7"><linearGradient id="a-i2"><stop offset="0" stop-color="#a1c3fc" fill="#000000"/><stop offset=".6955" stop-color="#81aef2" fill="#000000"/><stop offset="1" stop-color="#78a9ef" fill="#000000"/></linearGradient><linearGradient xmlns:xlink="http://www.w3.org/1999/xlink" id="b-i2" gradientUnits="userSpaceOnUse" x1="285.0525" x2="352.5879" xlink:href="#a-i2" y1="389.1052" y2="389.1052"/><linearGradient xmlns:xlink="http://www.w3.org/1999/xlink" id="c-i2" gradientUnits="userSpaceOnUse" x1="0" x2="638.0653" xlink:href="#a-i2" y1="195.0824" y2="195.0824"/><linearGradient xmlns:xlink="http://www.w3.org/1999/xlink" id="d-i2" gradientUnits="userSpaceOnUse" x1="95.7592" x2="541.4562" xlink:href="#a-i2" y1="497.2703" y2="497.2703"/><linearGradient id="e-i2" gradientUnits="userSpaceOnUse" x1="29.6312" x2="608.7342" y1="185.161" y2="185.161"><stop offset="0" stop-color="#23286b" fill="#000000"/><stop offset="1" stop-color="#151a4f" fill="#000000"/></linearGradient><linearGradient id="f-i2"><stop offset="0" stop-color="#428dfc" fill="#000000"/><stop offset=".6994" stop-color="#1d72d8" fill="#000000"/></linearGradient><linearGradient xmlns:xlink="http://www.w3.org/1999/xlink" id="g-i2" gradientUnits="userSpaceOnUse" x1="580.6357" x2="592.3112" xlink:href="#f-i2" y1="366.5319" y2="366.5319"/><linearGradient id="h-i2"><stop offset="0" stop-color="#eee" fill="#000000"/><stop offset="1" stop-color="#dce3ea" fill="#000000"/></linearGradient><linearGradient xmlns:xlink="http://www.w3.org/1999/xlink" id="i-i2" gradientTransform="matrix(.9826 -.186 .186 .9826 -244.3058 752.4111)" gradientUnits="userSpaceOnUse" x1="472.4896" x2="494.281" xlink:href="#h-i2" y1="-570.9745" y2="-570.9745"/><linearGradient xmlns:xlink="http://www.w3.org/1999/xlink" id="j-i2" gradientTransform="matrix(.6458 -.7635 .7635 .6458 95.9525 3551.5107)" gradientUnits="userSpaceOnUse" x1="2640.115" x2="2664.4561" xlink:href="#h-i2" y1="-2228.2141" y2="-2228.2141"/><linearGradient id="k-i2" gradientUnits="userSpaceOnUse" x1="72.9703" x2="84.4178" y1="365.6704" y2="365.6704"><stop offset="0" stop-color="#e94a47" fill="#000000"/><stop offset="1" stop-color="#d62929" fill="#000000"/></linearGradient><linearGradient xmlns:xlink="http://www.w3.org/1999/xlink" id="l-i2" gradientUnits="userSpaceOnUse" x1="90.0354" x2="101.483" xlink:href="#f-i2" y1="365.9576" y2="365.9576"/><linearGradient xmlns:xlink="http://www.w3.org/1999/xlink" id="m-i2" gradientUnits="userSpaceOnUse" x1="107.1005" x2="118.5481" xlink:href="#f-i2" y1="366.2448" y2="366.2448"/><path d="m285.1 265.6h67.5v247.1h-67.5z" fill="url(#b-i2)"/><path d="m0 .1h638.1v389.9h-638.1z" fill="url(#c-i2)"/><path d="m95.8 473.8h445.7v46.9h-445.7z" fill="url(#d-i2)"/><path d="m29.6 29h579.1v312.2h-579.1z" fill="url(#e-i2)"/><circle cx="586.5" cy="366.5" fill="url(#g-i2)" r="5.8"/><g fill="#eee"><circle cx="567" cy="366.5" r="4.1"/><circle cx="549.8" cy="366.5" r="4.1"/><circle cx="533.8" cy="366.5" r="4.1"/></g><path d="m137.2 110.2-21.4 4-4.1-21.4 21.4-4z" fill="url(#i-i2)"/><path d="m124.8 86.1-15.8 18.5-18.5-15.7 15.7-18.6z" fill="url(#j-i2)" opacity=".35"/><path d="m84.4 365.7-5.7 5.7-5.7-5.7 5.7-5.8z" fill="url(#k-i2)"/><path d="m101.5 366-5.7 5.7-5.8-5.7 5.8-5.8z" fill="url(#l-i2)"/><path d="m118.5 366.2-5.7 5.8-5.7-5.8 5.7-5.7z" fill="url(#m-i2)"/></svg></g><!--ITEM: Illustration component 3--><g transform="translate(1946.25 372.5) rotate(0.0 132.5 103.75)  scale(2.226890756302521 2.214514407684098)"><svg width="119.0" height="93.7" viewBox="0.0 0.0 119.0 93.7"><linearGradient id="a-i3" gradientTransform="matrix(.9995 -.03310819 .03310819 .9995 -83.8152 142.9905)" gradientUnits="userSpaceOnUse" x1="130.8772" x2="204.942" y1="-98.2702" y2="-98.2702"><stop offset="0" stop-color="#eee" fill="#000000"/><stop offset="1" stop-color="#dce3ea" fill="#000000"/></linearGradient><linearGradient id="b-i3"><stop offset="0" stop-color="#23286b" fill="#000000"/><stop offset="1" stop-color="#151a4f" fill="#000000"/></linearGradient><linearGradient xmlns:xlink="http://www.w3.org/1999/xlink" id="c-i3" gradientUnits="userSpaceOnUse" x1="54.0482" x2="107.6453" xlink:href="#b-i3" y1="26.3744" y2="26.3744"/><linearGradient xmlns:xlink="http://www.w3.org/1999/xlink" id="d-i3" gradientUnits="userSpaceOnUse" x1="57.4895" x2="107.6234" xlink:href="#b-i3" y1="51.2145" y2="51.2145"/><path d="m59 93.7s-7.9-2.3-28.9-11c-19.7-8.1-30-15-30-15l26-59s8.6 4.7 28.7 14.4c17.6 8.5 30.2 11.6 30.2 11.6z" fill="#a1c3fc"/><path d="m119 74s-9.4 1.5-35.4 3c-24.5 1.4-38.6-.6-38.6-.6l-2.5-74s11.3.6 36.9.6c22.5 0 37.1-3 37.1-3z" fill="url(#a-i3)"/><path d="m53.8 34.3c3.9 1.4 7.1-1.2 9.7-3.9s5.5-5 9.4-4.9c2.7 0 5.3 1.1 7.4 2.6.8.5 1.5 1.2 2.1 1.9.2.3.6 1 .6 1.7-.1 1.2-1.9 1.5-2.8 1-.5-.3-.8-.8-.7-1.6.1-1.3.9-2.5 1.7-3.5 2.3-2.9 5.7-5.1 9.1-6.4 1.8-.6 3.8-1.1 5.7-1 .3 0 .6 0 .9.2s.1.1.1-.1c.1.4-.5 1.2-.6 1.6-.2.5-.4.9-.5 1.4-.5 1.7-.5 3.7.5 5.2.9 1.4 2.7 2.2 4.4 2.1 3.3-.3 6.2-3.6 7.7-6.4.9-1.7-1.7-3.2-2.6-1.5s-4.6 6.6-6.9 4.4c-1.3-1.2-.2-3.5.4-4.8.8-1.8.6-3.8-1.4-4.6-1.8-.7-3.9-.5-5.7-.1-2.2.4-4.3 1.3-6.3 2.3-3.4 1.8-6.8 4.5-8.6 8-1.2 2.4-1.5 5.6 1 7.3 1.9 1.2 4.8 1 6.4-.7 1.8-1.9 1.3-4.7-.3-6.5-1.7-2-4.2-3.5-6.6-4.4-3.7-1.4-7.9-1.3-11.4.6-2.4 1.2-4 3.1-5.9 5-1.7 1.7-3.5 3.3-6 2.4-1.8-.9-2.6 2-.8 2.7z" fill="url(#c-i3)"/><path d="m58.9 55.8c3.1-3.3 6.8-6 11.4-6.8 3.1-.5 6.4 0 9.2 1.4 1.2.6 2.4 1.3 3.5 2.1 1.2.9 2.2 2 3.4 2.9 3.5 2.6 7.8 3 11.8 1.2 4.4-2 7.7-5.9 10.2-9.8 1.1-1.6-1.5-3.1-2.6-1.5-2.2 3.4-5.1 6.8-8.9 8.6-1.7.8-3.7 1.2-5.5.7-2.1-.5-3.6-1.9-5.2-3.3-4.6-4.1-10.8-6.2-16.8-5.2-5 .9-9.3 3.9-12.7 7.5-1.2 1.5.9 3.6 2.2 2.2z" fill="url(#d-i3)"/></svg></g><!--ITEM: Illustration component 4--><g transform="translate(965.0 1450.0) rotate(0.0 677.5 34.375)  scale(2.241892786234282 2.224919093851133)"><svg width="604.4" height="30.9" viewBox="0.0 0.0 604.4 30.9"><linearGradient id="a-i4"><stop offset="0" stop-color="#23286b" fill="#000000"/><stop offset="1" stop-color="#151a4f" fill="#000000"/></linearGradient><linearGradient xmlns:xlink="http://www.w3.org/1999/xlink" id="b-i4" gradientUnits="userSpaceOnUse" x1="19.1886" x2="52.5876" xlink:href="#a-i4" y1="12.4901" y2="12.4901"/><linearGradient xmlns:xlink="http://www.w3.org/1999/xlink" id="c-i4" gradientUnits="userSpaceOnUse" x1="65.2241" x2="98.6231" xlink:href="#a-i4" y1="12.4901" y2="12.4901"/><linearGradient xmlns:xlink="http://www.w3.org/1999/xlink" id="d-i4" gradientUnits="userSpaceOnUse" x1="111.2596" x2="144.6586" xlink:href="#a-i4" y1="12.4901" y2="12.4901"/><linearGradient xmlns:xlink="http://www.w3.org/1999/xlink" id="e-i4" gradientUnits="userSpaceOnUse" x1="157.2951" x2="190.6941" xlink:href="#a-i4" y1="12.4901" y2="12.4901"/><linearGradient xmlns:xlink="http://www.w3.org/1999/xlink" id="f-i4" gradientUnits="userSpaceOnUse" x1="203.3306" x2="236.7296" xlink:href="#a-i4" y1="12.4901" y2="12.4901"/><linearGradient xmlns:xlink="http://www.w3.org/1999/xlink" id="g-i4" gradientUnits="userSpaceOnUse" x1="249.3661" x2="282.765" xlink:href="#a-i4" y1="12.4901" y2="12.4901"/><linearGradient xmlns:xlink="http://www.w3.org/1999/xlink" id="h-i4" gradientUnits="userSpaceOnUse" x1="295.4016" x2="328.8005" xlink:href="#a-i4" y1="12.4901" y2="12.4901"/><linearGradient xmlns:xlink="http://www.w3.org/1999/xlink" id="i-i4" gradientUnits="userSpaceOnUse" x1="341.437" x2="374.836" xlink:href="#a-i4" y1="12.4901" y2="12.4901"/><linearGradient xmlns:xlink="http://www.w3.org/1999/xlink" id="j-i4" gradientUnits="userSpaceOnUse" x1="387.4725" x2="420.8715" xlink:href="#a-i4" y1="12.4901" y2="12.4901"/><linearGradient xmlns:xlink="http://www.w3.org/1999/xlink" id="k-i4" gradientUnits="userSpaceOnUse" x1="457.1642" x2="490.5632" xlink:href="#a-i4" y1="12.4901" y2="12.4901"/><linearGradient xmlns:xlink="http://www.w3.org/1999/xlink" id="l-i4" gradientUnits="userSpaceOnUse" x1="502.2899" x2="535.6888" xlink:href="#a-i4" y1="12.4901" y2="12.4901"/><linearGradient xmlns:xlink="http://www.w3.org/1999/xlink" id="m-i4" gradientUnits="userSpaceOnUse" x1="546.5056" x2="579.9046" xlink:href="#a-i4" y1="12.4901" y2="12.4901"/><linearGradient id="n-i4" gradientUnits="userSpaceOnUse" x1="0" x2="604.3812" y1="19.9906" y2="19.9906"><stop offset="0" stop-color="#e94a47" fill="#000000"/><stop offset="1" stop-color="#d62929" fill="#000000"/></linearGradient><path d="m19.2 0h33.4v25h-33.4z" fill="url(#b-i4)"/><path d="m65.2 0h33.4v25h-33.4z" fill="url(#c-i4)"/><path d="m111.3 0h33.4v25h-33.4z" fill="url(#d-i4)"/><path d="m157.3 0h33.4v25h-33.4z" fill="url(#e-i4)"/><path d="m203.3 0h33.4v25h-33.4z" fill="url(#f-i4)"/><path d="m249.4 0h33.4v25h-33.4z" fill="url(#g-i4)"/><path d="m295.4 0h33.4v25h-33.4z" fill="url(#h-i4)"/><path d="m341.4 0h33.4v25h-33.4z" fill="url(#i-i4)"/><path d="m387.5 0h33.4v25h-33.4z" fill="url(#j-i4)"/><path d="m457.2 0h33.4v25h-33.4z" fill="url(#k-i4)"/><path d="m502.3 0h33.4v25h-33.4z" fill="url(#l-i4)"/><path d="m546.5 0h33.4v25h-33.4z" fill="url(#m-i4)"/><path d="m0 9.1h604.4v21.8h-604.4z" fill="url(#n-i4)"/></svg></g><!--ITEM: Illustration component 5--><g transform="translate(177.5 1517.5) rotate(0.0 1323.75 39.375)  scale(3.1484124152693544 3.15)"><svg width="840.9" height="25.0" viewBox="0.0 0.0 840.9 25.0"><linearGradient id="a-i5" gradientUnits="userSpaceOnUse" x1="819.7618" x2="16.4023" y1="11.8651" y2="13.175"><stop offset="0" stop-color="#eee" fill="#000000"/><stop offset="1" stop-color="#d6d7d8" fill="#000000"/></linearGradient><path d="m0 0h840.9v25h-840.9z" fill="url(#a-i5)"/></svg></g><!--ITEM: Illustration component 6--><g transform="translate(2446.25 1411.25) rotate(0.0 108.125 54.375)  scale(2.317792068595927 2.328693790149893)"><svg width="93.3" height="46.7" viewBox="0.0 0.0 93.3 46.7"><linearGradient id="a-i6" gradientUnits="userSpaceOnUse" x1="0" x2="93.3078" y1="23.3269" y2="23.3269"><stop offset="0" stop-color="#428dfc" fill="#000000"/><stop offset=".6994" stop-color="#1d72d8" fill="#000000"/></linearGradient><path d="m0 46.7c0-25.8 20.9-46.7 46.7-46.7s46.7 20.9 46.7 46.7z" fill="url(#a-i6)"/></svg></g><!--ITEM: Illustration component 7--><g transform="translate(340.0 495.0) rotate(0.0 236.25 512.5)  scale(3.3653846153846154 3.3507682249101016)"><svg width="140.4" height="305.9" viewBox="0.0 0.0 140.4 305.9"><linearGradient id="a-i7" gradientUnits="userSpaceOnUse" x1="0" x2="140.3822" y1="288.6325" y2="288.6325"><stop offset="0" stop-color="#428dfc" fill="#000000"/><stop offset=".6994" stop-color="#1d72d8" fill="#000000"/></linearGradient><linearGradient id="b-i7"><stop offset="0" stop-color="#23286b" fill="#000000"/><stop offset="1" stop-color="#151a4f" fill="#000000"/></linearGradient><linearGradient xmlns:xlink="http://www.w3.org/1999/xlink" id="c-i7" gradientUnits="userSpaceOnUse" x1="85.3181" x2="95.6891" xlink:href="#b-i7" y1="14.5686" y2="14.5686"/><linearGradient xmlns:xlink="http://www.w3.org/1999/xlink" id="d-i7" gradientUnits="userSpaceOnUse" x1="102.6869" x2="113.058" xlink:href="#b-i7" y1="14.5686" y2="14.5686"/><linearGradient xmlns:xlink="http://www.w3.org/1999/xlink" id="e-i7" gradientUnits="userSpaceOnUse" x1="27.3242" x2="37.6952" xlink:href="#b-i7" y1="14.5686" y2="14.5686"/><linearGradient xmlns:xlink="http://www.w3.org/1999/xlink" id="f-i7" gradientUnits="userSpaceOnUse" x1="44.6931" x2="55.0641" xlink:href="#b-i7" y1="14.5686" y2="14.5686"/><linearGradient id="g-i7" gradientUnits="userSpaceOnUse" x1="64.4386" x2="75.9436" y1="14.1429" y2="14.1429"><stop offset="0" stop-color="#e94a47" fill="#000000"/><stop offset="1" stop-color="#d62929" fill="#000000"/></linearGradient><linearGradient xmlns:xlink="http://www.w3.org/1999/xlink" id="h-i7" gradientUnits="userSpaceOnUse" x1="37.6952" x2="100.3669" xlink:href="#b-i7" y1="52.0956" y2="52.0956"/><path d="m0 0h140.4v271.4h-140.4z" fill="#a1c3fc"/><path d="m0 0h140.4l-27.5 37.7h-85.4z" fill="#89b3f4"/><path d="m0 271.4h140.4l-27.5-233.7h-85.4z" fill="#78a9ef"/><path d="m140.4 271.4h-140.4l27.5 34.5h85.4z" fill="url(#a-i7)"/><path d="m95.7 16.5h-10.4v-3.9h10.4z" fill="url(#c-i7)"/><path d="m113.1 16.5h-10.4v-3.9h10.4z" fill="url(#d-i7)"/><path d="m37.7 16.5h-10.4v-3.9h10.4z" fill="url(#e-i7)"/><path d="m55.1 16.5h-10.4v-3.9h10.4z" fill="url(#f-i7)"/><circle cx="70.2" cy="14.1" fill="url(#g-i7)" r="5.8"/><path d="m37.7 50.7h62.7v2.8h-62.7z" fill="url(#h-i7)"/></svg></g><!--ITEM: Illustration component 8--><g transform="translate(2395.0 553.75) rotate(0.0 138.125 287.5)  scale(2.2830578512396693 2.286282306163022)"><svg width="121.0" height="251.5" viewBox="0.0 0.0 121.0 251.5"><linearGradient id="a-i8"><stop offset="0" stop-color="#428dfc" fill="#000000"/><stop offset=".6994" stop-color="#1d72d8" fill="#000000"/></linearGradient><linearGradient xmlns:xlink="http://www.w3.org/1999/xlink" id="b-i8" gradientUnits="userSpaceOnUse" x1="47.1382" x2="34.5771" xlink:href="#a-i8" y1="78.813" y2="78.8335"/><linearGradient id="c-i8" gradientUnits="userSpaceOnUse" x1="21.7283" x2="60.238" y1="160.8005" y2="160.8005"><stop offset="0" stop-color="#eee" fill="#000000"/><stop offset="1" stop-color="#d6d7d8" fill="#000000"/></linearGradient><linearGradient xmlns:xlink="http://www.w3.org/1999/xlink" id="d-i8" gradientUnits="userSpaceOnUse" x1="35.5339" x2="90.4228" xlink:href="#a-i8" y1="199.3762" y2="199.3762"/><linearGradient id="e-i8" gradientUnits="userSpaceOnUse" x1="81.9335" x2="121.0286" y1="236.8693" y2="236.8693"><stop offset="0" stop-color="#e94a47" fill="#000000"/><stop offset="1" stop-color="#d62929" fill="#000000"/></linearGradient><path d="m47.4 157.6h-13v-151.1c0-3.6 2.9-6.5 6.5-6.5 3.6 0 6.5 2.9 6.5 6.5z" fill="url(#b-i8)"/><circle cx="41" cy="160.8" fill="#23286b" r="41"/><circle cx="41" cy="160.8" fill="url(#c-i8)" r="19.3"/><path d="m90.4 243c-12.5 0-23.2-4.4-31.8-13.2-19.3-19.5-22.5-55.2-23.1-68.7-.1-2.9 2.2-5.3 5.1-5.3 2.7 0 4.9 2.2 5 4.8.5 12.3 3.5 45.2 20.2 62.1 6.7 6.8 14.8 10.2 24.6 10.2z" fill="url(#d-i8)"/><ellipse cx="101.5" cy="236.9" fill="url(#e-i8)" rx="19.5" ry="14.7"/></svg></g></svg>