<?xml version="1.0" encoding="UTF-8"?><svg version="1.1" xmlns="http://www.w3.org/2000/svg" xmlns:xlink="http://www.w3.org/1999/xlink" viewBox="0 0 1200 800" width="1200" height="800" x="0px" y="0px">
    
    
    <!-- ITEM 0 -->
    <g>
        <defs>
            <clipPath id="clip-path-id-viewbox-item-0">
                <rect x="0.0" y="0.0" width="307.119" height="229.909"/>
            </clipPath>
        </defs>
        <g transform="translate(46.0 241.0) rotate(0.0 352.5 263.0) scale(2.2955271409453664 2.287861719201945)">
            <g clip-path="url(#clip-path-id-viewbox-item-0)" transform="translate(-0.0 -0.0)">
                
<g>
	<rect x="121.322" y="148.638" fill="#D6D7D8" width="69.889" height="77.764"/>
	<rect x="78.01" y="223.88" fill="#428DFC" width="156.513" height="6.029"/>
	<linearGradient id="SVGID_1_-i0" gradientUnits="userSpaceOnUse" x1="0" y1="99.42" x2="307.1193" y2="99.42">
		<stop offset="0" style="stop-color:#EEEEEE"/>
		<stop offset="1" style="stop-color:#D6D7D8"/>
	</linearGradient>
	<rect x="0" y="0" fill="url(#SVGID_1_-i0)" width="307.119" height="198.84"/>
	<rect x="5.414" y="4.958" fill="#FFFFFF" width="296.291" height="163.755"/>
</g>
<circle fill="#EEEEEE" cx="284.522" cy="183.469" r="8.754"/>

            </g>
        </g>
    </g>
    
    <!-- ITEM 1 -->
    <g>
        <defs>
            <clipPath id="clip-path-id-crop-item-1">
                
          <rect transform="scale(0.6606606606606606 0.6666666666666666)" x="-5.0" y="0.0" width="338.0" height="246.0"/>
        
            </clipPath>
            
            <clipPath id="clip-path-id-viewbox-item-1">
                <rect x="0.0" y="0.0" width="220.0" height="160.0"/>
            </clipPath>
        </defs>
        <g clip-path="url(#clip-path-id-crop-item-1)" transform="translate(582.0 327.0) rotate(0.0 -166.5 120.0) scale(-1.5136363636363637 1.5)">
            <g clip-path="url(#clip-path-id-viewbox-item-1)" transform="translate(-0.0 -0.0)">
                
<linearGradient id="SVGID_1_-i1" gradientUnits="userSpaceOnUse" x1="28.8201" y1="86.0207" x2="220" y2="86.0207" gradientTransform="matrix(1 0 0 -1 0 166)">
	<stop offset="0" style="stop-color:#A1C3FC"/>
	<stop offset="1" style="stop-color:#78A9EF"/>
</linearGradient>
<polygon fill="url(#SVGID_1_-i1)" points="220,0 152.209,0 132.702,16.531 28.82,16.531 28.82,159.959 220,159.959 "/>
<linearGradient id="SVGID_2_-i1" gradientUnits="userSpaceOnUse" x1="156.1112" y1="154.5745" x2="213.1724" y2="154.5745" gradientTransform="matrix(1 0 0 -1 0 166)">
	<stop offset="0" style="stop-color:#428dfc"/>
	<stop offset="1" style="stop-color:#3e70df"/>
</linearGradient>
<rect x="156.111" y="5.834" fill="url(#SVGID_2_-i1)" width="57.061" height="11.182"/>
<linearGradient id="SVGID_3_-i1" gradientUnits="userSpaceOnUse" x1="39.5497" y1="81.4022" x2="208.7828" y2="81.4022" gradientTransform="matrix(1 0 0 -1 0 166)">
	<stop offset="0" style="stop-color:#e3e3e3"/>
	<stop offset="0.5538" style="stop-color:#D6D7D8"/>
</linearGradient>
<rect x="39.55" y="29.658" fill="url(#SVGID_3_-i1)" width="169.233" height="109.88"/>
<linearGradient id="SVGID_4_-i1" gradientUnits="userSpaceOnUse" x1="202.2351" y1="112.2667" x2="-28.259" y2="1.8259" gradientTransform="matrix(1 0 0 -1 0 166)">
	<stop offset="0" style="stop-color:#A1C3FC"/>
	<stop offset="1" style="stop-color:#78A9EF"/>
</linearGradient>
<polygon fill="url(#SVGID_4_-i1)" points="219.523,160 28.774,160 0,36.084 190.748,36.084 "/>

            </g>
        </g>
    </g>
    
    <!-- ITEM 2 -->
    <g>
        <defs>
            <clipPath id="clip-path-id-viewbox-item-2">
                <rect x="0.0" y="0.0" width="57.54" height="48.89"/>
            </clipPath>
        </defs>
        <g transform="translate(916.0 150.0) rotate(14.288921179972487 -43.5 37.0) scale(-1.5119916579770594 1.5136019635917366)">
            <g clip-path="url(#clip-path-id-viewbox-item-2)" transform="translate(-0.0 -0.0)">
                <path d="M55.05,6.39,37.52.29a5.32,5.32,0,0,0-5.2,1L1.52,27.56A4.41,4.41,0,0,0,1,33.74L13.3,48.24l1.65.65,1.92-1s14.09-11.8,20.89-18c4.17-3.79,13.09-12.08,18.57-17.19A3.82,3.82,0,0,0,55.05,6.39Z" style="fill:#23286b;"/>
            </g>
        </g>
    </g>
    
    <!-- ITEM 3 -->
    <g>
        <defs>
            <clipPath id="clip-path-id-viewbox-item-3">
                <rect x="0.0" y="0.0" width="42.501" height="39.232"/>
            </clipPath>
        </defs>
        <g transform="translate(564.0 140.0) rotate(16.98475210820348 -88.5 82.0) scale(-4.164607891579022 4.180261011419249)">
            <g clip-path="url(#clip-path-id-viewbox-item-3)" transform="translate(-0.0 -0.0)">
                
<g id="Layer_14-i3">
	<path style="fill:#EEEEEE;" d="M4.904,4.904c0,0-4.904,8.718-4.904,21.25s0,13.077,0,13.077l42.501-8.173   c0,0-6.539-13.622-8.718-31.058L16.346,1.09C16.346,1.09,8.718,1.635,4.904,4.904z"/>
</g>
<g id="Isolation_Mode-i3">
</g>

            </g>
        </g>
    </g>
    
    <!-- ITEM 4 -->
    <g>
        <defs>
            <clipPath id="clip-path-id-viewbox-item-4">
                <rect x="0.0" y="0.0" width="36.52" height="60.398"/>
            </clipPath>
        </defs>
        <g transform="translate(674.0 -5.0) rotate(-90.00000000000001 -47.0 79.0) scale(-2.573932092004381 2.6159806616113115)">
            <g clip-path="url(#clip-path-id-viewbox-item-4)" transform="translate(-0.0 -0.0)">
                
<g id="Layer_14-i4">
	<path style="fill:#EEEEEE;" d="M20.161,0L0,49.039c0,0,21.25,22.34,33.238,4.359c0,0-8.173,0-2.18-16.346   s5.449-14.712,5.449-14.712L20.161,0z"/>
</g>
<g id="Isolation_Mode-i4">
</g>

            </g>
        </g>
    </g>
    
    <!-- ITEM 5 -->
    <g>
        <defs>
            <clipPath id="clip-path-id-viewbox-item-5">
                <rect x="0.0" y="0.0" width="31.603" height="56.042"/>
            </clipPath>
        </defs>
        <g transform="translate(778.0 53.0) rotate(-83.24829495525853 23.5 43.5) scale(1.4872005822232066 1.5524071232290069)">
            <g clip-path="url(#clip-path-id-viewbox-item-5)" transform="translate(-0.0 -0.0)">
                
<g id="Layer_14-i5">
	<g>
		<path style="fill:#E0E0E0;" d="M16.891,37.597L0,53.943c7.628,3.269,17.981,3.814,19.071-6.539S9.808,27.244,9.808,27.244    s7.083-11.443,10.353-16.891S21.25,0,21.25,0L16.891,37.597z"/>
		<path style="fill:#EEEEEE;" d="M21.795,0c0,0,8.173,10.353,9.263,18.526c1.09,8.173,0.545,7.083-1.635,11.987    S17.468,52.271,17.468,52.271s7.596-8.135-7.661-25.027L21.795,0z"/>
	</g>
</g>
<g id="Isolation_Mode-i5">
</g>

            </g>
        </g>
    </g>
    
    <!-- ITEM 6 -->
    <g>
        <defs>
            <clipPath id="clip-path-id-viewbox-item-6">
                <rect x="0.0" y="0.0" width="280.0" height="600.0"/>
            </clipPath>
        </defs>
        <g transform="translate(832.0 49.0) rotate(0.0 167.5 359.0) scale(1.1964285714285714 1.1966666666666668)">
            <g clip-path="url(#clip-path-id-viewbox-item-6)" transform="translate(-0.0 -0.0)">
                
<linearGradient id="hand_1_-i6" gradientUnits="userSpaceOnUse" x1="-2482.3882" y1="-428.531" x2="-3368.0305" y2="-1374.2168" gradientTransform="matrix(-0.0421 -0.061 -0.061 0.0421 -133.4215 8.8587)">
	<stop offset="0" style="stop-color:#FFBEB6"/>
	<stop offset="1" style="stop-color:#F2A19C"/>
</linearGradient>
<path id="hand-i6" fill="url(#hand_1_-i6)" d="M2.143,138.553c0,0,10.017,19.459,27.419,18.46c17.403-0.999,18.131,2.873,26.705,11.592  c3.701,3.76,18.207,17.264,29.577,27.523l3.553-37.181c-16.026-4.746-37.549-11.937-43.354-17.643  c-9.52-9.386-12.651-21.872-16.599-26.294c-3.981-4.468-5.527-5.204-9.159-2.83c0,0-2.325-1.865-7.917-7.161  C0.883,95.397-2.797,130.583,2.143,138.553z"/>
<linearGradient id="R_shoe_1_-i6" gradientUnits="userSpaceOnUse" x1="4142.8555" y1="-5841.6655" x2="6286.4175" y2="-7820.3335" gradientTransform="matrix(0.0741 0 0 -0.0741 -230.5491 105.3472)">
	<stop offset="0" style="stop-color:#F1B505"/>
	<stop offset="1" style="stop-color:#D89C05"/>
</linearGradient>
<path id="R_shoe-i6" fill="url(#R_shoe_1_-i6)" d="M170.611,549.775l17.969,50.221L61.719,600c0,0,6.504-12.569,28.189-21.88  s41.923-28.346,41.923-28.346h38.779"/>
<path id="L_shoe-i6" fill="#F1B505" d="M261.27,549.75l17.969,50.221l-126.86,0.004c0,0,6.504-12.569,28.189-21.88  s41.923-28.346,41.923-28.346L261.27,549.75"/>
<linearGradient id="R_trousers_1_-i6" gradientUnits="userSpaceOnUse" x1="3060.554" y1="-3922.6682" x2="6246.8198" y2="-3922.6682" gradientTransform="matrix(0.0741 0 0 -0.0741 -230.5491 105.3472)">
	<stop offset="0" style="stop-color:#23286B"/>
	<stop offset="0.3535" style="stop-color:#1E2361"/>
	<stop offset="1" style="stop-color:#151A4F"/>
</linearGradient>
<path id="R_trousers-i6" fill="url(#R_trousers_1_-i6)" d="M223.487,258.781c-15.289,67.235-16.474,57.796-14.118,104.965  c2.37,47.17-5.289,31.258-7.645,80.787c-2.356,49.529,0.665,73.982-31.113,105.255h-38.772c0,0-3.15-151.035-2.456-193.73  c0.477-29.868,9.855-60.127,15.26-84.841l5.925-24.786c5.706-0.316,11.295-1.736,16.459-4.185  c13.468,4.517,37.197,5.473,58.613,5.226C225.077,251.151,224.369,254.915,223.487,258.781z"/>
<path id="L_trousers-i6" fill="#23286B" d="M261.276,549.744H222.49c0,0-61.127-147.589-64.176-179.643  c-2.413-25.481-1.372-54.843,1.301-81.612l5.347-46.981c17.558,6.964,57.254,6.487,82.875,5.299  c-0.706,14.618-3.425,29.068-8.078,42.942c-24.393,73.345-7.63,69.871,0.274,92.065c7.948,22.18,12.197,35.746,10.39,56.71  c-1.836,20.979,7.298,15.419,12.197,42.522C267.491,508.179,261.276,549.744,261.276,549.744z"/>
<path id="texture-i6" opacity="0.86" fill="#FFFFFF" enable-background="new    " d="M204.03,251.785  c-0.065-0.152-0.24-0.221-0.39-0.158c-0.151,0.065-0.221,0.24-0.158,0.391c0.063,0.15,0.24,0.221,0.39,0.158l0,0  C204.025,252.112,204.094,251.937,204.03,251.785L204.03,251.785z M173.185,251.703c-0.151-0.055-0.319,0.023-0.374,0.176  c-0.073,0.136-0.02,0.306,0.115,0.378c0.012,0.005,0.023,0.012,0.036,0.016c0.156,0.064,0.334-0.012,0.398-0.168  s-0.012-0.335-0.168-0.398C173.189,251.704,173.186,251.704,173.185,251.703L173.185,251.703z M188.508,250.831  c-0.17-0.002-0.309,0.138-0.311,0.308c-0.002,0.171,0.137,0.309,0.308,0.311l0,0c0.17,0.002,0.309-0.138,0.311-0.308  C188.815,250.971,188.678,250.831,188.508,250.831z M243.521,253.189c-0.231-0.21-0.588-0.194-0.798,0.038  c-0.004,0.004-0.008,0.011-0.013,0.016c-0.204,0.233-0.181,0.586,0.052,0.79c0.001,0.002,0.003,0.002,0.004,0.003  c0.231,0.21,0.588,0.194,0.798-0.038c0.004-0.004,0.008-0.011,0.013-0.016c0.204-0.231,0.181-0.586-0.052-0.789  C243.522,253.192,243.522,253.192,243.521,253.189L243.521,253.189z M201.504,288.135c-0.315,0.022-0.553,0.292-0.538,0.608  c0.016,0.304,0.274,0.537,0.578,0.521c0.011,0,0.02-0.002,0.031-0.003c0.315-0.022,0.553-0.292,0.538-0.608  C202.088,288.343,201.817,288.109,201.504,288.135L201.504,288.135L201.504,288.135z M200.524,274.319  c-0.311,0.024-0.541,0.299-0.517,0.61c0,0,0,0,0,0.002c0.02,0.317,0.293,0.556,0.61,0.535c0.314-0.02,0.551-0.289,0.534-0.604  C201.116,274.544,200.842,274.308,200.524,274.319L200.524,274.319z M199.567,260.507c-0.316,0.036-0.551,0.309-0.54,0.628  c0.016,0.304,0.274,0.537,0.577,0.521c0.011,0,0.02-0.002,0.031-0.003c0.311-0.013,0.552-0.276,0.539-0.588  c0-0.007,0-0.013-0.002-0.02C200.15,260.73,199.881,260.491,199.567,260.507L199.567,260.507z M228.634,274.352  c-0.135-0.291-0.481-0.418-0.772-0.282c-0.291,0.136-0.418,0.482-0.281,0.773c0.135,0.291,0.481,0.418,0.772,0.282  c0.003-0.002,0.007-0.003,0.011-0.004C228.646,274.981,228.766,274.64,228.634,274.352L228.634,274.352z M222.466,261.966  c-0.135-0.291-0.481-0.418-0.772-0.282c-0.291,0.136-0.418,0.482-0.281,0.773c0.135,0.291,0.481,0.418,0.772,0.282  c0.003-0.002,0.007-0.003,0.011-0.004C222.477,262.595,222.598,262.254,222.466,261.966L222.466,261.966z M216.297,249.58  c-0.156-0.28-0.501-0.391-0.791-0.255c-0.284,0.149-0.394,0.499-0.247,0.785c0.144,0.276,0.481,0.391,0.763,0.257  C216.307,250.219,216.426,249.874,216.297,249.58L216.297,249.58z M175.587,278.217c-0.284-0.101-0.598,0.049-0.699,0.335  c-0.004,0.014-0.008,0.028-0.013,0.041c-0.098,0.292,0.057,0.61,0.35,0.708c0.001,0,0.004,0.002,0.005,0.002  c0.299,0.101,0.623-0.056,0.73-0.353C176.043,278.646,175.882,278.329,175.587,278.217L175.587,278.217z M179.976,265.105  c-0.295-0.106-0.62,0.048-0.725,0.343c-0.002,0.003-0.003,0.007-0.003,0.011c-0.1,0.3,0.056,0.624,0.352,0.731  c0.303,0.084,0.621-0.078,0.733-0.374c0.098-0.292-0.057-0.61-0.35-0.708C179.98,265.106,179.978,265.106,179.976,265.105  L179.976,265.105z M184.348,251.969c-0.299-0.101-0.623,0.056-0.73,0.353c-0.104,0.296,0.051,0.62,0.346,0.724  c0.008,0.003,0.019,0.005,0.027,0.008c0.284,0.103,0.598-0.046,0.701-0.331c0.003-0.008,0.005-0.017,0.008-0.026  C184.802,252.4,184.644,252.076,184.348,251.969L184.348,251.969z M240.479,268.038c-0.149-0.237-0.462-0.308-0.699-0.159  c-0.237,0.149-0.308,0.463-0.159,0.7c0.149,0.237,0.462,0.308,0.699,0.159C240.556,268.59,240.629,268.277,240.479,268.038  L240.479,268.038z M233.944,257.565c-0.149-0.237-0.462-0.308-0.699-0.159c-0.237,0.149-0.308,0.463-0.159,0.7  c0.149,0.237,0.462,0.308,0.699,0.159l0,0c0.236-0.142,0.312-0.447,0.17-0.682C233.95,257.577,233.947,257.571,233.944,257.565  L233.944,257.565z M188.979,276.376c-0.273-0.064-0.547,0.107-0.609,0.38c0,0.003-0.001,0.005-0.001,0.008  c-0.071,0.264,0.086,0.534,0.349,0.604c0.007,0.002,0.015,0.004,0.022,0.005c0.28,0.059,0.556-0.111,0.631-0.388  C189.419,276.714,189.249,276.446,188.979,276.376L188.979,276.376z M191.755,264.342c-0.273-0.064-0.547,0.107-0.609,0.38  c0,0.003-0.002,0.005-0.002,0.008c-0.071,0.264,0.086,0.534,0.349,0.604c0.007,0.002,0.015,0.004,0.022,0.005  c0.271,0.064,0.54-0.101,0.609-0.371C192.189,264.696,192.028,264.417,191.755,264.342L191.755,264.342z M194.532,252.306  c-0.273-0.064-0.547,0.107-0.609,0.382c0,0.003-0.001,0.005-0.001,0.008c-0.075,0.255,0.07,0.523,0.324,0.597  c0.016,0.004,0.031,0.008,0.047,0.012c0.273,0.064,0.547-0.107,0.609-0.38c0-0.003,0.002-0.005,0.002-0.011  C194.961,252.647,194.798,252.379,194.532,252.306L194.532,252.306z M215.207,270.919c-0.274,0.06-0.455,0.325-0.413,0.604  c0.048,0.274,0.308,0.459,0.583,0.411c0.278-0.043,0.468-0.303,0.43-0.581C215.758,271.071,215.49,270.878,215.207,270.919  L215.207,270.919z M213.177,258.736c-0.274,0.06-0.455,0.325-0.413,0.604c0.048,0.274,0.308,0.459,0.583,0.411  c0.268-0.038,0.454-0.285,0.417-0.553c-0.002-0.011-0.003-0.02-0.005-0.031C213.713,258.89,213.456,258.697,213.177,258.736  L213.177,258.736z M169.54,260.764c-0.228-0.162-0.545-0.114-0.717,0.107c-0.165,0.228-0.114,0.545,0.113,0.709  c0.004,0.003,0.011,0.007,0.015,0.011c0.211,0.163,0.513,0.126,0.678-0.085c0.005-0.008,0.013-0.017,0.019-0.026  c0.169-0.219,0.13-0.534-0.088-0.703C169.554,260.775,169.547,260.77,169.54,260.764L169.54,260.764z M176.685,250.701  c-0.24-0.155-0.559-0.087-0.714,0.154c-0.147,0.228-0.094,0.532,0.123,0.695c0.234,0.159,0.553,0.103,0.718-0.127  c0.165-0.222,0.118-0.537-0.103-0.703C176.702,250.713,176.694,250.706,176.685,250.701L176.685,250.701z M210.649,248.363  c-0.165-0.005-0.301,0.123-0.308,0.288c-0.005,0.165,0.123,0.303,0.288,0.308c0.165,0.005,0.301-0.123,0.308-0.288  C210.943,248.507,210.814,248.368,210.649,248.363L210.649,248.363L210.649,248.363z M210.201,250.863  c-0.185-0.024-0.359,0.092-0.409,0.273c-0.04,0.182,0.073,0.363,0.253,0.407c0.169,0.051,0.347-0.046,0.398-0.214  c0.004-0.013,0.007-0.026,0.008-0.039c0.049-0.186-0.062-0.378-0.248-0.427C210.202,250.863,210.201,250.863,210.201,250.863  L210.201,250.863z M239.896,281.37c-0.324,0.051-0.548,0.35-0.505,0.673c0.054,0.32,0.355,0.537,0.675,0.486  c0.32-0.054,0.544-0.351,0.505-0.673C240.518,281.535,240.215,281.318,239.896,281.37L239.896,281.37z M237.674,267.278  c-0.32,0.052-0.538,0.356-0.485,0.676c0.053,0.32,0.355,0.539,0.675,0.486c0.32-0.052,0.538-0.356,0.485-0.676l0,0  C238.298,267.444,237.996,267.227,237.674,267.278L237.674,267.278z M235.475,253.189c-0.32,0.039-0.549,0.333-0.509,0.655  c0.04,0.321,0.332,0.55,0.653,0.51c0.008-0.002,0.017-0.003,0.026-0.004c0.324-0.051,0.548-0.35,0.505-0.673  C236.097,253.356,235.796,253.139,235.475,253.189L235.475,253.189z M182.076,267.38c-0.268-0.19-0.639-0.127-0.829,0.142  c-0.184,0.258-0.132,0.619,0.119,0.814c0.272,0.186,0.642,0.13,0.843-0.132C182.392,267.938,182.332,267.575,182.076,267.38  L182.076,267.38z M190.452,255.854c-0.263-0.193-0.631-0.135-0.824,0.128c-0.192,0.264-0.134,0.632,0.128,0.825  c0.001,0.002,0.003,0.003,0.004,0.003c0.263,0.193,0.631,0.135,0.824-0.128c0.192-0.264,0.134-0.632-0.128-0.825  C190.457,255.856,190.456,255.855,190.452,255.854z M212.142,273.842c-0.311-0.075-0.623,0.118-0.698,0.429  c-0.001,0.004-0.001,0.007-0.003,0.012c-0.078,0.313,0.106,0.632,0.417,0.719c0.316,0.063,0.628-0.127,0.721-0.438  C212.657,274.244,212.461,273.922,212.142,273.842L212.142,273.842L212.142,273.842z M215.479,259.985  c-0.301-0.079-0.611,0.1-0.693,0.403c-0.003,0.013-0.005,0.024-0.008,0.038c-0.076,0.308,0.11,0.621,0.418,0.698c0,0,0,0,0.001,0  c0.319,0.078,0.642-0.115,0.72-0.436v-0.001c0.079-0.303-0.099-0.612-0.402-0.694C215.504,259.991,215.491,259.986,215.479,259.985  L215.479,259.985z M220.746,278.445c-0.32-0.067-0.635,0.139-0.702,0.461c-0.067,0.322,0.139,0.637,0.46,0.703  c0.32,0.067,0.634-0.139,0.702-0.459C221.273,278.828,221.068,278.513,220.746,278.445L220.746,278.445L220.746,278.445z   M223.497,264.506c-0.325-0.051-0.633,0.159-0.705,0.481c-0.049,0.315,0.153,0.613,0.462,0.683c0.32,0.067,0.635-0.139,0.702-0.461  C224.015,264.89,223.812,264.581,223.497,264.506L223.497,264.506z M226.224,250.584c-0.316-0.06-0.621,0.146-0.682,0.463  c-0.06,0.317,0.146,0.622,0.462,0.683c0.32,0.067,0.635-0.139,0.702-0.461C226.755,250.95,226.542,250.647,226.224,250.584  L226.224,250.584z M247.226,256.823c-0.319,0.067-0.528,0.378-0.468,0.699c0.071,0.317,0.385,0.517,0.701,0.448  c0.315-0.057,0.523-0.359,0.466-0.675c0-0.002,0-0.003-0.002-0.004C247.853,256.975,247.546,256.768,247.226,256.823  L247.226,256.823z M197.12,260.746c-0.263-0.177-0.619-0.107-0.794,0.157c-0.004,0.007-0.008,0.014-0.015,0.021  c-0.179,0.266-0.108,0.627,0.156,0.806c0.272,0.182,0.639,0.114,0.826-0.154c0.182-0.271,0.111-0.637-0.158-0.819  C197.13,260.753,197.126,260.748,197.12,260.746L197.12,260.746z M204.983,248.92c-0.263-0.177-0.619-0.107-0.794,0.157  c-0.004,0.007-0.008,0.014-0.014,0.021c-0.179,0.266-0.108,0.627,0.156,0.806c0.272,0.182,0.639,0.114,0.826-0.154  c0.182-0.271,0.111-0.637-0.159-0.819C204.993,248.928,204.988,248.924,204.983,248.92L204.983,248.92z M220.673,254.052  c-0.209-0.106-0.464-0.023-0.569,0.186c-0.007,0.013-0.013,0.028-0.019,0.041c-0.098,0.225,0.005,0.486,0.229,0.585  c0.225,0.099,0.485-0.005,0.584-0.23C220.993,254.41,220.893,254.15,220.673,254.052z M243.141,253.095  c-0.243-0.005-0.445,0.185-0.453,0.429c0,0.002,0,0.003,0,0.004c0.005,0.24,0.193,0.436,0.432,0.453  c0.243,0.002,0.444-0.19,0.453-0.433c0.015-0.236-0.166-0.438-0.401-0.452C243.162,253.095,243.152,253.095,243.141,253.095  L243.141,253.095z"/>
<linearGradient id="sweater_1_-i6" gradientUnits="userSpaceOnUse" x1="6316.0498" y1="-614.7065" x2="5096.1348" y2="-2785.0222" gradientTransform="matrix(0.0741 0 0 -0.0741 -230.5491 105.3472)">
	<stop offset="0" style="stop-color:#A1C3FC"/>
	<stop offset="0.6955" style="stop-color:#81AEF2"/>
	<stop offset="1" style="stop-color:#78A9EF"/>
</linearGradient>
<path id="sweater-i6" fill="url(#sweater_1_-i6)" d="M203.897,88.141c16.201,11.24,29.883,25.741,40.173,42.578  c17.467,28.327,12.79,38.71,22.26,55.393s22.615,37.239,4.991,59.218c0,0-86.349,7.496-109.559-5.304l18.895-143.994  C180.657,96.029,191.613,97.299,203.897,88.141z"/>
<path id="R_sleeve-2-i6" fill="#A1C3FC" d="M180.657,96.029c0,0-12.039,31.959-27.747,52.884s-22.302,21.653-43.879,15.328  c-21.577-6.324-25.706-8.945-25.706-8.945l-30.747,80.011c0,0,16.451,16.746,40.566,11.609s32.11-5.154,43.978-1.852  s40.17,3.814,56.653-32.585s21.315-69.129,11.395-123.694l0,0"/>
<linearGradient id="neck_1_-i6" gradientUnits="userSpaceOnUse" x1="5550.355" y1="258.8758" x2="5867.0586" y2="258.8758" gradientTransform="matrix(0.0741 0 0 -0.0741 -230.5491 105.3472)">
	<stop offset="0" style="stop-color:#FFBEB6"/>
	<stop offset="1" style="stop-color:#F2A19C"/>
</linearGradient>
<path id="neck-i6" fill="url(#neck_1_-i6)" d="M181.014,77.365c1.288,6.169,1.166,12.55-0.358,18.666c0,0,10.57,5.564,23.468-6.641  c0,0-2.687-7-4.658-14.358l0,0L181.014,77.365"/>
<path id="face-i6" fill="#FFBEB6" d="M165.264,34.025c0,0-1.938,7.334-6.028,11.649c-4.091,4.315-7.32,6.903,1.508,11.649  c0,0,5.167,29.121,37.249,18.768c0,0,24.545-10.355,20.884-20.493s-19.594-24.375-19.594-24.375l-19.594-5.608L165.264,34.025z"/>
<path id="lips-i6" fill="#1C2868" d="M161.092,63.971c1.197,2.692,4.343,3.901,7.03,2.702c0.973-0.434,1.793-1.149,2.356-2.056  c0.434-0.686-0.556-1.492-0.996-0.796c-1.11,1.948-3.586,2.626-5.529,1.516c-0.733-0.418-1.319-1.057-1.672-1.824  C161.926,62.777,160.736,63.23,161.092,63.971L161.092,63.971z"/>
<path id="hair-i6" fill="#23286B" d="M153.514,0c-3.043,20.776,5.301,30.409,14.828,34.823c-13.131-4.352-20.853-17.942-17.889-31.475  c0.139-0.682-0.906-0.975-1.045-0.288c-3.361,15.151,6.173,30.164,21.296,33.531c1.552,0.346,3.131,0.559,4.72,0.636  c4.95,1.116,10.041,1.458,15.094,1.012c0,0,2.158,9.564,6.729,13.348c4.572,3.784,8.947-1.792,11.531,4.182  s-2.981,9.161-8.944,10.157c-5.964,0.996-5.17,8.763-5.17,8.763c4.572,1.992,19.482-0.597,30.416-10.954  c10.933-10.356,13.519-25.094,13.519-25.094L153.514,0z"/>

            </g>
        </g>
    </g>
    
</svg>