<svg xmlns="http://www.w3.org/2000/svg" version="1.1" viewBox="0 0 3000 2250" width="3000" height="2250">
<defs/><!--ITEM: Illustration component 1--><g transform="translate(166.875 215.625) rotate(0.0 1305.9375 961.875)  scale(1.8690507029312298 1.869464490135447)"><svg width="1397.434" height="1029.038" viewBox="0.0 0.0 1397.434 1029.038"><linearGradient id="a-i1"><stop offset="0" stop-color="#ffbeb6" fill="#000000"/><stop offset="1" stop-color="#f2a19c" fill="#000000"/></linearGradient><linearGradient xmlns:xlink="http://www.w3.org/1999/xlink" id="b-i1" gradientTransform="matrix(.9491 -.3149 .3149 .9491 -915.2598 -294.3959)" gradientUnits="userSpaceOnUse" x1="881.0579" x2="892.2483" xlink:href="#a-i1" y1="1184.6558" y2="1150.9242"/><linearGradient id="c-i1"><stop offset="0" stop-color="#efefef" fill="#000000"/><stop offset=".5538" stop-color="#d7d8d9" fill="#000000"/></linearGradient><linearGradient xmlns:xlink="http://www.w3.org/1999/xlink" id="d-i1" gradientTransform="matrix(.3665 .9304 -.9304 .3665 1612.2872 3140.7581)" gradientUnits="userSpaceOnUse" x1="-2986.9697" x2="-2877.0068" xlink:href="#c-i1" y1="321.3708" y2="321.3708"/><linearGradient xmlns:xlink="http://www.w3.org/1999/xlink" id="e-i1" gradientTransform="matrix(.3665 .9304 -.9304 .3665 2382.6699 2837.2871)" gradientUnits="userSpaceOnUse" x1="-3069.4456" x2="-2794.533" xlink:href="#c-i1" y1="1247.7092" y2="1247.7092"/><linearGradient xmlns:xlink="http://www.w3.org/1999/xlink" id="f-i1" gradientUnits="userSpaceOnUse" x1="231.3566" x2="392.9807" xlink:href="#a-i1" y1="496.0318" y2="496.0318"/><linearGradient id="g-i1" gradientTransform="matrix(-1 0 0 1 -1913.371 0)" gradientUnits="userSpaceOnUse" x1="-3097.3665" x2="-2902.4373" y1="375.3821" y2="375.3821"><stop offset="0" stop-color="#ffbeb6" fill="#000000"/><stop offset=".6145" stop-color="#f2a19c" fill="#000000"/></linearGradient><linearGradient id="h-i1" gradientUnits="userSpaceOnUse" x1="875.4116" x2="744.2446" y1="321.8967" y2="539.4327"><stop offset="0" stop-color="#23286b" fill="#000000"/><stop offset=".3761" stop-color="#1a1f59" fill="#000000"/></linearGradient><linearGradient xmlns:xlink="http://www.w3.org/1999/xlink" id="i-i1" gradientTransform="matrix(.9062 -.423 .423 .9062 -1168.6547 -162.9408)" gradientUnits="userSpaceOnUse" x1="1553.3228" x2="1636.2026" xlink:href="#a-i1" y1="1121.6105" y2="1121.6105"/><linearGradient id="j-i1" gradientUnits="userSpaceOnUse" x1="137.0179" x2="1161.2268" y1="942.668" y2="478.7678"><stop offset=".2146" stop-color="#efefef" fill="#000000"/><stop offset=".3683" stop-color="#dddedf" fill="#000000"/><stop offset=".4811" stop-color="#d7d8d9" fill="#000000"/><stop offset=".964" stop-color="#dadbdc" fill="#000000"/></linearGradient><linearGradient id="k-i1" gradientUnits="userSpaceOnUse" x1="665.1497" x2="1191.2928" y1="703.4058" y2="459.378"><stop offset="0" stop-color="#efefef" fill="#000000"/><stop offset=".1573" stop-color="#ebebeb" fill="#000000"/><stop offset=".3212" stop-color="#dedfe0" fill="#000000"/><stop offset=".3876" stop-color="#d7d8d9" fill="#000000"/></linearGradient><linearGradient id="l-i1" gradientUnits="userSpaceOnUse" x1="851.8441" x2="982.5111" y1="596.2604" y2="596.2604"><stop offset=".2146" stop-color="#efefef" fill="#000000"/><stop offset=".469" stop-color="#dddedf" fill="#000000"/><stop offset=".6557" stop-color="#d7d8d9" fill="#000000"/><stop offset=".964" stop-color="#dadbdc" fill="#000000"/></linearGradient><linearGradient id="m-i1" gradientUnits="userSpaceOnUse" x1="759.4088" x2="1118.3408" y1="665.321" y2="484.6627"><stop offset=".2984" stop-color="#efefef" fill="#000000"/><stop offset=".6125" stop-color="#dbdcdd" fill="#000000"/><stop offset=".6707" stop-color="#d7d8d9" fill="#000000"/></linearGradient><linearGradient id="n-i1" gradientUnits="userSpaceOnUse" x1="1064.4645" x2="1430.3818" y1="522.745" y2="360.1873"><stop offset="0" stop-color="#efefef" fill="#000000"/><stop offset=".7446" stop-color="#d7d8d9" fill="#000000"/></linearGradient><linearGradient xmlns:xlink="http://www.w3.org/1999/xlink" id="o-i1" gradientTransform="matrix(-1 0 0 1 -1913.371 0)" gradientUnits="userSpaceOnUse" x1="-3010.0981" x2="-2995.2874" xlink:href="#a-i1" y1="398.8257" y2="358.1334"/><linearGradient id="p-i1" gradientUnits="userSpaceOnUse" x1="670.8289" x2="329.581" y1="273.7122" y2="522.1458"><stop offset="0" stop-color="#23286b" fill="#000000"/><stop offset=".5497" stop-color="#1a1f59" fill="#000000"/></linearGradient><path d="m292.106 523.134c.144 13.7-24.731 10.671-24.154 19.324.638 9.568 27.878 10.652 52.103-3.045" fill="url(#b-i1)"/><path d="m187.472 550.751c-11.111-28.207 2.817-60.203 31.05-71.325s60.242 2.778 71.354 30.986-2.817 60.203-31.05 71.325c-28.233 11.121-60.242-2.779-71.354-30.986zm89.798-35.373c-8.376-21.264-32.504-31.742-53.788-23.358s-31.783 32.504-23.407 53.766c8.376 21.263 32.505 31.741 53.788 23.358s31.783-32.504 23.407-53.766z" fill="url(#d-i1)"/><path d="m193.599 400.6 100.758 255.783-193.599 76.263-100.758-255.783z" fill="url(#e-i1)"/><path d="m170.45 573.702c-7.891-20.031-12.98-42.785-15.193-68.032-2.073-23.64-.832-42.147 3.903-58.241 6.006-20.417 18.449-37.301 34.138-46.318l.562.977c-15.438 8.876-27.692 25.518-33.618 45.659-4.694 15.954-5.921 34.328-3.861 57.823 3.489 39.79 14.144 73.348 31.67 99.744 7.512 11.313 33.29 32.825 47.467 35.748l-.228 1.106c-14.414-2.973-40.572-24.771-48.18-36.23-6.496-9.784-12.056-20.549-16.66-32.236z" fill="#d7d8d9"/><path d="m174.573 538.701 11.682 29.655-29.682 11.693-11.682-29.655z" fill="#efefef"/><path d="m150.633 648.134c.146.103.347.065.449-.08.103-.146.065-.346-.08-.449-.146-.103-.347-.065-.449.08-.103.146-.068.348.08.449zm32.405 6.558c.031.179.203.299.382.268.165-.024.28-.177.256-.341-.002-.013-.003-.029-.009-.042-.027-.172-.187-.292-.36-.268-.177.035-.3.203-.269.383zm-16.198-4.376c-.025.179.088.348.264.394.18.038.359-.081.395-.264.038-.18-.08-.358-.264-.394-.178-.022-.348.089-.395.264zm-22.294 36.826c-.086.33.109.669.438.761.314.1.65-.073.751-.384.004-.012.007-.021.009-.031.086-.33-.109-.669-.438-.761-.324-.096-.665.089-.76.415zm4.029-14.396c-.085.333.115.669.448.753.326.084.66-.108.75-.433.095-.325-.09-.664-.415-.758-.336-.079-.676.113-.783.438zm4.05-14.416c-.093.325.093.661.417.753.006.001.014.003.02.005.314.1.65-.073.751-.384.004-.012.007-.021.009-.031.081-.335-.11-.675-.437-.783-.33-.083-.667.111-.76.44zm-32.992 8.769c.273.201.657.143.858-.132.202-.272.143-.656-.132-.858-.268-.197-.644-.143-.849.118-.199.275-.144.662.123.872zm9.249-11.772c.273.201.657.143.858-.132.202-.272.143-.656-.132-.858-.268-.197-.644-.144-.849.118-.2.274-.146.662.123.872zm45.541 27.234c.048.339.357.578.699.533.333-.037.57-.337.533-.668 0-.002-.001-.004-.001-.004-.019-.33-.3-.578-.626-.559-.015.001-.031.002-.048.004-.34.052-.581.352-.557.694zm-1.778-14.861c.053.338.355.579.695.554.338-.048.577-.359.533-.698-.042-.337-.349-.576-.684-.535-.004.001-.009.001-.011.001-.333.037-.57.337-.533.667zm-1.778-14.837c.031.326.319.565.645.534.009-.002.02-.002.029-.003.339-.028.588-.328.56-.664-.001-.011-.002-.02-.002-.03-.043-.34-.355-.582-.693-.538-.34.043-.582.355-.539.694-.001.002 0 .004 0 .007zm-62.532 4.878c.22.207.567.2.777-.015.21-.219.204-.566-.015-.777-.218-.211-.567-.204-.777.015-.207.219-.201.565.015.777zm52.281 19.823c.019.31.276.549.585.547.296-.005.53-.247.526-.541-.001-.009-.001-.015-.002-.025-.001-.304-.25-.549-.552-.545-.004.001-.006 0-.011.001-.298.016-.538.26-.546.563zm-.301-13.325c.012.301.265.534.564.525.296-.005.53-.248.526-.541-.001-.009-.001-.015-.002-.025-.001-.304-.249-.549-.552-.548-.004.001-.006 0-.011.001-.305.025-.537.283-.525.588zm-.323-13.369c.001.304.249.549.552.548.004-.001.006 0 .011-.001.287.004.523-.227.527-.513.001-.017-.001-.036-.001-.053-.001-.304-.25-.549-.552-.548-.004.001-.006 0-.011.001-.298.02-.528.269-.526.566zm-26.208 14.973c-.101.286.046.603.331.708.282.109.596-.028.707-.308.105-.285-.029-.606-.307-.729-.292-.107-.616.039-.731.329zm4.834-12.457c-.115.269.01.581.277.695.01.004.02.008.03.014.282.109.596-.028.707-.308.105-.285-.029-.606-.307-.729-.285-.104-.6.042-.707.328zm46.312 12.052c.11.266.416.391.682.282.011-.005.022-.009.03-.013.28-.115.416-.436.301-.717-.003-.007-.005-.012-.008-.017-.134-.27-.458-.391-.737-.27-.275.118-.4.439-.281.715.005.005.011.012.013.02zm-5.41-12.216c.125.279.451.409.735.293.279-.132.4-.465.268-.744-.125-.266-.435-.388-.71-.28-.278.111-.416.427-.306.705.003.008.008.019.013.026zm-74.312 18.351c-.109.335.06.697.389.825.329.124.697-.041.823-.367.115-.335-.058-.701-.389-.825-.329-.123-.697.039-.823.367zm5.43-14.436c-.125.329.04.696.367.822s.697-.041.823-.367c.125-.329-.04-.696-.367-.822-.329-.126-.697.04-.823.367zm59.494 12.684c.158.32.537.462.867.321.319-.157.449-.545.29-.863-.153-.307-.52-.439-.834-.302-.316.151-.459.522-.323.844zm-6.38-14.028c.151.316.521.458.843.321.322-.144.466-.522.322-.843-.144-.322-.522-.466-.843-.321-.317.147-.46.522-.322.843zm-27.242 14.153c.028.347.321.617.67.621.35-.025.615-.322.6-.671-.004-.346-.287-.624-.635-.618-.004.001-.009.001-.013.002-.356.009-.633.308-.622.666 0-.002 0 0 0 0zm-.519-15.423c.014.355.313.634.667.621h.002c.344-.013.612-.304.597-.647-.012-.35-.304-.625-.651-.614-.346.008-.619.296-.615.64zm-9.637 18.399c.008.348.296.625.646.619.35-.007.626-.296.618-.646-.008-.339-.282-.613-.622-.618-.356.003-.643.29-.642.645zm.119-15.357c.003.355.291.64.646.64.344-.006.624-.281.642-.624-.007-.357-.29-.645-.643-.663-.356.009-.636.296-.645.647zm29.092 1.953c.14.324.516.477.844.344.321-.134.475-.5.342-.821-.116-.322-.471-.49-.792-.374-.009.002-.018.006-.025.011-.33.122-.498.491-.373.821-.002.007 0 .013.004.019z" fill="#fff"/><path d="m320.055 539.413c25.645-15.987 19.725-28.582 72.926-66.306-18.127-9.678-34.284-20.73-34.284-20.73-27.696 22.751-31.507 32.877-74.344 29.334-18.414-1.523-25.961 5.18-32.393 9.556-10.411 7.084-24.189 26.499-19.747 38.714 2.252 6.192 7.262 10.916 13.727 9.432 13.378-3.07 32.181-20.281 40.025-18.87 7.217 1.299 8.392 6.65 7.755 10.502" fill="url(#f-i1)"/><path d="m989.435 359.771c24.379-1.72 46.181-3.514 64.74-8.385 28.366-7.445 51.617-6.408 71.955-4.17 11.125 1.225 40.796 6.255 50.824 8.979 13.668 3.713 9.846 16.659-33.088 16.23-3.133-.025-6.016-.083-8.677-.145-1.129 3.735-5.666 7.19-13.178 7.88-19.534 1.783-16.862 7.378-40.09 13.344-26.374 6.775-85.876 17.922-89.313 7.304-.938-2.895-4.725-27.9-3.173-41.037z" fill="url(#g-i1)"/><path d="m1029.115 316.986 7.425 95.415c-61.799 26.764-132.874-2.546-175.724 25.234-26.034 1.5-94.111 7.285-126.11-40.807-50.898-76.495-15.921-172.899-15.921-172.899 28.094 5.591 40.898-5.726 43.993-9.083 4.343 82.639 31.468 130.864 66.215 139.428 37.852 9.329 103.802-4.852 200.122-37.288z" fill="url(#h-i1)"/><path d="m1075.673 390.712c-32.849-13.663-90.906-2.218-150.657 7.802-118.355 19.846-160.118 29.83-283.164 75.329-15.307 70.69 9.465 146.382 87.835 146.515 78.993.135 171.458-84.667 254.592-115.085 11.185-4.092 17.333 1.817 13.791 13.188-8.1 25.999-12.063 59.113 1.799 94.5 24.729 63.132-41.712 89.931 10.007 167.886l95.459 6.865c21.706-275.315 23.895-292.861 19.869-321.372-5.005-35.435-21.464-63.954-49.531-75.628z" fill="#78a9ef"/><path d="m1105.682 783.289c4.028 4.252 39.099 40.642 77.791 60.202 41.131 20.797 52.269 46.059 52.269 46.059l-247.349-15.676 40.891-95.427z" fill="#1d72d8"/><path d="m779.967 143.346c-6.857 12.879-13.829 39.01-17.519 71.179-2.475 1.553-18.938 10.142-47.838-15.248 6.814-17.107 10.31-35.602 10.211-49.383z" fill="url(#i-i1)"/><path d="m1376.031 382.173c-19.02 38.68-42.98 73.18-73.05 105.21-35.56 37.89-72 63.85-92.48 77.56-1.9-22.47-11.27-57.28-26.44-94.85-15.43-38.19-33-69.83-47.22-86.88 80.31-19.89 159.33-22.78 239.19-1.04z" fill="#a1c3fc"/><path d="m304.017 855.563c14.883 47.434 306.278 13.917 250.202-108.288s-265.086 60.854-250.202 108.288z" fill="#e0b400"/><path d="m340.513 839.67c11.868 38.443 255.586 7.712 210.204-91.119-45.382-98.83-222.072 52.676-210.204 91.119z" fill="#fcc817"/><path d="m639.191 636.183-181.2 105.22c-8.447-13.565-17.617-26.159-26.89-37.22z" fill="#eee"/><path d="m669.941 700.353c-38.21 22.18-180.67 105.93-180.67 105.93-1.25-3.56-2.6-7.18-4.05-10.86l-.11.04c-2.83-7.13-5.89-14.14-9.15-20.97-.01-.02-.02-.04-.03-.06-.54-1.4-1.21-2.9-2.02-4.52 31.73-13.1 70.86-31.21 120.99-48.59z" fill="#eee"/><path d="m1396.391 381.333c-42.044 90.219-108.226 155.8-191.49 208.92h-.01c-93.058 59.148-173.073 86.566-697.79 301.24-.076-.206-1.528-99.198-76.73-188.18-.01-.01-.03-.03-.04-.05-9.37-11.08-15.7-16.86-15.7-16.86 594.28-281.382 616.488-293.069 701.47-316.38.17-.06.35-.11.51-.15.26-.07.52-.14.77-.21h.03c87.71-23.9 178.75-30.02 272.83-2.17 6.13 1.8 8.85 8.06 6.15 13.84z" fill="url(#j-i1)"/><path d="m908.841 483.136c59.98 3.748 105.513 56.235 101.701 117.233s-55.526 107.407-115.506 103.659-105.513-56.236-101.701-117.233 55.526-107.407 115.506-103.659z" fill="url(#k-i1)"/><path d="m982.346 598.608c-4.178 66.643-80.34 99.685-130.502 59.254 50.337 19.645 105.841-16.067 109.318-71.513 1.74-27.807-10.383-53.232-30.314-69.318 32.013 12.432 53.789 44.926 51.498 81.577z" fill="url(#l-i1)"/><path d="m982.346 598.608c-2.832 45.16-41.11 79.523-85.523 76.742-17.059-1.063-32.541-7.463-44.979-17.488-19.937-16.075-32.05-41.493-30.31-69.301 2.822-45.167 41.111-79.523 85.512-76.749 8.379.523 16.367 2.331 23.801 5.219 32.014 12.432 53.79 44.926 51.499 81.577z" fill="url(#m-i1)"/><path d="m479.122 964.896 116.552-52.55c57.257-25.816 96.062-82.336 103.401-150.503l.261-2.429-198.026 89.284-22.189 116.198" fill="#a1c3fc"/><path d="m1396.391 381.333c-42.79 91.82-110.57 157.24-189.75 207.81 3.69-3.32 4.89-11.86 3.87-24.07 0-.04-.01-.09-.01-.13-1.9-22.47-11.27-57.28-26.44-94.85-15.43-38.19-33-69.83-47.22-86.88-7.78-9.34-14.56-14.3-19.43-13.55 91.919-25.048 181.801-29.019 272.83-2.17 2.901.852 5.039 2.703 6.199 5.029 1.292 2.589 1.374 5.767-.049 8.811z" fill="url(#n-i1)"/><path d="m341.831 653.346 118.316-48.451c56.195-23.012 121.359-13.762 174.899 24.44 2.125 1.516 7.401 5.519 7.401 5.519l-201.012 82.315z" fill="#89b3f4"/><path d="m664.641 704.413c-84.309 53.379-144.826 76.225-220.86 108.72-7.676 3.286-35.599 2.114-35.599 2.114s16.175-24.347 24.629-27.924c89.091-37.741 118.588-50.917 162.09-66 44.59-15.46 69.46-20.29 75.04-20.97 1.925-.219-4.953 3.713-5.3 4.06z" fill="#a1c3fc"/><path d="m1000.426 888.321c2.639 5.286 25.802 50.696 57.399 80.928 33.588 32.141 36.921 59.789 36.921 59.789l-234.094-87.728 67.469-80.086z" fill="#1d72d8"/><path d="m1086.693 493.37c-27.689-22.826-66.046-33.013-142.88-37.505-45.212-2.643-84.235-3.548-115.516-3.635-53.887-.149-84.797 2.128-84.797 2.128l-96.679-1.943c-22.275 52.354-30.758 143.236 41.757 167.17 22.923 7.566 55.77 5.422 92.574-.41v.003c115.764-22.201 140.499-28.33 177.537-31.349 16.277-.39 20.118 5.248 6.071 18.568-67.507 64.016-27.452 96.027-66.583 137.8-27.657 29.523-36.743 71.537-29.081 93.7l132.866 53.445c101.755-259.312 109.018-275.601 113.501-304.295 5.573-35.665-5.11-74.174-28.77-93.677z" fill="#89b3f4"/><path d="m821.534 408.638c-21.84 59.639-95.997 115.301-202.655 147.948-34.168-63.557-10.562-91.192-19.019-154.45-10.52-78.689 57.236-159.746 114.731-202.804.005-.013.014-.04.019-.053 28.901 25.389 45.363 16.8 47.838 15.248-7.003 60.984 2.725 131.825 59.086 194.111z" fill="#23286b"/><path d="m799.123 99.095c9.548 8.73 16.94 13.894-1.012 25.277 0 0-5.584 63.381-75.982 45.356 0 0-1.507-.527-3.997-1.537 3.707.178 7.408-.479 10.834-1.924 0 0 .247-16.825-12.669-18.173-12.914-1.349-25.377-7.484-21-20.688 4.4-13.222 14.772-1.785 23.816-10.529 9.069-8.76 11.852-29.63 11.852-29.63 12.23.336 24.426-1.526 36.008-5.498 5.937-1.454 11.595-3.859 16.767-7.122l.338.178c.004 0 5.52 15.541 15.045 24.29z" fill="#ffbeb6"/><path d="m806.54 6.88c6.047 19.33 1.58 40.442-11.796 55.722 10.016-12.95 15.051-32.647 8.024-62.602l-174.319 94.493s8.283 31.39 33.559 52.235 57.581 24.439 66.965 19.542c0 0 .238-16.827-12.677-18.18s-25.392-7.472-20.999-20.679 14.773-1.78 23.82-10.537c9.047-8.758 11.856-29.632 11.856-29.632 12.23.336 24.429-1.525 36.012-5.492 31.53-7.748 51.795-40.866 41.554-75.619-.385-1.321-2.388-.562-1.999.749z" fill="#23286b"/><path d="m813.971 88.689c-.189-8.59-5.567-16.526-11.986-17.71l-.002-.003c-6.418-1.168-11.49 4.867-11.301 13.457.026.997.119 1.993.28 2.977-3.748.397-7.083 2.572-8.955 5.846-.255-.444-.473-.916-.757-1.339-2.141-3.595-5.645-6.174-9.721-7.146-7.427-1.354-13.29 5.651-13.071 15.61.1 4.763 1.535 9.399 4.14 13.382 1.769 2.834 4.343 5.082 7.392 6.455.751.311 1.531.542 2.33.69 3.591.685 7.268-.723 9.486-3.637 2.575-3.447 3.842-7.688 3.584-11.97-.089-3.338-.828-6.628-2.174-9.681 1.928-2.793 4.557-5.957 8.251-5.906.053.197.125.384.185.579.147.171.25.375.299.596.005.025.012.046.017.071.013.025.034.036.048.059 1.348 2.74 3.172 5.212 5.393 7.307 1.005.859 2.062 1.636 3.119 2.415.252.161.49.366.734.544.337.249.672.495 1.006.748.136.036.262.094.399.121 6.423 1.159 11.494-4.878 11.304-13.465zm-30.697 16.221c.237 3.807-.881 7.58-3.157 10.645-1.822 2.429-4.86 3.62-7.844 3.075-3.38-.825-6.281-2.978-8.044-5.973-2.307-3.538-3.574-7.654-3.656-11.885-.192-8.711 4.745-14.864 11.002-13.718.646.118 1.274.306 1.877.554 2.545 1.156 4.691 3.042 6.166 5.418 2.31 3.538 3.575 7.655 3.656 11.884zm19.345-5.043c-5.266-.966-9.658-7.707-9.819-15.04-.161-7.335 3.979-12.525 9.232-11.567 5.269.959 9.662 7.713 9.82 15.041.164 7.334-3.978 12.523-9.233 11.566z" fill="#3e8af8"/><path d="m1034.269 383.223c8.044.191 16.293 1.119 23.705 2.845 9.755 2.272 19.775 3.143 29.78 2.687.071-.003.142-.006.213-.01 23.94-1.05 22.46-6.57 41.94-4.56 18.67 1.93 22.71-14.96-2.12-17.39-20.33-1.98-26.97-9.22-46.7-8.36" fill="url(#o-i1)"/><path d="m714.61 199.278c-122.53 28.994-191.638 51.466-243.749 86.275-47.601 31.797-34.63 65.2-71.89 80.18-66.71 26.82-81.82 58.21-97.54 83.16 19.37 14.38 77 59.66 115.73 90.21l.335-.158 35.01 27.585c80.144-148.132 126.42-227.682 271.026-308.515z" fill="url(#p-i1)"/></svg></g></svg>