<svg xmlns="http://www.w3.org/2000/svg" version="1.1" viewBox="0 0 1600 1200" width="1600" height="1200">
<!--ITEM 1--><g><defs><clipPath id="clip-path-id-viewbox-item-1"><rect x="0.0" y="0.0" width="102.0" height="60.0"/></clipPath></defs><g transform="translate(663.0 22.0) rotate(0.0 298.0 175.5) scale(5.8431372549019605 5.85)"><g clip-path="url(#clip-path-id-viewbox-item-1)" transform="translate(-0.0 -0.0)"><title>cloud_2</title>
<g id="Layer_1-2-i1">
	<path d="M88.8,21.2C87.3,8.1,75.4-1.4,62.2,0.2C55,1,48.6,5,44.7,11.1C35.4,6.3,24,9.9,19.1,19.2   c-0.8,1.5-1.4,3.1-1.7,4.8C7.5,24.3-0.3,32.6,0,42.6C0.3,52.3,8.3,60,18,60h64c11,0,20-8.9,20-20C102,31.6,96.7,24.1,88.8,21.2z" style="fill:#a1c3fc;"/>
</g>
</g></g></g><!--ITEM 2--><g><defs><clipPath id="clip-path-id-crop-item-2"><rect transform="scale(0.2694610778443114 0.2692307692307692)" x="116" y="0.0" width="385.0" height="130.0"/></clipPath><clipPath id="clip-path-id-viewbox-item-2"><rect x="0.0" y="0.0" width="135.0" height="35.0"/></clipPath></defs><g clip-path="url(#clip-path-id-crop-item-2)" transform="translate(528.0 392.0) rotate(-67.80113349264398 250.5 65.0) scale(3.7111111111111112 3.7142857142857144)"><g clip-path="url(#clip-path-id-viewbox-item-2)" transform="translate(-0.0 -0.0)"><circle fill="#eeeeee00" cx="117.5" cy="17.5" r="17.5"/>
<circle fill="#428dfc" cx="117.5" cy="17.5" r="9.459"/>
<g>
	<rect y="16" fill="#428dfc" width="120" height="2"/>
</g>
</g></g></g><!--ITEM 3--><g><defs><clipPath id="clip-path-id-viewbox-item-3"><rect x="0.0" y="0.0" width="135.0" height="35.0"/></clipPath></defs><g transform="translate(859.0 398.0) rotate(-101.6068694218573 250.5 65.0) scale(3.7111111111111112 3.7142857142857144)"><g clip-path="url(#clip-path-id-viewbox-item-3)" transform="translate(-0.0 -0.0)"><circle fill="#eeeeee00" cx="117.5" cy="17.5" r="17.5"/>
<circle fill="#428dfc" cx="117.5" cy="17.5" r="9.459"/>
<g>
	<rect y="16" fill="#428dfc" width="120" height="2"/>
</g>
</g></g></g><!--ITEM 4--><g><defs><clipPath id="clip-path-id-viewbox-item-4"><rect x="0.0" y="0.0" width="214.0" height="372.0"/></clipPath></defs><g transform="translate(55.0 513.0) rotate(0.0 185.0 323.0) scale(1.7289719626168225 1.7365591397849462)"><g clip-path="url(#clip-path-id-viewbox-item-4)" transform="translate(-0.0 -0.0)"><g>
	
		<linearGradient id="wheel_3_1_-i4" gradientUnits="userSpaceOnUse" x1="3845.3201" y1="8969.1982" x2="2455.0232" y2="10940.25" gradientTransform="matrix(0.0178 0 0 0.0178 98.2222 188.9022)">
		<stop offset="0.0898" style="stop-color:#EEEEEE"/>
		<stop offset="0.8178" style="stop-color:#D6D7D8"/>
	</linearGradient>
	<circle id="wheel_3-i4" fill="url(#wheel_3_1_-i4)" cx="159.695" cy="358.12" r="13.876"/>
	
		<linearGradient id="chair_seat_1_-i4" gradientUnits="userSpaceOnUse" x1="7166.9385" y1="-1395.4995" x2="1579.5626" y2="-796.85" gradientTransform="matrix(0.0178 0 0 0.0178 98.2222 188.9022)">
		<stop offset="0.14" style="stop-color:#E94A47"/>
		<stop offset="1" style="stop-color:#C63030"/>
	</linearGradient>
	<rect id="chair_seat-i4" x="31.339" y="158.247" fill="url(#chair_seat_1_-i4)" width="182.661" height="33.757"/>
	
		<linearGradient id="chair_bottom_1_1_-i4" gradientUnits="userSpaceOnUse" x1="1267.5669" y1="1223.2161" x2="1458.7025" y2="-751.934" gradientTransform="matrix(0.0178 0 0 0.0178 98.2222 188.9022)">
		<stop offset="0" style="stop-color:#23286B"/>
		<stop offset="1" style="stop-color:#151A4F"/>
	</linearGradient>
	<path id="chair_bottom_1-i4" fill="url(#chair_bottom_1_1_-i4)" d="M89.379,192.004h66.313l0,0l0,0c0,5.871-4.803,10.541-10.541,10.541   h-45.098C94.049,202.545,89.379,197.875,89.379,192.004L89.379,192.004L89.379,192.004z"/>
	
		<linearGradient id="chair_bottom_2_1_-i4" gradientUnits="userSpaceOnUse" x1="-1774.4059" y1="-171.9043" x2="1984.7495" y2="1946.5952" gradientTransform="matrix(0.0178 0 0 0.0178 98.2222 188.9022)">
		<stop offset="0" style="stop-color:#23286B"/>
		<stop offset="1" style="stop-color:#151A4F"/>
	</linearGradient>
	<rect id="chair_bottom_2-i4" x="114.33" y="202.411" fill="url(#chair_bottom_2_1_-i4)" width="16.278" height="29.754"/>
	
		<linearGradient id="chair_bottom_3_1_-i4" gradientUnits="userSpaceOnUse" x1="1394.5601" y1="4361.2573" x2="1237.8496" y2="9752.2109" gradientTransform="matrix(0.0178 0 0 0.0178 98.2222 188.9022)">
		<stop offset="0" style="stop-color:#23286B"/>
		<stop offset="1" style="stop-color:#151A4F"/>
	</linearGradient>
	<path id="chair_bottom_3-i4" fill="url(#chair_bottom_3_1_-i4)" d="M120.735,228.963h3.603c5.871,0,10.674,4.803,10.674,10.674v86.994   l0,0h-24.951l0,0v-86.994C109.927,233.766,114.731,228.963,120.735,228.963z"/>
	
		<linearGradient id="leg_4_1_-i4" gradientUnits="userSpaceOnUse" x1="3770.3982" y1="8052.0967" x2="1153.2808" y2="7284.2041" gradientTransform="matrix(0.0178 0 0 0.0178 98.2222 188.9022)">
		<stop offset="0" style="stop-color:#23286B"/>
		<stop offset="1" style="stop-color:#151A4F"/>
	</linearGradient>
	<path id="leg_4-i4" fill="url(#leg_4_1_-i4)" d="M122.603,326.631h61.376c7.605,0,13.61,6.138,13.61,13.61v4.403h-4.403v-0.934v-1.868   c0-6.004-4.803-10.808-10.808-10.808l0,0h-59.775L122.603,326.631z"/>
	<path id="leg_3-i4" fill="#23286B" d="M122.603,326.631h25.885c7.605,0,13.61,6.138,13.61,13.61v4.403h-4.403v-0.934v-1.868   c0-6.004-4.803-10.808-10.808-10.808l0,0h-24.284V326.631z"/>
	
		<linearGradient id="leg_1_1_-i4" gradientUnits="userSpaceOnUse" x1="-3130.1257" y1="6079.877" x2="-1030.1648" y2="7976.1084" gradientTransform="matrix(0.0178 0 0 0.0178 98.2222 188.9022)">
		<stop offset="0" style="stop-color:#23286B"/>
		<stop offset="1" style="stop-color:#151A4F"/>
	</linearGradient>
	<path id="leg_1-i4" fill="url(#leg_1_1_-i4)" d="M122.87,326.631H61.493c-7.605,0-13.61,6.138-13.61,13.61v4.403h4.403v-0.934v-1.868   c0-6.004,4.803-10.808,10.808-10.808l0,0h59.775L122.87,326.631z"/>
	<path id="leg_2-i4" fill="#23286B" d="M122.87,326.631H96.985c-7.605,0-13.61,6.138-13.61,13.61v4.403h4.403v-0.934v-1.868   c0-6.004,4.803-10.808,10.808-10.808l0,0h24.284V326.631z"/>
	
		<linearGradient id="wheel_2_1_-i4" gradientUnits="userSpaceOnUse" x1="-234.7086" y1="9132.1367" x2="-2663.3267" y2="11085.5889" gradientTransform="matrix(0.0178 0 0 0.0178 98.2222 188.9022)">
		<stop offset="0.0898" style="stop-color:#EEEEEE"/>
		<stop offset="0.8178" style="stop-color:#D6D7D8"/>
	</linearGradient>
	<circle id="wheel_2-i4" fill="url(#wheel_2_1_-i4)" cx="85.51" cy="358.12" r="13.876"/>
	
		<linearGradient id="wheel_4_1_-i4" gradientUnits="userSpaceOnUse" x1="6100.9658" y1="8845.0889" x2="4235.5049" y2="10833.748" gradientTransform="matrix(0.0178 0 0 0.0178 98.2222 188.9022)">
		<stop offset="0.0898" style="stop-color:#EEEEEE"/>
		<stop offset="0.8178" style="stop-color:#D6D7D8"/>
	</linearGradient>
	<circle id="wheel_4-i4" fill="url(#wheel_4_1_-i4)" cx="195.454" cy="358.12" r="13.876"/>
	
		<linearGradient id="wheel_1_1_-i4" gradientUnits="userSpaceOnUse" x1="-2203.6692" y1="8805.1846" x2="-3681.9573" y2="10881.835" gradientTransform="matrix(0.0178 0 0 0.0178 98.2222 188.9022)">
		<stop offset="0.0898" style="stop-color:#EEEEEE"/>
		<stop offset="0.8178" style="stop-color:#D6D7D8"/>
	</linearGradient>
	<circle id="wheel_1-i4" fill="url(#wheel_1_1_-i4)" cx="50.019" cy="358.12" r="13.876"/>
	
		<linearGradient id="chair_back_1_-i4" gradientUnits="userSpaceOnUse" x1="554.8203" y1="-8350.1348" x2="-5185.3027" y2="3563.3252" gradientTransform="matrix(0.0178 0 0 0.0178 98.2222 188.9022)">
		<stop offset="0.14" style="stop-color:#E94A47"/>
		<stop offset="1" style="stop-color:#C63030"/>
	</linearGradient>
	<path id="chair_back-i4" fill="url(#chair_back_1_-i4)" d="M154.225,192.004H31.339L0.384,26.822C-1.884,14.546,6.121,2.671,18.53,0.403   c1.334-0.267,2.802-0.4,4.136-0.4h76.72c10.941,0,20.281,7.739,22.282,18.413L154.225,192.004z"/>
</g>
</g></g></g><!--ITEM 5--><g><defs><clipPath id="clip-path-id-viewbox-item-5"><rect x="0.0" y="0.0" width="267.517" height="98.883"/></clipPath></defs><g transform="translate(451.0 493.0) rotate(0.0 196.0 69.5) scale(1.4653274371348364 1.4057016878533217)"><g clip-path="url(#clip-path-id-viewbox-item-5)" transform="translate(-0.0 -0.0)"><g>
	
		<linearGradient id="front_side_of_the_laptop_1_-i5" gradientUnits="userSpaceOnUse" x1="1143.8191" y1="163.2095" x2="1247.4701" y2="163.2095" gradientTransform="matrix(-1 0 0 1 1286.3896 -70)">
		<stop offset="0" style="stop-color:#A1C3FC"/>
		<stop offset="0.6955" style="stop-color:#81AEF2"/>
		<stop offset="0.8442" style="stop-color:#7DACF1"/>
		<stop offset="1" style="stop-color:#78A9EF"/>
	</linearGradient>
	<rect id="front_side_of_the_laptop-i5" y="87.536" fill="url(#front_side_of_the_laptop_1_-i5)" width="103.651" height="11.347"/>
	
		<linearGradient id="right_side_of_the_laptop_1_-i5" gradientUnits="userSpaceOnUse" x1="1058.0839" y1="163.207" x2="1176.6469" y2="163.207" gradientTransform="matrix(-1 0 0 1 1286.3898 -70)">
		<stop offset="0" style="stop-color:#A1C3FC"/>
		<stop offset="0.6955" style="stop-color:#81AEF2"/>
		<stop offset="0.8442" style="stop-color:#7DACF1"/>
		<stop offset="1" style="stop-color:#78A9EF"/>
	</linearGradient>
	
		<rect id="right_side_of_the_laptop-i5" x="103.65" y="87.531" fill="url(#right_side_of_the_laptop_1_-i5)" width="118.563" height="11.352"/>
	
		<linearGradient id="screen_1_-i5" gradientUnits="userSpaceOnUse" x1="144.4605" y1="152.336" x2="-62.9746" y2="421.8845" gradientTransform="matrix(1 0 0 1 0 -70)">
		<stop offset="0" style="stop-color:#A1C3FC"/>
		<stop offset="0.6955" style="stop-color:#81AEF2"/>
		<stop offset="1" style="stop-color:#78A9EF"/>
	</linearGradient>
	<polygon id="screen-i5" fill="url(#screen_1_-i5)" points="80.769,87.531 222.214,87.531 267.517,0 126.072,0  "/>
	<path id="texture-i5" opacity="0.51" fill="#FFFFFF" enable-background="new    " d="M242.896,7.679   c0.229,0.167,0.551,0.117,0.718-0.112c0.004-0.005,0.007-0.01,0.011-0.015c0.164-0.228,0.111-0.546-0.117-0.709   c-0.001-0.001-0.002-0.002-0.004-0.003c-0.229-0.167-0.551-0.117-0.718,0.112c-0.004,0.005-0.007,0.01-0.011,0.015   c-0.164,0.228-0.111,0.546,0.117,0.709C242.893,7.677,242.894,7.678,242.896,7.679z M248.935,20.007   c0.242,0.079,0.502-0.05,0.585-0.29c0.083-0.241-0.045-0.504-0.286-0.587s-0.504,0.045-0.587,0.286   c-0.001,0.002-0.001,0.004-0.002,0.006C248.567,19.663,248.695,19.922,248.935,20.007L248.935,20.007z M252.471,9.36   c0.242,0.078,0.501-0.051,0.585-0.29c0.088-0.239-0.034-0.505-0.273-0.594c-0.239-0.088-0.505,0.034-0.594,0.273   c-0.003,0.009-0.006,0.017-0.009,0.026c-0.085,0.235,0.037,0.494,0.272,0.578C252.458,9.356,252.465,9.358,252.471,9.36   L252.471,9.36z M251.521,31.637c0.036,0.294,0.296,0.508,0.591,0.486c0.294-0.023,0.514-0.28,0.493-0.574   c-0.033-0.296-0.295-0.511-0.591-0.486C251.72,31.086,251.5,31.342,251.521,31.637L251.521,31.637z M250.467,18.723   c0.022,0.295,0.279,0.516,0.574,0.493c0.295-0.022,0.516-0.279,0.493-0.574c-0.022-0.295-0.279-0.515-0.574-0.493   C250.666,18.173,250.446,18.429,250.467,18.723z M249.396,5.816c0.033,0.296,0.295,0.512,0.591,0.486   c0.292-0.033,0.502-0.297,0.469-0.59s-0.297-0.502-0.59-0.469C249.581,5.277,249.372,5.53,249.396,5.816z M257.232,1.668   c0.129,0.269,0.451,0.384,0.72,0.256c0.267-0.122,0.384-0.436,0.263-0.703c-0.122-0.267-0.436-0.384-0.703-0.262l0,0   C257.244,1.082,257.121,1.394,257.232,1.668L257.232,1.668z M239.759,11.534c0.014,0.291,0.262,0.515,0.552,0.5   c0.001,0,0.003,0,0.004,0c0.295-0.007,0.529-0.251,0.524-0.546c-0.016-0.297-0.266-0.527-0.564-0.517   C239.981,10.99,239.754,11.238,239.759,11.534L239.759,11.534z M263.083,3.378c0.134,0.178,0.387,0.213,0.565,0.079   c0.174-0.131,0.212-0.378,0.086-0.556c-0.12-0.176-0.361-0.221-0.536-0.1c-0.011,0.008-0.022,0.016-0.033,0.025   C262.993,2.958,262.957,3.202,263.083,3.378L263.083,3.378z M242.805,7.296c0.06,0.213,0.278,0.34,0.492,0.286   c0.208-0.066,0.331-0.279,0.286-0.492c-0.056-0.214-0.275-0.342-0.489-0.287c-0.001,0-0.003,0.001-0.004,0.001   c-0.209,0.047-0.34,0.255-0.293,0.464C242.799,7.277,242.802,7.286,242.805,7.296L242.805,7.296z"/>
	<path id="texture-2-i5" opacity="0.51" fill="#FFFFFF" enable-background="new    " d="M168.566,7.773   c0.194,0.142,0.467,0.099,0.609-0.095c0.003-0.004,0.006-0.009,0.009-0.013c0.139-0.193,0.094-0.462-0.099-0.601   c-0.001-0.001-0.002-0.001-0.003-0.002c-0.194-0.142-0.467-0.099-0.609,0.095c-0.003,0.004-0.006,0.009-0.009,0.013   c-0.139,0.193-0.094,0.462,0.099,0.601C168.564,7.771,168.565,7.772,168.566,7.773z M205.922,26.165   c0.045,0.239,0.273,0.397,0.513,0.357c0.232-0.03,0.396-0.243,0.366-0.475c-0.001-0.008-0.002-0.016-0.004-0.024   c-0.045-0.239-0.273-0.397-0.513-0.357C206.047,25.704,205.885,25.927,205.922,26.165L205.922,26.165z M204.14,15.676   c0.043,0.24,0.273,0.4,0.513,0.357s0.4-0.273,0.357-0.513c-0.037-0.238-0.26-0.4-0.498-0.362c0,0,0,0-0.001,0   C204.271,15.207,204.11,15.432,204.14,15.676L204.14,15.676z M202.367,5.165c0.038,0.237,0.261,0.397,0.498,0.359   c0.005-0.001,0.01-0.002,0.015-0.003c0.232-0.03,0.396-0.243,0.366-0.475c-0.001-0.008-0.002-0.016-0.004-0.024   c-0.05-0.24-0.276-0.401-0.519-0.371C202.485,4.697,202.326,4.926,202.367,5.165L202.367,5.165z M183.799,20.816   c0.237,0.046,0.466-0.108,0.513-0.345s-0.108-0.466-0.345-0.513c-0.232-0.045-0.458,0.102-0.51,0.333   C183.41,20.53,183.562,20.763,183.799,20.816L183.799,20.816z M186.174,10.432c0.237,0.046,0.466-0.108,0.513-0.345   c0.046-0.237-0.108-0.466-0.345-0.513c-0.232-0.045-0.458,0.102-0.51,0.333C185.784,10.145,185.936,10.378,186.174,10.432   L186.174,10.432z M223.758,14.156c0.134,0.203,0.405,0.262,0.611,0.132c0.202-0.125,0.265-0.39,0.14-0.592   c-0.001-0.001-0.002-0.003-0.003-0.004c-0.111-0.205-0.368-0.281-0.573-0.17c-0.01,0.005-0.02,0.011-0.029,0.017   C223.704,13.676,223.64,13.943,223.758,14.156L223.758,14.156z M218.099,5.127c0.137,0.201,0.404,0.264,0.617,0.146   c0.203-0.134,0.262-0.405,0.132-0.611c-0.129-0.204-0.399-0.265-0.604-0.136c-0.002,0.001-0.005,0.003-0.007,0.004   c-0.202,0.125-0.265,0.389-0.14,0.592C218.097,5.124,218.098,5.125,218.099,5.127L218.099,5.127z M173.682,18.218   c0.205,0.067,0.425-0.042,0.496-0.246c0.07-0.205-0.039-0.427-0.244-0.497s-0.427,0.039-0.497,0.244   c0,0.001-0.001,0.002-0.001,0.003C173.371,17.927,173.48,18.146,173.682,18.218L173.682,18.218z M176.679,9.197   c0.205,0.066,0.425-0.043,0.496-0.246c0.075-0.203-0.028-0.428-0.231-0.503c-0.203-0.075-0.428,0.028-0.503,0.231   c-0.003,0.008-0.005,0.015-0.008,0.023c-0.072,0.199,0.031,0.418,0.23,0.49C176.668,9.193,176.674,9.195,176.679,9.197   L176.679,9.197z M213.354,15.125c0.106,0.193,0.344,0.27,0.543,0.175c0.188-0.092,0.266-0.319,0.174-0.508   c-0.003-0.005-0.005-0.01-0.008-0.015c-0.093-0.195-0.327-0.278-0.522-0.184c-0.002,0.001-0.004,0.002-0.007,0.003   C213.346,14.698,213.267,14.928,213.354,15.125L213.354,15.125z M209.111,6.638c0.099,0.189,0.332,0.263,0.523,0.166   c0.188-0.092,0.266-0.319,0.174-0.508c-0.003-0.005-0.005-0.01-0.008-0.015c-0.093-0.195-0.327-0.278-0.522-0.184   c-0.002,0.001-0.004,0.002-0.007,0.003C209.082,6.207,209.011,6.445,209.111,6.638L209.111,6.638z M192.524,15.717   c0.022,0.215,0.212,0.374,0.428,0.356c0.214-0.015,0.376-0.2,0.362-0.414c-0.019-0.216-0.202-0.38-0.419-0.376   C192.674,15.303,192.509,15.496,192.524,15.717z M191.849,6.23c0.007,0.208,0.182,0.371,0.39,0.363   c0.008,0,0.016-0.001,0.023-0.002c0.214-0.015,0.376-0.2,0.362-0.414c-0.019-0.216-0.202-0.381-0.419-0.376   C191.99,5.824,191.831,6.014,191.849,6.23L191.849,6.23z M166.154,1.527c0.132,0.046,0.276-0.023,0.323-0.155   c0.001-0.003,0.002-0.005,0.003-0.008c0.051-0.133-0.016-0.283-0.149-0.334c-0.006-0.002-0.013-0.005-0.019-0.006   c-0.132-0.046-0.276,0.023-0.323,0.155c-0.001,0.003-0.002,0.005-0.003,0.008C165.941,1.327,166.016,1.478,166.154,1.527   L166.154,1.527z M175.874,28.072c0.03,0.249,0.251,0.43,0.501,0.412c0.249-0.02,0.436-0.237,0.418-0.486   c-0.028-0.251-0.25-0.433-0.501-0.412C176.043,27.605,175.856,27.822,175.874,28.072L175.874,28.072z M174.981,17.13   c0.019,0.25,0.237,0.437,0.486,0.418c0.25-0.019,0.437-0.237,0.418-0.486c-0.019-0.25-0.237-0.437-0.486-0.418   C175.149,16.664,174.963,16.881,174.981,17.13L174.981,17.13z M174.073,6.194c0.028,0.251,0.25,0.433,0.501,0.412   c0.248-0.028,0.425-0.252,0.397-0.5s-0.252-0.425-0.5-0.397C174.23,5.737,174.053,5.952,174.073,6.194z M217.126,7.254   c0.199,0.158,0.486,0.134,0.656-0.055c0.157-0.199,0.124-0.487-0.075-0.644c-0.192-0.152-0.469-0.126-0.63,0.058   C216.919,6.806,216.941,7.088,217.126,7.254L217.126,7.254z M195.525,17.531c0.125,0.215,0.393,0.3,0.619,0.196   c0.217-0.121,0.297-0.394,0.182-0.613c-0.108-0.222-0.375-0.314-0.596-0.206c-0.003,0.001-0.005,0.003-0.008,0.004   C195.496,17.028,195.408,17.305,195.525,17.531C195.525,17.53,195.525,17.531,195.525,17.531z M190.505,7.759   c0.116,0.225,0.393,0.313,0.618,0.197h0.001c0.217-0.113,0.301-0.381,0.188-0.598c0,0,0,0,0-0.001   c-0.111-0.223-0.382-0.313-0.604-0.202C190.484,7.266,190.393,7.537,190.505,7.759L190.505,7.759z M189.893,22.528   c0.111,0.222,0.381,0.313,0.603,0.202c0.222-0.111,0.313-0.381,0.202-0.603c-0.108-0.217-0.368-0.309-0.589-0.209   C189.881,22.027,189.784,22.3,189.893,22.528L189.893,22.528z M185.303,12.604c0.109,0.228,0.382,0.325,0.61,0.217   c0.219-0.109,0.317-0.369,0.222-0.596c-0.113-0.227-0.382-0.328-0.616-0.231C185.296,12.107,185.201,12.375,185.303,12.604   L185.303,12.604z M180.713,2.679c0.109,0.228,0.382,0.325,0.61,0.217c0.227-0.102,0.328-0.367,0.227-0.594   c-0.102-0.227-0.367-0.328-0.594-0.227c-0.002,0.001-0.004,0.002-0.006,0.003C180.723,2.183,180.619,2.448,180.713,2.679z    M165.908,11.039c0.012,0.246,0.222,0.436,0.468,0.424c0.001,0,0.003,0,0.004,0c0.25-0.006,0.448-0.213,0.444-0.463   c-0.014-0.252-0.226-0.446-0.478-0.438C166.096,10.578,165.904,10.788,165.908,11.039z M204.62,5.039   c0.189,0.167,0.477,0.151,0.647-0.035c0.166-0.183,0.153-0.465-0.029-0.632c-0.172-0.172-0.452-0.172-0.624,0   c-0.005,0.005-0.009,0.009-0.014,0.014c-0.175,0.18-0.171,0.468,0.009,0.642C204.613,5.032,204.617,5.036,204.62,5.039z    M185.67,4.128c0.114,0.15,0.329,0.18,0.479,0.065c0.146-0.111,0.179-0.319,0.073-0.469c-0.102-0.149-0.305-0.187-0.455-0.085   c-0.01,0.007-0.019,0.014-0.028,0.021C185.594,3.773,185.564,3.979,185.67,4.128L185.67,4.128z M168.488,7.448   c0.051,0.18,0.235,0.288,0.417,0.242c0.176-0.056,0.281-0.236,0.242-0.417c-0.047-0.181-0.233-0.29-0.414-0.243   c-0.001,0-0.002,0.001-0.003,0.001c-0.177,0.04-0.288,0.216-0.248,0.393C168.484,7.432,168.486,7.44,168.488,7.448L168.488,7.448z"/>
</g>
</g></g></g><!--ITEM 6--><g><defs><clipPath id="clip-path-id-viewbox-item-6"><rect x="0.0" y="0.0" width="83.29" height="54.37"/></clipPath></defs><g transform="translate(1146.0 903.0) rotate(0.0 197.5 128.5) scale(4.742466082362828 4.726871436453927)"><g clip-path="url(#clip-path-id-viewbox-item-6)" transform="translate(-0.0 -0.0)"><polygon fill="#e94a47" points="0,0 0,54.37 12,54.37 12,16.499 71.291,16.499 71.291,54.37 83.29,54.37 83.29,0 "/>
</g></g></g><!--ITEM 7--><g><defs><clipPath id="clip-path-id-crop-item-7"><rect transform="scale(0.45269630484988455 0.4545996275605214)" x="5.0" y="0.0" width="685" height="526.0"/></clipPath><clipPath id="clip-path-id-viewbox-item-7"><rect x="0.0" y="0.0" width="392.035" height="244.12"/></clipPath></defs><g clip-path="url(#clip-path-id-crop-item-7)" transform="translate(925.0 632.0) rotate(0.0 -433.0 268.5) scale(-2.208986442537018 2.199737833852204)"><g clip-path="url(#clip-path-id-viewbox-item-7)" transform="translate(-0.0 -0.0)"><g>
	
		<linearGradient id="_1_leg_1_-i7" gradientUnits="userSpaceOnUse" x1="386.4334" y1="191.7601" x2="387.0574" y2="8.2947" gradientTransform="matrix(1 0 0 1 0 -70)">
		<stop offset="0" style="stop-color:#EEEEEE"/>
		<stop offset="1" style="stop-color:#DCE3EA"/>
	</linearGradient>
	<rect id="_1_leg-i7" x="380.792" y="11.118" fill="url(#_1_leg_1_-i7)" width="11.243" height="233.002"/>
	<g>
		
			<linearGradient id="_3_leg_1_-i7" gradientUnits="userSpaceOnUse" x1="5.4197" y1="257.2327" x2="6.0437" y2="73.7673" gradientTransform="matrix(1 0 0 1 0 -70)">
			<stop offset="0" style="stop-color:#EEEEEE"/>
			<stop offset="1" style="stop-color:#DCE3EA"/>
		</linearGradient>
		<rect id="_3_leg-i7" x="0.001" y="11.118" fill="url(#_3_leg_1_-i7)" width="11.243" height="233.002"/>
		
			<linearGradient id="_2_leg_1_-i7" gradientUnits="userSpaceOnUse" x1="139.01" y1="283.9023" x2="139.6341" y2="100.4368" gradientTransform="matrix(1 0 0 1 0 -70)">
			<stop offset="0" style="stop-color:#EEEEEE"/>
			<stop offset="1" style="stop-color:#DCE3EA"/>
		</linearGradient>
		<rect id="_2_leg-i7" x="133.682" y="11.118" fill="url(#_2_leg_1_-i7)" width="11.243" height="233.002"/>
		
			<linearGradient id="side_1_-i7" gradientUnits="userSpaceOnUse" x1="165.4002" y1="77.5139" x2="100.2496" y2="79.9269" gradientTransform="matrix(1 0 0 1 0 -70)">
			<stop offset="0" style="stop-color:#EEEEEE"/>
			<stop offset="1" style="stop-color:#DCE3EA"/>
		</linearGradient>
		<rect id="side-i7" fill="url(#side_1_-i7)" width="392.03" height="12.76"/>
		
			<linearGradient id="front_1_-i7" gradientUnits="userSpaceOnUse" x1="-44.9772" y1="77.5548" x2="75.5166" y2="76.3499" gradientTransform="matrix(1 0 0 1 0 -70)">
			<stop offset="0" style="stop-color:#EEEEEE"/>
			<stop offset="1" style="stop-color:#DCE3EA"/>
		</linearGradient>
		<rect id="front-i7" x="0.09" fill="url(#front_1_-i7)" width="144.83" height="12.76"/>
	</g>
</g>
</g></g></g><!--ITEM 8--><g><defs><clipPath id="clip-path-id-crop-item-8"><rect transform="scale(0.44745222929936307 0.44742729306487694)" x="0.0" y="0.0" width="628.0" height="893.0"/></clipPath><clipPath id="clip-path-id-viewbox-item-8"><rect x="0.0" y="0.0" width="281.0" height="400.0"/></clipPath></defs><g clip-path="url(#clip-path-id-crop-item-8)" transform="translate(697.0 267.0) rotate(0.0 -314.0 447.0) scale(-2.2348754448398576 2.235)"><g clip-path="url(#clip-path-id-viewbox-item-8)" transform="translate(-0.0 -0.0)"><linearGradient id="L_hand_2_-i8" gradientUnits="userSpaceOnUse" x1="3865.0413" y1="3609.4814" x2="5021.6396" y2="3609.4814" gradientTransform="matrix(0.0741 0 0 0.0741 -230.5491 -116.8632)">
	<stop offset="0" style="stop-color:#FFBEB6"/>
	<stop offset="1" style="stop-color:#F2A19C"/>
</linearGradient>
<path id="L_hand_1_-i8" fill="url(#L_hand_2_-i8)" d="M127.557,140.99c0,0-17.41,3.24-26.608-0.056  c-9.197-3.298-22.436-11.753-26.949-8.629c-4.512,3.124-18.149,12.701-18.149,12.701s3.817,4.167,12.148-1.041  c8.33-5.208,9.493-1.816,14.006,1.482c4.513,3.299,13.391,12.672,21.547,9.895c8.156-2.777,12.494-1.91,19.783,2.951  c7.288,4.86,18.221,11.284,18.221,11.284l-6.248-24.475L127.557,140.99z"/>
<linearGradient id="R_trousers_1_-i8" gradientUnits="userSpaceOnUse" x1="3173.5127" y1="-4937.5073" x2="4357.9399" y2="-3597.5493" gradientTransform="matrix(0.0741 0 0 -0.0741 -230.5491 -0.9887)">
	<stop offset="0" style="stop-color:#3E8AF8"/>
	<stop offset="0.4648" style="stop-color:#2A82F5"/>
	<stop offset="1" style="stop-color:#1479F2"/>
</linearGradient>
<path id="R_trousers-i8" fill="url(#R_trousers_1_-i8)" d="M83.884,361.372H54.012c0,0,6.057-101.809,8.89-130.058  c2.848-28.392,4.583-38.532,43.388-42.331c44.313-4.336,71.246-4.251,71.246-4.251l-44.651,37.685  c-10.436,8.808-14.968,22.779-11.689,36.038l0.524,2.121c1.936,7.834,1.176,16.093-2.157,23.441l-15.674,34.552  C103.89,318.57,106.436,347.446,83.884,361.372z"/>
<path id="L_leg-i8" fill="#428DFC" d="M244.888,192.805c-1.516,5.875-1.087,32.368-31.298,38.179  c-35.018,6.738-56.14,5.352-66.264,8.114c-8.227,2.245-10.595,5.387-9.724,11.221c0.872,5.826,9.219,12.591,11.843,23.669  c2.626,11.077-2.321,18.022,8.317,31.711c10.377,13.354,16.676,26.603,7.109,55.671l-31.765,0.002c0,0-57.126-109.94-60.038-132.967  c-2.911-23.027,14.352-28.175,22.515-30.513c3.091-0.892,13.391-3.732,34.311-8.864c4.477,3.012,14.492,8.65,23.734,6.134  c12.361-3.378,15.165-8.154,29.498-4.776c8.499,2.001,23.624,4.696,35.749,0.327C227.479,192.1,236.177,192.799,244.888,192.805z"/>
<linearGradient id="R_sleeve_1_-i8" gradientUnits="userSpaceOnUse" x1="4832.7349" y1="-1694.983" x2="5739.6377" y2="-1694.983" gradientTransform="matrix(0.0741 0 0 -0.0741 -230.5491 -0.9887)">
	<stop offset="0" style="stop-color:#28306D"/>
	<stop offset="1" style="stop-color:#13194C"/>
</linearGradient>
<path id="R_sleeve-i8" fill="url(#R_sleeve_1_-i8)" d="M194.758,100.753c-0.327,1.338-0.624,2.734-0.882,4.162  c-5.893,32.31-18.888,40.259-37.64,41.873c-10.089,0.868-19.947,2.2-27.019,1.467l-1.661-7.264  C180.362,137.046,190.261,110.534,194.758,100.753z"/>
<path id="L_hand-i8" fill="#FFBEB6" d="M120.485,148.566c0,0-25.163-0.868-34.359-4.167c-9.197-3.298-23.427-10.762-27.939-7.639  c-4.512,3.124-20.13,16.664-20.13,16.664s3.817,4.167,12.148-1.042c8.33-5.208,8.503-6.77,13.016-3.472  c4.513,3.299,17.353,12.672,25.509,9.895c8.156-2.776,12.494-1.91,19.783,2.951c7.288,4.86,18.221,11.284,18.221,11.284  L120.485,148.566"/>
<linearGradient id="neck_1_-i8" gradientUnits="userSpaceOnUse" x1="5973.979" y1="-1062.9771" x2="5973.979" y2="-689.9449" gradientTransform="matrix(0.0741 0 0 -0.0741 -230.5491 -0.9887)">
	<stop offset="0" style="stop-color:#FFBEB6"/>
	<stop offset="1" style="stop-color:#F2A19C"/>
</linearGradient>
<path id="neck-i8" fill="url(#neck_1_-i8)" d="M221.186,62.711c-5.083,2.852-9.646,6.547-13.491,10.928l-0.436,0.337  c-0.562-5.747-1.978-11.376-4.2-16.705c4.676-0.317,10.232-2.249,16.632-6.985C219.026,54.486,219.544,58.788,221.186,62.711z"/>
<path id="face-i8" fill="#FFBEB6" d="M223.334,39.199c-0.287,1.982-2.793,5.727-3.645,11.088c-20.755,17.543-35.015-2.22-35.015-2.22  c-3.011,0.882-6.687-1.819-5.507-4.25c4.769-9.833,4.081-11.196,5.181-16.022c0.287-1.258,0.525-2.398,0.724-3.368  c0.03-0.129,0.059-0.258,0.079-0.376c0.158-0.802,0.287-1.467,0.376-1.962l0.169-0.96c0,0,11.035,10.77,24.248,9.373  C223.156,29.112,223.86,35.543,223.334,39.199z"/>
<path id="texture-i8" opacity="0.71" fill="#FFFFFF" enable-background="new    " d="M227.476,194.292  c-0.071-0.048-0.169-0.03-0.218,0.04c-0.049,0.062-0.04,0.154,0.024,0.203c0.002,0.002,0.004,0.003,0.006,0.005  c0.071,0.048,0.169,0.03,0.218-0.04C227.547,194.433,227.535,194.344,227.476,194.292z M214.232,202.317  c-0.079,0.019-0.133,0.097-0.119,0.178c0.017,0.082,0.097,0.134,0.178,0.117c0.077-0.016,0.129-0.088,0.119-0.166  c-0.011-0.083-0.087-0.141-0.169-0.131C214.238,202.316,214.235,202.316,214.232,202.317z M213.667,198.71  c-0.085,0.008-0.147,0.084-0.139,0.169l0,0c0.019,0.087,0.101,0.143,0.188,0.129c0.083-0.016,0.136-0.097,0.119-0.178l0,0  c-0.01-0.077-0.079-0.131-0.157-0.121C213.675,198.708,213.671,198.709,213.667,198.71L213.667,198.71z M213.082,195.084  c-0.083,0.023-0.134,0.104-0.119,0.188c0.014,0.08,0.09,0.132,0.169,0.119c0.082-0.013,0.138-0.088,0.129-0.169  C213.248,195.137,213.17,195.075,213.082,195.084L213.082,195.084z M199.373,198.751c-0.066-0.037-0.15-0.021-0.198,0.04  c-0.052,0.063-0.044,0.157,0.019,0.21c0.063,0.052,0.157,0.044,0.21-0.019c0.003-0.004,0.007-0.008,0.009-0.012  C199.462,198.897,199.444,198.8,199.373,198.751L199.373,198.751z M220.839,197.898c-0.042-0.067-0.13-0.089-0.197-0.046  c-0.004,0.002-0.007,0.005-0.011,0.007c-0.064,0.036-0.087,0.119-0.049,0.183c0.003,0.005,0.006,0.01,0.01,0.015  c0.034,0.066,0.117,0.094,0.184,0.058c0.005-0.003,0.01-0.005,0.014-0.009c0.07-0.04,0.096-0.128,0.055-0.198  C220.843,197.905,220.841,197.901,220.839,197.898L220.839,197.898z M218.926,194.777c-0.044-0.064-0.129-0.085-0.198-0.049  c-0.03,0.03-0.059,0.049-0.069,0.08v0.02c-0.018,0.04-0.01,0.088,0.02,0.119c0.001,0.011,0.009,0.019,0.02,0.02h0.01  c0.01,0.01,0.02,0.03,0.039,0.04c0.042,0.012,0.088,0.008,0.129-0.01C218.951,194.949,218.973,194.851,218.926,194.777  L218.926,194.777z M217.015,191.666c-0.044-0.068-0.136-0.088-0.204-0.042c-0.068,0.045-0.088,0.136-0.042,0.204  c0.042,0.065,0.129,0.085,0.196,0.046c0.07-0.042,0.094-0.134,0.051-0.205C217.016,191.668,217.016,191.667,217.015,191.666  L217.015,191.666z M206.951,200.138c-0.085-0.015-0.166,0.036-0.188,0.119c-0.023,0.082,0.025,0.166,0.106,0.188  c0.081,0.022,0.166-0.025,0.188-0.106c0.001-0.004,0.002-0.009,0.003-0.013C207.072,200.246,207.028,200.167,206.951,200.138  L206.951,200.138z M207.803,196.59c-0.083-0.02-0.164,0.028-0.188,0.109c-0.015,0.085,0.04,0.164,0.124,0.179  c0.074,0.014,0.148-0.028,0.173-0.101C207.93,196.697,207.882,196.617,207.803,196.59L207.803,196.59z M233.498,207.797  c-0.096-0.129-0.275-0.159-0.406-0.069c-0.127,0.097-0.15,0.277-0.055,0.403c0.094,0.122,0.266,0.15,0.392,0.062  c0.128-0.085,0.162-0.256,0.079-0.384C233.504,207.806,233.501,207.801,233.498,207.797L233.498,207.797z M229.486,202.139  c-0.092-0.128-0.268-0.158-0.397-0.069c-0.13,0.085-0.166,0.258-0.084,0.387c0.004,0.007,0.009,0.012,0.014,0.019  c0.091,0.129,0.268,0.159,0.397,0.069C229.545,202.45,229.575,202.271,229.486,202.139z M225.474,196.492  c-0.096-0.129-0.275-0.159-0.406-0.069c-0.128,0.085-0.163,0.258-0.077,0.386c0.002,0.004,0.005,0.007,0.008,0.011  c0.092,0.131,0.272,0.161,0.403,0.07C225.529,196.799,225.563,196.622,225.474,196.492z M208.883,219.845  c-0.155-0.025-0.302,0.076-0.337,0.228c-0.026,0.155,0.079,0.3,0.232,0.326c0.002,0,0.003,0,0.005,0.001  c0.158,0.028,0.309-0.079,0.337-0.237c0,0,0,0,0-0.001c0.026-0.149-0.073-0.29-0.222-0.315  C208.894,219.846,208.888,219.846,208.883,219.845z M210.041,212.998c-0.154-0.026-0.299,0.077-0.326,0.23  c0,0.003-0.001,0.006-0.001,0.009c-0.028,0.155,0.073,0.305,0.227,0.337c0.157,0.023,0.306-0.082,0.337-0.239  C210.298,213.178,210.195,213.033,210.041,212.998z M211.2,206.162c-0.157-0.019-0.302,0.085-0.337,0.238  c-0.025,0.157,0.083,0.303,0.239,0.328c0.152,0.024,0.296-0.078,0.326-0.228c0.031-0.154-0.067-0.304-0.222-0.335  C211.204,206.163,211.202,206.162,211.2,206.162L211.2,206.162z M212.35,199.326c-0.154-0.016-0.295,0.088-0.327,0.238  c-0.028,0.158,0.077,0.31,0.235,0.337c0.158,0.027,0.31-0.077,0.337-0.236c0.028-0.158-0.077-0.31-0.235-0.337  C212.357,199.327,212.354,199.327,212.35,199.326z M213.518,192.488c-0.155-0.026-0.3,0.079-0.326,0.233  c0,0.002,0,0.003-0.001,0.005c-0.033,0.15,0.061,0.3,0.211,0.334c0.005,0.001,0.011,0.002,0.016,0.003  c0.15,0.028,0.295-0.069,0.324-0.22c0.001-0.006,0.002-0.012,0.003-0.018C213.774,192.669,213.673,192.521,213.518,192.488  L213.518,192.488z M239.233,196.938c-0.132-0.089-0.31-0.052-0.399,0.08c-0.089,0.132-0.052,0.31,0.079,0.399  c0.004,0.003,0.008,0.005,0.012,0.008c0.135,0.08,0.308,0.04,0.397-0.09c0.087-0.127,0.053-0.299-0.072-0.387  C239.243,196.945,239.239,196.941,239.233,196.938L239.233,196.938z M223.394,216.13c-0.154,0.032-0.251,0.183-0.218,0.337  c0.032,0.153,0.183,0.251,0.337,0.218c0.158-0.033,0.261-0.188,0.227-0.347C223.7,216.186,223.547,216.095,223.394,216.13  L223.394,216.13z M221.849,209.372c-0.148,0.025-0.248,0.164-0.222,0.312c0.001,0.008,0.003,0.017,0.005,0.025  c0.032,0.152,0.182,0.251,0.335,0.218c0.001,0,0.001,0,0.002,0c0.158-0.033,0.261-0.188,0.227-0.347  c-0.036-0.152-0.19-0.246-0.342-0.208C221.852,209.371,221.851,209.372,221.849,209.372L221.849,209.372z M220.294,202.605  c-0.152,0.039-0.246,0.193-0.208,0.347c0.032,0.152,0.182,0.251,0.335,0.218c0.001,0,0.001,0,0.002,0  c0.157-0.035,0.258-0.189,0.227-0.347C220.609,202.667,220.451,202.571,220.294,202.605L220.294,202.605z M218.748,195.847  c-0.152,0.036-0.246,0.19-0.208,0.342c0,0.002,0.001,0.003,0.001,0.005c0.028,0.146,0.171,0.242,0.316,0.213  c0.007-0.001,0.014-0.003,0.021-0.005c0.15-0.028,0.249-0.171,0.22-0.321c-0.001-0.005-0.002-0.011-0.003-0.016  C219.057,195.912,218.904,195.815,218.748,195.847L218.748,195.847z M197.412,211.948c-0.12-0.084-0.284-0.053-0.367,0.066  c-0.007,0.01-0.014,0.021-0.019,0.032c-0.083,0.13-0.044,0.302,0.085,0.385c0.001,0.001,0.002,0.002,0.004,0.002  c0.13,0.087,0.304,0.05,0.39-0.08c0.002-0.003,0.004-0.007,0.006-0.01C197.593,212.208,197.548,212.031,197.412,211.948z   M201.107,206.082c-0.127-0.087-0.299-0.053-0.386,0.073c-0.004,0.005-0.007,0.011-0.01,0.016c-0.087,0.132-0.051,0.308,0.079,0.397  c0.142,0.07,0.313,0.028,0.406-0.099C201.274,206.337,201.235,206.167,201.107,206.082L201.107,206.082z M204.792,200.206  c-0.13-0.089-0.306-0.054-0.395,0.076c-0.001,0.001-0.002,0.002-0.002,0.004c-0.088,0.133-0.052,0.312,0.079,0.401  c0.003,0.002,0.006,0.004,0.009,0.006c0.127,0.084,0.297,0.047,0.38-0.08c0.002-0.003,0.004-0.007,0.006-0.01  C204.958,200.473,204.924,200.295,204.792,200.206L204.792,200.206L204.792,200.206z M208.467,194.331  c-0.132-0.08-0.303-0.037-0.383,0.094c-0.001,0.002-0.002,0.003-0.003,0.005c-0.085,0.122-0.053,0.29,0.068,0.373  c0.007,0.005,0.014,0.009,0.021,0.012c0.135,0.079,0.308,0.04,0.397-0.09c0.084-0.13,0.045-0.304-0.085-0.387  C208.476,194.337,208.472,194.334,208.467,194.331L208.467,194.331z M229.941,214.514c-0.125,0.031-0.201,0.158-0.169,0.284  c0.003,0.012,0.007,0.023,0.011,0.033c0.039,0.129,0.174,0.202,0.303,0.164c0.005-0.001,0.009-0.003,0.014-0.005  c0.131-0.044,0.202-0.186,0.158-0.317c-0.036-0.128-0.169-0.201-0.296-0.166C229.954,214.509,229.948,214.511,229.941,214.514  L229.941,214.514z M227.99,208.629c-0.131,0.04-0.204,0.177-0.166,0.307c0.002,0.007,0.004,0.013,0.007,0.02  c0.044,0.132,0.183,0.205,0.317,0.169c0.135-0.048,0.205-0.198,0.157-0.333C228.259,208.662,228.122,208.592,227.99,208.629  L227.99,208.629z M226.366,202.912c-0.007-0.049-0.035-0.094-0.079-0.119h-0.01c-0.067-0.053-0.157-0.068-0.238-0.039  c-0.136,0.047-0.208,0.196-0.16,0.332c0.001,0.002,0.001,0.003,0.002,0.005c0.045,0.13,0.186,0.199,0.317,0.158  c0.064-0.017,0.117-0.065,0.139-0.129C226.387,203.062,226.398,202.982,226.366,202.912L226.366,202.912z M224.097,196.877  c-0.14,0.046-0.215,0.197-0.169,0.337l0,0c0.052,0.129,0.193,0.197,0.327,0.158c0.131-0.04,0.204-0.177,0.166-0.307  c-0.002-0.007-0.004-0.013-0.007-0.02C224.372,196.914,224.231,196.838,224.097,196.877z M204.168,212.632  c-0.129-0.061-0.283-0.009-0.347,0.119c-0.065,0.126-0.017,0.281,0.109,0.347c0.132,0.058,0.286,0.007,0.356-0.119  C204.334,212.85,204.284,212.705,204.168,212.632z M206.941,207.103c-0.129-0.061-0.284-0.009-0.347,0.119  c-0.064,0.12-0.019,0.269,0.101,0.333c0.003,0.001,0.005,0.003,0.008,0.004c0.114,0.065,0.26,0.026,0.326-0.088  c0.004-0.007,0.008-0.014,0.011-0.022c0.069-0.12,0.028-0.274-0.092-0.343C206.946,207.106,206.944,207.104,206.941,207.103  L206.941,207.103z M209.715,201.574c-0.129-0.061-0.283-0.009-0.347,0.119c-0.065,0.114-0.026,0.26,0.088,0.326  c0.007,0.004,0.014,0.008,0.022,0.011c0.129,0.061,0.283,0.009,0.347-0.119C209.884,201.788,209.837,201.639,209.715,201.574  L209.715,201.574z M212.479,196.036c-0.129-0.046-0.274,0.003-0.347,0.119c-0.061,0.129-0.009,0.283,0.119,0.347  c0.126,0.06,0.277,0.012,0.347-0.109C212.656,196.26,212.604,196.106,212.479,196.036L212.479,196.036z M236.143,200.851  c-0.087-0.106-0.242-0.123-0.348-0.036c-0.007,0.005-0.012,0.011-0.019,0.017c-0.103,0.077-0.125,0.222-0.047,0.325  c0.006,0.008,0.012,0.015,0.018,0.022c0.077,0.106,0.225,0.129,0.332,0.051c0.009-0.007,0.017-0.014,0.025-0.022  C236.211,201.12,236.23,200.961,236.143,200.851L236.143,200.851z M232.091,196.165c-0.099-0.101-0.258-0.108-0.366-0.02  c-0.105,0.097-0.114,0.26-0.02,0.366c0.092,0.101,0.245,0.108,0.347,0.02c0.112-0.087,0.133-0.246,0.046-0.357  C232.096,196.171,232.093,196.168,232.091,196.165L232.091,196.165z M217.6,213.078c-0.144-0.003-0.265,0.105-0.278,0.248  c-0.005,0.143,0.106,0.263,0.25,0.268c0.135,0.005,0.25-0.094,0.266-0.228C217.848,213.222,217.742,213.096,217.6,213.078  L217.6,213.078z M218.045,206.915c-0.14-0.008-0.259,0.099-0.268,0.238c-0.008,0.14,0.099,0.26,0.239,0.269  c0.136,0.008,0.255-0.094,0.268-0.229C218.291,207.051,218.186,206.929,218.045,206.915L218.045,206.915z M218.491,200.752  c-0.129-0.018-0.248,0.071-0.266,0.2c-0.001,0.009-0.002,0.019-0.002,0.028c-0.008,0.14,0.099,0.259,0.238,0.268  c0.136,0.011,0.257-0.091,0.268-0.228c0.011-0.136-0.091-0.257-0.227-0.268C218.498,200.752,218.495,200.752,218.491,200.752z   M218.937,194.579c-0.14-0.012-0.263,0.09-0.277,0.228v0.02c0.003,0.048,0.016,0.097,0.039,0.139h0.01  c0.01,0.01,0.02,0.03,0.04,0.04c0.042,0.044,0.099,0.071,0.158,0.08c0.14,0.008,0.259-0.101,0.267-0.239  C219.181,194.707,219.075,194.588,218.937,194.579z M196.53,202.734c-0.097-0.103-0.255-0.116-0.366-0.03  c-0.105,0.097-0.113,0.26-0.02,0.366c0.09,0.107,0.248,0.121,0.354,0.031c0.001-0.001,0.001-0.001,0.002-0.002  C196.608,203.006,196.621,202.844,196.53,202.734L196.53,202.734z M201.206,198.681c-0.096-0.099-0.251-0.108-0.356-0.02  c-0.109,0.08-0.132,0.234-0.051,0.342c0.004,0.005,0.008,0.01,0.012,0.015c0.094,0.107,0.257,0.12,0.366,0.03  c0.109-0.088,0.126-0.249,0.037-0.357C201.211,198.687,201.209,198.683,201.206,198.681L201.206,198.681z M233.388,199.781  c-0.046-0.065-0.134-0.091-0.208-0.059c-0.073,0.04-0.101,0.134-0.059,0.207v0.001c0.032,0.069,0.116,0.099,0.185,0.066  c0.004-0.002,0.009-0.004,0.013-0.007C233.395,199.951,233.426,199.857,233.388,199.781L233.388,199.781z M231.596,196.611  c-0.044-0.07-0.134-0.097-0.208-0.059c-0.074,0.04-0.101,0.134-0.059,0.208c0.04,0.074,0.134,0.101,0.208,0.059  C231.606,196.775,231.631,196.685,231.596,196.611L231.596,196.611z M218.036,201.564c-0.075-0.023-0.155,0.02-0.177,0.094  c0,0.002-0.001,0.003-0.001,0.005c-0.024,0.08,0.021,0.162,0.099,0.188c0.083,0.02,0.164-0.028,0.188-0.109  C218.163,201.664,218.114,201.583,218.036,201.564L218.036,201.564L218.036,201.564z M219.016,198.047  c-0.07-0.026-0.148,0.011-0.173,0.08c-0.002,0.006-0.004,0.012-0.005,0.019c-0.026,0.076,0.012,0.158,0.089,0.185  c0.004,0.001,0.007,0.002,0.011,0.003c0.082,0.019,0.164-0.023,0.198-0.099c0.02-0.085-0.033-0.169-0.117-0.188  C219.017,198.047,219.017,198.047,219.016,198.047L219.016,198.047z M220.006,194.53c-0.079-0.023-0.163,0.023-0.186,0.102  c-0.001,0.002-0.001,0.005-0.002,0.007c-0.019,0.08,0.03,0.159,0.109,0.178l0,0c0.075,0.023,0.155-0.02,0.177-0.094  c0-0.002,0.001-0.003,0.001-0.005C220.13,194.638,220.085,194.555,220.006,194.53L220.006,194.53z M225.702,200.177  c-0.076,0.004-0.136,0.068-0.132,0.145c0,0.008,0.001,0.016,0.003,0.024c0.017,0.079,0.088,0.134,0.169,0.129  c0.082-0.013,0.138-0.088,0.129-0.168c-0.009-0.08-0.082-0.139-0.162-0.13C225.705,200.176,225.704,200.177,225.702,200.177  L225.702,200.177z M225.257,196.551c-0.08,0-0.129,0.08-0.129,0.169c0.017,0.079,0.089,0.134,0.169,0.129  c0.087-0.01,0.149-0.088,0.14-0.174c0-0.001,0-0.003,0-0.004c-0.013-0.08-0.089-0.134-0.169-0.121  C225.263,196.549,225.26,196.55,225.257,196.551L225.257,196.551z M212.33,196.551c-0.057-0.05-0.145-0.044-0.195,0.013  c-0.005,0.005-0.009,0.011-0.013,0.017c-0.049,0.065-0.035,0.158,0.03,0.208c0.065,0.049,0.158,0.035,0.208-0.03  C212.409,196.694,212.395,196.6,212.33,196.551z M214.588,193.687c-0.056-0.05-0.144-0.045-0.194,0.011  c-0.005,0.006-0.01,0.012-0.014,0.019c-0.049,0.054-0.046,0.139,0.008,0.188c0.004,0.004,0.008,0.007,0.012,0.01  c0.066,0.053,0.162,0.044,0.218-0.02c0.049-0.062,0.039-0.154-0.024-0.203C214.593,193.69,214.59,193.688,214.588,193.687  L214.588,193.687z M234.894,203.803c-0.088,0.023-0.139,0.113-0.115,0.199c0.002,0.006,0.004,0.012,0.006,0.019  c0.032,0.088,0.128,0.136,0.218,0.109c0.091-0.035,0.139-0.135,0.109-0.228C235.08,203.815,234.982,203.771,234.894,203.803  C234.895,203.803,234.894,203.803,234.894,203.803L234.894,203.803z M233.547,199.86c-0.092,0.028-0.144,0.125-0.119,0.218  c0.036,0.09,0.135,0.136,0.227,0.109c0.085-0.026,0.132-0.118,0.105-0.202c-0.002-0.005-0.004-0.011-0.006-0.016  c-0.026-0.087-0.116-0.136-0.202-0.111C233.551,199.859,233.549,199.859,233.547,199.86L233.547,199.86z M232.191,195.917  c-0.093,0.031-0.142,0.132-0.11,0.224c0,0.001,0.001,0.003,0.001,0.004c0,0.01,0,0.01,0.01,0.02c0.042,0.071,0.127,0.107,0.208,0.09  c0.09-0.036,0.136-0.136,0.109-0.227C232.377,195.936,232.28,195.888,232.191,195.917L232.191,195.917z M217.531,202.723  c-0.091-0.034-0.192,0.004-0.239,0.09c-0.04,0.085-0.005,0.186,0.079,0.228c0.076,0.044,0.173,0.018,0.218-0.058  c0.004-0.007,0.007-0.014,0.01-0.021C217.645,202.876,217.614,202.771,217.531,202.723L217.531,202.723z M219.353,198.978  c-0.088-0.03-0.184,0.008-0.227,0.09c-0.044,0.08-0.016,0.181,0.064,0.224c0.002,0.001,0.003,0.002,0.005,0.003  c0.083,0.047,0.187,0.019,0.234-0.063c0.001-0.002,0.002-0.004,0.003-0.006C219.47,199.135,219.437,199.03,219.353,198.978  L219.353,198.978z M221.186,195.243c-0.089-0.036-0.189-0.003-0.237,0.08c-0.036,0.085-0.002,0.184,0.079,0.228  c0.076,0.044,0.173,0.018,0.218-0.058c0.004-0.007,0.007-0.014,0.01-0.021c0.044-0.079,0.018-0.177-0.059-0.222  C221.192,195.245,221.189,195.244,221.186,195.243L221.186,195.243z M241.442,197.552c-0.061-0.073-0.171-0.084-0.245-0.022  c-0.001,0.001-0.002,0.001-0.003,0.002c-0.07,0.064-0.079,0.172-0.02,0.248c0.064,0.071,0.174,0.077,0.246,0.012  c0.001-0.001,0.002-0.001,0.002-0.002C241.492,197.728,241.501,197.623,241.442,197.552L241.442,197.552z M226.286,202.794h-0.01  c-0.093,0.003-0.166,0.077-0.169,0.169c-0.01,0.089,0.054,0.169,0.144,0.177c0.005,0.001,0.01,0.001,0.015,0.001  c0.025,0.002,0.049-0.005,0.069-0.02c0.068-0.008,0.117-0.07,0.109-0.139l0,0c0.01-0.094-0.056-0.177-0.15-0.187  C226.292,202.794,226.289,202.794,226.286,202.794L226.286,202.794z M226.544,198.632c-0.096-0.008-0.18,0.062-0.188,0.157  c-0.008,0.096,0.062,0.18,0.157,0.188c0.004,0,0.007,0.001,0.011,0.001c0.093,0.006,0.172-0.063,0.178-0.155  c0-0.001,0-0.002,0-0.003c0.01-0.094-0.056-0.177-0.15-0.187C226.55,198.632,226.547,198.632,226.544,198.632L226.544,198.632z   M226.801,194.48c-0.085-0.012-0.164,0.047-0.176,0.133c-0.001,0.009-0.002,0.017-0.002,0.026c-0.01,0.094,0.056,0.177,0.15,0.187  c0.003,0,0.006,0.001,0.009,0.001c0.096,0.002,0.174-0.073,0.178-0.168c0.01-0.089-0.054-0.169-0.144-0.177  C226.811,194.48,226.806,194.48,226.801,194.48L226.801,194.48z M212.023,195.966c-0.06-0.065-0.163-0.069-0.228-0.009  c-0.003,0.003-0.006,0.006-0.009,0.009c-0.07,0.06-0.078,0.166-0.02,0.239c0.062,0.074,0.173,0.084,0.248,0.021  s0.084-0.173,0.021-0.248C212.03,195.973,212.027,195.97,212.023,195.966L212.023,195.966z M215.143,193.212  c-0.063-0.071-0.172-0.077-0.243-0.014c-0.002,0.001-0.003,0.003-0.005,0.004c-0.065,0.06-0.069,0.162-0.009,0.229  c0.003,0.003,0.006,0.006,0.009,0.009c0.049,0.067,0.144,0.083,0.211,0.033c0.006-0.004,0.011-0.009,0.016-0.014  c0.073-0.061,0.085-0.171,0.023-0.244C215.145,193.214,215.144,193.213,215.143,193.212L215.143,193.212z M228.407,221.094  c-0.162-0.019-0.307,0.098-0.326,0.259c0,0.003-0.001,0.006-0.001,0.009c-0.011,0.16,0.107,0.301,0.268,0.317  c0.162,0.012,0.307-0.105,0.327-0.268c0.015-0.16-0.104-0.302-0.263-0.317C228.409,221.094,228.408,221.094,228.407,221.094  L228.407,221.094z M228.981,213.97c-0.159-0.015-0.301,0.102-0.317,0.262c0,0.002,0,0.004,0,0.006  c-0.007,0.162,0.115,0.302,0.277,0.317c0.162,0.014,0.303-0.106,0.316-0.268c0.014-0.161-0.106-0.303-0.268-0.316  C228.987,213.97,228.984,213.97,228.981,213.97z M229.575,206.845c-0.16-0.019-0.307,0.098-0.325,0.258  c-0.019,0.161,0.097,0.307,0.258,0.325c0.006,0.001,0.012,0.001,0.018,0.002c0.164,0.016,0.31-0.104,0.327-0.268  C229.856,207.001,229.736,206.863,229.575,206.845L229.575,206.845z M230.16,199.721c-0.163-0.007-0.302,0.115-0.317,0.278  c-0.011,0.16,0.107,0.301,0.268,0.317c0.164,0.011,0.306-0.113,0.318-0.278C230.44,199.878,230.32,199.737,230.16,199.721  L230.16,199.721z M201.86,207.439c-0.101-0.123-0.282-0.141-0.406-0.039c-0.004,0.003-0.007,0.006-0.011,0.009  c-0.122,0.093-0.147,0.266-0.055,0.387c0.005,0.007,0.01,0.012,0.016,0.019c0.109,0.125,0.296,0.142,0.426,0.039  C201.948,207.747,201.961,207.564,201.86,207.439z M207.308,202.823c-0.101-0.126-0.284-0.146-0.41-0.044  c-0.126,0.102-0.146,0.284-0.044,0.41c0.003,0.004,0.006,0.007,0.009,0.011c0.107,0.121,0.289,0.138,0.417,0.04  C207.4,203.132,207.412,202.947,207.308,202.823z M212.756,198.196c-0.105-0.125-0.291-0.143-0.417-0.04  c-0.12,0.111-0.136,0.295-0.039,0.426c0.107,0.122,0.293,0.135,0.417,0.03c0.126-0.099,0.147-0.281,0.048-0.406  C212.761,198.203,212.759,198.198,212.756,198.196z M218.204,193.578c-0.099-0.126-0.281-0.147-0.406-0.048  c-0.004,0.003-0.007,0.006-0.011,0.009c-0.12,0.111-0.138,0.295-0.04,0.426c0.107,0.122,0.293,0.135,0.417,0.03  c0.126-0.099,0.147-0.281,0.048-0.406C218.21,193.585,218.207,193.581,218.204,193.578z M238.43,202.536  c-0.157,0.045-0.247,0.21-0.201,0.367c0.045,0.158,0.21,0.247,0.367,0.201c0.004-0.001,0.008-0.002,0.012-0.004  c0.157-0.045,0.247-0.21,0.201-0.367s-0.21-0.247-0.367-0.201C238.438,202.533,238.434,202.535,238.43,202.536z M236.43,195.739  c-0.058-0.012-0.12-0.012-0.178,0c-0.157,0.05-0.245,0.218-0.198,0.376c0.058,0.157,0.232,0.236,0.389,0.177  c0.148-0.055,0.227-0.214,0.185-0.365C236.597,195.834,236.523,195.764,236.43,195.739z M215.757,214.138  c-0.148-0.071-0.325-0.009-0.396,0.139l0,0c-0.07,0.143-0.018,0.316,0.119,0.397c0.149,0.068,0.324,0.012,0.406-0.129  c0.077-0.146,0.022-0.327-0.124-0.405C215.759,214.14,215.759,214.139,215.757,214.138L215.757,214.138z M219.026,207.787  c-0.142-0.073-0.316-0.018-0.389,0.124c-0.003,0.005-0.005,0.01-0.007,0.015c-0.074,0.138-0.023,0.31,0.115,0.385  c0.001,0.001,0.003,0.001,0.004,0.002c0.146,0.078,0.327,0.022,0.405-0.124c0.001-0.002,0.002-0.003,0.002-0.005  c0.076-0.138,0.026-0.311-0.111-0.387C219.038,207.793,219.032,207.79,219.026,207.787z M222.285,201.425  c-0.146-0.064-0.315-0.003-0.386,0.139c-0.075,0.142-0.021,0.317,0.121,0.393c0.003,0.001,0.005,0.003,0.008,0.004  c0.138,0.072,0.308,0.02,0.381-0.118c0.002-0.004,0.004-0.007,0.005-0.011c0.077-0.146,0.022-0.327-0.125-0.405  C222.288,201.427,222.286,201.427,222.285,201.425L222.285,201.425z M225.554,195.074c-0.148-0.067-0.323-0.007-0.397,0.139  c-0.067,0.149-0.001,0.323,0.147,0.391c0.139,0.062,0.303,0.01,0.378-0.123c0.077-0.146,0.022-0.327-0.124-0.405  C225.557,195.076,225.556,195.075,225.554,195.074L225.554,195.074z M241.749,198.561c-0.154,0.054-0.236,0.22-0.188,0.376  c0.066,0.148,0.23,0.225,0.386,0.178c0.152-0.056,0.228-0.225,0.172-0.376c-0.001-0.004-0.003-0.007-0.004-0.011  c-0.052-0.147-0.214-0.222-0.36-0.171C241.753,198.561,241.751,198.561,241.749,198.561L241.749,198.561z M219.413,217.397  c-0.154-0.062-0.329,0.008-0.397,0.158c-0.06,0.148,0.005,0.317,0.149,0.387c0.142,0.068,0.312,0.008,0.38-0.134  c0.002-0.005,0.004-0.01,0.006-0.015C219.622,217.646,219.559,217.469,219.413,217.397L219.413,217.397z M222.393,210.938  c-0.154-0.063-0.329,0.007-0.397,0.158c-0.063,0.152,0.008,0.326,0.159,0.39c0.149,0.062,0.319-0.005,0.385-0.152  C222.605,211.183,222.539,211.01,222.393,210.938z M225.375,204.488c-0.144-0.068-0.316-0.008-0.385,0.136  c0,0.001-0.001,0.002-0.001,0.003c-0.071,0.147-0.011,0.323,0.135,0.395c0.147,0.071,0.323,0.011,0.395-0.135  c0.071-0.146,0.011-0.323-0.135-0.395C225.381,204.49,225.378,204.489,225.375,204.488z M228.357,198.027  c-0.142-0.069-0.313-0.011-0.382,0.131c-0.001,0.003-0.003,0.006-0.004,0.008c-0.065,0.148,0.001,0.321,0.149,0.387  c0.134,0.072,0.301,0.023,0.373-0.111c0.005-0.009,0.009-0.018,0.013-0.028c0.066-0.146,0.002-0.318-0.144-0.385  C228.361,198.029,228.359,198.028,228.357,198.027z M234.875,210.006c-0.162-0.002-0.298,0.125-0.307,0.287  c0.001,0.164,0.135,0.297,0.299,0.297c0.152-0.001,0.279-0.116,0.295-0.268C235.168,210.157,235.04,210.017,234.875,210.006  L234.875,210.006z M235.172,202.892c-0.166-0.006-0.306,0.122-0.317,0.287c-0.003,0.159,0.119,0.293,0.278,0.307  c0.162,0.008,0.298-0.116,0.307-0.277c0-0.003,0-0.007,0-0.01C235.45,203.041,235.331,202.903,235.172,202.892z M235.449,195.778  c-0.164-0.002-0.303,0.123-0.317,0.287c-0.004,0.166,0.128,0.303,0.293,0.307c0.001,0,0.003,0,0.004,0  c0.16,0.006,0.297-0.117,0.307-0.278C235.738,195.93,235.613,195.792,235.449,195.778L235.449,195.778z M209.983,205.994  c-0.101-0.117-0.277-0.131-0.395-0.03c-0.008,0.007-0.015,0.014-0.022,0.021c-0.118,0.104-0.129,0.284-0.025,0.401  c0.002,0.002,0.003,0.004,0.005,0.005c0.104,0.12,0.286,0.133,0.406,0.028c0.003-0.003,0.007-0.006,0.01-0.009  c0.12-0.099,0.138-0.274,0.04-0.394C209.996,206.008,209.99,206.001,209.983,205.994z M215.212,201.158  c-0.112-0.12-0.301-0.127-0.422-0.015c-0.12,0.113-0.127,0.301-0.015,0.422c0.11,0.118,0.295,0.127,0.417,0.02  c0.123-0.104,0.138-0.287,0.034-0.41C215.223,201.168,215.218,201.163,215.212,201.158z M220.442,196.333  c-0.112-0.12-0.301-0.127-0.422-0.015c-0.12,0.112-0.127,0.301-0.015,0.422c0.11,0.118,0.295,0.127,0.417,0.02  c0.123-0.104,0.138-0.287,0.034-0.41C220.452,196.344,220.447,196.338,220.442,196.333L220.442,196.333z M222.255,205.518  c-0.091-0.078-0.225-0.067-0.304,0.023c-0.005,0.006-0.009,0.011-0.012,0.017c-0.07,0.099-0.047,0.236,0.049,0.307  c0.094,0.078,0.23,0.064,0.308-0.028c0.076-0.094,0.064-0.231-0.028-0.308C222.265,205.525,222.26,205.521,222.255,205.518z   M225.474,201.217c-0.099-0.077-0.241-0.058-0.317,0.04c-0.076,0.099-0.058,0.242,0.04,0.317c0.099,0.077,0.242,0.058,0.317-0.04  C225.591,201.437,225.573,201.294,225.474,201.217z M228.683,196.918c-0.101-0.068-0.237-0.051-0.317,0.039  c-0.071,0.102-0.049,0.242,0.049,0.317c0.098,0.068,0.23,0.051,0.307-0.039c0.077-0.096,0.062-0.234-0.031-0.311  C228.688,196.922,228.686,196.92,228.683,196.918L228.683,196.918z M233.329,207.707c-0.12-0.028-0.242,0.04-0.277,0.158  c-0.024,0.119,0.044,0.239,0.158,0.278c0.117,0.025,0.232-0.044,0.268-0.158c0.039-0.113-0.023-0.235-0.135-0.274  C233.338,207.71,233.334,207.708,233.329,207.707L233.329,207.707z M234.646,202.506c-0.111-0.028-0.224,0.037-0.254,0.149  c-0.002,0.007-0.003,0.012-0.004,0.02c-0.034,0.112,0.028,0.231,0.142,0.266c0.002,0.001,0.005,0.001,0.007,0.002  c0.123,0.03,0.247-0.045,0.277-0.169C234.841,202.654,234.766,202.534,234.646,202.506L234.646,202.506z M235.984,197.303  c-0.123-0.026-0.245,0.047-0.278,0.169c-0.031,0.108,0.03,0.222,0.14,0.253c0.006,0.002,0.012,0.003,0.019,0.005  c0.113,0.037,0.234-0.023,0.274-0.136c0.001-0.004,0.003-0.009,0.004-0.013C236.171,197.461,236.101,197.34,235.984,197.303  L235.984,197.303z M216.926,195.639c-0.058-0.103-0.189-0.14-0.293-0.083c-0.002,0.001-0.003,0.002-0.005,0.003  c-0.104,0.052-0.146,0.178-0.094,0.282c0.004,0.009,0.009,0.017,0.015,0.025c0.058,0.103,0.189,0.14,0.293,0.083  c0.002-0.001,0.003-0.002,0.005-0.003C216.954,195.884,216.989,195.746,216.926,195.639L216.926,195.639L216.926,195.639z   M221.542,192.905c-0.063-0.106-0.2-0.141-0.307-0.08c-0.103,0.058-0.14,0.189-0.083,0.293c0.001,0.002,0.002,0.003,0.003,0.005  c0.056,0.108,0.19,0.15,0.298,0.094c0.003-0.002,0.006-0.003,0.009-0.005C221.568,193.149,221.603,193.012,221.542,192.905  L221.542,192.905z M237.519,196.641c-0.063-0.018-0.131,0.006-0.169,0.059c-0.021,0.065,0.008,0.136,0.069,0.169  c0.061,0.025,0.132-0.004,0.157-0.066c0-0.001,0.001-0.002,0.001-0.003C237.601,196.738,237.576,196.671,237.519,196.641z   M233.131,200.306c-0.066-0.075-0.18-0.08-0.255-0.013c-0.005,0.004-0.009,0.009-0.012,0.013c-0.079,0.063-0.092,0.179-0.028,0.259  c0.005,0.007,0.011,0.013,0.018,0.019c0.075,0.078,0.197,0.082,0.277,0.01c0.079-0.066,0.09-0.185,0.023-0.265  C233.148,200.321,233.14,200.313,233.131,200.306z M236.618,196.918c-0.079-0.08-0.208-0.08-0.287,0  c-0.079,0.08-0.079,0.208,0,0.287c0.085,0.073,0.214,0.064,0.287-0.021C236.684,197.108,236.684,196.994,236.618,196.918z"/>
<linearGradient id="sweater_1_-i8" gradientUnits="userSpaceOnUse" x1="6500.8735" y1="-982.6389" x2="6194.9385" y2="-2787.6563" gradientTransform="matrix(0.0741 0 0 -0.0741 -230.5491 -0.9887)">
	<stop offset="0" style="stop-color:#23286B"/>
	<stop offset="1" style="stop-color:#151A4F"/>
</linearGradient>
<path id="sweater-i8" fill="url(#sweater_1_-i8)" d="M271.594,194.54c0,0-16.74,8.184-53.905-3.419  c-9.132-2.887-18.064-6.375-26.735-10.443l12.075-101.083c1.415-2.085,2.971-4.071,4.656-5.944c0,0-0.01-0.009,0.01-0.009  c0.317-0.356,0.634-0.704,0.951-1.04c0.05-0.064,0.107-0.124,0.169-0.178c0.327-0.337,0.644-0.673,0.961-0.992  c0.693-0.694,1.368-1.338,2.04-1.952c0.327-0.297,0.663-0.595,0.99-0.872c0.98-0.862,1.931-1.615,2.813-2.279  c0.297-0.218,0.585-0.436,0.872-0.644c1.417-1.021,2.655-1.803,3.635-2.378c0.397-0.228,0.753-0.426,1.06-0.595  c-0.079-0.198-0.158-0.397-0.218-0.595c0.09-0.059,0.188-0.129,0.277-0.198c11.386,7.779,21.025,17.848,28.3,29.566  c12.352,19.708,9.123,26.98,15.828,38.593C272.069,141.689,293.019,166.648,271.594,194.54z"/>
<path id="L_sleeve-i8" fill="#23286B" d="M236.499,169.313c-2.516,12.683-9.974,19.004-18.81,21.808  c-11.916,3.785-26.339,1.199-34.559-0.733c-14.333-3.378-17.137,1.397-29.498,4.776c-12.361,3.368-24.882-2.031-24.882-2.031  l-9.896-44.805c0,0,17.741-0.614,36.461-1.774c18.79-1.16,31.746-9.561,37.64-41.872c1.549-8.981,4.983-17.53,10.074-25.087  c1.415-2.085,2.971-4.071,4.656-5.944c0,0-0.01-0.009,0.01-0.009c0.317-0.356,0.634-0.704,0.951-1.04  c0.05-0.064,0.107-0.124,0.169-0.178c0.327-0.337,0.644-0.673,0.96-0.992c0.693-0.704,1.368-1.348,2.04-1.952  c0.327-0.297,0.663-0.595,0.99-0.872c0.98-0.862,1.931-1.615,2.813-2.279c0.297-0.218,0.585-0.436,0.872-0.644  c1.417-1.021,2.655-1.803,3.635-2.378c0.397-0.228,0.753-0.426,1.06-0.595c0.648,1.616,1.426,3.177,2.328,4.667  c8.865,14.793,6.261,20.352,6.261,20.352l6.439-1.793C239.739,109.012,240.758,147.812,236.499,169.313z"/>
<linearGradient id="R_shoe_1_-i8" gradientUnits="userSpaceOnUse" x1="3111.3237" y1="-5150.8047" x2="4430.1665" y2="-5150.8047" gradientTransform="matrix(0.0741 0 0 -0.0741 -230.5491 -0.9887)">
	<stop offset="0" style="stop-color:#28306D"/>
	<stop offset="0.51" style="stop-color:#1F275F"/>
	<stop offset="1" style="stop-color:#171F51"/>
</linearGradient>
<path id="R_shoe-i8" fill="url(#R_shoe_1_-i8)" d="M83.884,361.372H54.012c0,0-15.592,14.64-32.296,21.8C5.012,390.331,0,400,0,400  l97.726-0.003L83.884,361.372"/>
<path id="L_shoe-i8" fill="#28306D" d="M164.873,361.372l-31.765,0.001c0,0-13.699,14.638-30.404,21.799  C86.001,390.333,80.989,400,80.989,400l97.727-0.003L164.873,361.372"/>
<path id="eye-i8" fill="#1C2868" d="M181.843,32.417c1.894,3.06,6.14,2.549,7.666-0.817c0.184-0.406-0.426-0.637-0.609-0.234  c-0.69,1.885-2.779,2.855-4.664,2.162c-0.783-0.287-1.444-0.836-1.872-1.552C182.139,31.612,181.62,32.056,181.843,32.417  L181.843,32.417z"/>
<path id="hair-i8" fill="#E94A47" d="M272.829,58.628c-3.218-5.467-8.221-8.984-13.059-12.897c-5.184-4.292-9.506-9.53-12.738-15.434  c-0.84-2.689-1.745-5.908-2.826-9.885c-5.913-21.748-28.349-22.611-44.525-18.439c-15.987,4.121-19.811,14.486-15.334,25.821  c0.575-2.507,0.971-4.567,1.178-5.708l0.168-0.96c0,0,11.035,10.77,24.248,9.373c6.053-0.635,9.477,0.371,11.363,1.999  c0.951,1.98,1.256,4.211,0.87,6.373c-0.499,3.112-2.006,5.867-3.283,8.713c-1.631,3.634-2.796,7.227-2.165,11.243  c1.571,10.017,13.865,19.831,6.658,30.119c-0.459,0.654,0.615,1.274,1.069,0.625c8.723-12.454-9.25-23.895-6.246-36.628  c0.525-1.962,1.253-3.864,2.173-5.675c-0.293,0.99-0.525,1.997-0.692,3.016c-0.733,4.558-0.258,10.294,3.823,17.092  c8.865,14.793,6.261,20.352,6.261,20.352l44.861-12.524c0,0,2.268-10.087-10.777-21.917c-8.606-7.804-11.836-10.157-14.736-17.095  c1.239,1.786,2.588,3.492,4.041,5.111c4.252,4.718,9.825,7.879,14.268,12.372c5.616,5.715,8.575,13.524,8.16,21.527  c-0.028,0.797,1.21,0.796,1.238,0C277.119,69.406,275.73,63.652,272.829,58.628z"/>
</g></g></g><!--ITEM 9--><g><defs><clipPath id="clip-path-id-viewbox-item-9"><rect x="0.0" y="0.0" width="176.088" height="193.038"/></clipPath></defs><g transform="translate(1070.0 441.0) rotate(0.0 253.0 277.5) scale(2.873563218390805 2.875081590153234)"><g clip-path="url(#clip-path-id-viewbox-item-9)" transform="translate(-0.0 -0.0)"><path fill="#F2A19C" d="M76.7,103.648c-0.136,1.429,0.707,4.188,0.863,5.974c0.071,0.813-0.042,2.603,0.368,3.31  c0.657,1.136,4.291,0.75,5.604,0.736c2.269-0.025,4.306-0.627,6.401-1.457c3.318-1.314,0.687-2.268-1.323-2.715  c0.916-0.424,4.203-0.92,4.176-2.511c-0.033-1.933-3.58-1.143-4.424-1.382c1.35-1.267,3.212-2.286,3.309-4.421  c0.102-2.268-2.7-2.75-4.456-2.731c-2.252,0.025-4.619,0.792-6.651,1.765c-1.716,0.821-2.45,2.324-3.896,3.279  C76.637,103.628,76.482,103.679,76.7,103.648z"/>
<path fill="#FFBEB6" d="M80.658,105.009c-2.008,4.556-3.636,23.739-10.761,21.538c1.277-4.663,3.076-9.538,4.23-14.187  c1.451-5.845,0.983-9.782,5.22-13.566c9.017-8.054,19.922-1.271,30.928-3.502c-0.067,3.217,1.179,6.162,0.598,9.227  c-4.426,0.239-11.86-3.257-15.125-0.376c-6.308,5.566-4.292,3.067-8.535,7.298c-3.44,3.431-7.777,9.277-7.138,2.112  c0.351-3.93,4.825-7.522,6.215-11.12C83.379,102.164,80.711,105.636,80.658,105.009z"/>
<path fill="#428DFC" d="M89.877,172.467c4.215,2.638,9.241,3.947,13.583,6.588c3.241,1.972,6.274,4.071,9.623,5.819  c4.304,2.246,9.939,5.282,14.753,5.812c15.492,1.707-1.188-17.318-4.649-21.821c-1.963-2.555-3.9-4.977-5.887-7.42  c-0.961-1.181-1.57-2.046-2.764-3.04c-0.673-0.561-2.646-2.96-3.311-3.136c-1.517-0.402-4.406,2.049-5.833,2.79  c-3.033,1.573-6.092,3.005-9.088,4.656c-3.042,1.676-6.302,2.87-9.115,4.746C89.109,170.527,86.825,170.557,89.877,172.467z"/>
<path fill="#151A4F" d="M95.685,130.584c-18.816,0.786-32.841-0.325-45.613,1.59c-13.266,1.989-38.31,3.544-34.901,24.347  c4.508,27.509,60.257,16.113,78.517,16.11c6.687-0.001,19.711,0.788,29.589,0.818c3.144-12.05,2.08-29.587-0.003-41.835  C113.493,131.118,94.18,131.09,95.685,130.584z"/>
<linearGradient id="SVGID_1_-i9" gradientUnits="userSpaceOnUse" x1="56.5832" y1="148.6378" x2="171.0216" y2="148.6378">
	<stop offset="0" style="stop-color:#23286B"/>
	<stop offset="1" style="stop-color:#151A4F"/>
</linearGradient>
<path fill="url(#SVGID_1_-i9)" d="M170.811,121.64c0,15.251,2.393,36.482-8.967,48.293c-11.465,11.919-29.031,5.347-43.8,5.369  c-14.666,0.022-30.447,1.333-44.718-0.695c-16.454-2.339-24.204-25.676-7.155-35.097c7.176-3.965,21.397-4.962,29.62-5.775  c9.799-0.969,20.767-0.273,30.273-2.766c0.365-4.368,0.019-6.725-0.727-10.783C136.774,124.447,163.03,121.119,170.811,121.64z"/>
<linearGradient id="SVGID_2_-i9" gradientUnits="userSpaceOnUse" x1="102.5608" y1="73.8386" x2="147.2086" y2="118.4864">
	<stop offset="0" style="stop-color:#428DFC"/>
	<stop offset="1" style="stop-color:#1D72D8"/>
</linearGradient>
<path fill="url(#SVGID_2_-i9)" d="M112.976,39.84c14.029-0.368,22.207,4.471,28.021,8.863c8.421,6.362,16.698,12.938,22.063,21.84  c11.83,19.627,11.566,41.274,9.452,62.371c-12.083,0.808-77.499-0.782-77.499-0.782L94.779,53.63c0,0,3.172-8.128,6.405-10.693  C103.913,40.771,107.244,39.99,112.976,39.84z"/>
<path fill="#F2A19C" d="M83.361,48.723c6.448,2.542,9.01,4.88,16.214,9.313c3.854,2.372,7.55,1.583,10.254-2.579  c1.651-2.54,4.538-7.209,3.876-10.444c-0.805-3.938-4.431-5.071-7.75-6.996c-2.454-1.424-7.823-6.798-10.271-7.016  C91.661,30.644,82.693,44.35,83.361,48.723z"/>
<linearGradient id="SVGID_3_-i9" gradientUnits="userSpaceOnUse" x1="86.4118" y1="39.4635" x2="76.5608" y2="27.5743">
	<stop offset="0" style="stop-color:#FFBEB6"/>
	<stop offset="1" style="stop-color:#F8AFA9"/>
</linearGradient>
<path fill="url(#SVGID_3_-i9)" d="M59.005,26.633c-4.333,14.14,10.393,24.786,22.634,24.946c7.96,0.104,13.357-5.442,16.942-13.187  c10.031-21.666-22.314-36.586-35.786-19.616c-1.638,2.063-2.99,4.272-3.58,6.865C58.653,25.973,59.328,27.423,59.005,26.633z"/>
<path fill="#23286B" d="M67.248,9.861c6.62-3.885,14.221-5.424,21.733-1.971c20.915,9.614,10.468,31.77,10.468,31.77L58.626,26.516  C58.626,26.516,56.384,16.237,67.248,9.861z"/>
<linearGradient id="SVGID_4_-i9" gradientUnits="userSpaceOnUse" x1="87.3831" y1="37.4459" x2="77.8248" y2="25.9101">
	<stop offset="0" style="stop-color:#FFBEB6"/>
	<stop offset="1" style="stop-color:#F8AFA9"/>
</linearGradient>
<path fill="url(#SVGID_4_-i9)" d="M78.394,34.887c1.13-3.291,5.737-6.67,9.242-5.009c4.334,2.055,3.829,7.301,2.937,10.941  c-3.347-1.868-8.375-4.396-12.111-5.366C78.744,35.545,78.125,34.76,78.394,34.887z"/>
<circle fill="#A1C3FC" cx="90.766" cy="39.508" r="8.496"/>
<rect x="57.048" y="127.328" fill="#89B3F4" width="46.78" height="6.833"/>
<polygon fill="#A1C3FC" points="0,85.913 58.134,85.913 71.537,134.161 13.403,134.161 "/>
<circle fill="#89B3F4" cx="34.031" cy="110.867" r="4.993"/>
<linearGradient id="SVGID_5_-i9" gradientUnits="userSpaceOnUse" x1="95.2565" y1="133.0706" x2="110.2565" y2="124.5706">
	<stop offset="0" style="stop-color:#FFBEB6"/>
	<stop offset="1" style="stop-color:#F8AFA9"/>
</linearGradient>
<path fill="url(#SVGID_5_-i9)" d="M130.006,124.302c-1.566-3.306-3.426-6.523-5.042-9.77c-0.804-1.615-0.279-2.413-2.321-2.396  c-0.917,0.007-2.771,1.461-3.639,1.729c0.223-0.254-0.958-0.06-0.679-0.252c-4.095,1.494-7.921,2.741-11.861,4.638  c-1.886,0.908-3.82,1.623-5.718,2.437c-0.624-0.131-1.238-0.272-1.899-0.33c-2.238-0.197-3.669,0.419-5.736,1.134  c-3.739,1.293-7.559,1.376-10.714,3.841c-1.303,3.603,6.467,2.898,10.584,2.509c-1.292,2.77-2.457,5.617-3.867,8.273  c-0.733,1.379-3.046,4.537-0.553,5.751c1.807,0.879,2.022-0.597,3.09-0.826c2.167-0.466,1.615-0.369,4.21,0.126  c3.045,0.581,5.045-0.585,7.607-0.377c1.265,0.103,2.406,1.427,3.664,0.713c0.55-0.312,0.902-3.022,1.097-3.594  c0.582-1.704,0.958-3.607,1.383-5.519c1.778-0.425,3.542-0.829,5.146-1.375C120.062,129.21,124.634,125.708,130.006,124.302z"/>
<g>
	<path fill="#23286B" d="M65.718,48.128c-1.977,0-4.239-1.213-5.906-3.167c-1.228-1.439-2.013-3.116-2.211-4.722   c-0.208-1.682,0.247-3.093,1.28-3.975c0.671-0.572,1.548-0.875,2.534-0.875c1.978,0,4.24,1.213,5.907,3.167   c1.228,1.44,2.013,3.117,2.211,4.723c0.207,1.682-0.247,3.093-1.281,3.975C67.581,47.826,66.705,48.128,65.718,48.128z    M61.415,36.39c-0.756,0-1.391,0.214-1.886,0.635c-0.769,0.656-1.102,1.754-0.937,3.091c0.175,1.413,0.878,2.903,1.98,4.195   c1.481,1.737,3.453,2.816,5.145,2.816c0.757,0,1.392-0.213,1.886-0.635c0.77-0.656,1.103-1.754,0.937-3.091   c-0.174-1.413-0.877-2.903-1.979-4.196C65.079,37.469,63.108,36.39,61.415,36.39z"/>
</g>
<linearGradient id="SVGID_6_-i9" gradientUnits="userSpaceOnUse" x1="113.0396" y1="86.4613" x2="174.2236" y2="116.2265">
	<stop offset="0" style="stop-color:#428DFC"/>
	<stop offset="1" style="stop-color:#1D72D8"/>
</linearGradient>
<path fill="url(#SVGID_6_-i9)" d="M121.803,66.379c-1.307-7.094-0.956-18.482,9.013-18.891c8.158-0.334,16.051,12.106,20.077,17.927  c9.769,14.124,16.487,28.188,20.106,44.655c-12.684,12.546-32.253,22.633-48.048,30.01c-4.773-7.483-10.473-15.522-13.23-23.953  c12.631-6.853,21.013-9.945,31.928-16.136C137.006,96.403,123.831,77.383,121.803,66.379z"/>
<g>
	<path fill="#23286B" d="M102.145,40.11c-0.04,0-0.082-0.005-0.123-0.016c-0.268-0.068-0.43-0.34-0.361-0.608   c2.12-8.318,1.263-16.534-2.353-22.542c-2.598-4.317-6.52-7.216-11.341-8.385c-0.268-0.065-0.433-0.335-0.368-0.604   c0.066-0.269,0.335-0.433,0.604-0.368c5.087,1.233,9.223,4.291,11.961,8.841c3.752,6.235,4.65,14.729,2.465,23.305   C102.572,39.959,102.368,40.11,102.145,40.11z"/>
</g>
<g>
	<path fill="#A1C3FC" d="M96.504,35.383l-2.832-0.991c0.5-1.428,1-2.754,1.479-4.026c1.491-3.958,2.779-7.375,3.215-11.726   c0.736-7.363-2.826-12.619-9.277-14.84c-10.562-3.636-19.726,4.89-19.726,4.89c-1.969,1.006-4.237,2.354-6.098,4.172   c2.96-9.614,15.724-15.168,26.672-11.941c7.919,2.334,12.292,9.237,11.414,18.017c-0.475,4.742-1.826,8.33-3.393,12.485   C97.487,32.675,96.995,33.978,96.504,35.383z"/>
</g>
<circle fill="#B9D3FD" cx="90.766" cy="39.508" r="5.64"/>
<path id="texture-2_15_-i9" fill="#FFFFFF" d="M142.346,59.223c0.028,0.08,0.118,0.122,0.198,0.092c0.08-0.028,0.122-0.118,0.093-0.198  c-0.028-0.08-0.118-0.122-0.198-0.092l0,0C142.359,59.054,142.317,59.141,142.346,59.223L142.346,59.223z M153.194,70.785  c-0.038,0.079-0.004,0.174,0.076,0.211l0,0c0.071,0.037,0.158,0.008,0.195-0.062c0.004-0.006,0.006-0.012,0.008-0.019  c0.038-0.075,0.008-0.166-0.067-0.205C153.327,70.674,153.232,70.707,153.194,70.785L153.194,70.785L153.194,70.785z   M148.077,64.576c-0.059,0.063-0.062,0.161-0.007,0.228c0.061,0.065,0.162,0.068,0.228,0.007c0.065-0.061,0.068-0.162,0.007-0.228  C148.24,64.524,148.144,64.521,148.077,64.576z M129.141,72.799c-0.125,0.105-0.143,0.292-0.04,0.42  c0.095,0.126,0.274,0.152,0.4,0.058c0.004-0.004,0.008-0.006,0.013-0.01c0.125-0.105,0.143-0.292,0.04-0.42  C129.453,72.72,129.268,72.698,129.141,72.799L129.141,72.799z M134.711,68.284c-0.126,0.107-0.141,0.294-0.034,0.42  c0.104,0.124,0.288,0.141,0.414,0.039c0.127-0.101,0.149-0.285,0.048-0.412l0,0C135.029,68.206,134.843,68.186,134.711,68.284z   M140.296,63.766c-0.126,0.101-0.147,0.284-0.046,0.41c0.002,0.003,0.005,0.005,0.007,0.008c0.095,0.126,0.274,0.152,0.4,0.058  c0.004-0.004,0.008-0.006,0.013-0.01c0.124-0.108,0.144-0.295,0.047-0.428C140.609,63.681,140.423,63.663,140.296,63.766z   M124.965,58.04c0.051,0.155,0.217,0.238,0.372,0.187c0.155-0.051,0.238-0.217,0.187-0.372c-0.05-0.151-0.212-0.235-0.365-0.189  C125.004,57.717,124.918,57.883,124.965,58.04L124.965,58.04z M131.847,56c0.051,0.154,0.217,0.238,0.372,0.187  c0.155-0.051,0.238-0.217,0.187-0.372c-0.05-0.151-0.212-0.235-0.365-0.189C131.887,55.676,131.8,55.843,131.847,56L131.847,56z   M142.092,79.3c-0.075,0.146-0.02,0.324,0.125,0.402c0.14,0.078,0.316,0.026,0.394-0.114c0,0,0.002-0.002,0.001-0.003  c0.084-0.134,0.043-0.309-0.09-0.392c-0.006-0.004-0.013-0.008-0.02-0.012C142.355,79.109,142.177,79.16,142.092,79.3z   M145.521,72.99c-0.073,0.147-0.022,0.325,0.118,0.41c0.146,0.075,0.325,0.02,0.402-0.125c0.078-0.143,0.024-0.322-0.119-0.399  c-0.001-0.001-0.004-0.002-0.004-0.002c-0.141-0.078-0.317-0.027-0.394,0.112C145.522,72.989,145.522,72.99,145.521,72.99z   M148.944,66.69c-0.078,0.136-0.033,0.31,0.104,0.387c0.004,0.002,0.008,0.005,0.012,0.006c0.14,0.083,0.321,0.035,0.403-0.104  c0.003-0.004,0.005-0.009,0.008-0.013c0.077-0.145,0.023-0.326-0.122-0.403c-0.145-0.077-0.326-0.022-0.403,0.122  C148.946,66.689,148.945,66.69,148.944,66.69z M123.144,51.241c0.028,0.142,0.166,0.236,0.309,0.21  c0.142-0.027,0.237-0.165,0.21-0.309c-0.027-0.143-0.165-0.237-0.309-0.21l0,0C123.213,50.961,123.119,51.098,123.144,51.241z   M138.081,73.512c-0.078,0.127-0.045,0.291,0.077,0.377c0.116,0.08,0.276,0.05,0.355-0.066c0.002-0.004,0.004-0.006,0.006-0.01  c0.084-0.119,0.055-0.284-0.064-0.366c-0.001-0.001-0.003-0.001-0.004-0.003C138.33,73.367,138.168,73.396,138.081,73.512  L138.081,73.512z M141.662,68.213c-0.079,0.121-0.045,0.283,0.074,0.362c0.116,0.08,0.276,0.05,0.355-0.066  c0.002-0.004,0.004-0.006,0.006-0.01c0.084-0.119,0.055-0.284-0.063-0.368c-0.001-0.001-0.003-0.001-0.004-0.003  C141.905,68.054,141.742,68.091,141.662,68.213L141.662,68.213z M145.246,62.892c-0.084,0.119-0.055,0.284,0.063,0.368l0.004,0.003  c0.111,0.082,0.267,0.056,0.349-0.055c0.005-0.006,0.01-0.014,0.014-0.022c0.084-0.119,0.055-0.284-0.063-0.368  c-0.001-0.001-0.003-0.001-0.004-0.003C145.487,62.742,145.328,62.775,145.246,62.892L145.246,62.892z M130.844,61.476  c-0.119,0.085-0.149,0.248-0.067,0.369c0.08,0.121,0.241,0.155,0.362,0.075c0.12-0.083,0.157-0.245,0.082-0.37  C131.138,61.427,130.97,61.395,130.844,61.476L130.844,61.476z M136.192,57.943c-0.119,0.074-0.158,0.23-0.085,0.349  c0.003,0.004,0.006,0.008,0.008,0.013c0.08,0.121,0.241,0.155,0.362,0.075c0.12-0.083,0.157-0.245,0.082-0.37  C136.477,57.892,136.313,57.861,136.192,57.943L136.192,57.943z M150.952,75.516c-0.03,0.135,0.054,0.269,0.189,0.3  c0.005,0.001,0.011,0.003,0.015,0.003c0.142,0.033,0.283-0.056,0.317-0.197c0-0.003,0.001-0.007,0.002-0.009  c0.023-0.144-0.071-0.28-0.213-0.31c-0.14-0.029-0.278,0.061-0.307,0.201C150.952,75.508,150.953,75.512,150.952,75.516  L150.952,75.516z M152.227,69.234c-0.028,0.144,0.062,0.286,0.207,0.318c0.146,0.025,0.285-0.071,0.311-0.217  c0.025-0.139-0.063-0.273-0.2-0.307c-0.14-0.034-0.281,0.052-0.315,0.191C152.228,69.223,152.227,69.229,152.227,69.234  L152.227,69.234z M118.084,55.786c-0.136,0.101-0.17,0.289-0.076,0.431c0.094,0.14,0.283,0.178,0.423,0.085  c0.138-0.099,0.172-0.29,0.076-0.431C118.413,55.731,118.224,55.693,118.084,55.786L118.084,55.786z M124.213,51.643  c-0.14,0.094-0.178,0.283-0.085,0.423c0.093,0.14,0.283,0.178,0.423,0.085c0.14-0.094,0.178-0.283,0.085-0.423  C124.542,51.587,124.353,51.55,124.213,51.643L124.213,51.643z M143.95,73.123c-0.027,0.169,0.082,0.33,0.249,0.367  c0.168,0.027,0.327-0.089,0.353-0.258c0.026-0.163-0.082-0.316-0.242-0.35C144.145,72.854,143.986,72.959,143.95,73.123  L143.95,73.123z M145.349,65.862c-0.028,0.165,0.077,0.323,0.241,0.36c0.166,0.033,0.327-0.075,0.36-0.241  c0.033-0.166-0.075-0.327-0.241-0.36C145.544,65.591,145.385,65.699,145.349,65.862L145.349,65.862z M130.772,63.838  c-0.085,0.144-0.046,0.33,0.089,0.429c0.143,0.087,0.33,0.044,0.421-0.096c0.095-0.136,0.061-0.324-0.077-0.418  c0,0-0.004-0.002-0.006-0.004C131.058,63.655,130.867,63.695,130.772,63.838L130.772,63.838L130.772,63.838z M134.849,57.659  c-0.094,0.143-0.053,0.334,0.089,0.428l0.001,0.001c0.138,0.09,0.324,0.051,0.413-0.088l0,0c0.092-0.14,0.055-0.329-0.084-0.421  C135.13,57.486,134.943,57.523,134.849,57.659L134.849,57.659z M125.975,62.185c-0.094,0.138-0.058,0.327,0.082,0.422  c0.139,0.095,0.327,0.058,0.422-0.082c0.091-0.135,0.06-0.318-0.072-0.414C126.266,62.012,126.074,62.046,125.975,62.185  L125.975,62.185z M130.284,56.207c-0.097,0.139-0.064,0.332,0.075,0.43c0.136,0.093,0.322,0.063,0.423-0.066  c0.096-0.142,0.066-0.333-0.068-0.438C130.574,56.038,130.385,56.072,130.284,56.207L130.284,56.207z M141.115,65.047  c-0.035,0.166,0.069,0.33,0.234,0.368c0.162,0.037,0.324-0.064,0.361-0.226c0.044-0.158-0.048-0.322-0.206-0.367  c-0.004-0.001-0.008-0.003-0.013-0.002c-0.164-0.044-0.331,0.054-0.374,0.218C141.116,65.041,141.115,65.044,141.115,65.047  L141.115,65.047z"/>
</g></g></g><!--ITEM 10--><g><defs><clipPath id="clip-path-id-crop-item-10"><rect transform="scale(0.5487179487179488 0.5478645066273933)" x="0.0" y="0.0" width="270.0" height="333.0"/></clipPath><clipPath id="clip-path-id-viewbox-item-10"><rect x="0.0" y="0.0" width="214.0" height="372.0"/></clipPath></defs><g clip-path="url(#clip-path-id-crop-item-10)" transform="translate(44.0 513.0) rotate(0.0 195.0 339.5) scale(1.8224299065420562 1.825268817204301)"><g clip-path="url(#clip-path-id-viewbox-item-10)" transform="translate(-0.0 -0.0)"><g>
	
		<linearGradient id="wheel_3_1_-i10" gradientUnits="userSpaceOnUse" x1="3845.3201" y1="8969.1982" x2="2455.0232" y2="10940.25" gradientTransform="matrix(0.0178 0 0 0.0178 98.2222 188.9022)">
		<stop offset="0.0898" style="stop-color:#EEEEEE"/>
		<stop offset="0.8178" style="stop-color:#D6D7D8"/>
	</linearGradient>
	<circle id="wheel_3-i10" fill="url(#wheel_3_1_-i10)" cx="159.695" cy="358.12" r="13.876"/>
	
		<linearGradient id="chair_seat_1_-i10" gradientUnits="userSpaceOnUse" x1="7166.9385" y1="-1395.4995" x2="1579.5626" y2="-796.85" gradientTransform="matrix(0.0178 0 0 0.0178 98.2222 188.9022)">
		<stop offset="0.14" style="stop-color:#E94A47"/>
		<stop offset="1" style="stop-color:#C63030"/>
	</linearGradient>
	<rect id="chair_seat-i10" x="31.339" y="158.247" fill="url(#chair_seat_1_-i10)" width="182.661" height="33.757"/>
	
		<linearGradient id="chair_bottom_1_1_-i10" gradientUnits="userSpaceOnUse" x1="1267.5669" y1="1223.2161" x2="1458.7025" y2="-751.934" gradientTransform="matrix(0.0178 0 0 0.0178 98.2222 188.9022)">
		<stop offset="0" style="stop-color:#23286B"/>
		<stop offset="1" style="stop-color:#151A4F"/>
	</linearGradient>
	<path id="chair_bottom_1-i10" fill="url(#chair_bottom_1_1_-i10)" d="M89.379,192.004h66.313l0,0l0,0c0,5.871-4.803,10.541-10.541,10.541   h-45.098C94.049,202.545,89.379,197.875,89.379,192.004L89.379,192.004L89.379,192.004z"/>
	
		<linearGradient id="chair_bottom_2_1_-i10" gradientUnits="userSpaceOnUse" x1="-1774.4059" y1="-171.9043" x2="1984.7495" y2="1946.5952" gradientTransform="matrix(0.0178 0 0 0.0178 98.2222 188.9022)">
		<stop offset="0" style="stop-color:#23286B"/>
		<stop offset="1" style="stop-color:#151A4F"/>
	</linearGradient>
	<rect id="chair_bottom_2-i10" x="114.33" y="202.411" fill="url(#chair_bottom_2_1_-i10)" width="16.278" height="29.754"/>
	
		<linearGradient id="chair_bottom_3_1_-i10" gradientUnits="userSpaceOnUse" x1="1394.5601" y1="4361.2573" x2="1237.8496" y2="9752.2109" gradientTransform="matrix(0.0178 0 0 0.0178 98.2222 188.9022)">
		<stop offset="0" style="stop-color:#23286B"/>
		<stop offset="1" style="stop-color:#151A4F"/>
	</linearGradient>
	<path id="chair_bottom_3-i10" fill="url(#chair_bottom_3_1_-i10)" d="M120.735,228.963h3.603c5.871,0,10.674,4.803,10.674,10.674v86.994   l0,0h-24.951l0,0v-86.994C109.927,233.766,114.731,228.963,120.735,228.963z"/>
	
		<linearGradient id="leg_4_1_-i10" gradientUnits="userSpaceOnUse" x1="3770.3982" y1="8052.0967" x2="1153.2808" y2="7284.2041" gradientTransform="matrix(0.0178 0 0 0.0178 98.2222 188.9022)">
		<stop offset="0" style="stop-color:#23286B"/>
		<stop offset="1" style="stop-color:#151A4F"/>
	</linearGradient>
	<path id="leg_4-i10" fill="url(#leg_4_1_-i10)" d="M122.603,326.631h61.376c7.605,0,13.61,6.138,13.61,13.61v4.403h-4.403v-0.934v-1.868   c0-6.004-4.803-10.808-10.808-10.808l0,0h-59.775L122.603,326.631z"/>
	<path id="leg_3-i10" fill="#23286B" d="M122.603,326.631h25.885c7.605,0,13.61,6.138,13.61,13.61v4.403h-4.403v-0.934v-1.868   c0-6.004-4.803-10.808-10.808-10.808l0,0h-24.284V326.631z"/>
	
		<linearGradient id="leg_1_1_-i10" gradientUnits="userSpaceOnUse" x1="-3130.1257" y1="6079.877" x2="-1030.1648" y2="7976.1084" gradientTransform="matrix(0.0178 0 0 0.0178 98.2222 188.9022)">
		<stop offset="0" style="stop-color:#23286B"/>
		<stop offset="1" style="stop-color:#151A4F"/>
	</linearGradient>
	<path id="leg_1-i10" fill="url(#leg_1_1_-i10)" d="M122.87,326.631H61.493c-7.605,0-13.61,6.138-13.61,13.61v4.403h4.403v-0.934v-1.868   c0-6.004,4.803-10.808,10.808-10.808l0,0h59.775L122.87,326.631z"/>
	<path id="leg_2-i10" fill="#23286B" d="M122.87,326.631H96.985c-7.605,0-13.61,6.138-13.61,13.61v4.403h4.403v-0.934v-1.868   c0-6.004,4.803-10.808,10.808-10.808l0,0h24.284V326.631z"/>
	
		<linearGradient id="wheel_2_1_-i10" gradientUnits="userSpaceOnUse" x1="-234.7086" y1="9132.1367" x2="-2663.3267" y2="11085.5889" gradientTransform="matrix(0.0178 0 0 0.0178 98.2222 188.9022)">
		<stop offset="0.0898" style="stop-color:#EEEEEE"/>
		<stop offset="0.8178" style="stop-color:#D6D7D8"/>
	</linearGradient>
	<circle id="wheel_2-i10" fill="url(#wheel_2_1_-i10)" cx="85.51" cy="358.12" r="13.876"/>
	
		<linearGradient id="wheel_4_1_-i10" gradientUnits="userSpaceOnUse" x1="6100.9658" y1="8845.0889" x2="4235.5049" y2="10833.748" gradientTransform="matrix(0.0178 0 0 0.0178 98.2222 188.9022)">
		<stop offset="0.0898" style="stop-color:#EEEEEE"/>
		<stop offset="0.8178" style="stop-color:#D6D7D8"/>
	</linearGradient>
	<circle id="wheel_4-i10" fill="url(#wheel_4_1_-i10)" cx="195.454" cy="358.12" r="13.876"/>
	
		<linearGradient id="wheel_1_1_-i10" gradientUnits="userSpaceOnUse" x1="-2203.6692" y1="8805.1846" x2="-3681.9573" y2="10881.835" gradientTransform="matrix(0.0178 0 0 0.0178 98.2222 188.9022)">
		<stop offset="0.0898" style="stop-color:#EEEEEE"/>
		<stop offset="0.8178" style="stop-color:#D6D7D8"/>
	</linearGradient>
	<circle id="wheel_1-i10" fill="url(#wheel_1_1_-i10)" cx="50.019" cy="358.12" r="13.876"/>
	
		<linearGradient id="chair_back_1_-i10" gradientUnits="userSpaceOnUse" x1="554.8203" y1="-8350.1348" x2="-5185.3027" y2="3563.3252" gradientTransform="matrix(0.0178 0 0 0.0178 98.2222 188.9022)">
		<stop offset="0.14" style="stop-color:#E94A47"/>
		<stop offset="1" style="stop-color:#C63030"/>
	</linearGradient>
	<path id="chair_back-i10" fill="url(#chair_back_1_-i10)" d="M154.225,192.004H31.339L0.384,26.822C-1.884,14.546,6.121,2.671,18.53,0.403   c1.334-0.267,2.802-0.4,4.136-0.4h76.72c10.941,0,20.281,7.739,22.282,18.413L154.225,192.004z"/>
</g>
</g></g></g></svg>