<svg xmlns="http://www.w3.org/2000/svg" version="1.1" viewBox="0 0 3000 3000" width="3000" height="3000">
<defs/><!--ITEM: Illustration component 1--><g transform="translate(34.0 10.0) rotate(323.91749477767735 1460.0 1460.0)  scale(14.6 14.6)"><svg width="200.0" height="200.0" viewBox="0.0 0.0 200.0 200.0"><path d="m141.242 200-141.242-58.755 58.758-141.245 141.242 58.755zm-128.145-64.158 122.743 51.061 51.061-122.745-122.743-51.061z" fill="#eee"/></svg></g><!--ITEM: Illustration component 2--><g transform="translate(290.0 824.0) rotate(0.0 910.0 549.0)  scale(9.1 9.15)"><svg width="200.0" height="120.0" viewBox="0.0 0.0 200.0 120.0"><linearGradient id="a-i2" gradientUnits="userSpaceOnUse" x1="21.85140808" x2="180.2073982" y1="33.75394484" y2="86.93761292"><stop offset="0" stop-color="rgb(216,237,255)" fill="#000000"/><stop offset="1" stop-color="#d6d7d8" fill="#000000"/></linearGradient><path d="m181.132 120h-162.264c-10.378 0-18.868-8.617-18.868-19.148v-81.703c0-10.531 8.49-19.149 18.868-19.149h162.264c10.377 0 18.868 8.617 18.868 19.149v81.703c0 10.531-8.491 19.148-18.868 19.148z" fill="url(#a-i2)"/><path d="m0 24.255h200v23.263h-200z" fill="#151a4f"/><path d="m16.352 88.088h6.289v6.383h-6.289z" fill="rgb(233,254,255)"/><path d="m110.692 102.128h6.289v6.383h-6.289z" fill="rgb(233,254,255)"/><g fill="#e94a47"><path d="m33.648 103.089c-4.508 0-8.176-3.723-8.176-8.298s3.668-8.298 8.176-8.298 8.176 3.723 8.176 8.298-3.668 8.298-8.176 8.298zm0-13.405c-2.774 0-5.031 2.291-5.031 5.106s2.257 5.106 5.031 5.106 5.031-2.291 5.031-5.106c0-2.814-2.257-5.106-5.031-5.106z"/><path d="m126.1 110.107c-4.508 0-8.176-3.723-8.176-8.298s3.668-8.298 8.176-8.298 8.176 3.723 8.176 8.298c.001 4.575-3.667 8.298-8.176 8.298zm0-13.404c-2.774 0-5.031 2.291-5.031 5.106s2.257 5.106 5.031 5.106 5.031-2.291 5.031-5.106c.001-2.815-2.256-5.106-5.031-5.106z"/><path d="m33.905 107.169h11.429v3.286h-11.429z"/></g><path d="m76.19 89.383h11.238v3.093h-11.238z" fill="#d6d7d8"/><path d="m76.19 97.116h11.238v3.093h-11.238z" fill="#d6d7d8"/><path d="m133.905 89.383h11.429v3.093h-11.429z" fill="rgb(216,237,255)"/><path d="m54.717 110.107c-3.295 0-5.975-2.72-5.975-6.063v-10.849c0-3.343 2.68-6.064 5.974-6.064 3.295 0 5.975 2.72 5.975 6.064v10.848c.001 3.344-2.679 6.064-5.974 6.064zm0-19.785c-1.561 0-2.83 1.289-2.83 2.872v10.848c0 1.583 1.27 2.872 2.83 2.872h.001c1.56 0 2.83-1.289 2.83-2.872v-10.848c-.001-1.583-1.27-2.872-2.831-2.872z" fill="rgb(216,237,255)"/><path d="m95.6 106.911c-1.599 0-3.1-.629-4.225-1.771-2.329-2.365-2.329-6.211 0-8.575l8.179-8.3c1.125-1.142 2.626-1.771 4.225-1.771s3.1.629 4.225 1.771 1.744 2.665 1.744 4.288-.62 3.145-1.745 4.287l-8.178 8.3c-1.125 1.142-2.625 1.771-4.225 1.771zm8.179-17.227c-.76 0-1.47.296-2.002.836l-8.178 8.3c-1.103 1.12-1.103 2.942 0 4.063.531.539 1.242.836 2.001.836s1.47-.296 2.002-.836l8.178-8.3c.531-.539.824-1.261.824-2.031 0-.771-.292-1.492-.824-2.032-.531-.539-1.242-.836-2.001-.836z" fill="#d6d7d8"/><path d="m65.409 96.383h6.289v6.383h-6.289z" fill="rgb(233,254,255)"/></svg></g><!--ITEM: Illustration component 3--><g transform="translate(1400.0 1392.0) rotate(18.798017410311793 576.0 347.0)  scale(5.76 5.783333333333333)"><svg width="200.0" height="120.0" viewBox="0.0 0.0 200.0 120.0"><linearGradient id="a-i3" gradientUnits="userSpaceOnUse" x1="21.85140808" x2="180.2073982" y1="33.75394484" y2="86.93761292"><stop offset="0" stop-color="rgb(255,97,93)" fill="#000000"/><stop offset="1" stop-color="rgb(233,74,71)" fill="#000000"/></linearGradient><path d="m181.132 120h-162.264c-10.378 0-18.868-8.617-18.868-19.148v-81.703c0-10.531 8.49-19.149 18.868-19.149h162.264c10.377 0 18.868 8.617 18.868 19.149v81.703c0 10.531-8.491 19.148-18.868 19.148z" fill="url(#a-i3)"/><path d="m0 24.255h200v23.263h-200z" fill="#151a4f"/><path d="m16.352 88.088h6.289v6.383h-6.289z" fill="rgb(255,114,110)"/><path d="m110.692 102.128h6.289v6.383h-6.289z" fill="rgb(255,114,110)"/><g fill="#e94a47"><path d="m33.648 103.089c-4.508 0-8.176-3.723-8.176-8.298s3.668-8.298 8.176-8.298 8.176 3.723 8.176 8.298-3.668 8.298-8.176 8.298zm0-13.405c-2.774 0-5.031 2.291-5.031 5.106s2.257 5.106 5.031 5.106 5.031-2.291 5.031-5.106c0-2.814-2.257-5.106-5.031-5.106z"/><path d="m126.1 110.107c-4.508 0-8.176-3.723-8.176-8.298s3.668-8.298 8.176-8.298 8.176 3.723 8.176 8.298c.001 4.575-3.667 8.298-8.176 8.298zm0-13.404c-2.774 0-5.031 2.291-5.031 5.106s2.257 5.106 5.031 5.106 5.031-2.291 5.031-5.106c.001-2.815-2.256-5.106-5.031-5.106z"/><path d="m33.905 107.169h11.429v3.286h-11.429z"/></g><path d="m76.19 89.383h11.238v3.093h-11.238z" fill="rgb(233,74,71)"/><path d="m76.19 97.116h11.238v3.093h-11.238z" fill="rgb(233,74,71)"/><path d="m133.905 89.383h11.429v3.093h-11.429z" fill="rgb(255,97,93)"/><path d="m54.717 110.107c-3.295 0-5.975-2.72-5.975-6.063v-10.849c0-3.343 2.68-6.064 5.974-6.064 3.295 0 5.975 2.72 5.975 6.064v10.848c.001 3.344-2.679 6.064-5.974 6.064zm0-19.785c-1.561 0-2.83 1.289-2.83 2.872v10.848c0 1.583 1.27 2.872 2.83 2.872h.001c1.56 0 2.83-1.289 2.83-2.872v-10.848c-.001-1.583-1.27-2.872-2.831-2.872z" fill="rgb(255,97,93)"/><path d="m95.6 106.911c-1.599 0-3.1-.629-4.225-1.771-2.329-2.365-2.329-6.211 0-8.575l8.179-8.3c1.125-1.142 2.626-1.771 4.225-1.771s3.1.629 4.225 1.771 1.744 2.665 1.744 4.288-.62 3.145-1.745 4.287l-8.178 8.3c-1.125 1.142-2.625 1.771-4.225 1.771zm8.179-17.227c-.76 0-1.47.296-2.002.836l-8.178 8.3c-1.103 1.12-1.103 2.942 0 4.063.531.539 1.242.836 2.001.836s1.47-.296 2.002-.836l8.178-8.3c.531-.539.824-1.261.824-2.031 0-.771-.292-1.492-.824-2.032-.531-.539-1.242-.836-2.001-.836z" fill="rgb(233,74,71)"/><path d="m65.409 96.383h6.289v6.383h-6.289z" fill="rgb(255,114,110)"/></svg></g><!--ITEM: Illustration component 4--><g transform="translate(960.0 1766.0) rotate(12.073229318845632 517.0 310.0)  scale(5.17 5.166666666666667)"><svg width="200.0" height="120.0" viewBox="0.0 0.0 200.0 120.0"><linearGradient id="a-i4" gradientUnits="userSpaceOnUse" x1="21.85140808" x2="180.2073982" y1="33.75394484" y2="86.93761292"><stop offset="0" stop-color="rgb(90,164,255)" fill="#000000"/><stop offset="1" stop-color="rgb(66,141,252)" fill="#000000"/></linearGradient><path d="m181.132 120h-162.264c-10.378 0-18.868-8.617-18.868-19.148v-81.703c0-10.531 8.49-19.149 18.868-19.149h162.264c10.377 0 18.868 8.617 18.868 19.149v81.703c0 10.531-8.491 19.148-18.868 19.148z" fill="url(#a-i4)"/><path d="m0 24.255h200v23.263h-200z" fill="#151a4f"/><path d="m16.352 88.088h6.289v6.383h-6.289z" fill="rgb(107,181,255)"/><path d="m110.692 102.128h6.289v6.383h-6.289z" fill="rgb(107,181,255)"/><g fill="#e94a47"><path d="m33.648 103.089c-4.508 0-8.176-3.723-8.176-8.298s3.668-8.298 8.176-8.298 8.176 3.723 8.176 8.298-3.668 8.298-8.176 8.298zm0-13.405c-2.774 0-5.031 2.291-5.031 5.106s2.257 5.106 5.031 5.106 5.031-2.291 5.031-5.106c0-2.814-2.257-5.106-5.031-5.106z"/><path d="m126.1 110.107c-4.508 0-8.176-3.723-8.176-8.298s3.668-8.298 8.176-8.298 8.176 3.723 8.176 8.298c.001 4.575-3.667 8.298-8.176 8.298zm0-13.404c-2.774 0-5.031 2.291-5.031 5.106s2.257 5.106 5.031 5.106 5.031-2.291 5.031-5.106c.001-2.815-2.256-5.106-5.031-5.106z"/><path d="m33.905 107.169h11.429v3.286h-11.429z"/></g><path d="m76.19 89.383h11.238v3.093h-11.238z" fill="rgb(66,141,252)"/><path d="m76.19 97.116h11.238v3.093h-11.238z" fill="rgb(66,141,252)"/><path d="m133.905 89.383h11.429v3.093h-11.429z" fill="rgb(90,164,255)"/><path d="m54.717 110.107c-3.295 0-5.975-2.72-5.975-6.063v-10.849c0-3.343 2.68-6.064 5.974-6.064 3.295 0 5.975 2.72 5.975 6.064v10.848c.001 3.344-2.679 6.064-5.974 6.064zm0-19.785c-1.561 0-2.83 1.289-2.83 2.872v10.848c0 1.583 1.27 2.872 2.83 2.872h.001c1.56 0 2.83-1.289 2.83-2.872v-10.848c-.001-1.583-1.27-2.872-2.831-2.872z" fill="rgb(90,164,255)"/><path d="m95.6 106.911c-1.599 0-3.1-.629-4.225-1.771-2.329-2.365-2.329-6.211 0-8.575l8.179-8.3c1.125-1.142 2.626-1.771 4.225-1.771s3.1.629 4.225 1.771 1.744 2.665 1.744 4.288-.62 3.145-1.745 4.287l-8.178 8.3c-1.125 1.142-2.625 1.771-4.225 1.771zm8.179-17.227c-.76 0-1.47.296-2.002.836l-8.178 8.3c-1.103 1.12-1.103 2.942 0 4.063.531.539 1.242.836 2.001.836s1.47-.296 2.002-.836l8.178-8.3c.531-.539.824-1.261.824-2.031 0-.771-.292-1.492-.824-2.032-.531-.539-1.242-.836-2.001-.836z" fill="rgb(66,141,252)"/><path d="m65.409 96.383h6.289v6.383h-6.289z" fill="rgb(107,181,255)"/></svg></g><!--ITEM: Illustration component 5--><g transform="translate(1336.0 334.0) rotate(0.0 651.0 501.0)  scale(8.68 8.71304347826087)"><svg width="150.0" height="115.0" viewBox="0.0 0.0 150.0 115.0"><linearGradient id="a-i5" gradientTransform="matrix(1 0 0 -1 0 122)" gradientUnits="userSpaceOnUse" x1="0" x2="89.159" y1="77.5638" y2="77.5638"><stop offset="0" stop-color="#a1c3fc" fill="#000000"/><stop offset="1" stop-color="#78a9ef" fill="#000000"/></linearGradient><ellipse cx="104.046" cy="69.194" fill="#a1c3fc" rx="45.954" ry="45.806"/><g fill="#428dfc"><path d="m117.54 41.182h22.853c-1.25-1.61-2.601-3.138-4.051-4.566h-18.802c-.001 0-.001 4.566-0 4.566z"/><path d="m117.54 52.143h29.156c-.63-1.566-1.338-3.092-2.133-4.566h-27.025v4.566z"/><path d="m117.54 63.103h32.043c-.207-1.549-.49-3.072-.848-4.566h-31.195z"/><path d="m117.54 74.064h32.199c.159-1.502.243-3.026.253-4.566h-32.452c-.001-.001-.001 4.566 0 4.566z"/><path d="m117.54 85.024h29.639c.549-1.487 1.022-3.012 1.416-4.567h-31.055z"/><path d="m117.54 95.985h23.77c1.059-1.461 2.035-2.984 2.919-4.567h-26.689z"/><path d="m88.676 106.945h41.39c2.002-1.373 3.883-2.903 5.638-4.566h-47.028z"/><path d="m104.046 115c4.247 0 8.354-.586 12.257-1.661h-24.514c3.903 1.075 8.01 1.661 12.257 1.661z"/></g><ellipse cx="99.922" cy="66.911" fill="#78a9ef" rx="44.579" ry="44.436"/><path d="m99.923 104.55c-20.821 0-37.761-16.885-37.761-37.641 0-.282.23-.511.512-.511s.512.229.512.511c0 20.192 16.481 36.619 36.736 36.619s36.736-16.427 36.736-36.619c0-20.191-16.48-36.618-36.736-36.618-.283 0-.512-.229-.512-.511s.23-.511.512-.511c20.821 0 37.761 16.884 37.761 37.64s-16.939 37.641-37.76 37.641z" fill="#afccfc"/><path d="m73.327 54.681c1.483 3.266-.652 7.419-.652 7.419s-4.539-1.142-6.022-4.408.652-7.419.652-7.419 4.539 1.143 6.022 4.408z" fill="#a1c3fc"/><path d="m73.156 68.548c2.918 2.095 3.142 6.757 3.142 6.757s-4.506 1.264-7.424-.832c-2.918-2.095-3.142-6.757-3.142-6.757s4.506-1.264 7.424.832z" fill="#a1c3fc"/><path d="m76.547 81.163c3.574.399 6.063 4.352 6.063 4.352s-3.305 3.305-6.879 2.905c-3.574-.399-6.063-4.352-6.063-4.352s3.305-3.305 6.879-2.905z" fill="#a1c3fc"/><path d="m123.183 55.703c-1.483 3.266.652 7.419.652 7.419s4.539-1.142 6.022-4.408-.652-7.419-.652-7.419-4.539 1.142-6.022 4.408z" fill="#97bdf3"/><path d="m73.99 60.811c-1.483 3.266.652 7.419.652 7.419s4.539-1.142 6.022-4.408-.652-7.419-.652-7.419-4.539 1.142-6.022 4.408z" fill="#a1c3fc"/><path d="m123.355 69.57c-2.918 2.095-3.142 6.757-3.142 6.757s4.506 1.264 7.424-.832c2.918-2.095 3.142-6.757 3.142-6.757s-4.507-1.264-7.424.832z" fill="#a1c3fc"/><path d="m78.398 72.52c-2.024 2.964-.636 7.42-.636 7.42s4.668-.347 6.692-3.311.636-7.42.636-7.42-4.668.349-6.692 3.311z" fill="#97bdf3"/><path d="m119.963 82.184c-3.574.399-6.063 4.352-6.063 4.352s3.305 3.305 6.879 2.905c3.574-.399 6.063-4.352 6.063-4.352s-3.305-3.304-6.879-2.905z" fill="#a1c3fc"/><path d="m84.352 86.12c-1.709 3.154.127 7.446.127 7.446s4.609-.821 6.317-3.975c1.709-3.154-.127-7.446-.127-7.446s-4.607.821-6.317 3.975z" fill="#a1c3fc"/><path d="m122.772 61.832c1.483 3.266-.652 7.419-.652 7.419s-4.539-1.142-6.022-4.408.652-7.419.652-7.419 4.539 1.143 6.022 4.408z" fill="#97bdf3"/><path d="m118.365 73.542c2.024 2.964.636 7.42.636 7.42s-4.668-.347-6.692-3.311-.636-7.42-.636-7.42 4.667.348 6.692 3.311z" fill="#97bdf3"/><path d="m112.41 87.142c1.709 3.154-.127 7.446-.127 7.446s-4.609-.821-6.317-3.975c-1.709-3.154.127-7.446.127-7.446s4.608.82 6.317 3.975z" fill="#a1c3fc"/><path d="m110.194 53.975h-21.136l-3.027-13.34 3.399 3.176 3.398-3.176 3.612 3.388 3.61-3.388 3.4 3.388 2.762-3.388 2.973 3.388 4.036-3.388z" fill="#97bdf3"/><ellipse cx="48.704" cy="46.719" fill="#a1c3fc" rx="45.954" ry="45.806"/><path d="m62.197 18.708h22.853c-1.25-1.61-2.601-3.138-4.051-4.566h-18.802z" fill="#428dfc"/><path d="m62.197 29.668h29.156c-.63-1.566-1.338-3.092-2.133-4.566h-27.023z" fill="#428dfc"/><path d="m62.197 40.629h32.043c-.207-1.549-.49-3.072-.848-4.566h-31.195z" fill="#428dfc"/><path d="m62.197 51.589h32.199c.159-1.502.243-3.026.253-4.566h-32.452z" fill="#428dfc"/><path d="m62.197 62.55h29.639c.549-1.487 1.022-3.012 1.416-4.567h-31.055z" fill="#428dfc"/><path d="m62.197 73.51h23.77c1.059-1.461 2.035-2.984 2.919-4.567h-26.689z" fill="#428dfc"/><path d="m33.334 84.47h41.39c2.002-1.373 3.883-2.903 5.638-4.566h-47.028z" fill="#428dfc"/><path d="m48.704 92.525c4.247 0 8.354-.586 12.257-1.661h-24.515c3.904 1.075 8.011 1.661 12.258 1.661z" fill="#428dfc"/><ellipse cx="44.579" cy="44.436" fill="url(#a-i5)" rx="44.579" ry="44.436"/><path d="m44.581 82.076c-20.821 0-37.761-16.884-37.761-37.64 0-.282.23-.511.512-.511s.512.229.512.511c0 20.191 16.48 36.618 36.736 36.618s36.736-16.427 36.736-36.618-16.479-36.618-36.735-36.618c-.283 0-.512-.229-.512-.511s.23-.511.512-.511c20.821 0 37.761 16.886 37.761 37.64-.001 20.755-16.94 37.64-37.761 37.64z" fill="#afccfc"/><path d="m61.956 66.876h-30.456v-4.086h26.357v-6.634h4.099z" fill="#afccfc"/><path d="m43.763 55.459h-4.1v-32.148l-16.791 14.074-2.638-3.128 23.529-19.72z" fill="#afccfc"/><path d="m48.935 25.101h4.099v22.834h-4.099z" fill="#afccfc"/></svg></g></svg>