<?xml version="1.0" encoding="UTF-8"?><svg version="1.1" xmlns="http://www.w3.org/2000/svg" xmlns:xlink="http://www.w3.org/1999/xlink" viewBox="0 0 1500 1500" width="1500" height="1500" x="0px" y="0px">
    
    
    <!-- ITEM 0 -->
    <g>
        <defs>
            <clipPath id="clip-path-id-crop-item-0">
                
          <rect transform="scale(0.7049065573770492 0.7041503267973855)" x="33.0" y="127.0" width="421.0" height="675.0"/>
        
            </clipPath>
            
            <clipPath id="clip-path-id-viewbox-item-0">
                <rect x="0.0" y="0.0" width="429.993" height="538.675"/>
            </clipPath>
        </defs>
        <g clip-path="url(#clip-path-id-crop-item-0)" transform="translate(420.0 65.0) rotate(-67.72267687267367 305.0 382.5) scale(1.4186277451028273 1.4201512971643386)">
            <g clip-path="url(#clip-path-id-viewbox-item-0)" transform="translate(-0.0 -0.0)">
                
  <rect width="429.993" height="538.675" fill="#d0e1fd"/>

            </g>
        </g>
    </g>
    
    <!-- ITEM 1 -->
    <g>
        <defs>
            <clipPath id="clip-path-id-viewbox-item-1">
                <rect x="0.0" y="0.0" width="100.0" height="100.0"/>
            </clipPath>
        </defs>
        <g transform="translate(736.0 423.0) rotate(7.293212308936619 135.5 135.5) scale(2.71 2.71)">
            <g clip-path="url(#clip-path-id-viewbox-item-1)" transform="translate(-0.0 -0.0)">
                
<circle fill="#ffffff" cx="50" cy="50" r="50"/>

            </g>
        </g>
    </g>
    
    <!-- ITEM 2 -->
    <g>
        <defs>
            <clipPath id="clip-path-id-crop-item-2">
                
          <rect transform="scale(0.35782513661202187 0.35688535031847135)" x="0.0" y="0.0" width="182.0" height="151.0"/>
        
            </clipPath>
            
            <clipPath id="clip-path-id-viewbox-item-2">
                <rect x="0.0" y="0.0" width="65.482" height="56.031"/>
            </clipPath>
        </defs>
        <g clip-path="url(#clip-path-id-crop-item-2)" transform="translate(781.0 471.0) rotate(22.277323127325452 91.5 78.5) scale(2.7946611282489844 2.802020310185433)">
            <g clip-path="url(#clip-path-id-viewbox-item-2)" transform="translate(-0.0 -0.0)">
                
<path fill="#d0e1fd" d="M42.318,40.586h-1.184c7.877-3.027,13.478-10.644,13.478-19.588C54.612,9.402,45.211,0,33.613,0  S12.614,9.402,12.614,20.999c0,8.943,5.601,16.56,13.478,19.588h-2.928c-10.39,0-19.358,6.396-23.164,15.445h65.482  C61.676,46.983,52.708,40.586,42.318,40.586z"/>

            </g>
        </g>
    </g>
    
    <!-- ITEM 3 -->
    <g>
        <defs>
            <clipPath id="clip-path-id-crop-item-3">
                
          <rect transform="scale(0.4082687338501292 0.4051863857374392)" x="0.0" y="166.0" width="387.0" height="442.0"/>
        
            </clipPath>
            
            <clipPath id="clip-path-id-viewbox-item-3">
                <rect x="0.0" y="0.0" width="158.0" height="250.0"/>
            </clipPath>
        </defs>
        <g clip-path="url(#clip-path-id-crop-item-3)" transform="translate(1305.0 833.0) rotate(0.0 -193.5 308.5) scale(-2.449367088607595 2.468)">
            <g clip-path="url(#clip-path-id-viewbox-item-3)" transform="translate(-0.0 -0.0)">
                
<g id="bin-i3">
	
		<linearGradient id="SVGID_1_-i3" gradientUnits="userSpaceOnUse" x1="3920.6426" y1="3340.0762" x2="4094.8599" y2="6899.0679" gradientTransform="matrix(0.0741 2.742857e-004 -2.742857e-004 0.0741 -269.1169 -197.528)">
		<stop offset="0" style="stop-color:#EEEEEE"/>
		<stop offset="1" style="stop-color:#d7d9db"/>
	</linearGradient>
	<polygon fill="url(#SVGID_1_-i3)" points="48.196,249.652 40.86,70.624 1.878,70.483 16.554,249.537  "/>
	
		<linearGradient id="SVGID_2_-i3" gradientUnits="userSpaceOnUse" x1="4572.4126" y1="2690.4915" x2="4373.3081" y2="6585.4575" gradientTransform="matrix(0.0741 2.742857e-004 -2.742857e-004 0.0741 -269.1169 -197.528)">
		<stop offset="0" style="stop-color:#EEEEEE"/>
		<stop offset="1" style="stop-color:#d7d9db"/>
	</linearGradient>
	<polygon fill="url(#SVGID_2_-i3)" points="48.196,249.652 79.834,249.765 79.837,70.765 40.86,70.624  "/>
	
		<linearGradient id="SVGID_3_-i3" gradientUnits="userSpaceOnUse" x1="4986.9761" y1="3407.8347" x2="4949.645" y2="8708.8936" gradientTransform="matrix(0.0741 2.742857e-004 -2.742857e-004 0.0741 -269.1169 -197.528)">
		<stop offset="0" style="stop-color:#EEEEEE"/>
		<stop offset="1" style="stop-color:#d7d9db"/>
	</linearGradient>
	<polygon fill="url(#SVGID_3_-i3)" points="79.834,249.765 111.476,249.88 118.819,70.907 79.837,70.765  "/>
	
		<linearGradient id="SVGID_4_-i3" gradientUnits="userSpaceOnUse" x1="5537.1001" y1="3620.4512" x2="5263.3228" y2="6296.0005" gradientTransform="matrix(0.0741 2.742857e-004 -2.742857e-004 0.0741 -269.1169 -197.528)">
		<stop offset="0" style="stop-color:#EEEEEE"/>
		<stop offset="1" style="stop-color:#d7d9db"/>
	</linearGradient>
	<polygon fill="url(#SVGID_4_-i3)" points="111.476,249.88 142.852,250 158,71.052 118.819,70.907  "/>
</g>
<linearGradient id="cover_1_-i3" gradientUnits="userSpaceOnUse" x1="2348.6404" y1="4838.1626" x2="4449.0615" y2="4838.1626" gradientTransform="matrix(0.0681 -0.0292 0.0292 0.0681 -302.5896 -197.8514)">
	<stop offset="0" style="stop-color:#EEEEEE"/>
	<stop offset="1" style="stop-color:#d7d9db"/>
</linearGradient>
<path id="cover-i3" fill="url(#cover_1_-i3)" d="M7.365,52.63l120.77-51.647c6.166-2.637,13.305,0.213,15.948,6.367l0,0l0,0L0.984,68.545  l0,0l0,0C-1.657,62.392,1.199,55.266,7.365,52.63z"/>

            </g>
        </g>
    </g>
    
    <!-- ITEM 4 -->
    <g>
        <defs>
            <clipPath id="clip-path-id-viewbox-item-4">
                <rect x="0.0" y="0.0" width="250.605" height="254.798"/>
            </clipPath>
        </defs>
        <g transform="translate(1001.0 1122.0) rotate(0.0 110.0 110.5) scale(0.8778755411903194 0.867353746889693)">
            <g clip-path="url(#clip-path-id-viewbox-item-4)" transform="translate(-0.0 -0.0)">
                <path d="M243.105,188.5c-21.49-22.278-42.8-43.676-64.255-64.612q29.646-31.942,60-63.139L184.885,7.5c-21.092,21.363-41.5,42.409-61.5,63.535C102.1,51.206,80.412,31.481,58.022,11.484L7.5,68.014C29.06,87.43,50.286,107.25,71.347,127.263,51.247,149.5,31.322,172.2,11.273,195.779L65.739,247.3C86.2,225.18,106.5,202.864,126.825,180.566c21.689,20.979,43.347,41.977,65.153,62.768Z" fill="#da5b4f"/><path d="M65.739,254.8a7.5,7.5,0,0,1-5.153-2.051L6.119,201.228a7.5,7.5,0,0,1-.56-10.307c18.212-21.422,36.359-42.17,55.322-63.25C39.165,107.1,20.485,89.8,2.481,73.587a7.5,7.5,0,0,1-.573-10.571L52.43,6.486a7.5,7.5,0,0,1,10.588-.6c21.434,19.144,41.136,37.06,60.037,54.6,17.763-18.688,36.3-37.8,56.493-58.255a7.5,7.5,0,0,1,10.6-.07l53.969,53.248A7.5,7.5,0,0,1,244.212,66c-16.949,17.309-34.508,35.746-54.891,57.642,20.25,19.85,39.663,39.419,59.182,59.654a7.5,7.5,0,0,1,.087,10.321l-51.126,54.835a7.5,7.5,0,0,1-10.661.314c-19.176-18.283-38.549-37.027-57.284-55.155l-2.356-2.279-2.157,2.368c-17.578,19.285-35.754,39.227-53.761,58.695a7.5,7.5,0,0,1-5.255,2.4C65.906,254.8,65.823,254.8,65.739,254.8ZM21.6,195.224l43.78,41.41c16.281-17.65,32.655-35.615,48.539-53.043l7.364-8.078a7.5,7.5,0,0,1,10.757-.338l7.909,7.652c16.929,16.38,34.38,33.264,51.719,49.841l41.1-44.076c-19.428-20.046-38.833-39.511-59.151-59.337a7.5,7.5,0,0,1-.259-10.47c20.493-22.081,38.1-40.66,54.922-57.938L184.958,18.108c-20.01,20.328-38.42,39.38-56.126,58.083a7.5,7.5,0,0,1-10.558.332C99.43,58.968,79.861,41.109,58.614,22.076L18.064,67.449c17.87,16.189,36.612,33.627,58.449,54.377a7.5,7.5,0,0,1,.4,10.466C57.879,153.351,39.734,174,21.6,195.224Z" fill="#da5b4f"/>
            </g>
        </g>
    </g>
    
    <!-- ITEM 5 -->
    <g>
        <defs>
            <clipPath id="clip-path-id-crop-item-5">
                
          <rect transform="scale(0.4082687338501292 0.4051863857374392)" x="-13.0" y="-24.0" width="400.0" height="195.0"/>
        
            </clipPath>
            
            <clipPath id="clip-path-id-viewbox-item-5">
                <rect x="0.0" y="0.0" width="158.0" height="250.0"/>
            </clipPath>
        </defs>
        <g clip-path="url(#clip-path-id-crop-item-5)" transform="translate(1253.0 682.0) rotate(41.72760603776731 -193.5 308.5) scale(-2.449367088607595 2.468)">
            <g clip-path="url(#clip-path-id-viewbox-item-5)" transform="translate(-0.0 -0.0)">
                
<g id="bin-i5">
	
		<linearGradient id="SVGID_1_-i5" gradientUnits="userSpaceOnUse" x1="3920.6426" y1="3340.0762" x2="4094.8599" y2="6899.0679" gradientTransform="matrix(0.0741 2.742857e-004 -2.742857e-004 0.0741 -269.1169 -197.528)">
		<stop offset="0" style="stop-color:#EEEEEE"/>
		<stop offset="1" style="stop-color:#d7d9db"/>
	</linearGradient>
	<polygon fill="url(#SVGID_1_-i5)" points="48.196,249.652 40.86,70.624 1.878,70.483 16.554,249.537  "/>
	
		<linearGradient id="SVGID_2_-i5" gradientUnits="userSpaceOnUse" x1="4572.4126" y1="2690.4915" x2="4373.3081" y2="6585.4575" gradientTransform="matrix(0.0741 2.742857e-004 -2.742857e-004 0.0741 -269.1169 -197.528)">
		<stop offset="0" style="stop-color:#EEEEEE"/>
		<stop offset="1" style="stop-color:#d7d9db"/>
	</linearGradient>
	<polygon fill="url(#SVGID_2_-i5)" points="48.196,249.652 79.834,249.765 79.837,70.765 40.86,70.624  "/>
	
		<linearGradient id="SVGID_3_-i5" gradientUnits="userSpaceOnUse" x1="4986.9761" y1="3407.8347" x2="4949.645" y2="8708.8936" gradientTransform="matrix(0.0741 2.742857e-004 -2.742857e-004 0.0741 -269.1169 -197.528)">
		<stop offset="0" style="stop-color:#EEEEEE"/>
		<stop offset="1" style="stop-color:#d7d9db"/>
	</linearGradient>
	<polygon fill="url(#SVGID_3_-i5)" points="79.834,249.765 111.476,249.88 118.819,70.907 79.837,70.765  "/>
	
		<linearGradient id="SVGID_4_-i5" gradientUnits="userSpaceOnUse" x1="5537.1001" y1="3620.4512" x2="5263.3228" y2="6296.0005" gradientTransform="matrix(0.0741 2.742857e-004 -2.742857e-004 0.0741 -269.1169 -197.528)">
		<stop offset="0" style="stop-color:#EEEEEE"/>
		<stop offset="1" style="stop-color:#d7d9db"/>
	</linearGradient>
	<polygon fill="url(#SVGID_4_-i5)" points="111.476,249.88 142.852,250 158,71.052 118.819,70.907  "/>
</g>
<linearGradient id="cover_1_-i5" gradientUnits="userSpaceOnUse" x1="2348.6404" y1="4838.1626" x2="4449.0615" y2="4838.1626" gradientTransform="matrix(0.0681 -0.0292 0.0292 0.0681 -302.5896 -197.8514)">
	<stop offset="0" style="stop-color:#EEEEEE"/>
	<stop offset="1" style="stop-color:#d7d9db"/>
</linearGradient>
<path id="cover-i5" fill="url(#cover_1_-i5)" d="M7.365,52.63l120.77-51.647c6.166-2.637,13.305,0.213,15.948,6.367l0,0l0,0L0.984,68.545  l0,0l0,0C-1.657,62.392,1.199,55.266,7.365,52.63z"/>

            </g>
        </g>
    </g>
    
    <!-- ITEM 6 -->
    <g>
        <defs>
            <clipPath id="clip-path-id-crop-item-6">
                
          <rect transform="scale(0.3215434083601286 0.32142857142857145)" x="5.0" y="27.0" width="293.0" height="45.0"/>
        
            </clipPath>
            
            <clipPath id="clip-path-id-viewbox-item-6">
                <rect x="0.0" y="0.0" width="100.0" height="45.0"/>
            </clipPath>
        </defs>
        <g clip-path="url(#clip-path-id-crop-item-6)" transform="translate(413.0 301.0) rotate(22.376191408749605 155.5 70.0) scale(3.11 3.111111111111111)">
            <g clip-path="url(#clip-path-id-viewbox-item-6)" transform="translate(-0.0 -0.0)">
                
<path fill="#ffffff" d="M98.662,43.244c-33.052,0.839-65.544,0.835-97.485,0c-1.46-14.776-1.676-28.797,0-41.669  c32.496-0.595,64.991-0.595,97.485,0C100.511,15.03,100.38,28.95,98.662,43.244z"/>

            </g>
        </g>
    </g>
    
    <!-- ITEM 7 -->
    <g>
        <defs>
            <clipPath id="clip-path-id-crop-item-7">
                
          <rect transform="scale(0.3215434083601286 0.32142857142857145)" x="5.0" y="27.0" width="293.0" height="45.0"/>
        
            </clipPath>
            
            <clipPath id="clip-path-id-viewbox-item-7">
                <rect x="0.0" y="0.0" width="100.0" height="45.0"/>
            </clipPath>
        </defs>
        <g clip-path="url(#clip-path-id-crop-item-7)" transform="translate(362.0 412.0) rotate(22.376191408749605 155.5 70.0) scale(3.11 3.111111111111111)">
            <g clip-path="url(#clip-path-id-viewbox-item-7)" transform="translate(-0.0 -0.0)">
                
<path fill="#ffffff" d="M98.662,43.244c-33.052,0.839-65.544,0.835-97.485,0c-1.46-14.776-1.676-28.797,0-41.669  c32.496-0.595,64.991-0.595,97.485,0C100.511,15.03,100.38,28.95,98.662,43.244z"/>

            </g>
        </g>
    </g>
    
    <!-- ITEM 8 -->
    <g>
        <defs>
            <clipPath id="clip-path-id-viewbox-item-8">
                <rect x="0.0" y="0.0" width="210.0" height="400.0"/>
            </clipPath>
        </defs>
        <g transform="translate(810.0 41.0) rotate(0.0 -367.5 700.5) scale(-3.5 3.5025)">
            <g clip-path="url(#clip-path-id-viewbox-item-8)" transform="translate(-0.0 -0.0)">
                
<linearGradient id="R_shoe-2_1_-i8" gradientUnits="userSpaceOnUse" x1="6089.9487" y1="-4473.7944" x2="5079.0869" y2="-4473.7944" gradientTransform="matrix(0.0741 0 0 -0.0741 -267.5851 52.7163)">
	<stop offset="0" style="stop-color:#23286B"/>
	<stop offset="0.4316" style="stop-color:#1D225F"/>
	<stop offset="1" style="stop-color:#151A4F"/>
</linearGradient>
<path id="R_shoe-2-i8" fill="url(#R_shoe-2_1_-i8)" d="M198.717,368.466L210,399.982l-79.65,0.002c0,0,4.084-7.888,17.699-13.731  c13.615-5.843,26.322-17.787,26.322-17.787L198.717,368.466"/>
<path id="L_shoe-2-i8" fill="#23286B" d="M126.418,368.482l11.283,31.515L58.051,400c0,0,4.084-7.888,17.699-13.731  c13.615-5.843,26.322-17.787,26.322-17.787L126.418,368.482"/>
<linearGradient id="R_trousers-2_1_-i8" gradientUnits="userSpaceOnUse" x1="6513.0923" y1="-2430.0391" x2="5113.8799" y2="-3297.9055" gradientTransform="matrix(0.0741 0 0 -0.0741 -267.5851 52.7163)">
	<stop offset="0.1291" style="stop-color:#428DFC"/>
	<stop offset="0.9987" style="stop-color:#1D72D8"/>
</linearGradient>
<path id="R_trousers-2-i8" fill="url(#R_trousers-2_1_-i8)" d="M198.72,368.468h-24.345c0,0-48.992-86.015-52.575-105.051  c-2.842-15.122-3.399-32.683-2.691-48.768l0.406-48.187c20.007,3.6,34.562,3.914,45.094,2.717  c0.464,13.914,0.162,30.267-3.792,43.043c-11.401,36.805,8.478,41.23,15.054,54.181c6.622,12.95,7.713,18.722,10.067,31.149  c2.68,14.157,10.659,18.443,13.651,32.636C203.637,349.456,198.72,368.468,198.72,368.468z"/>
<path id="L_trousers-2-i8" fill="#428DFC" d="M167.752,190.759c-11.007,40.743-11.865,35.028-10.172,63.611  c1.705,28.594-3.804,18.954-5.497,48.966c-1.693,30.023-2.807,46.201-25.667,65.144H102.07c0,0-3.271-78.118-2.773-103.994  c0.453-23.124,4.407-61.915,6.437-78.326c4.291-10.557,5.984-4.948,11.645-9.733c3.072-2.479,5.599-5.567,7.423-9.071  c21.144,3.356,35.711,2.869,45.686,0.906C170.7,175.856,169.777,183.439,167.752,190.759z"/>
<path id="texture-2-i8" opacity="0.86" fill="#FFFFFF" enable-background="new    " d="M147.991,175.675  c-0.105-0.042-0.226,0.01-0.267,0.116l0,0c-0.046,0.1-0.002,0.217,0.096,0.264c0.002,0.001,0.005,0.002,0.006,0.002  c0.105,0.042,0.226-0.01,0.267-0.116l0,0C148.134,175.839,148.089,175.723,147.991,175.675z M143.417,173.797  c-0.105-0.042-0.226,0.01-0.267,0.117c-0.042,0.105,0.01,0.227,0.117,0.268c0.105,0.042,0.226-0.01,0.267-0.117  C143.572,173.959,143.521,173.841,143.417,173.797z M138.857,171.921c-0.105-0.044-0.226,0.006-0.27,0.111  c-0.044,0.105,0.006,0.227,0.111,0.271c0.002,0.001,0.005,0.002,0.007,0.003c0.098,0.04,0.211-0.009,0.25-0.108  c0.001-0.003,0.002-0.007,0.003-0.01c0.049-0.092,0.014-0.207-0.079-0.256C138.875,171.927,138.866,171.923,138.857,171.921  L138.857,171.921z M134.284,170.041c-0.109-0.035-0.224,0.025-0.259,0.134c-0.031,0.098,0.015,0.206,0.109,0.25  c0.106,0.039,0.226-0.015,0.265-0.122C134.438,170.2,134.388,170.084,134.284,170.041z M133.449,190.542  c-0.044-0.102-0.162-0.149-0.264-0.107c-0.102,0.044-0.15,0.163-0.106,0.265c0.044,0.102,0.162,0.149,0.264,0.107l0,0  C133.444,190.763,133.492,190.645,133.449,190.542L133.449,190.542L133.449,190.542z M131.551,185.986  c-0.035-0.098-0.144-0.15-0.243-0.116c-0.007,0.002-0.014,0.006-0.021,0.009c-0.105,0.041-0.159,0.156-0.12,0.263  c0.051,0.103,0.171,0.149,0.278,0.107C131.546,186.206,131.595,186.088,131.551,185.986L131.551,185.986L131.551,185.986z   M129.652,181.428c-0.047-0.105-0.167-0.158-0.276-0.122c-0.103,0.051-0.149,0.172-0.108,0.279c0.044,0.102,0.162,0.15,0.264,0.107  l0,0C129.637,181.651,129.691,181.534,129.652,181.428L129.652,181.428z M127.741,176.856c-0.044-0.102-0.162-0.149-0.264-0.107l0,0  c-0.104,0.05-0.15,0.172-0.108,0.279c0.044,0.102,0.162,0.149,0.264,0.107l0,0C127.736,177.084,127.785,176.962,127.741,176.856  L127.741,176.856z M112.561,190.487c-0.103-0.037-0.215,0.016-0.254,0.118c-0.049,0.092-0.014,0.207,0.079,0.256  c0.008,0.005,0.016,0.008,0.024,0.01c0.105,0.044,0.226-0.006,0.27-0.111s-0.006-0.227-0.111-0.271  C112.567,190.488,112.563,190.488,112.561,190.487z M140.436,182.531c-0.077-0.076-0.203-0.075-0.279,0.003  c-0.076,0.077-0.075,0.203,0.003,0.28c0.077,0.076,0.203,0.075,0.279-0.003l0,0c0.076-0.071,0.081-0.19,0.012-0.266  C140.447,182.541,140.442,182.536,140.436,182.531L140.436,182.531z M136.938,179.039c-0.079-0.075-0.203-0.074-0.279,0.003  c-0.03,0.032-0.051,0.073-0.058,0.117c-0.01,0.065,0.012,0.131,0.059,0.177c0.009,0.012,0.024,0.02,0.04,0.02l0.014,0.002  c0.072,0.047,0.167,0.038,0.227-0.024c0.081-0.077,0.084-0.206,0.006-0.286C136.944,179.044,136.94,179.041,136.938,179.039  L136.938,179.039z M133.438,175.561c-0.077-0.076-0.203-0.075-0.279,0.003c-0.076,0.077-0.075,0.203,0.003,0.28l0,0  c0.074,0.079,0.198,0.083,0.278,0.01c0.081-0.076,0.084-0.206,0.007-0.286C133.443,175.566,133.441,175.564,133.438,175.561  L133.438,175.561z M129.939,172.069c-0.079-0.075-0.203-0.074-0.279,0.003c-0.081,0.076-0.084,0.206-0.007,0.286  c0.002,0.002,0.005,0.006,0.008,0.008c0.071,0.076,0.189,0.081,0.265,0.012c0.005-0.005,0.009-0.009,0.014-0.014  c0.081-0.079,0.082-0.208,0.003-0.289C129.943,172.073,129.942,172.07,129.939,172.069L129.939,172.069z M122.936,189.897  c-0.116,0-0.21,0.093-0.21,0.21c0,0.116,0.093,0.211,0.209,0.211l0,0c0.116,0,0.21-0.093,0.21-0.21  C123.146,189.992,123.053,189.897,122.936,189.897z M122.921,184.957c-0.115,0.002-0.206,0.094-0.21,0.21  c-0.001,0.107,0.086,0.197,0.192,0.198c0.006,0,0.012,0,0.017,0c0.111,0.003,0.204-0.083,0.209-0.194l0,0  C123.124,185.056,123.034,184.964,122.921,184.957z M160.191,191.493c-0.156-0.142-0.398-0.131-0.541,0.025  c-0.003,0.003-0.006,0.007-0.009,0.01c-0.138,0.156-0.122,0.397,0.035,0.534c0.001,0.001,0.001,0.001,0.002,0.002  c0.156,0.142,0.398,0.131,0.541-0.025c0.003-0.003,0.006-0.007,0.009-0.01c0.138-0.156,0.122-0.396-0.035-0.534  C160.192,191.494,160.191,191.494,160.191,191.493z M153.122,185.339c-0.156-0.138-0.397-0.122-0.534,0.035  c-0.001,0.001-0.001,0.001-0.002,0.002c-0.142,0.161-0.127,0.407,0.033,0.551c0.161,0.142,0.407,0.127,0.55-0.033  c0.001-0.001,0.001-0.001,0.002-0.002C153.305,185.723,153.283,185.48,153.122,185.339z M146.064,179.199  c-0.161-0.141-0.409-0.126-0.55,0.036c-0.141,0.162-0.126,0.409,0.036,0.551c0.162,0.141,0.409,0.126,0.55-0.036l0,0  c0.142-0.156,0.131-0.398-0.025-0.542C146.071,179.205,146.068,179.202,146.064,179.199z M139.008,173.06  c-0.156-0.142-0.398-0.131-0.541,0.025c-0.003,0.003-0.006,0.007-0.009,0.01c-0.088,0.094-0.122,0.227-0.09,0.351l0.014,0.002  c0.015,0.076,0.054,0.145,0.112,0.198c0.036,0.033,0.082,0.054,0.131,0.06c0.194,0.076,0.417-0.019,0.493-0.215  C139.178,173.339,139.134,173.164,139.008,173.06L139.008,173.06z M131.738,215.145c-0.213,0.015-0.375,0.198-0.364,0.411  c0.01,0.206,0.185,0.363,0.391,0.353c0.007,0,0.014-0.001,0.021-0.001c0.213-0.015,0.375-0.198,0.364-0.411  C132.134,215.286,131.95,215.129,131.738,215.145L131.738,215.145z M131.075,205.795c-0.211,0.017-0.368,0.203-0.351,0.412l0,0  c0.013,0.214,0.197,0.377,0.411,0.364c0.213-0.013,0.377-0.198,0.364-0.411l0,0C131.476,205.947,131.29,205.788,131.075,205.795  L131.075,205.795z M130.425,196.445c-0.213,0.024-0.374,0.21-0.367,0.425c0.01,0.206,0.185,0.363,0.391,0.353  c0.007,0,0.014-0.001,0.021-0.001c0.21-0.009,0.374-0.187,0.366-0.397c0-0.005,0-0.009-0.001-0.014  C130.823,196.596,130.638,196.434,130.425,196.445z M129.761,187.109c-0.211,0.017-0.368,0.203-0.351,0.412c0,0,0,0,0,0.001  c0.014,0.214,0.199,0.376,0.413,0.361c0.213-0.014,0.376-0.2,0.361-0.413c-0.015-0.214-0.199-0.376-0.413-0.361  C129.768,187.107,129.765,187.107,129.761,187.109z M129.112,177.758c-0.214,0.021-0.372,0.212-0.351,0.426  c0.02,0.21,0.202,0.363,0.411,0.352c0.205-0.01,0.363-0.186,0.353-0.391c0-0.007-0.001-0.014-0.001-0.021  C129.508,177.91,129.325,177.747,129.112,177.758z M164.259,175.399c-0.202-0.068-0.423,0.038-0.494,0.239  c-0.071,0.203,0.036,0.424,0.238,0.495c0.202,0.071,0.424-0.036,0.494-0.239C164.568,175.691,164.462,175.468,164.259,175.399z   M155.38,172.434c-0.192-0.07-0.405,0.03-0.475,0.224c-0.002,0.006-0.003,0.012-0.006,0.017c-0.073,0.198,0.027,0.415,0.223,0.488  c0.197,0.073,0.415-0.027,0.489-0.224c0.003-0.008,0.006-0.017,0.008-0.025c0.069-0.193-0.03-0.405-0.223-0.475  C155.392,172.437,155.386,172.435,155.38,172.434L155.38,172.434z M146.517,169.457c-0.199-0.071-0.419,0.033-0.49,0.235  c-0.002,0.006-0.005,0.013-0.006,0.019c-0.067,0.198,0.04,0.412,0.236,0.479c0.001,0,0.002,0.001,0.005,0.001  c0.199,0.072,0.42-0.032,0.492-0.233c0.001-0.002,0.001-0.005,0.002-0.007C146.825,169.749,146.718,169.529,146.517,169.457  L146.517,169.457z M150.11,205.817c-0.092-0.198-0.326-0.282-0.523-0.191c-0.197,0.092-0.281,0.326-0.19,0.524  c0.092,0.198,0.326,0.282,0.523,0.191c0.002-0.001,0.005-0.002,0.007-0.003C150.118,206.241,150.199,206.012,150.11,205.817  L150.11,205.817z M145.933,197.434c-0.092-0.198-0.326-0.282-0.523-0.191c-0.197,0.091-0.283,0.326-0.19,0.524  c0.093,0.198,0.326,0.282,0.523,0.191c0.002-0.001,0.005-0.002,0.007-0.003C145.942,197.859,146.023,197.627,145.933,197.434  L145.933,197.434z M141.756,189.05c-0.105-0.19-0.339-0.265-0.535-0.172c-0.192,0.101-0.265,0.339-0.164,0.532  c0.097,0.186,0.324,0.263,0.514,0.175C141.763,189.482,141.844,189.249,141.756,189.05L141.756,189.05z M137.563,180.679  c-0.089-0.193-0.317-0.277-0.51-0.189c-0.192,0.089-0.277,0.317-0.188,0.51c0.002,0.006,0.005,0.01,0.008,0.016  c0.093,0.19,0.322,0.268,0.51,0.176c0.003-0.001,0.007-0.003,0.01-0.006c0.183-0.085,0.263-0.302,0.178-0.486  C137.571,180.693,137.568,180.685,137.563,180.679L137.563,180.679z M133.387,172.295c-0.098-0.189-0.331-0.26-0.519-0.162  c-0.181,0.095-0.255,0.315-0.17,0.501c0.096,0.191,0.325,0.272,0.52,0.184c0.19-0.094,0.267-0.325,0.172-0.516  C133.389,172.299,133.388,172.297,133.387,172.295L133.387,172.295z M114.187,208.433c-0.193-0.068-0.405,0.032-0.473,0.227  c-0.003,0.009-0.006,0.019-0.009,0.029c-0.067,0.198,0.039,0.412,0.236,0.479c0.001,0,0.002,0.001,0.005,0.001  c0.202,0.068,0.423-0.038,0.494-0.24C114.496,208.724,114.386,208.509,114.187,208.433L114.187,208.433z M117.16,199.558  c-0.199-0.072-0.42,0.032-0.492,0.233c-0.001,0.002-0.001,0.005-0.002,0.007c-0.068,0.203,0.038,0.423,0.239,0.495  c0.205,0.057,0.421-0.053,0.497-0.254c0.067-0.198-0.039-0.412-0.236-0.479C117.163,199.559,117.162,199.559,117.16,199.558  L117.16,199.558z M120.121,190.667c-0.202-0.068-0.423,0.038-0.494,0.239c-0.071,0.2,0.033,0.419,0.234,0.491  c0.006,0.002,0.013,0.005,0.019,0.006c0.192,0.07,0.405-0.03,0.475-0.224c0.002-0.006,0.003-0.012,0.006-0.017  C120.428,190.96,120.321,190.739,120.121,190.667L120.121,190.667z M123.082,181.777c-0.203-0.06-0.418,0.053-0.483,0.255  c-0.069,0.193,0.03,0.405,0.223,0.475c0.006,0.002,0.012,0.003,0.017,0.006c0.202,0.068,0.423-0.038,0.494-0.24  C123.397,182.067,123.284,181.847,123.082,181.777L123.082,181.777z M169.857,170.972c-0.042,0.038-0.073,0.087-0.089,0.141  c-0.016,0.092,0.006,0.186,0.061,0.26C169.835,171.234,169.84,171.095,169.857,170.972L169.857,170.972z M158.132,201.544  c-0.1-0.161-0.312-0.212-0.473-0.11c-0.161,0.1-0.211,0.312-0.11,0.473c0.001,0.001,0.001,0.002,0.002,0.003  c0.102,0.16,0.315,0.207,0.475,0.104C158.183,201.914,158.23,201.704,158.132,201.544z M153.706,194.454  c-0.101-0.16-0.314-0.21-0.475-0.107c-0.16,0.101-0.209,0.314-0.108,0.475c0.101,0.16,0.314,0.21,0.475,0.107l0,0  c0.159-0.095,0.211-0.302,0.116-0.462C153.711,194.462,153.709,194.459,153.706,194.454L153.706,194.454z M149.282,187.352  c-0.027-0.06-0.075-0.107-0.136-0.13l-0.014-0.002c-0.105-0.046-0.227-0.037-0.325,0.024c-0.164,0.103-0.214,0.32-0.111,0.485  c0.001,0.001,0.001,0.002,0.002,0.003c0.102,0.159,0.314,0.207,0.475,0.107c0.075-0.044,0.126-0.118,0.14-0.205  C149.352,187.541,149.34,187.435,149.282,187.352L149.282,187.352z M144.856,180.262c-0.102-0.159-0.314-0.208-0.475-0.107  c-0.163,0.102-0.213,0.318-0.111,0.481c0.101,0.161,0.314,0.213,0.476,0.115c0.164-0.103,0.214-0.32,0.111-0.485  C144.857,180.264,144.857,180.263,144.856,180.262L144.856,180.262z M140.444,173.174c-0.108-0.16-0.322-0.208-0.487-0.109  c-0.161,0.104-0.207,0.322-0.103,0.483c0.101,0.155,0.307,0.206,0.468,0.112C140.484,173.557,140.538,173.344,140.444,173.174  L140.444,173.174z M123.257,207.186c-0.185-0.043-0.37,0.073-0.412,0.258c0,0.002-0.001,0.005-0.001,0.006  c-0.047,0.178,0.058,0.361,0.235,0.409c0.005,0.001,0.009,0.002,0.014,0.003c0.189,0.039,0.377-0.075,0.428-0.263  C123.554,207.415,123.44,207.234,123.257,207.186L123.257,207.186z M125.137,199.041c-0.185-0.043-0.37,0.073-0.412,0.258  c0,0.002-0.001,0.005-0.001,0.006c-0.047,0.178,0.058,0.361,0.235,0.409c0.005,0.001,0.009,0.002,0.014,0.003  c0.182,0.043,0.367-0.068,0.412-0.251C125.431,199.281,125.321,199.094,125.137,199.041L125.137,199.041z M127.016,190.896  c-0.185-0.043-0.37,0.073-0.413,0.258c0,0.002-0.001,0.005-0.001,0.006c-0.051,0.172,0.046,0.353,0.219,0.404  c0.01,0.003,0.021,0.006,0.031,0.008c0.184,0.043,0.37-0.073,0.412-0.258c0-0.002,0.001-0.005,0.001-0.006  C127.307,191.125,127.197,190.945,127.016,190.896L127.016,190.896z M128.883,182.749c-0.185-0.033-0.367,0.081-0.414,0.265  c-0.041,0.189,0.077,0.374,0.265,0.414c0.182,0.039,0.363-0.071,0.411-0.251C129.185,182.986,129.07,182.799,128.883,182.749  L128.883,182.749z M130.777,174.605c-0.189-0.04-0.377,0.075-0.428,0.263c-0.042,0.187,0.076,0.373,0.264,0.414  c0.186,0.042,0.373-0.076,0.414-0.265C131.061,174.835,130.954,174.658,130.777,174.605L130.777,174.605z M161.443,181.525  c-0.153-0.111-0.369-0.077-0.48,0.076c-0.002,0.003-0.005,0.007-0.007,0.01c-0.111,0.142-0.085,0.349,0.057,0.459  c0.006,0.005,0.012,0.008,0.017,0.013c0.148,0.115,0.361,0.088,0.476-0.06c0.003-0.005,0.006-0.008,0.009-0.013  C161.626,181.856,161.592,181.642,161.443,181.525z M154.642,176.667c-0.16-0.103-0.373-0.065-0.487,0.086  c-0.11,0.159-0.072,0.376,0.086,0.488c0.162,0.104,0.38,0.058,0.484-0.103C154.825,176.983,154.788,176.777,154.642,176.667  L154.642,176.667z M147.839,171.821c-0.153-0.114-0.37-0.082-0.484,0.071l-0.001,0.001c-0.103,0.16-0.065,0.373,0.086,0.488  c0.159,0.11,0.376,0.071,0.487-0.086c0.108-0.148,0.074-0.356-0.074-0.463C147.848,171.828,147.843,171.825,147.839,171.821  L147.839,171.821z M141.017,203.494c-0.185,0.042-0.309,0.22-0.279,0.409c0.032,0.186,0.209,0.31,0.395,0.279  c0.188-0.03,0.318-0.205,0.292-0.394C141.39,203.596,141.21,203.465,141.017,203.494z M139.643,195.247  c-0.185,0.042-0.309,0.22-0.279,0.409c0.032,0.186,0.209,0.31,0.395,0.279c0.181-0.025,0.308-0.193,0.281-0.375  c-0.001-0.007-0.002-0.014-0.003-0.021C140.006,195.351,139.831,195.221,139.643,195.247L139.643,195.247z M138.266,187.015  c-0.181,0.025-0.308,0.193-0.281,0.375c0.001,0.007,0.002,0.014,0.003,0.021c0.032,0.186,0.209,0.31,0.395,0.279  c0.185-0.032,0.31-0.209,0.278-0.395c-0.025-0.182-0.192-0.308-0.374-0.282C138.28,187.011,138.273,187.013,138.266,187.015  L138.266,187.015z M136.892,178.767c-0.188,0.03-0.318,0.205-0.292,0.393c0.014,0.073,0.047,0.141,0.098,0.195l0.014,0.002  c0.079,0.074,0.19,0.104,0.296,0.082c0.185-0.031,0.311-0.208,0.279-0.393c-0.031-0.186-0.207-0.311-0.394-0.28  C136.894,178.767,136.893,178.767,136.892,178.767z M135.517,170.52c-0.061,0.007-0.118,0.033-0.163,0.075  c-0.016,0.073-0.06,0.137-0.123,0.179c-0.008,0.045-0.01,0.093-0.006,0.139c0.03,0.189,0.204,0.318,0.394,0.293  c0.191-0.033,0.323-0.214,0.294-0.406C135.88,170.613,135.703,170.488,135.517,170.52L135.517,170.52z M110.093,196.621  c-0.155-0.109-0.369-0.077-0.485,0.073c-0.111,0.153-0.077,0.369,0.076,0.48c0.003,0.002,0.007,0.005,0.01,0.007  c0.142,0.111,0.348,0.085,0.458-0.057c0.005-0.006,0.008-0.012,0.013-0.017c0.115-0.147,0.088-0.361-0.06-0.476  C110.102,196.626,110.097,196.624,110.093,196.621L110.093,196.621z M114.931,189.809c-0.162-0.105-0.38-0.059-0.484,0.103  c-0.1,0.154-0.064,0.36,0.084,0.47c0.159,0.107,0.375,0.07,0.487-0.086c0.112-0.15,0.081-0.363-0.069-0.476  C114.943,189.815,114.937,189.812,114.931,189.809L114.931,189.809z M129.486,169.391c-0.16-0.103-0.373-0.065-0.487,0.086  c-0.11,0.159-0.071,0.376,0.086,0.488c0.162,0.104,0.38,0.058,0.484-0.103C129.67,169.707,129.633,169.501,129.486,169.391z   M157.492,181.006c-0.076-0.083-0.207-0.089-0.291-0.013c-0.083,0.076-0.089,0.208-0.013,0.292c0.076,0.083,0.207,0.089,0.291,0.013  l0,0C157.56,181.22,157.566,181.093,157.492,181.006L157.492,181.006z M154.134,177.408c-0.076-0.083-0.207-0.089-0.291-0.013  c-0.083,0.076-0.089,0.208-0.013,0.292c0.076,0.083,0.207,0.089,0.291,0.013l0,0C154.202,177.622,154.208,177.493,154.134,177.408  L154.134,177.408z M150.764,173.794c-0.074-0.079-0.198-0.083-0.278-0.01c-0.084,0.064-0.1,0.184-0.035,0.267  c0.007,0.009,0.015,0.017,0.023,0.024c0.074,0.079,0.198,0.083,0.278,0.01c0.084-0.065,0.098-0.186,0.032-0.27  C150.779,173.809,150.772,173.8,150.764,173.794L150.764,173.794z M147.407,170.196c-0.079-0.079-0.205-0.085-0.291-0.013  c-0.081,0.079-0.082,0.208-0.005,0.288c0.002,0.002,0.003,0.003,0.006,0.006c0.074,0.079,0.198,0.083,0.278,0.01  C147.475,170.41,147.481,170.281,147.407,170.196L147.407,170.196z M137.931,188.225c-0.111-0.003-0.205,0.083-0.209,0.195  c-0.003,0.111,0.084,0.205,0.194,0.21c0.111,0.003,0.205-0.083,0.209-0.195l0,0C138.129,188.324,138.042,188.23,137.931,188.225  L137.931,188.225L137.931,188.225z M138.096,183.298c-0.106-0.008-0.199,0.072-0.207,0.179c0,0.005,0,0.01,0,0.015  c-0.003,0.111,0.084,0.205,0.194,0.21l0,0c0.114,0.006,0.211-0.079,0.222-0.193c0.002-0.115-0.089-0.21-0.203-0.211  C138.099,183.298,138.097,183.298,138.096,183.298L138.096,183.298z M138.274,178.371c-0.106-0.008-0.199,0.072-0.207,0.179  c0,0.005,0,0.01,0,0.015c-0.003,0.111,0.084,0.205,0.194,0.209c0.111,0.003,0.204-0.083,0.209-0.195  C138.473,178.469,138.385,178.374,138.274,178.371z M138.437,173.442c-0.019-0.005-0.04-0.002-0.057,0.006l-0.014-0.002  c-0.08,0.03-0.133,0.105-0.138,0.191c-0.003,0.111,0.084,0.205,0.194,0.21l0,0c0.089-0.002,0.168-0.057,0.2-0.14l0.008-0.054  c0.008-0.107-0.072-0.2-0.178-0.208C138.448,173.443,138.443,173.442,138.437,173.442L138.437,173.442z M130.003,169.588  c-0.074-0.079-0.198-0.083-0.278-0.01c-0.08,0.079-0.086,0.207-0.013,0.292c0.079,0.079,0.205,0.085,0.292,0.013  c0.081-0.079,0.082-0.208,0.005-0.288C130.007,169.592,130.005,169.589,130.003,169.588L130.003,169.588z M161.365,170.969  c-0.1-0.046-0.216-0.002-0.263,0.096c-0.001,0.002-0.002,0.005-0.002,0.007c-0.044,0.105,0,0.227,0.101,0.28  c0.102,0.041,0.218-0.005,0.265-0.103C161.51,171.143,161.467,171.022,161.365,170.969L161.365,170.969z M147.805,184.084  c-0.032-0.102-0.141-0.159-0.244-0.126c-0.006,0.002-0.012,0.005-0.019,0.007c-0.104,0.035-0.16,0.148-0.124,0.252  c0.001,0.003,0.002,0.007,0.003,0.01c0.045,0.1,0.158,0.152,0.263,0.12C147.79,184.307,147.845,184.19,147.805,184.084  L147.805,184.084z M146.071,179.453c-0.038-0.101-0.152-0.15-0.251-0.111c-0.005,0.001-0.008,0.003-0.013,0.006  c-0.103,0.042-0.156,0.156-0.12,0.264c0.045,0.1,0.158,0.152,0.263,0.12c0.108-0.037,0.164-0.155,0.127-0.264  C146.075,179.461,146.074,179.456,146.071,179.453L146.071,179.453z M144.349,174.835c-0.045-0.1-0.158-0.152-0.263-0.12  c-0.105,0.041-0.159,0.156-0.12,0.263c0.032,0.102,0.141,0.159,0.244,0.126c0.006-0.002,0.013-0.005,0.019-0.007  c0.104-0.035,0.159-0.148,0.124-0.252C144.351,174.842,144.35,174.839,144.349,174.835L144.349,174.835z M142.627,170.219  c-0.045-0.1-0.158-0.152-0.263-0.12c-0.105,0.041-0.159,0.156-0.12,0.263c0.032,0.102,0.141,0.159,0.244,0.126  c0.006-0.002,0.013-0.005,0.019-0.007C142.612,170.442,142.666,170.325,142.627,170.219z M128.852,183.471  c-0.092-0.049-0.206-0.014-0.255,0.079c-0.005,0.008-0.008,0.016-0.01,0.024c-0.045,0.102,0.001,0.221,0.103,0.266  s0.22-0.001,0.265-0.103C129.002,183.635,128.955,183.516,128.852,183.471z M130.898,178.985c-0.092-0.049-0.206-0.014-0.255,0.079  c-0.005,0.008-0.008,0.016-0.01,0.024c-0.049,0.097-0.009,0.215,0.088,0.264c0,0,0.001,0,0.001,0.001  c0.105,0.047,0.229,0.003,0.279-0.101c0.046-0.1,0.002-0.217-0.096-0.264C130.902,178.986,130.9,178.986,130.898,178.985  L130.898,178.985z M132.942,174.499c-0.101-0.049-0.222-0.01-0.277,0.087c-0.05,0.104-0.006,0.23,0.098,0.281  c0.104,0.05,0.229,0.006,0.28-0.098c0-0.001,0.001-0.002,0.001-0.003C133.086,174.663,133.04,174.548,132.942,174.499  L132.942,174.499z M135.072,170.109l0.002-0.014c-0.021-0.043-0.055-0.076-0.098-0.097c-0.102-0.041-0.218,0.005-0.265,0.103  c-0.019,0.033-0.024,0.072-0.015,0.11c0.008,0.072,0.051,0.136,0.116,0.17c0.1,0.046,0.216,0.002,0.263-0.096  c0.001-0.002,0.002-0.005,0.003-0.007C135.109,170.224,135.108,170.158,135.072,170.109L135.072,170.109z M161.066,185.866  c-0.064-0.105-0.2-0.138-0.305-0.075c-0.002,0.001-0.003,0.002-0.006,0.003c-0.109,0.063-0.145,0.203-0.082,0.31  c0.003,0.005,0.006,0.01,0.009,0.015c0.064,0.105,0.2,0.138,0.306,0.075c0.002-0.001,0.003-0.002,0.006-0.003  C161.102,186.12,161.135,185.975,161.066,185.866L161.066,185.866z M158.034,181.124c-0.064-0.105-0.2-0.138-0.306-0.074  c-0.002,0.001-0.003,0.002-0.006,0.003c-0.109,0.071-0.14,0.217-0.071,0.326c0.07,0.107,0.213,0.14,0.323,0.072  c0.105-0.067,0.137-0.207,0.07-0.312C158.041,181.133,158.037,181.129,158.034,181.124L158.034,181.124z M155.016,176.384  c-0.069-0.11-0.214-0.144-0.325-0.074c-0.11,0.069-0.144,0.215-0.074,0.325c0,0.001,0.001,0.001,0.001,0.002  c-0.002,0.014,0.012,0.015,0.023,0.031c0.079,0.081,0.203,0.097,0.302,0.042C155.05,176.638,155.083,176.495,155.016,176.384  L155.016,176.384z M151.984,171.642l-0.047-0.063c-0.014-0.002-0.025-0.017-0.053-0.021c-0.071-0.038-0.158-0.035-0.224,0.01  c-0.11,0.07-0.142,0.216-0.073,0.325c0.069,0.11,0.215,0.142,0.325,0.073C152.021,171.897,152.053,171.751,151.984,171.642  L151.984,171.642z M137.628,189.919c-0.125-0.016-0.243,0.063-0.277,0.186c-0.028,0.123,0.049,0.246,0.171,0.276  c0.115,0.035,0.234-0.03,0.268-0.145c0.002-0.008,0.005-0.017,0.006-0.027C137.83,190.081,137.755,189.952,137.628,189.919  C137.628,189.92,137.628,189.92,137.628,189.919L137.628,189.919z M138.834,184.421c-0.125-0.016-0.243,0.063-0.277,0.186  c-0.028,0.123,0.049,0.246,0.171,0.276c0.126,0.033,0.255-0.042,0.288-0.169c0-0.001,0-0.001,0-0.001  C139.039,184.582,138.96,184.457,138.834,184.421L138.834,184.421z M140.041,178.924c-0.125-0.016-0.243,0.063-0.277,0.186  c-0.028,0.123,0.049,0.246,0.171,0.276c0.116,0.033,0.236-0.033,0.27-0.15c0.003-0.012,0.006-0.023,0.007-0.035  C140.241,179.076,140.163,178.953,140.041,178.924L140.041,178.924z M141.248,173.427c-0.126-0.022-0.248,0.059-0.277,0.186  c-0.028,0.123,0.049,0.246,0.171,0.276c0.116,0.033,0.236-0.033,0.27-0.149c0.003-0.012,0.006-0.023,0.007-0.035  C141.448,173.579,141.37,173.456,141.248,173.427L141.248,173.427z M167.345,175.504c-0.102-0.076-0.246-0.055-0.324,0.046  c-0.001,0.002-0.003,0.005-0.005,0.006c-0.069,0.107-0.046,0.249,0.052,0.329c0.105,0.074,0.25,0.049,0.324-0.057  c0.002-0.003,0.005-0.006,0.006-0.009C167.47,175.717,167.446,175.577,167.345,175.504L167.345,175.504z M162.734,172.278  c-0.105-0.074-0.25-0.051-0.329,0.052c-0.074,0.105-0.049,0.251,0.057,0.324c0.003,0.002,0.006,0.005,0.009,0.007  c0.102,0.071,0.242,0.047,0.315-0.054C162.861,172.501,162.839,172.356,162.734,172.278L162.734,172.278z M149.413,187.412  c-0.019-0.124-0.134-0.211-0.258-0.192c-0.002,0-0.006,0.001-0.008,0.001l-0.014-0.002c-0.119,0.03-0.197,0.147-0.177,0.27  c0.019,0.124,0.134,0.211,0.258,0.192c0.002,0,0.006-0.001,0.008-0.001c0.032-0.009,0.063-0.024,0.089-0.043  C149.391,187.59,149.43,187.5,149.413,187.412L149.413,187.412z M148.154,181.67c-0.126,0.031-0.209,0.152-0.192,0.281  c0.033,0.124,0.156,0.203,0.283,0.179c0.122-0.024,0.202-0.144,0.177-0.266c0-0.001,0-0.002-0.001-0.003  C148.399,181.736,148.28,181.65,148.154,181.67L148.154,181.67z M147.172,176.135c-0.126,0.021-0.212,0.14-0.19,0.267  c0.021,0.126,0.14,0.213,0.266,0.191c0.126-0.021,0.212-0.14,0.19-0.267l0,0c-0.019-0.124-0.134-0.211-0.259-0.192  C147.178,176.134,147.174,176.135,147.172,176.135L147.172,176.135z M146.178,170.598c-0.123,0.024-0.202,0.144-0.177,0.266  c0,0.001,0,0.002,0.001,0.003c0.017,0.118,0.127,0.2,0.245,0.183c0.008-0.001,0.015-0.002,0.023-0.005  c0.126-0.022,0.211-0.14,0.19-0.267c-0.028-0.127-0.154-0.208-0.28-0.179C146.18,170.598,146.178,170.598,146.178,170.598  L146.178,170.598z M128.261,182.802c-0.1-0.07-0.237-0.045-0.309,0.054c-0.003,0.005-0.006,0.009-0.008,0.013  c-0.071,0.102-0.047,0.243,0.054,0.315c0.102,0.076,0.246,0.055,0.324-0.046c0.001-0.002,0.003-0.005,0.005-0.007  C128.4,183.022,128.37,182.876,128.261,182.802L128.261,182.802z M131.484,178.185c-0.11-0.072-0.256-0.043-0.331,0.066  c-0.069,0.1-0.045,0.238,0.054,0.309c0.005,0.003,0.009,0.006,0.014,0.008c0.094,0.073,0.229,0.057,0.303-0.038  c0.005-0.006,0.008-0.01,0.012-0.016C131.612,178.409,131.589,178.262,131.484,178.185L131.484,178.185L131.484,178.185z   M134.705,173.569c-0.105-0.074-0.25-0.049-0.324,0.057c-0.002,0.003-0.005,0.007-0.007,0.009c-0.072,0.105-0.045,0.251,0.06,0.323  c0.105,0.072,0.25,0.045,0.323-0.06C134.827,173.79,134.805,173.649,134.705,173.569L134.705,173.569z M169.284,172.389  c-0.18-0.126-0.427-0.086-0.557,0.09c-0.129,0.182-0.086,0.433,0.095,0.563c0.175,0.125,0.419,0.089,0.551-0.081  C169.499,172.776,169.461,172.525,169.284,172.389L169.284,172.389z M157.736,210.567c-0.219,0.033-0.372,0.236-0.342,0.456  c0.036,0.217,0.24,0.363,0.457,0.329c0.216-0.036,0.368-0.237,0.342-0.456C158.157,210.678,157.952,210.533,157.736,210.567  L157.736,210.567z M156.232,201.029c-0.216,0.036-0.364,0.241-0.329,0.457c0.036,0.217,0.24,0.364,0.457,0.329  c0.216-0.036,0.364-0.241,0.329-0.457C156.654,201.141,156.45,200.994,156.232,201.029L156.232,201.029z M154.744,191.494  c-0.216,0.027-0.372,0.225-0.345,0.442c0.027,0.217,0.224,0.372,0.442,0.345c0.006-0.001,0.012-0.001,0.017-0.002  c0.219-0.033,0.372-0.236,0.342-0.456C155.165,191.606,154.96,191.459,154.744,191.494L154.744,191.494z M153.24,181.955  c-0.214,0.032-0.363,0.235-0.331,0.449c0,0.002,0.001,0.006,0.001,0.008c0.035,0.217,0.238,0.366,0.456,0.331  c0.216-0.035,0.366-0.24,0.331-0.456c0-0.001,0-0.002,0-0.003c-0.032-0.215-0.234-0.363-0.449-0.331  C153.246,181.955,153.242,181.955,153.24,181.955z M151.752,172.42c-0.215,0.035-0.364,0.237-0.33,0.454  c0.033,0.213,0.231,0.36,0.445,0.331c0.219-0.033,0.372-0.236,0.342-0.456C152.171,172.532,151.967,172.385,151.752,172.42z   M118.581,201.098c-0.181-0.128-0.433-0.086-0.562,0.096c-0.124,0.176-0.089,0.418,0.081,0.551c0.183,0.126,0.434,0.088,0.571-0.088  C118.796,201.476,118.755,201.23,118.581,201.098z M124.254,193.296c-0.178-0.13-0.428-0.09-0.558,0.088  c-0.13,0.179-0.09,0.428,0.088,0.559c0.001,0.001,0.002,0.001,0.003,0.002c0.178,0.13,0.428,0.09,0.558-0.088  c0.13-0.179,0.09-0.428-0.088-0.559C124.257,193.298,124.256,193.296,124.254,193.296z M129.928,185.494  c-0.17-0.132-0.417-0.102-0.549,0.068c-0.002,0.002-0.005,0.006-0.006,0.008c-0.126,0.184-0.088,0.434,0.088,0.572  c0.18,0.126,0.427,0.086,0.557-0.09c0.13-0.175,0.094-0.42-0.079-0.551C129.936,185.5,129.931,185.497,129.928,185.494z   M135.602,177.693c-0.17-0.132-0.417-0.102-0.549,0.068c-0.002,0.002-0.005,0.006-0.006,0.008c-0.124,0.185-0.086,0.433,0.088,0.572  c0.18,0.126,0.427,0.086,0.557-0.09c0.131-0.165,0.103-0.406-0.061-0.538C135.622,177.706,135.612,177.7,135.602,177.693  L135.602,177.693z M141.291,169.88c-0.18-0.126-0.427-0.086-0.557,0.09c-0.128,0.182-0.086,0.433,0.095,0.563  c0.175,0.124,0.418,0.089,0.551-0.081C141.507,170.267,141.467,170.017,141.291,169.88L141.291,169.88z M165.536,183.142  c-0.116-0.191-0.364-0.25-0.554-0.132c-0.19,0.117-0.249,0.364-0.132,0.555c0.116,0.191,0.364,0.25,0.554,0.132  C165.589,183.579,165.648,183.332,165.536,183.142z M160.514,174.908c-0.114-0.19-0.359-0.251-0.548-0.137  c-0.002,0.001-0.005,0.002-0.007,0.005c-0.186,0.119-0.244,0.364-0.132,0.555c0.122,0.187,0.372,0.241,0.558,0.118  C160.565,175.332,160.622,175.093,160.514,174.908L160.514,174.908z M138.942,205.471c-0.21-0.05-0.423,0.079-0.472,0.29  c-0.001,0.002-0.001,0.005-0.002,0.008c-0.053,0.212,0.072,0.427,0.281,0.486c0.214,0.042,0.426-0.086,0.489-0.296  C139.291,205.745,139.159,205.525,138.942,205.471L138.942,205.471z M141.201,196.092c-0.204-0.054-0.414,0.067-0.469,0.273  c-0.002,0.008-0.005,0.016-0.006,0.025c-0.052,0.21,0.074,0.42,0.283,0.472l0,0c0.215,0.053,0.435-0.079,0.487-0.295v-0.001  c0.054-0.205-0.067-0.414-0.272-0.469C141.219,196.095,141.211,196.094,141.201,196.092L141.201,196.092z M143.464,186.7  c-0.218-0.045-0.432,0.094-0.477,0.312c-0.044,0.213,0.087,0.423,0.299,0.475c0.21,0.05,0.423-0.079,0.472-0.29  c0.001-0.002,0.001-0.005,0.002-0.008C143.813,186.972,143.681,186.753,143.464,186.7L143.464,186.7L143.464,186.7z M145.724,177.32  c-0.213-0.047-0.425,0.086-0.475,0.298c-0.049,0.214,0.085,0.427,0.298,0.476c0.208,0.047,0.418-0.077,0.472-0.286  C146.072,177.592,145.94,177.373,145.724,177.32C145.725,177.32,145.725,177.32,145.724,177.32L145.724,177.32z M133.877,169.049  c-0.116-0.191-0.364-0.25-0.554-0.132c-0.19,0.116-0.249,0.364-0.132,0.555c0.114,0.185,0.355,0.244,0.541,0.131  c0.192-0.11,0.258-0.356,0.148-0.55C133.879,169.051,133.879,169.05,133.877,169.049L133.877,169.049z M168.612,176.842  c-0.114-0.178-0.35-0.229-0.527-0.116c-0.006,0.003-0.012,0.008-0.019,0.013c-0.182,0.124-0.234,0.369-0.118,0.558  c0.132,0.173,0.373,0.219,0.558,0.105c0.182-0.122,0.232-0.369,0.11-0.552C168.616,176.846,168.615,176.844,168.612,176.842  L168.612,176.842z M144.769,208.588c-0.216-0.045-0.431,0.094-0.476,0.311c-0.045,0.217,0.094,0.431,0.311,0.476  c0.216,0.045,0.429-0.094,0.476-0.311C145.125,208.846,144.985,208.633,144.769,208.588L144.769,208.588L144.769,208.588z   M146.631,199.153c-0.22-0.033-0.429,0.108-0.478,0.325c-0.033,0.213,0.103,0.415,0.314,0.463c0.216,0.045,0.431-0.094,0.476-0.311  C146.982,199.413,146.846,199.203,146.631,199.153L146.631,199.153z M148.478,189.73c-0.214-0.042-0.421,0.097-0.464,0.311  c-0.042,0.214,0.097,0.421,0.311,0.464c0.001,0,0.002,0,0.003,0c0.216,0.045,0.431-0.094,0.476-0.311  C148.838,189.977,148.694,189.773,148.478,189.73L148.478,189.73z M150.341,180.295c-0.211-0.043-0.418,0.093-0.461,0.304  c-0.001,0.003-0.001,0.006-0.002,0.009c-0.04,0.214,0.1,0.42,0.314,0.463c0.206,0.046,0.411-0.082,0.458-0.289  c0.002-0.008,0.003-0.016,0.005-0.024c0.043-0.212-0.093-0.418-0.303-0.461C150.349,180.297,150.345,180.295,150.341,180.295  L150.341,180.295z M152.204,170.86c-0.211-0.043-0.418,0.093-0.461,0.304c-0.001,0.003-0.001,0.006-0.002,0.009  c-0.032,0.145,0.023,0.295,0.142,0.383c0.028,0.003,0.039,0.02,0.053,0.021c0.032,0.031,0.073,0.051,0.118,0.058  c0.214,0.042,0.421-0.097,0.464-0.311c0.042-0.214-0.097-0.421-0.311-0.464C152.206,170.861,152.205,170.861,152.204,170.86z   M127.328,175.609c-0.114-0.178-0.35-0.229-0.527-0.116c-0.006,0.003-0.012,0.008-0.019,0.013c-0.181,0.118-0.233,0.361-0.117,0.544  c0.124,0.183,0.369,0.235,0.557,0.118c0.182-0.122,0.232-0.369,0.11-0.552C127.331,175.614,127.329,175.612,127.328,175.609  L127.328,175.609z M135.302,170.252c-0.052-0.08-0.137-0.132-0.232-0.144l0.002-0.014c-0.108-0.025-0.221-0.006-0.315,0.054  c-0.028,0.013-0.05,0.033-0.064,0.062c-0.155,0.152-0.158,0.401-0.006,0.556c0.136,0.139,0.353,0.158,0.51,0.045  c0.015-0.012,0.031-0.023,0.033-0.037c0.063-0.042,0.105-0.105,0.123-0.179C135.392,170.479,135.373,170.353,135.302,170.252  L135.302,170.252z M162.7,193.953c-0.216,0.045-0.358,0.256-0.317,0.473c0.049,0.215,0.259,0.35,0.475,0.303  c0.213-0.038,0.355-0.243,0.316-0.456c0-0.001,0-0.002-0.001-0.003C163.126,194.055,162.917,193.916,162.7,193.953z M160.82,184.517  c-0.214,0.047-0.354,0.257-0.317,0.473c0.041,0.215,0.248,0.356,0.463,0.315c0.214-0.041,0.356-0.249,0.315-0.463  c0-0.003-0.001-0.006-0.002-0.009c-0.038-0.214-0.242-0.354-0.456-0.316C160.822,184.516,160.821,184.516,160.82,184.517  L160.82,184.517z M158.924,175.092c-0.216,0.045-0.358,0.256-0.317,0.473c0.05,0.217,0.265,0.353,0.483,0.303  c0.207-0.047,0.344-0.25,0.308-0.459C159.352,175.194,159.141,175.052,158.924,175.092L158.924,175.092z M128.769,196.608  c-0.177-0.119-0.419-0.072-0.538,0.105c-0.003,0.005-0.006,0.009-0.009,0.015c-0.12,0.181-0.073,0.425,0.105,0.546  c0.183,0.124,0.433,0.077,0.559-0.104c0.123-0.183,0.075-0.431-0.106-0.555C128.776,196.613,128.773,196.61,128.769,196.608  L128.769,196.608z M134.094,188.604c-0.177-0.119-0.419-0.072-0.538,0.105c-0.003,0.005-0.006,0.009-0.009,0.015  c-0.12,0.181-0.073,0.425,0.105,0.546c0.183,0.124,0.433,0.077,0.559-0.104c0.123-0.183,0.075-0.431-0.106-0.555  C134.101,188.608,134.097,188.606,134.094,188.604L134.094,188.604z M139.417,180.6c-0.184-0.116-0.428-0.063-0.548,0.119  c-0.12,0.181-0.073,0.424,0.105,0.546c0.183,0.124,0.433,0.077,0.559-0.104c0.123-0.183,0.075-0.431-0.106-0.555  C139.426,180.604,139.422,180.602,139.417,180.6z M144.742,172.597c-0.185-0.109-0.425-0.057-0.548,0.119  c-0.12,0.181-0.073,0.425,0.105,0.546c0.184,0.122,0.432,0.075,0.559-0.104c0.123-0.186,0.072-0.436-0.114-0.559  C144.745,172.598,144.743,172.597,144.742,172.597z M167.271,172.404c-0.059-0.15-0.228-0.225-0.38-0.167  c-0.001,0-0.002,0.001-0.003,0.001c-0.158,0.057-0.24,0.233-0.182,0.39c0.057,0.158,0.232,0.241,0.39,0.183  c0.158-0.057,0.24-0.233,0.182-0.39C167.276,172.415,167.273,172.409,167.271,172.404z M144.718,192.076  c-0.141-0.072-0.315-0.015-0.386,0.126c-0.005,0.009-0.009,0.019-0.013,0.028c-0.066,0.152,0.003,0.33,0.155,0.396  s0.33-0.003,0.396-0.155C144.936,192.32,144.867,192.143,144.718,192.076z M147.568,185.408c-0.148-0.068-0.325-0.005-0.395,0.145  c-0.001,0.003-0.003,0.007-0.005,0.009c-0.067,0.153,0.001,0.331,0.154,0.399c0.153,0.067,0.331-0.001,0.399-0.154  C147.789,185.655,147.72,185.475,147.568,185.408L147.568,185.408z M150.417,178.739c-0.153-0.067-0.331,0.001-0.399,0.154  c-0.068,0.153,0.002,0.331,0.154,0.399c0.153,0.067,0.331-0.001,0.399-0.154l0,0C150.636,178.985,150.567,178.809,150.417,178.739  L150.417,178.739z M153.265,172.07c-0.156-0.062-0.334,0.013-0.401,0.169c-0.06,0.153,0.015,0.325,0.167,0.385  c0.001,0,0.002,0.001,0.002,0.001c0.146,0.065,0.317-0.001,0.381-0.147c0.001-0.003,0.002-0.006,0.003-0.009  c0.068-0.148,0.003-0.326-0.145-0.395C153.272,172.074,153.268,172.072,153.265,172.07L153.265,172.07z M159.934,191.429  c-0.164-0.005-0.301,0.125-0.307,0.29c0,0.001,0,0.002,0,0.003c0.005,0.163,0.131,0.295,0.293,0.307  c0.164,0.001,0.301-0.128,0.307-0.294c0.009-0.159-0.112-0.296-0.271-0.306C159.949,191.429,159.942,191.429,159.934,191.429  L159.934,191.429z M160.014,184.182c-0.159-0.002-0.289,0.125-0.292,0.285c0,0.003,0,0.007,0,0.01  c-0.005,0.165,0.125,0.302,0.289,0.307c0.001,0,0.002,0,0.002,0c0.167-0.006,0.301-0.139,0.308-0.307  c-0.002-0.165-0.139-0.298-0.303-0.295C160.018,184.182,160.016,184.182,160.014,184.182L160.014,184.182z M160.11,176.922  c-0.167,0.006-0.301,0.139-0.308,0.307c-0.003,0.158,0.122,0.289,0.279,0.293c0.005,0,0.01,0,0.015,0  c0.159,0.009,0.296-0.112,0.306-0.272c0-0.007,0.001-0.014,0-0.022c0.005-0.165-0.125-0.302-0.289-0.307  C160.111,176.922,160.11,176.922,160.11,176.922L160.11,176.922z M160.19,169.673c-0.161,0-0.293,0.132-0.293,0.294v0.001  c-0.009,0.159,0.111,0.296,0.271,0.306c0.007,0,0.015,0,0.022,0c0.164,0.005,0.301-0.125,0.307-0.29c0-0.001,0-0.002,0-0.002  C160.491,169.815,160.356,169.68,160.19,169.673L160.19,169.673z M134.585,180.811c-0.106-0.119-0.288-0.13-0.409-0.023  c-0.002,0.002-0.006,0.005-0.008,0.008c-0.12,0.109-0.13,0.296-0.021,0.415c0.006,0.006,0.01,0.012,0.016,0.016  c0.114,0.117,0.301,0.119,0.419,0.006c0.117-0.114,0.119-0.302,0.006-0.419C134.586,180.814,134.586,180.813,134.585,180.811z   M139.769,175.739c-0.122-0.112-0.309-0.115-0.433-0.003c-0.116,0.123-0.111,0.317,0.012,0.433c0.116,0.11,0.299,0.112,0.418,0.003  C139.878,176.05,139.88,175.863,139.769,175.739L139.769,175.739z M144.951,170.68c-0.11-0.12-0.297-0.128-0.418-0.019  c-0.005,0.005-0.01,0.009-0.015,0.014c-0.112,0.117-0.112,0.301-0.002,0.419c0.118,0.116,0.309,0.115,0.425-0.003  C145.054,170.979,145.058,170.798,144.951,170.68z M161.917,175.564c-0.089-0.02-0.178,0.036-0.198,0.125  c-0.02,0.089,0.036,0.179,0.125,0.199c0.005,0.001,0.009,0.002,0.014,0.002c0.09,0.012,0.174-0.051,0.186-0.141  C162.057,175.664,162.002,175.583,161.917,175.564L161.917,175.564z M162.597,171.658c-0.087-0.015-0.17,0.042-0.185,0.128  c-0.001,0.005-0.001,0.008-0.002,0.013c-0.021,0.079,0.027,0.16,0.105,0.182c0.007,0.002,0.015,0.003,0.022,0.003  c0.085,0.017,0.168-0.038,0.184-0.124c0-0.001,0-0.003,0.001-0.005C162.736,171.768,162.682,171.684,162.597,171.658  L162.597,171.658z M169.155,169.377c-0.087,0.02-0.141,0.105-0.124,0.193c0.027,0.088,0.115,0.142,0.206,0.126  c0.087-0.02,0.141-0.105,0.124-0.193C169.333,169.416,169.246,169.363,169.155,169.377L169.155,169.377z M155.219,170.775  c-0.073-0.045-0.169-0.023-0.214,0.05c-0.001,0.001-0.002,0.003-0.002,0.005c-0.05,0.077-0.027,0.182,0.051,0.23c0,0,0,0,0.001,0  c0.074,0.045,0.171,0.021,0.216-0.053C155.32,170.927,155.297,170.825,155.219,170.775L155.219,170.775L155.219,170.775z   M157.331,181.768c-0.116-0.077-0.273-0.045-0.351,0.071c-0.003,0.006-0.008,0.013-0.012,0.019c-0.08,0.11-0.057,0.265,0.053,0.346  c0.007,0.006,0.015,0.01,0.022,0.015c0.124,0.082,0.292,0.05,0.374-0.074l0,0c0.081-0.12,0.049-0.285-0.072-0.366  C157.342,181.774,157.335,181.771,157.331,181.768L157.331,181.768z M160.822,176.21c-0.127-0.077-0.296-0.04-0.376,0.088  c-0.081,0.12-0.049,0.285,0.072,0.366c0.005,0.003,0.01,0.007,0.016,0.009c0.116,0.077,0.273,0.045,0.351-0.071  c0.003-0.006,0.008-0.013,0.012-0.019c0.084-0.118,0.057-0.282-0.062-0.366C160.831,176.215,160.827,176.212,160.822,176.21  L160.822,176.21z M164.299,170.663c-0.127-0.077-0.295-0.04-0.376,0.088c-0.08,0.124-0.045,0.29,0.079,0.371  c0.003,0.002,0.006,0.003,0.009,0.006c0.128,0.076,0.296,0.035,0.374-0.094C164.46,170.905,164.422,170.743,164.299,170.663  L164.299,170.663z M150.071,170.229c-0.092-0.117-0.261-0.137-0.379-0.045c-0.111,0.087-0.136,0.246-0.057,0.363  c0.081,0.123,0.248,0.156,0.372,0.074c0.003-0.002,0.007-0.005,0.012-0.008C150.134,170.52,150.158,170.35,150.071,170.229  L150.071,170.229z"/>
<linearGradient id="sweater-2_1_-i8" gradientUnits="userSpaceOnUse" x1="5458.1997" y1="-244.3466" x2="5219.5562" y2="-1652.3346" gradientTransform="matrix(0.0741 0 0 -0.0741 -267.5851 52.7163)">
	<stop offset="0" style="stop-color:#23286B"/>
	<stop offset="1" style="stop-color:#151A4F"/>
</linearGradient>
<path id="sweater-2-i8" fill="url(#sweater-2_1_-i8)" d="M82.461,57.94c14.181,1.87,27.817,6.681,40.035,14.126  c20.658,12.475,21.077,20.729,32.715,28.349c11.639,7.619,42.706,20.927,35.935,56.824c0,0-10.117,21.943-78.867,7.842  L68.424,67.919C68.424,67.918,77.564,67.933,82.461,57.94z"/>
<linearGradient id="R_hand-2_1_-i8" gradientUnits="userSpaceOnUse" x1="4882.1924" y1="-188.4399" x2="4478.7788" y2="-982.6614" gradientTransform="matrix(0.0694 0.0258 0.0258 -0.0694 -287.6849 45.5912)">
	<stop offset="0" style="stop-color:#FFBEB6"/>
	<stop offset="1" style="stop-color:#F2A19C"/>
</linearGradient>
<path id="R_hand-2-i8" fill="url(#R_hand-2_1_-i8)" d="M65.182,165.013c0,0-8.774,11.903-17.083,18.236  c-8.309,6.333-9.291,5.854-14.239,3.161c-4.543-2.587-8.837-5.588-12.828-8.964c-1.744-1.599-4.964-0.549-2.47,4.314  c2.494,4.863,10.499,5.303,8.545,8.935c-1.952,3.631-11.786,7.724-19.424,9.987s-11.717,3.735-1.914,10.664  c9.802,6.928,19.632,9.569,37.6-6.645s33.391-19.968,41.039-21.899L65.182,165.013z"/>
<path id="L_sleeve-i8" fill="#23286B" d="M68.638,68.367c0,0,14.635,25.555,18.374,44.178c3.739,18.623,3.278,25.423-7.809,37.413  c-8.654,9.359-16.927,17.357-16.927,17.357l26.998,47.833c0,0,17.307-7.626,21.91-22.878c5.178-17.154,12.711-19.917,20.227-24.766  c7.516-4.849,21.455-19.966,9.717-46.474c-11.738-26.508-27.115-44.923-61.425-65.865l0,0"/>
<linearGradient id="neck-2_1_-i8" gradientUnits="userSpaceOnUse" x1="4800.2891" y1="-461.6179" x2="4594.8643" y2="-90.0994" gradientTransform="matrix(0.0741 0 0 -0.0741 -267.5851 52.7163)">
	<stop offset="0" style="stop-color:#FFBEB6"/>
	<stop offset="1" style="stop-color:#F2A19C"/>
</linearGradient>
<path id="neck-2-i8" fill="url(#neck-2_1_-i8)" d="M60.716,55.164c3.348,4.322,6.149,9.043,8.345,14.052c0,0,8.163,1.408,12.63-11.711  l-12.962-12.8L60.716,55.164"/>
<path id="face-2-i8" fill="#FFBEB6" d="M39.839,26.49c-0.014,0.126-0.021,0.22-0.029,0.276c-0.008,0.017-0.01,0.037-0.009,0.055  c-0.055,0.506-0.093,1.02-0.117,1.555c-0.263,5.755-4.048,10.493-3.916,12.061c0.132,1.568,3.277,2.375,4.752,2.396  c1.475,0.021,3.834,7.176,10.13,10.918c5.908,3.511,14.252,2.338,19.542-1.176c1.196-12.37-1.157-17.971-13.379-22.498  C43.476,25.131,43.46,16.634,43.46,16.634C41.532,19.608,40.295,22.976,39.839,26.49z"/>
<path id="hair-2-i8" fill="#E94A47" d="M97.91,29.136c-3.37-5.642-5.317-13.029-6.22-15.749C90.455,9.67,81.612-1.323,67.454,0.131  S36.127,7.886,39.802,26.827c0.426-3.634,1.679-7.122,3.661-10.195c0,0,0.007,8.497,13.35,13.442  c1.388,0.509,2.75,1.089,4.079,1.738c6.691,6.682,10.492,15.127,4.212,24.913c-0.366,0.571,0.538,1.103,0.903,0.537  c5.85-9.116,3.348-17.179-2.231-23.805c6.886,4.586,7.551,10.938,6.008,22.688c0,0,21.717,2.807,39.601-11.125  c-1.108-4.281-3.643-8.055-7.185-10.697c-1.248-1.017-2.339-2.214-3.239-3.549c5.498,3.552,11.484,6.704,11.615,13.835  c0.008,0.29,0.249,0.52,0.54,0.511c0.276-0.008,0.499-0.228,0.51-0.504C111.475,36.347,103.857,33.297,97.91,29.136z"/>
<path id="eyeglasses-i8" fill="#3E8AF8" d="M37.285,36.068c0.051-0.03,0.094-0.073,0.142-0.107c0.094-0.15,0.19-0.301,0.285-0.45  c0.07-0.107,0.132-0.224,0.209-0.328c0.302-0.469,0.603-0.94,0.871-1.432c0.558-1.168,0.894-2.428,0.99-3.718  c0.001-0.012,0.007-0.02,0.009-0.031c-0.002-0.01-0.002-0.021-0.005-0.031c-0.016-0.094-0.008-0.191,0.023-0.281  c-0.008-0.086-0.009-0.172-0.02-0.258c1.491-0.584,3.078,0.267,4.318,1.08c-0.043,1.423,0.197,2.841,0.707,4.17  c0.615,1.756,1.826,3.242,3.421,4.196c1.371,0.816,3.079,0.814,4.447-0.006c0.3-0.181,0.578-0.391,0.832-0.629  c1.008-1.001,1.685-2.288,1.94-3.686c0.403-1.987,0.223-4.047-0.516-5.935c-1.548-3.98-5.077-5.861-7.869-4.191  c-1.483,0.989-2.488,2.554-2.774,4.316c-0.045,0.212-0.055,0.431-0.087,0.647c-1.302-1.011-2.999-1.362-4.595-0.949  c-0.096-0.415-0.221-0.825-0.375-1.222c-1.334-3.433-4.383-5.051-6.796-3.607l-0.001,0.001c-2.411,1.448-3.291,5.415-1.956,8.848  C31.823,35.894,34.872,37.512,37.285,36.068z M45.143,28.935c0.21-1.171,0.773-2.249,1.614-3.088  c0.205-0.193,0.429-0.362,0.67-0.507c2.353-1.408,5.367,0.277,6.718,3.757c0.66,1.673,0.822,3.503,0.469,5.267  c-0.228,1.464-1.057,2.767-2.284,3.596c-1.14,0.671-2.556,0.664-3.688-0.021c-1.414-0.853-2.486-2.176-3.03-3.736  C44.952,32.528,44.79,30.7,45.143,28.935z M31.285,31.984c-1.139-2.929-0.465-6.275,1.516-7.46c1.974-1.183,4.509,0.242,5.648,3.174  c1.139,2.93,0.463,6.273-1.516,7.46C34.956,36.339,32.424,34.916,31.285,31.984z"/>

            </g>
        </g>
    </g>
    
</svg>